<?xml version="1.0" encoding="UTF-8" standalone="no"?>
<!DOCTYPE svg PUBLIC "-//W3C//DTD SVG 1.1//EN"
 "http://www.w3.org/Graphics/SVG/1.1/DTD/svg11.dtd">
<!-- Generated by graphviz version 11.0.0 (0)
 -->
<!-- Title: snakemake_dag Pages: 1 -->
<svg width="825pt" height="560pt"
 viewBox="0.00 0.00 824.50 559.50" xmlns="http://www.w3.org/2000/svg" xmlns:xlink="http://www.w3.org/1999/xlink">
<g id="graph0" class="graph" transform="scale(1 1) rotate(0) translate(4 555.5)">
<title>snakemake_dag</title>
<polygon fill="white" stroke="none" points="-4,4 -4,-555.5 820.5,-555.5 820.5,4 -4,4"/>
<!-- 0 -->
<g id="node1" class="node">
<title>0</title>
<path fill="none" stroke="#d8cb56" stroke-width="2" d="M418,-36C418,-36 388,-36 388,-36 382,-36 376,-30 376,-24 376,-24 376,-12 376,-12 376,-6 382,0 388,0 388,0 418,0 418,0 424,0 430,-6 430,-12 430,-12 430,-24 430,-24 430,-30 424,-36 418,-36"/>
<text text-anchor="middle" x="403" y="-14.12" font-family="sans" font-size="10.00">all</text>
</g>
<!-- 1 -->
<g id="node2" class="node">
<title>1</title>
<path fill="none" stroke="#d85656" stroke-width="2" d="M423,-185.75C423,-185.75 383,-185.75 383,-185.75 377,-185.75 371,-179.75 371,-173.75 371,-173.75 371,-161.75 371,-161.75 371,-155.75 377,-149.75 383,-149.75 383,-149.75 423,-149.75 423,-149.75 429,-149.75 435,-155.75 435,-161.75 435,-161.75 435,-173.75 435,-173.75 435,-179.75 429,-185.75 423,-185.75"/>
<text text-anchor="middle" x="403" y="-163.88" font-family="sans" font-size="10.00">total_times</text>
</g>
<!-- 1&#45;&gt;0 -->
<g id="edge1" class="edge">
<title>1&#45;&gt;0</title>
<path fill="none" stroke="grey" stroke-width="2" d="M370.37,-164.9C308.22,-160.61 176.56,-147.66 149,-113.75 89.89,-41.04 276.36,-24.12 362.17,-20.19"/>
<polygon fill="grey" stroke="grey" stroke-width="2" points="362.15,-23.69 372,-19.78 361.87,-16.69 362.15,-23.69"/>
</g>
<!-- 17 -->
<g id="node18" class="node">
<title>17</title>
<path fill="none" stroke="#56d0d8" stroke-width="2" d="M297.5,-113.75C297.5,-113.75 170.5,-113.75 170.5,-113.75 164.5,-113.75 158.5,-107.75 158.5,-101.75 158.5,-101.75 158.5,-84 158.5,-84 158.5,-78 164.5,-72 170.5,-72 170.5,-72 297.5,-72 297.5,-72 303.5,-72 309.5,-78 309.5,-84 309.5,-84 309.5,-101.75 309.5,-101.75 309.5,-107.75 303.5,-113.75 297.5,-113.75"/>
<text text-anchor="middle" x="234" y="-100.25" font-family="sans" font-size="10.00">plot_permutations</text>
<text text-anchor="middle" x="234" y="-89" font-family="sans" font-size="10.00">benchmark: binary_phase_field</text>
<text text-anchor="middle" x="234" y="-77.75" font-family="sans" font-size="10.00">rev: c246c5c9f</text>
</g>
<!-- 1&#45;&gt;17 -->
<g id="edge25" class="edge">
<title>1&#45;&gt;17</title>
<path fill="none" stroke="grey" stroke-width="2" d="M370.01,-152.53C348.45,-143.23 319.66,-130.81 294.11,-119.8"/>
<polygon fill="grey" stroke="grey" stroke-width="2" points="295.61,-116.63 285.04,-115.89 292.84,-123.06 295.61,-116.63"/>
</g>
<!-- 18 -->
<g id="node19" class="node">
<title>18</title>
<path fill="none" stroke="#56d0d8" stroke-width="2" d="M466.5,-113.75C466.5,-113.75 339.5,-113.75 339.5,-113.75 333.5,-113.75 327.5,-107.75 327.5,-101.75 327.5,-101.75 327.5,-84 327.5,-84 327.5,-78 333.5,-72 339.5,-72 339.5,-72 466.5,-72 466.5,-72 472.5,-72 478.5,-78 478.5,-84 478.5,-84 478.5,-101.75 478.5,-101.75 478.5,-107.75 472.5,-113.75 466.5,-113.75"/>
<text text-anchor="middle" x="403" y="-100.25" font-family="sans" font-size="10.00">plot_permutations</text>
<text text-anchor="middle" x="403" y="-89" font-family="sans" font-size="10.00">benchmark: binary_phase_field</text>
<text text-anchor="middle" x="403" y="-77.75" font-family="sans" font-size="10.00">rev: 8c0aec6d3</text>
</g>
<!-- 1&#45;&gt;18 -->
<g id="edge26" class="edge">
<title>1&#45;&gt;18</title>
<path fill="none" stroke="grey" stroke-width="2" d="M403,-149.11C403,-142.63 403,-135.06 403,-127.65"/>
<polygon fill="grey" stroke="grey" stroke-width="2" points="406.5,-127.75 403,-117.75 399.5,-127.75 406.5,-127.75"/>
</g>
<!-- 19 -->
<g id="node20" class="node">
<title>19</title>
<path fill="none" stroke="#56d0d8" stroke-width="2" d="M635.5,-113.75C635.5,-113.75 508.5,-113.75 508.5,-113.75 502.5,-113.75 496.5,-107.75 496.5,-101.75 496.5,-101.75 496.5,-84 496.5,-84 496.5,-78 502.5,-72 508.5,-72 508.5,-72 635.5,-72 635.5,-72 641.5,-72 647.5,-78 647.5,-84 647.5,-84 647.5,-101.75 647.5,-101.75 647.5,-107.75 641.5,-113.75 635.5,-113.75"/>
<text text-anchor="middle" x="572" y="-100.25" font-family="sans" font-size="10.00">plot_permutations</text>
<text text-anchor="middle" x="572" y="-89" font-family="sans" font-size="10.00">benchmark: binary_phase_field</text>
<text text-anchor="middle" x="572" y="-77.75" font-family="sans" font-size="10.00">rev: 2e82a58e7</text>
</g>
<!-- 1&#45;&gt;19 -->
<g id="edge27" class="edge">
<title>1&#45;&gt;19</title>
<path fill="none" stroke="grey" stroke-width="2" d="M435.99,-152.53C457.55,-143.23 486.34,-130.81 511.89,-119.8"/>
<polygon fill="grey" stroke="grey" stroke-width="2" points="513.16,-123.06 520.96,-115.89 510.39,-116.63 513.16,-123.06"/>
</g>
<!-- 20 -->
<g id="node21" class="node">
<title>20</title>
<path fill="none" stroke="#56d0d8" stroke-width="2" d="M804.5,-113.75C804.5,-113.75 677.5,-113.75 677.5,-113.75 671.5,-113.75 665.5,-107.75 665.5,-101.75 665.5,-101.75 665.5,-84 665.5,-84 665.5,-78 671.5,-72 677.5,-72 677.5,-72 804.5,-72 804.5,-72 810.5,-72 816.5,-78 816.5,-84 816.5,-84 816.5,-101.75 816.5,-101.75 816.5,-107.75 810.5,-113.75 804.5,-113.75"/>
<text text-anchor="middle" x="741" y="-100.25" font-family="sans" font-size="10.00">plot_permutations</text>
<text text-anchor="middle" x="741" y="-89" font-family="sans" font-size="10.00">benchmark: binary_phase_field</text>
<text text-anchor="middle" x="741" y="-77.75" font-family="sans" font-size="10.00">rev: 2876d0a7b</text>
</g>
<!-- 1&#45;&gt;20 -->
<g id="edge28" class="edge">
<title>1&#45;&gt;20</title>
<path fill="none" stroke="grey" stroke-width="2" d="M435.94,-160.17C482.11,-150.88 569.01,-133.17 652.08,-114.82"/>
<polygon fill="grey" stroke="grey" stroke-width="2" points="652.6,-118.29 661.61,-112.71 651.09,-111.46 652.6,-118.29"/>
</g>
<!-- 2 -->
<g id="node3" class="node">
<title>2</title>
<path fill="none" stroke="#56a9d8" stroke-width="2" d="M445.12,-257.75C445.12,-257.75 360.88,-257.75 360.88,-257.75 354.88,-257.75 348.88,-251.75 348.88,-245.75 348.88,-245.75 348.88,-233.75 348.88,-233.75 348.88,-227.75 354.88,-221.75 360.88,-221.75 360.88,-221.75 445.12,-221.75 445.12,-221.75 451.12,-221.75 457.12,-227.75 457.12,-233.75 457.12,-233.75 457.12,-245.75 457.12,-245.75 457.12,-251.75 451.12,-257.75 445.12,-257.75"/>
<text text-anchor="middle" x="403" y="-235.88" font-family="sans" font-size="10.00">aggregate_all_results</text>
</g>
<!-- 2&#45;&gt;1 -->
<g id="edge6" class="edge">
<title>2&#45;&gt;1</title>
<path fill="none" stroke="grey" stroke-width="2" d="M403,-221.09C403,-214.5 403,-206.83 403,-199.42"/>
<polygon fill="grey" stroke="grey" stroke-width="2" points="406.5,-199.68 403,-189.68 399.5,-199.68 406.5,-199.68"/>
</g>
<!-- 3 -->
<g id="node4" class="node">
<title>3</title>
<path fill="none" stroke="#56d892" stroke-width="2" d="M208.12,-401.75C208.12,-401.75 93.88,-401.75 93.88,-401.75 87.88,-401.75 81.88,-395.75 81.88,-389.75 81.88,-389.75 81.88,-377.75 81.88,-377.75 81.88,-371.75 87.88,-365.75 93.88,-365.75 93.88,-365.75 208.12,-365.75 208.12,-365.75 214.12,-365.75 220.12,-371.75 220.12,-377.75 220.12,-377.75 220.12,-389.75 220.12,-389.75 220.12,-395.75 214.12,-401.75 208.12,-401.75"/>
<text text-anchor="middle" x="151" y="-379.88" font-family="sans" font-size="10.00">rev_and_suite_permutations</text>
</g>
<!-- 23 -->
<g id="node24" class="node">
<title>23</title>
<path fill="none" stroke="#56d8b9" stroke-width="2" d="M228.62,-329.75C228.62,-329.75 159.38,-329.75 159.38,-329.75 153.38,-329.75 147.38,-323.75 147.38,-317.75 147.38,-317.75 147.38,-305.75 147.38,-305.75 147.38,-299.75 153.38,-293.75 159.38,-293.75 159.38,-293.75 228.62,-293.75 228.62,-293.75 234.62,-293.75 240.62,-299.75 240.62,-305.75 240.62,-305.75 240.62,-317.75 240.62,-317.75 240.62,-323.75 234.62,-329.75 228.62,-329.75"/>
<text text-anchor="middle" x="194" y="-307.88" font-family="sans" font-size="10.00">aggregate_results</text>
</g>
<!-- 3&#45;&gt;23 -->
<g id="edge31" class="edge">
<title>3&#45;&gt;23</title>
<path fill="none" stroke="grey" stroke-width="2" d="M161.85,-365.09C166.25,-357.93 171.44,-349.48 176.35,-341.48"/>
<polygon fill="grey" stroke="grey" stroke-width="2" points="179.17,-343.58 181.42,-333.23 173.2,-339.92 179.17,-343.58"/>
</g>
<!-- 4 -->
<g id="node5" class="node">
<title>4</title>
<path fill="none" stroke="#68d856" stroke-width="2" stroke-dasharray="5,2" d="M163.62,-551.5C163.62,-551.5 70.38,-551.5 70.38,-551.5 64.38,-551.5 58.38,-545.5 58.38,-539.5 58.38,-539.5 58.38,-521.75 58.38,-521.75 58.38,-515.75 64.38,-509.75 70.38,-509.75 70.38,-509.75 163.62,-509.75 163.62,-509.75 169.62,-509.75 175.62,-515.75 175.62,-521.75 175.62,-521.75 175.62,-539.5 175.62,-539.5 175.62,-545.5 169.62,-551.5 163.62,-551.5"/>
<text text-anchor="middle" x="117" y="-538" font-family="sans" font-size="10.00">render_conda_template</text>
<text text-anchor="middle" x="117" y="-526.75" font-family="sans" font-size="10.00">rev: c246c5c9f</text>
<text text-anchor="middle" x="117" y="-515.5" font-family="sans" font-size="10.00">suite: petsc</text>
</g>
<!-- 21 -->
<g id="node22" class="node">
<title>21</title>
<path fill="none" stroke="#8fd856" stroke-width="2" d="M88,-473.75C88,-473.75 12,-473.75 12,-473.75 6,-473.75 0,-467.75 0,-461.75 0,-461.75 0,-449.75 0,-449.75 0,-443.75 6,-437.75 12,-437.75 12,-437.75 88,-437.75 88,-437.75 94,-437.75 100,-443.75 100,-449.75 100,-449.75 100,-461.75 100,-461.75 100,-467.75 94,-473.75 88,-473.75"/>
<text text-anchor="middle" x="50" y="-451.88" font-family="sans" font-size="10.00">list_preconditioners</text>
</g>
<!-- 4&#45;&gt;21 -->
<g id="edge29" class="edge">
<title>4&#45;&gt;21</title>
<path fill="none" stroke="grey" stroke-width="2" d="M97.98,-508.94C90.75,-501.07 82.41,-492 74.72,-483.64"/>
<polygon fill="grey" stroke="grey" stroke-width="2" points="77.51,-481.5 68.17,-476.51 72.36,-486.24 77.51,-481.5"/>
</g>
<!-- 22 -->
<g id="node23" class="node">
<title>22</title>
<path fill="none" stroke="#56d86b" stroke-width="2" d="M171.75,-473.75C171.75,-473.75 130.25,-473.75 130.25,-473.75 124.25,-473.75 118.25,-467.75 118.25,-461.75 118.25,-461.75 118.25,-449.75 118.25,-449.75 118.25,-443.75 124.25,-437.75 130.25,-437.75 130.25,-437.75 171.75,-437.75 171.75,-437.75 177.75,-437.75 183.75,-443.75 183.75,-449.75 183.75,-449.75 183.75,-461.75 183.75,-461.75 183.75,-467.75 177.75,-473.75 171.75,-473.75"/>
<text text-anchor="middle" x="151" y="-451.88" font-family="sans" font-size="10.00">list_solvers</text>
</g>
<!-- 4&#45;&gt;22 -->
<g id="edge30" class="edge">
<title>4&#45;&gt;22</title>
<path fill="none" stroke="grey" stroke-width="2" d="M126.65,-508.94C130,-501.76 133.82,-493.57 137.43,-485.84"/>
<polygon fill="grey" stroke="grey" stroke-width="2" points="140.48,-487.57 141.54,-477.02 134.14,-484.61 140.48,-487.57"/>
</g>
<!-- 5 -->
<g id="node6" class="node">
<title>5</title>
<path fill="none" stroke="#56d892" stroke-width="2" d="M383.12,-401.75C383.12,-401.75 268.88,-401.75 268.88,-401.75 262.88,-401.75 256.88,-395.75 256.88,-389.75 256.88,-389.75 256.88,-377.75 256.88,-377.75 256.88,-371.75 262.88,-365.75 268.88,-365.75 268.88,-365.75 383.12,-365.75 383.12,-365.75 389.12,-365.75 395.12,-371.75 395.12,-377.75 395.12,-377.75 395.12,-389.75 395.12,-389.75 395.12,-395.75 389.12,-401.75 383.12,-401.75"/>
<text text-anchor="middle" x="326" y="-379.88" font-family="sans" font-size="10.00">rev_and_suite_permutations</text>
</g>
<!-- 24 -->
<g id="node25" class="node">
<title>24</title>
<path fill="none" stroke="#56d8b9" stroke-width="2" d="M371.62,-329.75C371.62,-329.75 302.38,-329.75 302.38,-329.75 296.38,-329.75 290.38,-323.75 290.38,-317.75 290.38,-317.75 290.38,-305.75 290.38,-305.75 290.38,-299.75 296.38,-293.75 302.38,-293.75 302.38,-293.75 371.62,-293.75 371.62,-293.75 377.62,-293.75 383.62,-299.75 383.62,-305.75 383.62,-305.75 383.62,-317.75 383.62,-317.75 383.62,-323.75 377.62,-329.75 371.62,-329.75"/>
<text text-anchor="middle" x="337" y="-307.88" font-family="sans" font-size="10.00">aggregate_results</text>
</g>
<!-- 5&#45;&gt;24 -->
<g id="edge32" class="edge">
<title>5&#45;&gt;24</title>
<path fill="none" stroke="grey" stroke-width="2" d="M328.78,-365.09C329.81,-358.5 331.02,-350.83 332.18,-343.42"/>
<polygon fill="grey" stroke="grey" stroke-width="2" points="335.62,-344.06 333.72,-333.64 328.71,-342.98 335.62,-344.06"/>
</g>
<!-- 6 -->
<g id="node7" class="node">
<title>6</title>
<path fill="none" stroke="#8fd856" stroke-width="2" d="M290,-473.75C290,-473.75 214,-473.75 214,-473.75 208,-473.75 202,-467.75 202,-461.75 202,-461.75 202,-449.75 202,-449.75 202,-443.75 208,-437.75 214,-437.75 214,-437.75 290,-437.75 290,-437.75 296,-437.75 302,-443.75 302,-449.75 302,-449.75 302,-461.75 302,-461.75 302,-467.75 296,-473.75 290,-473.75"/>
<text text-anchor="middle" x="252" y="-451.88" font-family="sans" font-size="10.00">list_preconditioners</text>
</g>
<!-- 6&#45;&gt;5 -->
<g id="edge13" class="edge">
<title>6&#45;&gt;5</title>
<path fill="none" stroke="grey" stroke-width="2" d="M270.67,-437.09C278.85,-429.35 288.62,-420.11 297.66,-411.56"/>
<polygon fill="grey" stroke="grey" stroke-width="2" points="300.02,-414.15 304.88,-404.73 295.21,-409.06 300.02,-414.15"/>
</g>
<!-- 7 -->
<g id="node8" class="node">
<title>7</title>
<path fill="none" stroke="#68d856" stroke-width="2" d="M331.62,-551.5C331.62,-551.5 238.38,-551.5 238.38,-551.5 232.38,-551.5 226.38,-545.5 226.38,-539.5 226.38,-539.5 226.38,-521.75 226.38,-521.75 226.38,-515.75 232.38,-509.75 238.38,-509.75 238.38,-509.75 331.62,-509.75 331.62,-509.75 337.62,-509.75 343.62,-515.75 343.62,-521.75 343.62,-521.75 343.62,-539.5 343.62,-539.5 343.62,-545.5 337.62,-551.5 331.62,-551.5"/>
<text text-anchor="middle" x="285" y="-538" font-family="sans" font-size="10.00">render_conda_template</text>
<text text-anchor="middle" x="285" y="-526.75" font-family="sans" font-size="10.00">rev: 8c0aec6d3</text>
<text text-anchor="middle" x="285" y="-515.5" font-family="sans" font-size="10.00">suite: petsc</text>
</g>
<!-- 7&#45;&gt;6 -->
<g id="edge15" class="edge">
<title>7&#45;&gt;6</title>
<path fill="none" stroke="grey" stroke-width="2" d="M275.63,-508.94C272.42,-501.84 268.76,-493.76 265.3,-486.11"/>
<polygon fill="grey" stroke="grey" stroke-width="2" points="268.5,-484.7 261.19,-477.04 262.12,-487.59 268.5,-484.7"/>
</g>
<!-- 8 -->
<g id="node9" class="node">
<title>8</title>
<path fill="none" stroke="#56d86b" stroke-width="2" d="M373.75,-473.75C373.75,-473.75 332.25,-473.75 332.25,-473.75 326.25,-473.75 320.25,-467.75 320.25,-461.75 320.25,-461.75 320.25,-449.75 320.25,-449.75 320.25,-443.75 326.25,-437.75 332.25,-437.75 332.25,-437.75 373.75,-437.75 373.75,-437.75 379.75,-437.75 385.75,-443.75 385.75,-449.75 385.75,-449.75 385.75,-461.75 385.75,-461.75 385.75,-467.75 379.75,-473.75 373.75,-473.75"/>
<text text-anchor="middle" x="353" y="-451.88" font-family="sans" font-size="10.00">list_solvers</text>
</g>
<!-- 7&#45;&gt;8 -->
<g id="edge16" class="edge">
<title>7&#45;&gt;8</title>
<path fill="none" stroke="grey" stroke-width="2" d="M304.3,-508.94C311.64,-501.07 320.11,-492 327.91,-483.64"/>
<polygon fill="grey" stroke="grey" stroke-width="2" points="330.31,-486.19 334.58,-476.49 325.2,-481.42 330.31,-486.19"/>
</g>
<!-- 8&#45;&gt;5 -->
<g id="edge14" class="edge">
<title>8&#45;&gt;5</title>
<path fill="none" stroke="grey" stroke-width="2" d="M346.19,-437.09C343.55,-430.26 340.46,-422.25 337.51,-414.58"/>
<polygon fill="grey" stroke="grey" stroke-width="2" points="340.86,-413.55 333.99,-405.48 334.33,-416.07 340.86,-413.55"/>
</g>
<!-- 9 -->
<g id="node10" class="node">
<title>9</title>
<path fill="none" stroke="#56d892" stroke-width="2" d="M539.12,-401.75C539.12,-401.75 424.88,-401.75 424.88,-401.75 418.88,-401.75 412.88,-395.75 412.88,-389.75 412.88,-389.75 412.88,-377.75 412.88,-377.75 412.88,-371.75 418.88,-365.75 424.88,-365.75 424.88,-365.75 539.12,-365.75 539.12,-365.75 545.12,-365.75 551.12,-371.75 551.12,-377.75 551.12,-377.75 551.12,-389.75 551.12,-389.75 551.12,-395.75 545.12,-401.75 539.12,-401.75"/>
<text text-anchor="middle" x="482" y="-379.88" font-family="sans" font-size="10.00">rev_and_suite_permutations</text>
</g>
<!-- 25 -->
<g id="node26" class="node">
<title>25</title>
<path fill="none" stroke="#56d8b9" stroke-width="2" d="M504.62,-329.75C504.62,-329.75 435.38,-329.75 435.38,-329.75 429.38,-329.75 423.38,-323.75 423.38,-317.75 423.38,-317.75 423.38,-305.75 423.38,-305.75 423.38,-299.75 429.38,-293.75 435.38,-293.75 435.38,-293.75 504.62,-293.75 504.62,-293.75 510.62,-293.75 516.62,-299.75 516.62,-305.75 516.62,-305.75 516.62,-317.75 516.62,-317.75 516.62,-323.75 510.62,-329.75 504.62,-329.75"/>
<text text-anchor="middle" x="470" y="-307.88" font-family="sans" font-size="10.00">aggregate_results</text>
</g>
<!-- 9&#45;&gt;25 -->
<g id="edge33" class="edge">
<title>9&#45;&gt;25</title>
<path fill="none" stroke="grey" stroke-width="2" d="M478.97,-365.09C477.84,-358.5 476.53,-350.83 475.26,-343.42"/>
<polygon fill="grey" stroke="grey" stroke-width="2" points="478.72,-342.9 473.58,-333.64 471.82,-344.08 478.72,-342.9"/>
</g>
<!-- 10 -->
<g id="node11" class="node">
<title>10</title>
<path fill="none" stroke="#8fd856" stroke-width="2" d="M492,-473.75C492,-473.75 416,-473.75 416,-473.75 410,-473.75 404,-467.75 404,-461.75 404,-461.75 404,-449.75 404,-449.75 404,-443.75 410,-437.75 416,-437.75 416,-437.75 492,-437.75 492,-437.75 498,-437.75 504,-443.75 504,-449.75 504,-449.75 504,-461.75 504,-461.75 504,-467.75 498,-473.75 492,-473.75"/>
<text text-anchor="middle" x="454" y="-451.88" font-family="sans" font-size="10.00">list_preconditioners</text>
</g>
<!-- 10&#45;&gt;9 -->
<g id="edge17" class="edge">
<title>10&#45;&gt;9</title>
<path fill="none" stroke="grey" stroke-width="2" d="M461.07,-437.09C463.8,-430.26 467,-422.25 470.07,-414.58"/>
<polygon fill="grey" stroke="grey" stroke-width="2" points="473.25,-416.05 473.72,-405.46 466.75,-413.45 473.25,-416.05"/>
</g>
<!-- 11 -->
<g id="node12" class="node">
<title>11</title>
<path fill="none" stroke="#68d856" stroke-width="2" d="M533.62,-551.5C533.62,-551.5 440.38,-551.5 440.38,-551.5 434.38,-551.5 428.38,-545.5 428.38,-539.5 428.38,-539.5 428.38,-521.75 428.38,-521.75 428.38,-515.75 434.38,-509.75 440.38,-509.75 440.38,-509.75 533.62,-509.75 533.62,-509.75 539.62,-509.75 545.62,-515.75 545.62,-521.75 545.62,-521.75 545.62,-539.5 545.62,-539.5 545.62,-545.5 539.62,-551.5 533.62,-551.5"/>
<text text-anchor="middle" x="487" y="-538" font-family="sans" font-size="10.00">render_conda_template</text>
<text text-anchor="middle" x="487" y="-526.75" font-family="sans" font-size="10.00">rev: 2e82a58e7</text>
<text text-anchor="middle" x="487" y="-515.5" font-family="sans" font-size="10.00">suite: petsc</text>
</g>
<!-- 11&#45;&gt;10 -->
<g id="edge19" class="edge">
<title>11&#45;&gt;10</title>
<path fill="none" stroke="grey" stroke-width="2" d="M477.63,-508.94C474.42,-501.84 470.76,-493.76 467.3,-486.11"/>
<polygon fill="grey" stroke="grey" stroke-width="2" points="470.5,-484.7 463.19,-477.04 464.12,-487.59 470.5,-484.7"/>
</g>
<!-- 12 -->
<g id="node13" class="node">
<title>12</title>
<path fill="none" stroke="#56d86b" stroke-width="2" d="M575.75,-473.75C575.75,-473.75 534.25,-473.75 534.25,-473.75 528.25,-473.75 522.25,-467.75 522.25,-461.75 522.25,-461.75 522.25,-449.75 522.25,-449.75 522.25,-443.75 528.25,-437.75 534.25,-437.75 534.25,-437.75 575.75,-437.75 575.75,-437.75 581.75,-437.75 587.75,-443.75 587.75,-449.75 587.75,-449.75 587.75,-461.75 587.75,-461.75 587.75,-467.75 581.75,-473.75 575.75,-473.75"/>
<text text-anchor="middle" x="555" y="-451.88" font-family="sans" font-size="10.00">list_solvers</text>
</g>
<!-- 11&#45;&gt;12 -->
<g id="edge20" class="edge">
<title>11&#45;&gt;12</title>
<path fill="none" stroke="grey" stroke-width="2" d="M506.3,-508.94C513.64,-501.07 522.11,-492 529.91,-483.64"/>
<polygon fill="grey" stroke="grey" stroke-width="2" points="532.31,-486.19 536.58,-476.49 527.2,-481.42 532.31,-486.19"/>
</g>
<!-- 12&#45;&gt;9 -->
<g id="edge18" class="edge">
<title>12&#45;&gt;9</title>
<path fill="none" stroke="grey" stroke-width="2" d="M536.58,-437.09C528.51,-429.35 518.87,-420.11 509.96,-411.56"/>
<polygon fill="grey" stroke="grey" stroke-width="2" points="512.49,-409.14 502.85,-404.75 507.65,-414.19 512.49,-409.14"/>
</g>
<!-- 13 -->
<g id="node14" class="node">
<title>13</title>
<path fill="none" stroke="#56d892" stroke-width="2" d="M713.12,-401.75C713.12,-401.75 598.88,-401.75 598.88,-401.75 592.88,-401.75 586.88,-395.75 586.88,-389.75 586.88,-389.75 586.88,-377.75 586.88,-377.75 586.88,-371.75 592.88,-365.75 598.88,-365.75 598.88,-365.75 713.12,-365.75 713.12,-365.75 719.12,-365.75 725.12,-371.75 725.12,-377.75 725.12,-377.75 725.12,-389.75 725.12,-389.75 725.12,-395.75 719.12,-401.75 713.12,-401.75"/>
<text text-anchor="middle" x="656" y="-379.88" font-family="sans" font-size="10.00">rev_and_suite_permutations</text>
</g>
<!-- 26 -->
<g id="node27" class="node">
<title>26</title>
<path fill="none" stroke="#56d8b9" stroke-width="2" d="M658.62,-329.75C658.62,-329.75 589.38,-329.75 589.38,-329.75 583.38,-329.75 577.38,-323.75 577.38,-317.75 577.38,-317.75 577.38,-305.75 577.38,-305.75 577.38,-299.75 583.38,-293.75 589.38,-293.75 589.38,-293.75 658.62,-293.75 658.62,-293.75 664.62,-293.75 670.62,-299.75 670.62,-305.75 670.62,-305.75 670.62,-317.75 670.62,-317.75 670.62,-323.75 664.62,-329.75 658.62,-329.75"/>
<text text-anchor="middle" x="624" y="-307.88" font-family="sans" font-size="10.00">aggregate_results</text>
</g>
<!-- 13&#45;&gt;26 -->
<g id="edge34" class="edge">
<title>13&#45;&gt;26</title>
<path fill="none" stroke="grey" stroke-width="2" d="M647.93,-365.09C644.77,-358.18 641.06,-350.06 637.51,-342.31"/>
<polygon fill="grey" stroke="grey" stroke-width="2" points="640.78,-341.04 633.44,-333.4 634.42,-343.95 640.78,-341.04"/>
</g>
<!-- 14 -->
<g id="node15" class="node">
<title>14</title>
<path fill="none" stroke="#8fd856" stroke-width="2" d="M694,-473.75C694,-473.75 618,-473.75 618,-473.75 612,-473.75 606,-467.75 606,-461.75 606,-461.75 606,-449.75 606,-449.75 606,-443.75 612,-437.75 618,-437.75 618,-437.75 694,-437.75 694,-437.75 700,-437.75 706,-443.75 706,-449.75 706,-449.75 706,-461.75 706,-461.75 706,-467.75 700,-473.75 694,-473.75"/>
<text text-anchor="middle" x="656" y="-451.88" font-family="sans" font-size="10.00">list_preconditioners</text>
</g>
<!-- 14&#45;&gt;13 -->
<g id="edge21" class="edge">
<title>14&#45;&gt;13</title>
<path fill="none" stroke="grey" stroke-width="2" d="M656,-437.09C656,-430.5 656,-422.83 656,-415.42"/>
<polygon fill="grey" stroke="grey" stroke-width="2" points="659.5,-415.68 656,-405.68 652.5,-415.68 659.5,-415.68"/>
</g>
<!-- 15 -->
<g id="node16" class="node">
<title>15</title>
<path fill="none" stroke="#68d856" stroke-width="2" d="M752.62,-551.5C752.62,-551.5 659.38,-551.5 659.38,-551.5 653.38,-551.5 647.38,-545.5 647.38,-539.5 647.38,-539.5 647.38,-521.75 647.38,-521.75 647.38,-515.75 653.38,-509.75 659.38,-509.75 659.38,-509.75 752.62,-509.75 752.62,-509.75 758.62,-509.75 764.62,-515.75 764.62,-521.75 764.62,-521.75 764.62,-539.5 764.62,-539.5 764.62,-545.5 758.62,-551.5 752.62,-551.5"/>
<text text-anchor="middle" x="706" y="-538" font-family="sans" font-size="10.00">render_conda_template</text>
<text text-anchor="middle" x="706" y="-526.75" font-family="sans" font-size="10.00">rev: 2876d0a7b</text>
<text text-anchor="middle" x="706" y="-515.5" font-family="sans" font-size="10.00">suite: petsc</text>
</g>
<!-- 15&#45;&gt;14 -->
<g id="edge23" class="edge">
<title>15&#45;&gt;14</title>
<path fill="none" stroke="grey" stroke-width="2" d="M691.81,-508.94C686.7,-501.5 680.86,-492.98 675.39,-485.01"/>
<polygon fill="grey" stroke="grey" stroke-width="2" points="678.28,-483.04 669.74,-476.78 672.51,-487 678.28,-483.04"/>
</g>
<!-- 16 -->
<g id="node17" class="node">
<title>16</title>
<path fill="none" stroke="#56d86b" stroke-width="2" d="M777.75,-473.75C777.75,-473.75 736.25,-473.75 736.25,-473.75 730.25,-473.75 724.25,-467.75 724.25,-461.75 724.25,-461.75 724.25,-449.75 724.25,-449.75 724.25,-443.75 730.25,-437.75 736.25,-437.75 736.25,-437.75 777.75,-437.75 777.75,-437.75 783.75,-437.75 789.75,-443.75 789.75,-449.75 789.75,-449.75 789.75,-461.75 789.75,-461.75 789.75,-467.75 783.75,-473.75 777.75,-473.75"/>
<text text-anchor="middle" x="757" y="-451.88" font-family="sans" font-size="10.00">list_solvers</text>
</g>
<!-- 15&#45;&gt;16 -->
<g id="edge24" class="edge">
<title>15&#45;&gt;16</title>
<path fill="none" stroke="grey" stroke-width="2" d="M720.48,-508.94C725.74,-501.42 731.78,-492.78 737.41,-484.74"/>
<polygon fill="grey" stroke="grey" stroke-width="2" points="740.13,-486.96 743,-476.76 734.39,-482.95 740.13,-486.96"/>
</g>
<!-- 16&#45;&gt;13 -->
<g id="edge22" class="edge">
<title>16&#45;&gt;13</title>
<path fill="none" stroke="grey" stroke-width="2" d="M731.25,-436.9C719.38,-428.68 705.08,-418.77 692.16,-409.81"/>
<polygon fill="grey" stroke="grey" stroke-width="2" points="694.4,-407.11 684.19,-404.29 690.41,-412.86 694.4,-407.11"/>
</g>
<!-- 17&#45;&gt;0 -->
<g id="edge2" class="edge">
<title>17&#45;&gt;0</title>
<path fill="none" stroke="grey" stroke-width="2" d="M281.98,-71.19C307.86,-60.03 339.39,-46.43 363.79,-35.91"/>
<polygon fill="grey" stroke="grey" stroke-width="2" points="364.9,-39.24 372.7,-32.07 362.13,-32.81 364.9,-39.24"/>
</g>
<!-- 18&#45;&gt;0 -->
<g id="edge3" class="edge">
<title>18&#45;&gt;0</title>
<path fill="none" stroke="grey" stroke-width="2" d="M403,-71.19C403,-64.43 403,-56.79 403,-49.47"/>
<polygon fill="grey" stroke="grey" stroke-width="2" points="406.5,-49.56 403,-39.56 399.5,-49.56 406.5,-49.56"/>
</g>
<!-- 19&#45;&gt;0 -->
<g id="edge4" class="edge">
<title>19&#45;&gt;0</title>
<path fill="none" stroke="grey" stroke-width="2" d="M524.02,-71.19C498.14,-60.03 466.61,-46.43 442.21,-35.91"/>
<polygon fill="grey" stroke="grey" stroke-width="2" points="443.87,-32.81 433.3,-32.07 441.1,-39.24 443.87,-32.81"/>
</g>
<!-- 20&#45;&gt;0 -->
<g id="edge5" class="edge">
<title>20&#45;&gt;0</title>
<path fill="none" stroke="grey" stroke-width="2" d="M664.56,-73.7C662.01,-73.12 659.49,-72.55 657,-72 581.72,-55.24 493.53,-37.2 443.37,-27.08"/>
<polygon fill="grey" stroke="grey" stroke-width="2" points="444.33,-23.7 433.83,-25.16 442.95,-30.56 444.33,-23.7"/>
</g>
<!-- 21&#45;&gt;3 -->
<g id="edge11" class="edge">
<title>21&#45;&gt;3</title>
<path fill="none" stroke="grey" stroke-width="2" d="M75.75,-436.9C87.62,-428.68 101.92,-418.77 114.84,-409.81"/>
<polygon fill="grey" stroke="grey" stroke-width="2" points="116.59,-412.86 122.81,-404.29 112.6,-407.11 116.59,-412.86"/>
</g>
<!-- 22&#45;&gt;3 -->
<g id="edge12" class="edge">
<title>22&#45;&gt;3</title>
<path fill="none" stroke="grey" stroke-width="2" d="M151,-437.09C151,-430.5 151,-422.83 151,-415.42"/>
<polygon fill="grey" stroke="grey" stroke-width="2" points="154.5,-415.68 151,-405.68 147.5,-415.68 154.5,-415.68"/>
</g>
<!-- 23&#45;&gt;2 -->
<g id="edge7" class="edge">
<title>23&#45;&gt;2</title>
<path fill="none" stroke="grey" stroke-width="2" d="M241.43,-294.87C269.81,-285.36 306.31,-273.13 337.43,-262.71"/>
<polygon fill="grey" stroke="grey" stroke-width="2" points="338.26,-266.12 346.64,-259.63 336.04,-259.49 338.26,-266.12"/>
</g>
<!-- 24&#45;&gt;2 -->
<g id="edge8" class="edge">
<title>24&#45;&gt;2</title>
<path fill="none" stroke="grey" stroke-width="2" d="M353.65,-293.09C360.79,-285.52 369.29,-276.5 377.21,-268.1"/>
<polygon fill="grey" stroke="grey" stroke-width="2" points="379.73,-270.53 384.04,-260.85 374.64,-265.73 379.73,-270.53"/>
</g>
<!-- 25&#45;&gt;2 -->
<g id="edge9" class="edge">
<title>25&#45;&gt;2</title>
<path fill="none" stroke="grey" stroke-width="2" d="M453.09,-293.09C445.77,-285.44 437.03,-276.31 428.92,-267.83"/>
<polygon fill="grey" stroke="grey" stroke-width="2" points="431.67,-265.64 422.23,-260.84 426.61,-270.48 431.67,-265.64"/>
</g>
<!-- 26&#45;&gt;2 -->
<g id="edge10" class="edge">
<title>26&#45;&gt;2</title>
<path fill="none" stroke="grey" stroke-width="2" d="M576.59,-295.73C545.53,-285.89 504.46,-272.89 470.07,-261.99"/>
<polygon fill="grey" stroke="grey" stroke-width="2" points="471.21,-258.68 460.62,-259 469.09,-265.36 471.21,-258.68"/>
</g>
</g>
</svg>
