<?xml version="1.0" encoding="UTF-8" standalone="no"?>
<!DOCTYPE svg PUBLIC "-//W3C//DTD SVG 1.1//EN"
 "http://www.w3.org/Graphics/SVG/1.1/DTD/svg11.dtd">
<!-- Generated by graphviz version 11.0.0 (0)
 -->
<!-- Title: snakemake_dag Pages: 1 -->
<svg width="566pt" height="853pt"
 viewBox="0.00 0.00 566.48 853.25" xmlns="http://www.w3.org/2000/svg" xmlns:xlink="http://www.w3.org/1999/xlink">
<g id="graph0" class="graph" transform="scale(1 1) rotate(0) translate(4 849.25)">
<title>snakemake_dag</title>
<polygon fill="white" stroke="none" points="-4,4 -4,-849.25 562.48,-849.25 562.48,4 -4,4"/>
<!-- 0 -->
<g id="node1" class="node">
<title>0</title>
<path fill="none" stroke="#afd856" stroke-width="2" stroke-dasharray="5,2" d="M44.5,-473.75C44.5,-473.75 12,-473.75 12,-473.75 6,-473.75 0,-467.75 0,-461.75 0,-461.75 0,-449.75 0,-449.75 0,-443.75 6,-437.75 12,-437.75 12,-437.75 44.5,-437.75 44.5,-437.75 50.5,-437.75 56.5,-443.75 56.5,-449.75 56.5,-449.75 56.5,-461.75 56.5,-461.75 56.5,-467.75 50.5,-473.75 44.5,-473.75"/>
<text text-anchor="middle" x="28.25" y="-451.88" font-family="sans" font-size="10.00">bootstrap</text>
</g>
<!-- 1 -->
<g id="node2" class="node">
<title>1</title>
<path fill="none" stroke="#56d8a9" stroke-width="2" stroke-dasharray="5,2" d="M237.88,-551.5C237.88,-551.5 144.62,-551.5 144.62,-551.5 138.62,-551.5 132.62,-545.5 132.62,-539.5 132.62,-539.5 132.62,-521.75 132.62,-521.75 132.62,-515.75 138.62,-509.75 144.62,-509.75 144.62,-509.75 237.88,-509.75 237.88,-509.75 243.88,-509.75 249.88,-515.75 249.88,-521.75 249.88,-521.75 249.88,-539.5 249.88,-539.5 249.88,-545.5 243.88,-551.5 237.88,-551.5"/>
<text text-anchor="middle" x="191.25" y="-538" font-family="sans" font-size="10.00">render_conda_template</text>
<text text-anchor="middle" x="191.25" y="-526.75" font-family="sans" font-size="10.00">rev: c246c5c9f</text>
<text text-anchor="middle" x="191.25" y="-515.5" font-family="sans" font-size="10.00">suite: petsc</text>
</g>
<!-- 1&#45;&gt;0 -->
<g id="edge1" class="edge">
<title>1&#45;&gt;0</title>
<path fill="none" stroke="grey" stroke-width="2" d="M143.92,-508.81C123.03,-499.59 97.94,-488.46 69.03,-475.43"/>
<polygon fill="grey" stroke="grey" stroke-width="2" points="70.63,-472.32 60.08,-471.39 67.75,-478.7 70.63,-472.32"/>
</g>
<!-- 13 -->
<g id="node14" class="node">
<title>13</title>
<path fill="none" stroke="#56d8d0" stroke-width="2" stroke-dasharray="5,2" d="M212.38,-473.75C212.38,-473.75 170.12,-473.75 170.12,-473.75 164.12,-473.75 158.12,-467.75 158.12,-461.75 158.12,-461.75 158.12,-449.75 158.12,-449.75 158.12,-443.75 164.12,-437.75 170.12,-437.75 170.12,-437.75 212.38,-437.75 212.38,-437.75 218.38,-437.75 224.38,-443.75 224.38,-449.75 224.38,-449.75 224.38,-461.75 224.38,-461.75 224.38,-467.75 218.38,-473.75 212.38,-473.75"/>
<text text-anchor="middle" x="191.25" y="-457.5" font-family="sans" font-size="10.00">solve</text>
<text text-anchor="middle" x="191.25" y="-446.25" font-family="sans" font-size="10.00">id: 0000000</text>
</g>
<!-- 1&#45;&gt;13 -->
<g id="edge18" class="edge">
<title>1&#45;&gt;13</title>
<path fill="none" stroke="grey" stroke-width="2" d="M191.25,-508.94C191.25,-502.18 191.25,-494.54 191.25,-487.22"/>
<polygon fill="grey" stroke="grey" stroke-width="2" points="194.75,-487.31 191.25,-477.31 187.75,-487.31 194.75,-487.31"/>
</g>
<!-- 15 -->
<g id="node16" class="node">
<title>15</title>
<path fill="none" stroke="#56d8d0" stroke-width="2" stroke-dasharray="5,2" d="M128.38,-473.75C128.38,-473.75 86.12,-473.75 86.12,-473.75 80.12,-473.75 74.12,-467.75 74.12,-461.75 74.12,-461.75 74.12,-449.75 74.12,-449.75 74.12,-443.75 80.12,-437.75 86.12,-437.75 86.12,-437.75 128.38,-437.75 128.38,-437.75 134.38,-437.75 140.38,-443.75 140.38,-449.75 140.38,-449.75 140.38,-461.75 140.38,-461.75 140.38,-467.75 134.38,-473.75 128.38,-473.75"/>
<text text-anchor="middle" x="107.25" y="-457.5" font-family="sans" font-size="10.00">solve</text>
<text text-anchor="middle" x="107.25" y="-446.25" font-family="sans" font-size="10.00">id: 0000001</text>
</g>
<!-- 1&#45;&gt;15 -->
<g id="edge22" class="edge">
<title>1&#45;&gt;15</title>
<path fill="none" stroke="grey" stroke-width="2" d="M167.4,-508.94C158.12,-500.88 147.36,-491.55 137.54,-483.03"/>
<polygon fill="grey" stroke="grey" stroke-width="2" points="139.87,-480.42 130.02,-476.51 135.28,-485.7 139.87,-480.42"/>
</g>
<!-- 17 -->
<g id="node18" class="node">
<title>17</title>
<path fill="none" stroke="#56d8d0" stroke-width="2" stroke-dasharray="5,2" d="M456.38,-473.75C456.38,-473.75 414.12,-473.75 414.12,-473.75 408.12,-473.75 402.12,-467.75 402.12,-461.75 402.12,-461.75 402.12,-449.75 402.12,-449.75 402.12,-443.75 408.12,-437.75 414.12,-437.75 414.12,-437.75 456.38,-437.75 456.38,-437.75 462.38,-437.75 468.38,-443.75 468.38,-449.75 468.38,-449.75 468.38,-461.75 468.38,-461.75 468.38,-467.75 462.38,-473.75 456.38,-473.75"/>
<text text-anchor="middle" x="435.25" y="-457.5" font-family="sans" font-size="10.00">solve</text>
<text text-anchor="middle" x="435.25" y="-446.25" font-family="sans" font-size="10.00">id: 0000002</text>
</g>
<!-- 1&#45;&gt;17 -->
<g id="edge26" class="edge">
<title>1&#45;&gt;17</title>
<path fill="none" stroke="grey" stroke-width="2" d="M250.63,-511.89C293.18,-499.18 349.67,-482.31 388.91,-470.59"/>
<polygon fill="grey" stroke="grey" stroke-width="2" points="389.77,-473.98 398.35,-467.77 387.77,-467.28 389.77,-473.98"/>
</g>
<!-- 19 -->
<g id="node20" class="node">
<title>19</title>
<path fill="none" stroke="#56d8d0" stroke-width="2" stroke-dasharray="5,2" d="M334.38,-473.75C334.38,-473.75 292.12,-473.75 292.12,-473.75 286.12,-473.75 280.12,-467.75 280.12,-461.75 280.12,-461.75 280.12,-449.75 280.12,-449.75 280.12,-443.75 286.12,-437.75 292.12,-437.75 292.12,-437.75 334.38,-437.75 334.38,-437.75 340.38,-437.75 346.38,-443.75 346.38,-449.75 346.38,-449.75 346.38,-461.75 346.38,-461.75 346.38,-467.75 340.38,-473.75 334.38,-473.75"/>
<text text-anchor="middle" x="313.25" y="-457.5" font-family="sans" font-size="10.00">solve</text>
<text text-anchor="middle" x="313.25" y="-446.25" font-family="sans" font-size="10.00">id: 0000003</text>
</g>
<!-- 1&#45;&gt;19 -->
<g id="edge30" class="edge">
<title>1&#45;&gt;19</title>
<path fill="none" stroke="grey" stroke-width="2" d="M225.88,-508.94C240.37,-500.29 257.31,-490.17 272.39,-481.16"/>
<polygon fill="grey" stroke="grey" stroke-width="2" points="274.11,-484.21 280.9,-476.07 270.52,-478.2 274.11,-484.21"/>
</g>
<!-- 2 -->
<g id="node3" class="node">
<title>2</title>
<path fill="none" stroke="#d89c56" stroke-width="2" stroke-dasharray="5,2" d="M428.25,-36C428.25,-36 398.25,-36 398.25,-36 392.25,-36 386.25,-30 386.25,-24 386.25,-24 386.25,-12 386.25,-12 386.25,-6 392.25,0 398.25,0 398.25,0 428.25,0 428.25,0 434.25,0 440.25,-6 440.25,-12 440.25,-12 440.25,-24 440.25,-24 440.25,-30 434.25,-36 428.25,-36"/>
<text text-anchor="middle" x="413.25" y="-14.12" font-family="sans" font-size="10.00">all</text>
</g>
<!-- 3 -->
<g id="node4" class="node">
<title>3</title>
<path fill="none" stroke="#567bd8" stroke-width="2" stroke-dasharray="5,2" d="M433.25,-185.75C433.25,-185.75 393.25,-185.75 393.25,-185.75 387.25,-185.75 381.25,-179.75 381.25,-173.75 381.25,-173.75 381.25,-161.75 381.25,-161.75 381.25,-155.75 387.25,-149.75 393.25,-149.75 393.25,-149.75 433.25,-149.75 433.25,-149.75 439.25,-149.75 445.25,-155.75 445.25,-161.75 445.25,-161.75 445.25,-173.75 445.25,-173.75 445.25,-179.75 439.25,-185.75 433.25,-185.75"/>
<text text-anchor="middle" x="413.25" y="-163.88" font-family="sans" font-size="10.00">total_times</text>
</g>
<!-- 3&#45;&gt;2 -->
<g id="edge2" class="edge">
<title>3&#45;&gt;2</title>
<path fill="none" stroke="grey" stroke-width="2" d="M399.02,-148.77C392.2,-139.01 384.77,-126.38 381.25,-113.75 376.27,-95.87 376.27,-89.88 381.25,-72 383.59,-63.61 387.65,-55.22 392.11,-47.68"/>
<polygon fill="grey" stroke="grey" stroke-width="2" points="394.89,-49.82 397.38,-39.52 389.01,-46.02 394.89,-49.82"/>
</g>
<!-- 20 -->
<g id="node21" class="node">
<title>20</title>
<path fill="none" stroke="#56d88a" stroke-width="2" stroke-dasharray="5,2" d="M528.75,-113.75C528.75,-113.75 401.75,-113.75 401.75,-113.75 395.75,-113.75 389.75,-107.75 389.75,-101.75 389.75,-101.75 389.75,-84 389.75,-84 389.75,-78 395.75,-72 401.75,-72 401.75,-72 528.75,-72 528.75,-72 534.75,-72 540.75,-78 540.75,-84 540.75,-84 540.75,-101.75 540.75,-101.75 540.75,-107.75 534.75,-113.75 528.75,-113.75"/>
<text text-anchor="middle" x="465.25" y="-100.25" font-family="sans" font-size="10.00">plot_permutations</text>
<text text-anchor="middle" x="465.25" y="-89" font-family="sans" font-size="10.00">benchmark: binary_phase_field</text>
<text text-anchor="middle" x="465.25" y="-77.75" font-family="sans" font-size="10.00">rev: c246c5c9f</text>
</g>
<!-- 3&#45;&gt;20 -->
<g id="edge32" class="edge">
<title>3&#45;&gt;20</title>
<path fill="none" stroke="grey" stroke-width="2" d="M425.84,-149.11C430.98,-141.9 437.08,-133.35 442.93,-125.15"/>
<polygon fill="grey" stroke="grey" stroke-width="2" points="445.66,-127.36 448.62,-117.18 439.96,-123.29 445.66,-127.36"/>
</g>
<!-- 4 -->
<g id="node5" class="node">
<title>4</title>
<path fill="none" stroke="#d85656" stroke-width="2" stroke-dasharray="5,2" d="M455.38,-257.75C455.38,-257.75 371.12,-257.75 371.12,-257.75 365.12,-257.75 359.12,-251.75 359.12,-245.75 359.12,-245.75 359.12,-233.75 359.12,-233.75 359.12,-227.75 365.12,-221.75 371.12,-221.75 371.12,-221.75 455.38,-221.75 455.38,-221.75 461.38,-221.75 467.38,-227.75 467.38,-233.75 467.38,-233.75 467.38,-245.75 467.38,-245.75 467.38,-251.75 461.38,-257.75 455.38,-257.75"/>
<text text-anchor="middle" x="413.25" y="-235.88" font-family="sans" font-size="10.00">aggregate_all_results</text>
</g>
<!-- 4&#45;&gt;3 -->
<g id="edge4" class="edge">
<title>4&#45;&gt;3</title>
<path fill="none" stroke="grey" stroke-width="2" d="M413.25,-221.09C413.25,-214.5 413.25,-206.83 413.25,-199.42"/>
<polygon fill="grey" stroke="grey" stroke-width="2" points="416.75,-199.68 413.25,-189.68 409.75,-199.68 416.75,-199.68"/>
</g>
<!-- 5 -->
<g id="node6" class="node">
<title>5</title>
<path fill="none" stroke="#d87556" stroke-width="2" stroke-dasharray="5,2" d="M447.88,-329.75C447.88,-329.75 378.62,-329.75 378.62,-329.75 372.62,-329.75 366.62,-323.75 366.62,-317.75 366.62,-317.75 366.62,-305.75 366.62,-305.75 366.62,-299.75 372.62,-293.75 378.62,-293.75 378.62,-293.75 447.88,-293.75 447.88,-293.75 453.88,-293.75 459.88,-299.75 459.88,-305.75 459.88,-305.75 459.88,-317.75 459.88,-317.75 459.88,-323.75 453.88,-329.75 447.88,-329.75"/>
<text text-anchor="middle" x="413.25" y="-307.88" font-family="sans" font-size="10.00">aggregate_results</text>
</g>
<!-- 5&#45;&gt;4 -->
<g id="edge5" class="edge">
<title>5&#45;&gt;4</title>
<path fill="none" stroke="grey" stroke-width="2" d="M413.25,-293.09C413.25,-286.5 413.25,-278.83 413.25,-271.42"/>
<polygon fill="grey" stroke="grey" stroke-width="2" points="416.75,-271.68 413.25,-261.68 409.75,-271.68 416.75,-271.68"/>
</g>
<!-- 6 -->
<g id="node7" class="node">
<title>6</title>
<path fill="none" stroke="#d8bc56" stroke-width="2" stroke-dasharray="5,2" d="M405.88,-548.62C405.88,-548.62 342.62,-548.62 342.62,-548.62 336.62,-548.62 330.62,-542.62 330.62,-536.62 330.62,-536.62 330.62,-524.62 330.62,-524.62 330.62,-518.62 336.62,-512.62 342.62,-512.62 342.62,-512.62 405.88,-512.62 405.88,-512.62 411.88,-512.62 417.88,-518.62 417.88,-524.62 417.88,-524.62 417.88,-536.62 417.88,-536.62 417.88,-542.62 411.88,-548.62 405.88,-548.62"/>
<text text-anchor="middle" x="374.25" y="-526.75" font-family="sans" font-size="10.00">all_permutations</text>
</g>
<!-- 6&#45;&gt;5 -->
<g id="edge6" class="edge">
<title>6&#45;&gt;5</title>
<path fill="none" stroke="grey" stroke-width="2" d="M418.79,-520C448.32,-511.77 486.43,-497.41 513.25,-473.75 540.7,-449.53 544.07,-437.19 553.25,-401.75 557.26,-386.26 562.34,-378.92 553.25,-365.75 535.24,-339.67 502.62,-326.41 473.39,-319.68"/>
<polygon fill="grey" stroke="grey" stroke-width="2" points="474.16,-316.26 463.66,-317.7 472.77,-323.12 474.16,-316.26"/>
</g>
<!-- 12 -->
<g id="node13" class="node">
<title>12</title>
<path fill="none" stroke="#88d856" stroke-width="2" stroke-dasharray="5,2" d="M345.88,-401.75C345.88,-401.75 294.62,-401.75 294.62,-401.75 288.62,-401.75 282.62,-395.75 282.62,-389.75 282.62,-389.75 282.62,-377.75 282.62,-377.75 282.62,-371.75 288.62,-365.75 294.62,-365.75 294.62,-365.75 345.88,-365.75 345.88,-365.75 351.88,-365.75 357.88,-371.75 357.88,-377.75 357.88,-377.75 357.88,-389.75 357.88,-389.75 357.88,-395.75 351.88,-401.75 345.88,-401.75"/>
<text text-anchor="middle" x="320.25" y="-379.88" font-family="sans" font-size="10.00">extract_times</text>
</g>
<!-- 6&#45;&gt;12 -->
<g id="edge17" class="edge">
<title>6&#45;&gt;12</title>
<path fill="none" stroke="grey" stroke-width="2" d="M372.58,-511.77C370.35,-492.81 365.44,-462.27 355.25,-437.75 351.73,-429.27 346.79,-420.69 341.73,-412.98"/>
<polygon fill="grey" stroke="grey" stroke-width="2" points="344.7,-411.12 336.11,-404.91 338.95,-415.11 344.7,-411.12"/>
</g>
<!-- 6&#45;&gt;13 -->
<g id="edge19" class="edge">
<title>6&#45;&gt;13</title>
<path fill="none" stroke="grey" stroke-width="2" d="M329.95,-511.98C301.85,-500.79 265.56,-486.34 237.15,-475.03"/>
<polygon fill="grey" stroke="grey" stroke-width="2" points="238.51,-471.8 227.92,-471.35 235.92,-478.31 238.51,-471.8"/>
</g>
<!-- 14 -->
<g id="node15" class="node">
<title>14</title>
<path fill="none" stroke="#88d856" stroke-width="2" stroke-dasharray="5,2" d="M252.88,-401.75C252.88,-401.75 201.62,-401.75 201.62,-401.75 195.62,-401.75 189.62,-395.75 189.62,-389.75 189.62,-389.75 189.62,-377.75 189.62,-377.75 189.62,-371.75 195.62,-365.75 201.62,-365.75 201.62,-365.75 252.88,-365.75 252.88,-365.75 258.88,-365.75 264.88,-371.75 264.88,-377.75 264.88,-377.75 264.88,-389.75 264.88,-389.75 264.88,-395.75 258.88,-401.75 252.88,-401.75"/>
<text text-anchor="middle" x="227.25" y="-379.88" font-family="sans" font-size="10.00">extract_times</text>
</g>
<!-- 6&#45;&gt;14 -->
<g id="edge21" class="edge">
<title>6&#45;&gt;14</title>
<path fill="none" stroke="grey" stroke-width="2" d="M329.7,-512.78C309.91,-503.59 287.48,-490.6 271.25,-473.75 255.22,-457.1 243.92,-433.48 236.78,-414.76"/>
<polygon fill="grey" stroke="grey" stroke-width="2" points="240.16,-413.83 233.51,-405.58 233.57,-416.17 240.16,-413.83"/>
</g>
<!-- 6&#45;&gt;15 -->
<g id="edge23" class="edge">
<title>6&#45;&gt;15</title>
<path fill="none" stroke="grey" stroke-width="2" d="M329.75,-520.52C286.67,-511.28 219.36,-495.73 153.33,-474.86"/>
<polygon fill="grey" stroke="grey" stroke-width="2" points="154.5,-471.55 143.91,-471.82 152.35,-478.22 154.5,-471.55"/>
</g>
<!-- 16 -->
<g id="node17" class="node">
<title>16</title>
<path fill="none" stroke="#88d856" stroke-width="2" stroke-dasharray="5,2" d="M531.88,-401.75C531.88,-401.75 480.62,-401.75 480.62,-401.75 474.62,-401.75 468.62,-395.75 468.62,-389.75 468.62,-389.75 468.62,-377.75 468.62,-377.75 468.62,-371.75 474.62,-365.75 480.62,-365.75 480.62,-365.75 531.88,-365.75 531.88,-365.75 537.88,-365.75 543.88,-371.75 543.88,-377.75 543.88,-377.75 543.88,-389.75 543.88,-389.75 543.88,-395.75 537.88,-401.75 531.88,-401.75"/>
<text text-anchor="middle" x="506.25" y="-379.88" font-family="sans" font-size="10.00">extract_times</text>
</g>
<!-- 6&#45;&gt;16 -->
<g id="edge25" class="edge">
<title>6&#45;&gt;16</title>
<path fill="none" stroke="grey" stroke-width="2" d="M418.62,-519.93C444.45,-511.94 475.36,-497.85 493.25,-473.75 505.55,-457.18 508.61,-434.01 508.7,-415.46"/>
<polygon fill="grey" stroke="grey" stroke-width="2" points="512.21,-415.56 508.4,-405.67 505.21,-415.78 512.21,-415.56"/>
</g>
<!-- 6&#45;&gt;17 -->
<g id="edge27" class="edge">
<title>6&#45;&gt;17</title>
<path fill="none" stroke="grey" stroke-width="2" d="M389.02,-511.98C395.88,-503.78 404.21,-493.83 411.9,-484.64"/>
<polygon fill="grey" stroke="grey" stroke-width="2" points="414.52,-486.97 418.25,-477.06 409.15,-482.48 414.52,-486.97"/>
</g>
<!-- 18 -->
<g id="node19" class="node">
<title>18</title>
<path fill="none" stroke="#88d856" stroke-width="2" stroke-dasharray="5,2" d="M438.88,-401.75C438.88,-401.75 387.62,-401.75 387.62,-401.75 381.62,-401.75 375.62,-395.75 375.62,-389.75 375.62,-389.75 375.62,-377.75 375.62,-377.75 375.62,-371.75 381.62,-365.75 387.62,-365.75 387.62,-365.75 438.88,-365.75 438.88,-365.75 444.88,-365.75 450.88,-371.75 450.88,-377.75 450.88,-377.75 450.88,-389.75 450.88,-389.75 450.88,-395.75 444.88,-401.75 438.88,-401.75"/>
<text text-anchor="middle" x="413.25" y="-379.88" font-family="sans" font-size="10.00">extract_times</text>
</g>
<!-- 6&#45;&gt;18 -->
<g id="edge29" class="edge">
<title>6&#45;&gt;18</title>
<path fill="none" stroke="grey" stroke-width="2" d="M418.67,-517.36C440.37,-508.88 464.5,-495.16 477.25,-473.75 485.43,-460 484.06,-452.23 477.25,-437.75 472.3,-427.22 464.12,-418.07 455.23,-410.46"/>
<polygon fill="grey" stroke="grey" stroke-width="2" points="457.47,-407.77 447.42,-404.41 453.18,-413.3 457.47,-407.77"/>
</g>
<!-- 6&#45;&gt;19 -->
<g id="edge31" class="edge">
<title>6&#45;&gt;19</title>
<path fill="none" stroke="grey" stroke-width="2" d="M359.48,-511.98C352.62,-503.78 344.29,-493.83 336.6,-484.64"/>
<polygon fill="grey" stroke="grey" stroke-width="2" points="339.35,-482.48 330.25,-477.06 333.98,-486.97 339.35,-482.48"/>
</g>
<!-- 7 -->
<g id="node8" class="node">
<title>7</title>
<path fill="none" stroke="#ced856" stroke-width="2" stroke-dasharray="5,2" d="M361,-623.5C361,-623.5 259.5,-623.5 259.5,-623.5 253.5,-623.5 247.5,-617.5 247.5,-611.5 247.5,-611.5 247.5,-599.5 247.5,-599.5 247.5,-593.5 253.5,-587.5 259.5,-587.5 259.5,-587.5 361,-587.5 361,-587.5 367,-587.5 373,-593.5 373,-599.5 373,-599.5 373,-611.5 373,-611.5 373,-617.5 367,-623.5 361,-623.5"/>
<text text-anchor="middle" x="310.25" y="-601.62" font-family="sans" font-size="10.00">benchmark_permutations</text>
</g>
<!-- 7&#45;&gt;6 -->
<g id="edge11" class="edge">
<title>7&#45;&gt;6</title>
<path fill="none" stroke="grey" stroke-width="2" d="M325.74,-586.86C333.02,-578.57 341.87,-568.49 350.01,-559.22"/>
<polygon fill="grey" stroke="grey" stroke-width="2" points="352.49,-561.71 356.46,-551.88 347.23,-557.09 352.49,-561.71"/>
</g>
<!-- 8 -->
<g id="node9" class="node">
<title>8</title>
<path fill="none" stroke="#68d856" stroke-width="2" stroke-dasharray="5,2" d="M471.88,-623.5C471.88,-623.5 402.62,-623.5 402.62,-623.5 396.62,-623.5 390.62,-617.5 390.62,-611.5 390.62,-611.5 390.62,-599.5 390.62,-599.5 390.62,-593.5 396.62,-587.5 402.62,-587.5 402.62,-587.5 471.88,-587.5 471.88,-587.5 477.88,-587.5 483.88,-593.5 483.88,-599.5 483.88,-599.5 483.88,-611.5 483.88,-611.5 483.88,-617.5 477.88,-623.5 471.88,-623.5"/>
<text text-anchor="middle" x="437.25" y="-601.62" font-family="sans" font-size="10.00">fipy_permutations</text>
</g>
<!-- 8&#45;&gt;6 -->
<g id="edge12" class="edge">
<title>8&#45;&gt;6</title>
<path fill="none" stroke="grey" stroke-width="2" d="M422,-586.86C414.83,-578.57 406.12,-568.49 398.11,-559.22"/>
<polygon fill="grey" stroke="grey" stroke-width="2" points="400.97,-557.18 391.78,-551.9 395.67,-561.75 400.97,-557.18"/>
</g>
<!-- 9 -->
<g id="node10" class="node">
<title>9</title>
<path fill="none" stroke="#569ad8" stroke-width="2" stroke-dasharray="5,2" d="M474.5,-695.5C474.5,-695.5 400,-695.5 400,-695.5 394,-695.5 388,-689.5 388,-683.5 388,-683.5 388,-671.5 388,-671.5 388,-665.5 394,-659.5 400,-659.5 400,-659.5 474.5,-659.5 474.5,-659.5 480.5,-659.5 486.5,-665.5 486.5,-671.5 486.5,-671.5 486.5,-683.5 486.5,-683.5 486.5,-689.5 480.5,-695.5 474.5,-695.5"/>
<text text-anchor="middle" x="437.25" y="-673.62" font-family="sans" font-size="10.00">suite_permutations</text>
</g>
<!-- 9&#45;&gt;8 -->
<g id="edge13" class="edge">
<title>9&#45;&gt;8</title>
<path fill="none" stroke="grey" stroke-width="2" d="M437.25,-658.84C437.25,-652.25 437.25,-644.58 437.25,-637.17"/>
<polygon fill="grey" stroke="grey" stroke-width="2" points="440.75,-637.43 437.25,-627.43 433.75,-637.43 440.75,-637.43"/>
</g>
<!-- 10 -->
<g id="node11" class="node">
<title>10</title>
<path fill="none" stroke="#56c1d8" stroke-width="2" stroke-dasharray="5,2" d="M510.12,-767.5C510.12,-767.5 364.38,-767.5 364.38,-767.5 358.38,-767.5 352.38,-761.5 352.38,-755.5 352.38,-755.5 352.38,-743.5 352.38,-743.5 352.38,-737.5 358.38,-731.5 364.38,-731.5 364.38,-731.5 510.12,-731.5 510.12,-731.5 516.12,-731.5 522.12,-737.5 522.12,-743.5 522.12,-743.5 522.12,-755.5 522.12,-755.5 522.12,-761.5 516.12,-767.5 510.12,-767.5"/>
<text text-anchor="middle" x="437.25" y="-745.62" font-family="sans" font-size="10.00">solver_preconditioner_permutations</text>
</g>
<!-- 10&#45;&gt;9 -->
<g id="edge14" class="edge">
<title>10&#45;&gt;9</title>
<path fill="none" stroke="grey" stroke-width="2" d="M437.25,-730.84C437.25,-724.25 437.25,-716.58 437.25,-709.17"/>
<polygon fill="grey" stroke="grey" stroke-width="2" points="440.75,-709.43 437.25,-699.43 433.75,-709.43 440.75,-709.43"/>
</g>
<!-- 11 -->
<g id="node12" class="node">
<title>11</title>
<path fill="none" stroke="#56d86b" stroke-width="2" stroke-dasharray="5,2" d="M494,-845.25C494,-845.25 380.5,-845.25 380.5,-845.25 374.5,-845.25 368.5,-839.25 368.5,-833.25 368.5,-833.25 368.5,-815.5 368.5,-815.5 368.5,-809.5 374.5,-803.5 380.5,-803.5 380.5,-803.5 494,-803.5 494,-803.5 500,-803.5 506,-809.5 506,-815.5 506,-815.5 506,-833.25 506,-833.25 506,-839.25 500,-845.25 494,-845.25"/>
<text text-anchor="middle" x="437.25" y="-831.75" font-family="sans" font-size="10.00">get_solvers_preconditioners</text>
<text text-anchor="middle" x="437.25" y="-820.5" font-family="sans" font-size="10.00">rev: c246c5c9f</text>
<text text-anchor="middle" x="437.25" y="-809.25" font-family="sans" font-size="10.00">suite: petsc</text>
</g>
<!-- 11&#45;&gt;10 -->
<g id="edge15" class="edge">
<title>11&#45;&gt;10</title>
<path fill="none" stroke="grey" stroke-width="2" d="M437.25,-802.69C437.25,-795.93 437.25,-788.29 437.25,-780.97"/>
<polygon fill="grey" stroke="grey" stroke-width="2" points="440.75,-781.06 437.25,-771.06 433.75,-781.06 440.75,-781.06"/>
</g>
<!-- 12&#45;&gt;5 -->
<g id="edge7" class="edge">
<title>12&#45;&gt;5</title>
<path fill="none" stroke="grey" stroke-width="2" d="M343.72,-365.09C354.43,-357.02 367.32,-347.32 379.08,-338.47"/>
<polygon fill="grey" stroke="grey" stroke-width="2" points="381.16,-341.28 387.05,-332.47 376.95,-335.69 381.16,-341.28"/>
</g>
<!-- 13&#45;&gt;12 -->
<g id="edge16" class="edge">
<title>13&#45;&gt;12</title>
<path fill="none" stroke="grey" stroke-width="2" d="M224.14,-436.9C239.91,-428.35 259.02,-417.97 276.04,-408.74"/>
<polygon fill="grey" stroke="grey" stroke-width="2" points="277.64,-411.85 284.76,-404.01 274.3,-405.7 277.64,-411.85"/>
</g>
<!-- 14&#45;&gt;5 -->
<g id="edge8" class="edge">
<title>14&#45;&gt;5</title>
<path fill="none" stroke="grey" stroke-width="2" d="M265.79,-368.25C291.21,-358.68 325.01,-345.96 353.83,-335.11"/>
<polygon fill="grey" stroke="grey" stroke-width="2" points="354.88,-338.46 363.01,-331.66 352.42,-331.9 354.88,-338.46"/>
</g>
<!-- 15&#45;&gt;14 -->
<g id="edge20" class="edge">
<title>15&#45;&gt;14</title>
<path fill="none" stroke="grey" stroke-width="2" d="M137.84,-436.9C152.37,-428.43 169.95,-418.17 185.67,-409"/>
<polygon fill="grey" stroke="grey" stroke-width="2" points="187.23,-412.15 194.1,-404.09 183.7,-406.1 187.23,-412.15"/>
</g>
<!-- 16&#45;&gt;5 -->
<g id="edge9" class="edge">
<title>16&#45;&gt;5</title>
<path fill="none" stroke="grey" stroke-width="2" d="M482.78,-365.09C472.07,-357.02 459.18,-347.32 447.42,-338.47"/>
<polygon fill="grey" stroke="grey" stroke-width="2" points="449.55,-335.69 439.45,-332.47 445.34,-341.28 449.55,-335.69"/>
</g>
<!-- 17&#45;&gt;16 -->
<g id="edge24" class="edge">
<title>17&#45;&gt;16</title>
<path fill="none" stroke="grey" stroke-width="2" d="M453.17,-437.09C461.01,-429.35 470.39,-420.11 479.06,-411.56"/>
<polygon fill="grey" stroke="grey" stroke-width="2" points="481.27,-414.29 485.94,-404.78 476.36,-409.31 481.27,-414.29"/>
</g>
<!-- 18&#45;&gt;5 -->
<g id="edge10" class="edge">
<title>18&#45;&gt;5</title>
<path fill="none" stroke="grey" stroke-width="2" d="M413.25,-365.09C413.25,-358.5 413.25,-350.83 413.25,-343.42"/>
<polygon fill="grey" stroke="grey" stroke-width="2" points="416.75,-343.68 413.25,-333.68 409.75,-343.68 416.75,-343.68"/>
</g>
<!-- 19&#45;&gt;18 -->
<g id="edge28" class="edge">
<title>19&#45;&gt;18</title>
<path fill="none" stroke="grey" stroke-width="2" d="M338.74,-436.9C350.5,-428.68 364.65,-418.77 377.45,-409.81"/>
<polygon fill="grey" stroke="grey" stroke-width="2" points="379.14,-412.9 385.32,-404.3 375.12,-407.17 379.14,-412.9"/>
</g>
<!-- 20&#45;&gt;2 -->
<g id="edge3" class="edge">
<title>20&#45;&gt;2</title>
<path fill="none" stroke="grey" stroke-width="2" d="M450.49,-71.19C445.12,-63.67 438.96,-55.03 433.22,-46.99"/>
<polygon fill="grey" stroke="grey" stroke-width="2" points="436.17,-45.1 427.52,-38.99 430.48,-49.17 436.17,-45.1"/>
</g>
</g>
</svg>
