<?xml version="1.0" encoding="UTF-8" standalone="no"?>
<!DOCTYPE svg PUBLIC "-//W3C//DTD SVG 1.1//EN"
 "http://www.w3.org/Graphics/SVG/1.1/DTD/svg11.dtd">
<!-- Generated by graphviz version 11.0.0 (0)
 -->
<!-- Title: snakemake_dag Pages: 1 -->
<svg width="695pt" height="709pt"
 viewBox="0.00 0.00 695.12 709.25" xmlns="http://www.w3.org/2000/svg" xmlns:xlink="http://www.w3.org/1999/xlink">
<g id="graph0" class="graph" transform="scale(1 1) rotate(0) translate(4 705.25)">
<title>snakemake_dag</title>
<polygon fill="white" stroke="none" points="-4,4 -4,-705.25 691.12,-705.25 691.12,4 -4,4"/>
<!-- 0 -->
<g id="node1" class="node">
<title>0</title>
<path fill="none" stroke="#afd856" stroke-width="2" stroke-dasharray="5,2" d="M44.5,-473.75C44.5,-473.75 12,-473.75 12,-473.75 6,-473.75 0,-467.75 0,-461.75 0,-461.75 0,-449.75 0,-449.75 0,-443.75 6,-437.75 12,-437.75 12,-437.75 44.5,-437.75 44.5,-437.75 50.5,-437.75 56.5,-443.75 56.5,-449.75 56.5,-449.75 56.5,-461.75 56.5,-461.75 56.5,-467.75 50.5,-473.75 44.5,-473.75"/>
<text text-anchor="middle" x="28.25" y="-451.88" font-family="sans" font-size="10.00">bootstrap</text>
</g>
<!-- 1 -->
<g id="node2" class="node">
<title>1</title>
<path fill="none" stroke="#56d8a9" stroke-width="2" stroke-dasharray="5,2" d="M237.88,-551.5C237.88,-551.5 144.62,-551.5 144.62,-551.5 138.62,-551.5 132.62,-545.5 132.62,-539.5 132.62,-539.5 132.62,-521.75 132.62,-521.75 132.62,-515.75 138.62,-509.75 144.62,-509.75 144.62,-509.75 237.88,-509.75 237.88,-509.75 243.88,-509.75 249.88,-515.75 249.88,-521.75 249.88,-521.75 249.88,-539.5 249.88,-539.5 249.88,-545.5 243.88,-551.5 237.88,-551.5"/>
<text text-anchor="middle" x="191.25" y="-538" font-family="sans" font-size="10.00">render_conda_template</text>
<text text-anchor="middle" x="191.25" y="-526.75" font-family="sans" font-size="10.00">rev: c246c5c9f</text>
<text text-anchor="middle" x="191.25" y="-515.5" font-family="sans" font-size="10.00">suite: petsc</text>
</g>
<!-- 1&#45;&gt;0 -->
<g id="edge1" class="edge">
<title>1&#45;&gt;0</title>
<path fill="none" stroke="grey" stroke-width="2" d="M143.92,-508.81C123.03,-499.59 97.94,-488.46 69.03,-475.43"/>
<polygon fill="grey" stroke="grey" stroke-width="2" points="70.63,-472.32 60.08,-471.39 67.75,-478.7 70.63,-472.32"/>
</g>
<!-- 13 -->
<g id="node14" class="node">
<title>13</title>
<path fill="none" stroke="#56d8d0" stroke-width="2" stroke-dasharray="5,2" d="M128.38,-473.75C128.38,-473.75 86.12,-473.75 86.12,-473.75 80.12,-473.75 74.12,-467.75 74.12,-461.75 74.12,-461.75 74.12,-449.75 74.12,-449.75 74.12,-443.75 80.12,-437.75 86.12,-437.75 86.12,-437.75 128.38,-437.75 128.38,-437.75 134.38,-437.75 140.38,-443.75 140.38,-449.75 140.38,-449.75 140.38,-461.75 140.38,-461.75 140.38,-467.75 134.38,-473.75 128.38,-473.75"/>
<text text-anchor="middle" x="107.25" y="-457.5" font-family="sans" font-size="10.00">solve</text>
<text text-anchor="middle" x="107.25" y="-446.25" font-family="sans" font-size="10.00">id: 0000000</text>
</g>
<!-- 1&#45;&gt;13 -->
<g id="edge17" class="edge">
<title>1&#45;&gt;13</title>
<path fill="none" stroke="grey" stroke-width="2" d="M167.4,-508.94C158.12,-500.88 147.36,-491.55 137.54,-483.03"/>
<polygon fill="grey" stroke="grey" stroke-width="2" points="139.87,-480.42 130.02,-476.51 135.28,-485.7 139.87,-480.42"/>
</g>
<!-- 15 -->
<g id="node16" class="node">
<title>15</title>
<path fill="none" stroke="#56d8d0" stroke-width="2" stroke-dasharray="5,2" d="M212.38,-473.75C212.38,-473.75 170.12,-473.75 170.12,-473.75 164.12,-473.75 158.12,-467.75 158.12,-461.75 158.12,-461.75 158.12,-449.75 158.12,-449.75 158.12,-443.75 164.12,-437.75 170.12,-437.75 170.12,-437.75 212.38,-437.75 212.38,-437.75 218.38,-437.75 224.38,-443.75 224.38,-449.75 224.38,-449.75 224.38,-461.75 224.38,-461.75 224.38,-467.75 218.38,-473.75 212.38,-473.75"/>
<text text-anchor="middle" x="191.25" y="-457.5" font-family="sans" font-size="10.00">solve</text>
<text text-anchor="middle" x="191.25" y="-446.25" font-family="sans" font-size="10.00">id: 0000001</text>
</g>
<!-- 1&#45;&gt;15 -->
<g id="edge19" class="edge">
<title>1&#45;&gt;15</title>
<path fill="none" stroke="grey" stroke-width="2" d="M191.25,-508.94C191.25,-502.18 191.25,-494.54 191.25,-487.22"/>
<polygon fill="grey" stroke="grey" stroke-width="2" points="194.75,-487.31 191.25,-477.31 187.75,-487.31 194.75,-487.31"/>
</g>
<!-- 17 -->
<g id="node18" class="node">
<title>17</title>
<path fill="none" stroke="#56d8d0" stroke-width="2" stroke-dasharray="5,2" d="M297.38,-473.75C297.38,-473.75 255.12,-473.75 255.12,-473.75 249.12,-473.75 243.12,-467.75 243.12,-461.75 243.12,-461.75 243.12,-449.75 243.12,-449.75 243.12,-443.75 249.12,-437.75 255.12,-437.75 255.12,-437.75 297.38,-437.75 297.38,-437.75 303.38,-437.75 309.38,-443.75 309.38,-449.75 309.38,-449.75 309.38,-461.75 309.38,-461.75 309.38,-467.75 303.38,-473.75 297.38,-473.75"/>
<text text-anchor="middle" x="276.25" y="-457.5" font-family="sans" font-size="10.00">solve</text>
<text text-anchor="middle" x="276.25" y="-446.25" font-family="sans" font-size="10.00">id: 0000002</text>
</g>
<!-- 1&#45;&gt;17 -->
<g id="edge21" class="edge">
<title>1&#45;&gt;17</title>
<path fill="none" stroke="grey" stroke-width="2" d="M215.38,-508.94C224.88,-500.79 235.89,-491.35 245.92,-482.76"/>
<polygon fill="grey" stroke="grey" stroke-width="2" points="247.91,-485.66 253.22,-476.49 243.35,-480.34 247.91,-485.66"/>
</g>
<!-- 19 -->
<g id="node20" class="node">
<title>19</title>
<path fill="none" stroke="#56d8d0" stroke-width="2" stroke-dasharray="5,2" d="M382.38,-473.75C382.38,-473.75 340.12,-473.75 340.12,-473.75 334.12,-473.75 328.12,-467.75 328.12,-461.75 328.12,-461.75 328.12,-449.75 328.12,-449.75 328.12,-443.75 334.12,-437.75 340.12,-437.75 340.12,-437.75 382.38,-437.75 382.38,-437.75 388.38,-437.75 394.38,-443.75 394.38,-449.75 394.38,-449.75 394.38,-461.75 394.38,-461.75 394.38,-467.75 388.38,-473.75 382.38,-473.75"/>
<text text-anchor="middle" x="361.25" y="-457.5" font-family="sans" font-size="10.00">solve</text>
<text text-anchor="middle" x="361.25" y="-446.25" font-family="sans" font-size="10.00">id: 0000003</text>
</g>
<!-- 1&#45;&gt;19 -->
<g id="edge23" class="edge">
<title>1&#45;&gt;19</title>
<path fill="none" stroke="grey" stroke-width="2" d="M239.51,-508.94C263.33,-498.72 291.93,-486.47 315.41,-476.4"/>
<polygon fill="grey" stroke="grey" stroke-width="2" points="316.58,-479.71 324.39,-472.55 313.82,-473.27 316.58,-479.71"/>
</g>
<!-- 2 -->
<g id="node3" class="node">
<title>2</title>
<path fill="none" stroke="#d89c56" stroke-width="2" stroke-dasharray="5,2" d="M298.25,-36C298.25,-36 268.25,-36 268.25,-36 262.25,-36 256.25,-30 256.25,-24 256.25,-24 256.25,-12 256.25,-12 256.25,-6 262.25,0 268.25,0 268.25,0 298.25,0 298.25,0 304.25,0 310.25,-6 310.25,-12 310.25,-12 310.25,-24 310.25,-24 310.25,-30 304.25,-36 298.25,-36"/>
<text text-anchor="middle" x="283.25" y="-14.12" font-family="sans" font-size="10.00">all</text>
</g>
<!-- 3 -->
<g id="node4" class="node">
<title>3</title>
<path fill="none" stroke="#567bd8" stroke-width="2" stroke-dasharray="5,2" d="M303.25,-185.75C303.25,-185.75 263.25,-185.75 263.25,-185.75 257.25,-185.75 251.25,-179.75 251.25,-173.75 251.25,-173.75 251.25,-161.75 251.25,-161.75 251.25,-155.75 257.25,-149.75 263.25,-149.75 263.25,-149.75 303.25,-149.75 303.25,-149.75 309.25,-149.75 315.25,-155.75 315.25,-161.75 315.25,-161.75 315.25,-173.75 315.25,-173.75 315.25,-179.75 309.25,-185.75 303.25,-185.75"/>
<text text-anchor="middle" x="283.25" y="-163.88" font-family="sans" font-size="10.00">total_times</text>
</g>
<!-- 3&#45;&gt;2 -->
<g id="edge2" class="edge">
<title>3&#45;&gt;2</title>
<path fill="none" stroke="grey" stroke-width="2" d="M269.02,-148.77C262.2,-139.01 254.77,-126.38 251.25,-113.75 246.27,-95.87 246.27,-89.88 251.25,-72 253.59,-63.61 257.65,-55.22 262.11,-47.68"/>
<polygon fill="grey" stroke="grey" stroke-width="2" points="264.89,-49.82 267.38,-39.52 259.01,-46.02 264.89,-49.82"/>
</g>
<!-- 20 -->
<g id="node21" class="node">
<title>20</title>
<path fill="none" stroke="#56d88a" stroke-width="2" stroke-dasharray="5,2" d="M398.75,-113.75C398.75,-113.75 271.75,-113.75 271.75,-113.75 265.75,-113.75 259.75,-107.75 259.75,-101.75 259.75,-101.75 259.75,-84 259.75,-84 259.75,-78 265.75,-72 271.75,-72 271.75,-72 398.75,-72 398.75,-72 404.75,-72 410.75,-78 410.75,-84 410.75,-84 410.75,-101.75 410.75,-101.75 410.75,-107.75 404.75,-113.75 398.75,-113.75"/>
<text text-anchor="middle" x="335.25" y="-100.25" font-family="sans" font-size="10.00">plot_permutations</text>
<text text-anchor="middle" x="335.25" y="-89" font-family="sans" font-size="10.00">benchmark: binary_phase_field</text>
<text text-anchor="middle" x="335.25" y="-77.75" font-family="sans" font-size="10.00">rev: c246c5c9f</text>
</g>
<!-- 3&#45;&gt;20 -->
<g id="edge24" class="edge">
<title>3&#45;&gt;20</title>
<path fill="none" stroke="grey" stroke-width="2" d="M295.84,-149.11C300.98,-141.9 307.08,-133.35 312.93,-125.15"/>
<polygon fill="grey" stroke="grey" stroke-width="2" points="315.66,-127.36 318.62,-117.18 309.96,-123.29 315.66,-127.36"/>
</g>
<!-- 4 -->
<g id="node5" class="node">
<title>4</title>
<path fill="none" stroke="#d85656" stroke-width="2" stroke-dasharray="5,2" d="M325.38,-257.75C325.38,-257.75 241.12,-257.75 241.12,-257.75 235.12,-257.75 229.12,-251.75 229.12,-245.75 229.12,-245.75 229.12,-233.75 229.12,-233.75 229.12,-227.75 235.12,-221.75 241.12,-221.75 241.12,-221.75 325.38,-221.75 325.38,-221.75 331.38,-221.75 337.38,-227.75 337.38,-233.75 337.38,-233.75 337.38,-245.75 337.38,-245.75 337.38,-251.75 331.38,-257.75 325.38,-257.75"/>
<text text-anchor="middle" x="283.25" y="-235.88" font-family="sans" font-size="10.00">aggregate_all_results</text>
</g>
<!-- 4&#45;&gt;3 -->
<g id="edge4" class="edge">
<title>4&#45;&gt;3</title>
<path fill="none" stroke="grey" stroke-width="2" d="M283.25,-221.09C283.25,-214.5 283.25,-206.83 283.25,-199.42"/>
<polygon fill="grey" stroke="grey" stroke-width="2" points="286.75,-199.68 283.25,-189.68 279.75,-199.68 286.75,-199.68"/>
</g>
<!-- 5 -->
<g id="node6" class="node">
<title>5</title>
<path fill="none" stroke="#d87556" stroke-width="2" stroke-dasharray="5,2" d="M317.88,-329.75C317.88,-329.75 248.62,-329.75 248.62,-329.75 242.62,-329.75 236.62,-323.75 236.62,-317.75 236.62,-317.75 236.62,-305.75 236.62,-305.75 236.62,-299.75 242.62,-293.75 248.62,-293.75 248.62,-293.75 317.88,-293.75 317.88,-293.75 323.88,-293.75 329.88,-299.75 329.88,-305.75 329.88,-305.75 329.88,-317.75 329.88,-317.75 329.88,-323.75 323.88,-329.75 317.88,-329.75"/>
<text text-anchor="middle" x="283.25" y="-307.88" font-family="sans" font-size="10.00">aggregate_results</text>
</g>
<!-- 5&#45;&gt;4 -->
<g id="edge5" class="edge">
<title>5&#45;&gt;4</title>
<path fill="none" stroke="grey" stroke-width="2" d="M283.25,-293.09C283.25,-286.5 283.25,-278.83 283.25,-271.42"/>
<polygon fill="grey" stroke="grey" stroke-width="2" points="286.75,-271.68 283.25,-261.68 279.75,-271.68 286.75,-271.68"/>
</g>
<!-- 6 -->
<g id="node7" class="node">
<title>6</title>
<path fill="none" stroke="#d8bc56" stroke-width="2" stroke-dasharray="5,2" d="M506.88,-401.75C506.88,-401.75 443.62,-401.75 443.62,-401.75 437.62,-401.75 431.62,-395.75 431.62,-389.75 431.62,-389.75 431.62,-377.75 431.62,-377.75 431.62,-371.75 437.62,-365.75 443.62,-365.75 443.62,-365.75 506.88,-365.75 506.88,-365.75 512.88,-365.75 518.88,-371.75 518.88,-377.75 518.88,-377.75 518.88,-389.75 518.88,-389.75 518.88,-395.75 512.88,-401.75 506.88,-401.75"/>
<text text-anchor="middle" x="475.25" y="-379.88" font-family="sans" font-size="10.00">all_permutations</text>
</g>
<!-- 6&#45;&gt;5 -->
<g id="edge6" class="edge">
<title>6&#45;&gt;5</title>
<path fill="none" stroke="grey" stroke-width="2" d="M430.72,-366.51C404.57,-356.98 371.18,-344.81 342.79,-334.46"/>
<polygon fill="grey" stroke="grey" stroke-width="2" points="343.99,-331.17 333.4,-331.03 341.6,-337.75 343.99,-331.17"/>
</g>
<!-- 7 -->
<g id="node8" class="node">
<title>7</title>
<path fill="none" stroke="#ced856" stroke-width="2" stroke-dasharray="5,2" d="M526,-473.75C526,-473.75 424.5,-473.75 424.5,-473.75 418.5,-473.75 412.5,-467.75 412.5,-461.75 412.5,-461.75 412.5,-449.75 412.5,-449.75 412.5,-443.75 418.5,-437.75 424.5,-437.75 424.5,-437.75 526,-437.75 526,-437.75 532,-437.75 538,-443.75 538,-449.75 538,-449.75 538,-461.75 538,-461.75 538,-467.75 532,-473.75 526,-473.75"/>
<text text-anchor="middle" x="475.25" y="-451.88" font-family="sans" font-size="10.00">benchmark_permutations</text>
</g>
<!-- 7&#45;&gt;6 -->
<g id="edge11" class="edge">
<title>7&#45;&gt;6</title>
<path fill="none" stroke="grey" stroke-width="2" d="M475.25,-437.09C475.25,-430.5 475.25,-422.83 475.25,-415.42"/>
<polygon fill="grey" stroke="grey" stroke-width="2" points="478.75,-415.68 475.25,-405.68 471.75,-415.68 478.75,-415.68"/>
</g>
<!-- 8 -->
<g id="node9" class="node">
<title>8</title>
<path fill="none" stroke="#68d856" stroke-width="2" stroke-dasharray="5,2" d="M636.88,-473.75C636.88,-473.75 567.62,-473.75 567.62,-473.75 561.62,-473.75 555.62,-467.75 555.62,-461.75 555.62,-461.75 555.62,-449.75 555.62,-449.75 555.62,-443.75 561.62,-437.75 567.62,-437.75 567.62,-437.75 636.88,-437.75 636.88,-437.75 642.88,-437.75 648.88,-443.75 648.88,-449.75 648.88,-449.75 648.88,-461.75 648.88,-461.75 648.88,-467.75 642.88,-473.75 636.88,-473.75"/>
<text text-anchor="middle" x="602.25" y="-451.88" font-family="sans" font-size="10.00">fipy_permutations</text>
</g>
<!-- 8&#45;&gt;6 -->
<g id="edge12" class="edge">
<title>8&#45;&gt;6</title>
<path fill="none" stroke="grey" stroke-width="2" d="M569.87,-436.9C554.35,-428.35 535.53,-417.97 518.77,-408.74"/>
<polygon fill="grey" stroke="grey" stroke-width="2" points="520.67,-405.79 510.22,-404.02 517.29,-411.92 520.67,-405.79"/>
</g>
<!-- 9 -->
<g id="node10" class="node">
<title>9</title>
<path fill="none" stroke="#569ad8" stroke-width="2" stroke-dasharray="5,2" d="M639.5,-548.62C639.5,-548.62 565,-548.62 565,-548.62 559,-548.62 553,-542.62 553,-536.62 553,-536.62 553,-524.62 553,-524.62 553,-518.62 559,-512.62 565,-512.62 565,-512.62 639.5,-512.62 639.5,-512.62 645.5,-512.62 651.5,-518.62 651.5,-524.62 651.5,-524.62 651.5,-536.62 651.5,-536.62 651.5,-542.62 645.5,-548.62 639.5,-548.62"/>
<text text-anchor="middle" x="602.25" y="-526.75" font-family="sans" font-size="10.00">suite_permutations</text>
</g>
<!-- 9&#45;&gt;8 -->
<g id="edge13" class="edge">
<title>9&#45;&gt;8</title>
<path fill="none" stroke="grey" stroke-width="2" d="M602.25,-511.98C602.25,-504.66 602.25,-495.95 602.25,-487.63"/>
<polygon fill="grey" stroke="grey" stroke-width="2" points="605.75,-487.76 602.25,-477.76 598.75,-487.76 605.75,-487.76"/>
</g>
<!-- 10 -->
<g id="node11" class="node">
<title>10</title>
<path fill="none" stroke="#56c1d8" stroke-width="2" stroke-dasharray="5,2" d="M675.12,-623.5C675.12,-623.5 529.38,-623.5 529.38,-623.5 523.38,-623.5 517.38,-617.5 517.38,-611.5 517.38,-611.5 517.38,-599.5 517.38,-599.5 517.38,-593.5 523.38,-587.5 529.38,-587.5 529.38,-587.5 675.12,-587.5 675.12,-587.5 681.12,-587.5 687.12,-593.5 687.12,-599.5 687.12,-599.5 687.12,-611.5 687.12,-611.5 687.12,-617.5 681.12,-623.5 675.12,-623.5"/>
<text text-anchor="middle" x="602.25" y="-601.62" font-family="sans" font-size="10.00">solver_preconditioner_permutations</text>
</g>
<!-- 10&#45;&gt;9 -->
<g id="edge14" class="edge">
<title>10&#45;&gt;9</title>
<path fill="none" stroke="grey" stroke-width="2" d="M602.25,-586.86C602.25,-579.54 602.25,-570.82 602.25,-562.51"/>
<polygon fill="grey" stroke="grey" stroke-width="2" points="605.75,-562.64 602.25,-552.64 598.75,-562.64 605.75,-562.64"/>
</g>
<!-- 11 -->
<g id="node12" class="node">
<title>11</title>
<path fill="none" stroke="#56d86b" stroke-width="2" stroke-dasharray="5,2" d="M659,-701.25C659,-701.25 545.5,-701.25 545.5,-701.25 539.5,-701.25 533.5,-695.25 533.5,-689.25 533.5,-689.25 533.5,-671.5 533.5,-671.5 533.5,-665.5 539.5,-659.5 545.5,-659.5 545.5,-659.5 659,-659.5 659,-659.5 665,-659.5 671,-665.5 671,-671.5 671,-671.5 671,-689.25 671,-689.25 671,-695.25 665,-701.25 659,-701.25"/>
<text text-anchor="middle" x="602.25" y="-687.75" font-family="sans" font-size="10.00">get_solvers_preconditioners</text>
<text text-anchor="middle" x="602.25" y="-676.5" font-family="sans" font-size="10.00">rev: c246c5c9f</text>
<text text-anchor="middle" x="602.25" y="-665.25" font-family="sans" font-size="10.00">suite: petsc</text>
</g>
<!-- 11&#45;&gt;10 -->
<g id="edge15" class="edge">
<title>11&#45;&gt;10</title>
<path fill="none" stroke="grey" stroke-width="2" d="M602.25,-658.69C602.25,-651.93 602.25,-644.29 602.25,-636.97"/>
<polygon fill="grey" stroke="grey" stroke-width="2" points="605.75,-637.06 602.25,-627.06 598.75,-637.06 605.75,-637.06"/>
</g>
<!-- 12 -->
<g id="node13" class="node">
<title>12</title>
<path fill="none" stroke="#88d856" stroke-width="2" stroke-dasharray="5,2" d="M122.88,-401.75C122.88,-401.75 71.62,-401.75 71.62,-401.75 65.62,-401.75 59.62,-395.75 59.62,-389.75 59.62,-389.75 59.62,-377.75 59.62,-377.75 59.62,-371.75 65.62,-365.75 71.62,-365.75 71.62,-365.75 122.88,-365.75 122.88,-365.75 128.88,-365.75 134.88,-371.75 134.88,-377.75 134.88,-377.75 134.88,-389.75 134.88,-389.75 134.88,-395.75 128.88,-401.75 122.88,-401.75"/>
<text text-anchor="middle" x="97.25" y="-379.88" font-family="sans" font-size="10.00">extract_times</text>
</g>
<!-- 12&#45;&gt;5 -->
<g id="edge7" class="edge">
<title>12&#45;&gt;5</title>
<path fill="none" stroke="grey" stroke-width="2" d="M135.79,-368.25C161.21,-358.68 195.01,-345.96 223.83,-335.11"/>
<polygon fill="grey" stroke="grey" stroke-width="2" points="224.88,-338.46 233.01,-331.66 222.42,-331.9 224.88,-338.46"/>
</g>
<!-- 13&#45;&gt;12 -->
<g id="edge16" class="edge">
<title>13&#45;&gt;12</title>
<path fill="none" stroke="grey" stroke-width="2" d="M104.73,-437.09C103.79,-430.5 102.69,-422.83 101.63,-415.42"/>
<polygon fill="grey" stroke="grey" stroke-width="2" points="105.11,-415.05 100.24,-405.65 98.18,-416.04 105.11,-415.05"/>
</g>
<!-- 14 -->
<g id="node15" class="node">
<title>14</title>
<path fill="none" stroke="#88d856" stroke-width="2" stroke-dasharray="5,2" d="M215.88,-401.75C215.88,-401.75 164.62,-401.75 164.62,-401.75 158.62,-401.75 152.62,-395.75 152.62,-389.75 152.62,-389.75 152.62,-377.75 152.62,-377.75 152.62,-371.75 158.62,-365.75 164.62,-365.75 164.62,-365.75 215.88,-365.75 215.88,-365.75 221.88,-365.75 227.88,-371.75 227.88,-377.75 227.88,-377.75 227.88,-389.75 227.88,-389.75 227.88,-395.75 221.88,-401.75 215.88,-401.75"/>
<text text-anchor="middle" x="190.25" y="-379.88" font-family="sans" font-size="10.00">extract_times</text>
</g>
<!-- 14&#45;&gt;5 -->
<g id="edge8" class="edge">
<title>14&#45;&gt;5</title>
<path fill="none" stroke="grey" stroke-width="2" d="M213.72,-365.09C224.43,-357.02 237.32,-347.32 249.08,-338.47"/>
<polygon fill="grey" stroke="grey" stroke-width="2" points="251.16,-341.28 257.05,-332.47 246.95,-335.69 251.16,-341.28"/>
</g>
<!-- 15&#45;&gt;14 -->
<g id="edge18" class="edge">
<title>15&#45;&gt;14</title>
<path fill="none" stroke="grey" stroke-width="2" d="M191,-437.09C190.9,-430.5 190.79,-422.83 190.69,-415.42"/>
<polygon fill="grey" stroke="grey" stroke-width="2" points="194.19,-415.63 190.55,-405.68 187.19,-415.73 194.19,-415.63"/>
</g>
<!-- 16 -->
<g id="node17" class="node">
<title>16</title>
<path fill="none" stroke="#88d856" stroke-width="2" stroke-dasharray="5,2" d="M308.88,-401.75C308.88,-401.75 257.62,-401.75 257.62,-401.75 251.62,-401.75 245.62,-395.75 245.62,-389.75 245.62,-389.75 245.62,-377.75 245.62,-377.75 245.62,-371.75 251.62,-365.75 257.62,-365.75 257.62,-365.75 308.88,-365.75 308.88,-365.75 314.88,-365.75 320.88,-371.75 320.88,-377.75 320.88,-377.75 320.88,-389.75 320.88,-389.75 320.88,-395.75 314.88,-401.75 308.88,-401.75"/>
<text text-anchor="middle" x="283.25" y="-379.88" font-family="sans" font-size="10.00">extract_times</text>
</g>
<!-- 16&#45;&gt;5 -->
<g id="edge9" class="edge">
<title>16&#45;&gt;5</title>
<path fill="none" stroke="grey" stroke-width="2" d="M283.25,-365.09C283.25,-358.5 283.25,-350.83 283.25,-343.42"/>
<polygon fill="grey" stroke="grey" stroke-width="2" points="286.75,-343.68 283.25,-333.68 279.75,-343.68 286.75,-343.68"/>
</g>
<!-- 17&#45;&gt;16 -->
<g id="edge20" class="edge">
<title>17&#45;&gt;16</title>
<path fill="none" stroke="grey" stroke-width="2" d="M278.02,-437.09C278.67,-430.5 279.44,-422.83 280.18,-415.42"/>
<polygon fill="grey" stroke="grey" stroke-width="2" points="283.65,-415.96 281.16,-405.66 276.68,-415.27 283.65,-415.96"/>
</g>
<!-- 18 -->
<g id="node19" class="node">
<title>18</title>
<path fill="none" stroke="#88d856" stroke-width="2" stroke-dasharray="5,2" d="M401.88,-401.75C401.88,-401.75 350.62,-401.75 350.62,-401.75 344.62,-401.75 338.62,-395.75 338.62,-389.75 338.62,-389.75 338.62,-377.75 338.62,-377.75 338.62,-371.75 344.62,-365.75 350.62,-365.75 350.62,-365.75 401.88,-365.75 401.88,-365.75 407.88,-365.75 413.88,-371.75 413.88,-377.75 413.88,-377.75 413.88,-389.75 413.88,-389.75 413.88,-395.75 407.88,-401.75 401.88,-401.75"/>
<text text-anchor="middle" x="376.25" y="-379.88" font-family="sans" font-size="10.00">extract_times</text>
</g>
<!-- 18&#45;&gt;5 -->
<g id="edge10" class="edge">
<title>18&#45;&gt;5</title>
<path fill="none" stroke="grey" stroke-width="2" d="M352.78,-365.09C342.07,-357.02 329.18,-347.32 317.42,-338.47"/>
<polygon fill="grey" stroke="grey" stroke-width="2" points="319.55,-335.69 309.45,-332.47 315.34,-341.28 319.55,-335.69"/>
</g>
<!-- 19&#45;&gt;18 -->
<g id="edge22" class="edge">
<title>19&#45;&gt;18</title>
<path fill="none" stroke="grey" stroke-width="2" d="M365.04,-437.09C366.46,-430.42 368.13,-422.64 369.74,-415.14"/>
<polygon fill="grey" stroke="grey" stroke-width="2" points="373.11,-416.12 371.78,-405.61 366.26,-414.66 373.11,-416.12"/>
</g>
<!-- 20&#45;&gt;2 -->
<g id="edge3" class="edge">
<title>20&#45;&gt;2</title>
<path fill="none" stroke="grey" stroke-width="2" d="M320.49,-71.19C315.12,-63.67 308.96,-55.03 303.22,-46.99"/>
<polygon fill="grey" stroke="grey" stroke-width="2" points="306.17,-45.1 297.52,-38.99 300.48,-49.17 306.17,-45.1"/>
</g>
</g>
</svg>
