<?xml version="1.0" encoding="UTF-8" standalone="no"?>
<!DOCTYPE svg PUBLIC "-//W3C//DTD SVG 1.1//EN"
 "http://www.w3.org/Graphics/SVG/1.1/DTD/svg11.dtd">
<!-- Generated by graphviz version 11.0.0 (0)
 -->
<!-- Title: snakemake_dag Pages: 1 -->
<svg width="826pt" height="560pt"
 viewBox="0.00 0.00 825.50 559.50" xmlns="http://www.w3.org/2000/svg" xmlns:xlink="http://www.w3.org/1999/xlink">
<g id="graph0" class="graph" transform="scale(1 1) rotate(0) translate(4 555.5)">
<title>snakemake_dag</title>
<polygon fill="white" stroke="none" points="-4,4 -4,-555.5 821.5,-555.5 821.5,4 -4,4"/>
<!-- 0 -->
<g id="node1" class="node">
<title>0</title>
<path fill="none" stroke="#56a9d8" stroke-width="2" d="M419,-36C419,-36 389,-36 389,-36 383,-36 377,-30 377,-24 377,-24 377,-12 377,-12 377,-6 383,0 389,0 389,0 419,0 419,0 425,0 431,-6 431,-12 431,-12 431,-24 431,-24 431,-30 425,-36 419,-36"/>
<text text-anchor="middle" x="404" y="-14.12" font-family="sans" font-size="10.00">all</text>
</g>
<!-- 1 -->
<g id="node2" class="node">
<title>1</title>
<path fill="none" stroke="#56d882" stroke-width="2" d="M424,-185.75C424,-185.75 384,-185.75 384,-185.75 378,-185.75 372,-179.75 372,-173.75 372,-173.75 372,-161.75 372,-161.75 372,-155.75 378,-149.75 384,-149.75 384,-149.75 424,-149.75 424,-149.75 430,-149.75 436,-155.75 436,-161.75 436,-161.75 436,-173.75 436,-173.75 436,-179.75 430,-185.75 424,-185.75"/>
<text text-anchor="middle" x="404" y="-163.88" font-family="sans" font-size="10.00">total_times</text>
</g>
<!-- 1&#45;&gt;0 -->
<g id="edge1" class="edge">
<title>1&#45;&gt;0</title>
<path fill="none" stroke="grey" stroke-width="2" d="M371.37,-164.9C309.22,-160.61 177.56,-147.66 150,-113.75 90.89,-41.04 277.36,-24.12 363.17,-20.19"/>
<polygon fill="grey" stroke="grey" stroke-width="2" points="363.15,-23.69 373,-19.78 362.87,-16.69 363.15,-23.69"/>
</g>
<!-- 11 -->
<g id="node12" class="node">
<title>11</title>
<path fill="none" stroke="#d8ac56" stroke-width="2" d="M298.5,-113.75C298.5,-113.75 171.5,-113.75 171.5,-113.75 165.5,-113.75 159.5,-107.75 159.5,-101.75 159.5,-101.75 159.5,-84 159.5,-84 159.5,-78 165.5,-72 171.5,-72 171.5,-72 298.5,-72 298.5,-72 304.5,-72 310.5,-78 310.5,-84 310.5,-84 310.5,-101.75 310.5,-101.75 310.5,-107.75 304.5,-113.75 298.5,-113.75"/>
<text text-anchor="middle" x="235" y="-100.25" font-family="sans" font-size="10.00">plot_permutations</text>
<text text-anchor="middle" x="235" y="-89" font-family="sans" font-size="10.00">benchmark: binary_phase_field</text>
<text text-anchor="middle" x="235" y="-77.75" font-family="sans" font-size="10.00">rev: c246c5c9f</text>
</g>
<!-- 1&#45;&gt;11 -->
<g id="edge19" class="edge">
<title>1&#45;&gt;11</title>
<path fill="none" stroke="grey" stroke-width="2" d="M371.01,-152.53C349.45,-143.23 320.66,-130.81 295.11,-119.8"/>
<polygon fill="grey" stroke="grey" stroke-width="2" points="296.61,-116.63 286.04,-115.89 293.84,-123.06 296.61,-116.63"/>
</g>
<!-- 12 -->
<g id="node13" class="node">
<title>12</title>
<path fill="none" stroke="#d8ac56" stroke-width="2" d="M467.5,-113.75C467.5,-113.75 340.5,-113.75 340.5,-113.75 334.5,-113.75 328.5,-107.75 328.5,-101.75 328.5,-101.75 328.5,-84 328.5,-84 328.5,-78 334.5,-72 340.5,-72 340.5,-72 467.5,-72 467.5,-72 473.5,-72 479.5,-78 479.5,-84 479.5,-84 479.5,-101.75 479.5,-101.75 479.5,-107.75 473.5,-113.75 467.5,-113.75"/>
<text text-anchor="middle" x="404" y="-100.25" font-family="sans" font-size="10.00">plot_permutations</text>
<text text-anchor="middle" x="404" y="-89" font-family="sans" font-size="10.00">benchmark: binary_phase_field</text>
<text text-anchor="middle" x="404" y="-77.75" font-family="sans" font-size="10.00">rev: 8c0aec6d3</text>
</g>
<!-- 1&#45;&gt;12 -->
<g id="edge20" class="edge">
<title>1&#45;&gt;12</title>
<path fill="none" stroke="grey" stroke-width="2" d="M404,-149.11C404,-142.63 404,-135.06 404,-127.65"/>
<polygon fill="grey" stroke="grey" stroke-width="2" points="407.5,-127.75 404,-117.75 400.5,-127.75 407.5,-127.75"/>
</g>
<!-- 13 -->
<g id="node14" class="node">
<title>13</title>
<path fill="none" stroke="#d8ac56" stroke-width="2" d="M636.5,-113.75C636.5,-113.75 509.5,-113.75 509.5,-113.75 503.5,-113.75 497.5,-107.75 497.5,-101.75 497.5,-101.75 497.5,-84 497.5,-84 497.5,-78 503.5,-72 509.5,-72 509.5,-72 636.5,-72 636.5,-72 642.5,-72 648.5,-78 648.5,-84 648.5,-84 648.5,-101.75 648.5,-101.75 648.5,-107.75 642.5,-113.75 636.5,-113.75"/>
<text text-anchor="middle" x="573" y="-100.25" font-family="sans" font-size="10.00">plot_permutations</text>
<text text-anchor="middle" x="573" y="-89" font-family="sans" font-size="10.00">benchmark: binary_phase_field</text>
<text text-anchor="middle" x="573" y="-77.75" font-family="sans" font-size="10.00">rev: 2e82a58e7</text>
</g>
<!-- 1&#45;&gt;13 -->
<g id="edge21" class="edge">
<title>1&#45;&gt;13</title>
<path fill="none" stroke="grey" stroke-width="2" d="M436.99,-152.53C458.55,-143.23 487.34,-130.81 512.89,-119.8"/>
<polygon fill="grey" stroke="grey" stroke-width="2" points="514.16,-123.06 521.96,-115.89 511.39,-116.63 514.16,-123.06"/>
</g>
<!-- 14 -->
<g id="node15" class="node">
<title>14</title>
<path fill="none" stroke="#d8ac56" stroke-width="2" d="M805.5,-113.75C805.5,-113.75 678.5,-113.75 678.5,-113.75 672.5,-113.75 666.5,-107.75 666.5,-101.75 666.5,-101.75 666.5,-84 666.5,-84 666.5,-78 672.5,-72 678.5,-72 678.5,-72 805.5,-72 805.5,-72 811.5,-72 817.5,-78 817.5,-84 817.5,-84 817.5,-101.75 817.5,-101.75 817.5,-107.75 811.5,-113.75 805.5,-113.75"/>
<text text-anchor="middle" x="742" y="-100.25" font-family="sans" font-size="10.00">plot_permutations</text>
<text text-anchor="middle" x="742" y="-89" font-family="sans" font-size="10.00">benchmark: binary_phase_field</text>
<text text-anchor="middle" x="742" y="-77.75" font-family="sans" font-size="10.00">rev: 2876d0a7b</text>
</g>
<!-- 1&#45;&gt;14 -->
<g id="edge22" class="edge">
<title>1&#45;&gt;14</title>
<path fill="none" stroke="grey" stroke-width="2" d="M436.94,-160.17C483.11,-150.88 570.01,-133.17 653.08,-114.82"/>
<polygon fill="grey" stroke="grey" stroke-width="2" points="653.6,-118.29 662.61,-112.71 652.09,-111.46 653.6,-118.29"/>
</g>
<!-- 2 -->
<g id="node3" class="node">
<title>2</title>
<path fill="none" stroke="#56d8d8" stroke-width="2" d="M452.12,-329.75C452.12,-329.75 355.88,-329.75 355.88,-329.75 349.88,-329.75 343.88,-323.75 343.88,-317.75 343.88,-317.75 343.88,-305.75 343.88,-305.75 343.88,-299.75 349.88,-293.75 355.88,-293.75 355.88,-293.75 452.12,-293.75 452.12,-293.75 458.12,-293.75 464.12,-299.75 464.12,-305.75 464.12,-305.75 464.12,-317.75 464.12,-317.75 464.12,-323.75 458.12,-329.75 452.12,-329.75"/>
<text text-anchor="middle" x="404" y="-307.88" font-family="sans" font-size="10.00">aggregate_permutations</text>
</g>
<!-- 23 -->
<g id="node24" class="node">
<title>23</title>
<path fill="none" stroke="#59d856" stroke-width="2" d="M438.62,-257.75C438.62,-257.75 369.38,-257.75 369.38,-257.75 363.38,-257.75 357.38,-251.75 357.38,-245.75 357.38,-245.75 357.38,-233.75 357.38,-233.75 357.38,-227.75 363.38,-221.75 369.38,-221.75 369.38,-221.75 438.62,-221.75 438.62,-221.75 444.62,-221.75 450.62,-227.75 450.62,-233.75 450.62,-233.75 450.62,-245.75 450.62,-245.75 450.62,-251.75 444.62,-257.75 438.62,-257.75"/>
<text text-anchor="middle" x="404" y="-235.88" font-family="sans" font-size="10.00">aggregate_results</text>
</g>
<!-- 2&#45;&gt;23 -->
<g id="edge31" class="edge">
<title>2&#45;&gt;23</title>
<path fill="none" stroke="grey" stroke-width="2" d="M404,-293.09C404,-286.5 404,-278.83 404,-271.42"/>
<polygon fill="grey" stroke="grey" stroke-width="2" points="407.5,-271.68 404,-261.68 400.5,-271.68 407.5,-271.68"/>
</g>
<!-- 3 -->
<g id="node4" class="node">
<title>3</title>
<path fill="none" stroke="#afd856" stroke-width="2" d="M208.12,-401.75C208.12,-401.75 93.88,-401.75 93.88,-401.75 87.88,-401.75 81.88,-395.75 81.88,-389.75 81.88,-389.75 81.88,-377.75 81.88,-377.75 81.88,-371.75 87.88,-365.75 93.88,-365.75 93.88,-365.75 208.12,-365.75 208.12,-365.75 214.12,-365.75 220.12,-371.75 220.12,-377.75 220.12,-377.75 220.12,-389.75 220.12,-389.75 220.12,-395.75 214.12,-401.75 208.12,-401.75"/>
<text text-anchor="middle" x="151" y="-379.88" font-family="sans" font-size="10.00">rev_and_suite_permutations</text>
</g>
<!-- 3&#45;&gt;2 -->
<g id="edge7" class="edge">
<title>3&#45;&gt;2</title>
<path fill="none" stroke="grey" stroke-width="2" d="M215.83,-364.81C250.92,-355.1 294.41,-343.07 330.73,-333.02"/>
<polygon fill="grey" stroke="grey" stroke-width="2" points="331.63,-336.4 340.34,-330.36 329.77,-329.66 331.63,-336.4"/>
</g>
<!-- 4 -->
<g id="node5" class="node">
<title>4</title>
<path fill="none" stroke="#56d8a9" stroke-width="2" stroke-dasharray="5,2" d="M163.62,-551.5C163.62,-551.5 70.38,-551.5 70.38,-551.5 64.38,-551.5 58.38,-545.5 58.38,-539.5 58.38,-539.5 58.38,-521.75 58.38,-521.75 58.38,-515.75 64.38,-509.75 70.38,-509.75 70.38,-509.75 163.62,-509.75 163.62,-509.75 169.62,-509.75 175.62,-515.75 175.62,-521.75 175.62,-521.75 175.62,-539.5 175.62,-539.5 175.62,-545.5 169.62,-551.5 163.62,-551.5"/>
<text text-anchor="middle" x="117" y="-538" font-family="sans" font-size="10.00">render_conda_template</text>
<text text-anchor="middle" x="117" y="-526.75" font-family="sans" font-size="10.00">rev: c246c5c9f</text>
<text text-anchor="middle" x="117" y="-515.5" font-family="sans" font-size="10.00">suite: petsc</text>
</g>
<!-- 15 -->
<g id="node16" class="node">
<title>15</title>
<path fill="none" stroke="#d6d856" stroke-width="2" stroke-dasharray="5,2" d="M88,-473.75C88,-473.75 12,-473.75 12,-473.75 6,-473.75 0,-467.75 0,-461.75 0,-461.75 0,-449.75 0,-449.75 0,-443.75 6,-437.75 12,-437.75 12,-437.75 88,-437.75 88,-437.75 94,-437.75 100,-443.75 100,-449.75 100,-449.75 100,-461.75 100,-461.75 100,-467.75 94,-473.75 88,-473.75"/>
<text text-anchor="middle" x="50" y="-451.88" font-family="sans" font-size="10.00">list_preconditioners</text>
</g>
<!-- 4&#45;&gt;15 -->
<g id="edge23" class="edge">
<title>4&#45;&gt;15</title>
<path fill="none" stroke="grey" stroke-width="2" d="M97.98,-508.94C90.75,-501.07 82.41,-492 74.72,-483.64"/>
<polygon fill="grey" stroke="grey" stroke-width="2" points="77.51,-481.5 68.17,-476.51 72.36,-486.24 77.51,-481.5"/>
</g>
<!-- 16 -->
<g id="node17" class="node">
<title>16</title>
<path fill="none" stroke="#d88556" stroke-width="2" stroke-dasharray="5,2" d="M171.75,-473.75C171.75,-473.75 130.25,-473.75 130.25,-473.75 124.25,-473.75 118.25,-467.75 118.25,-461.75 118.25,-461.75 118.25,-449.75 118.25,-449.75 118.25,-443.75 124.25,-437.75 130.25,-437.75 130.25,-437.75 171.75,-437.75 171.75,-437.75 177.75,-437.75 183.75,-443.75 183.75,-449.75 183.75,-449.75 183.75,-461.75 183.75,-461.75 183.75,-467.75 177.75,-473.75 171.75,-473.75"/>
<text text-anchor="middle" x="151" y="-451.88" font-family="sans" font-size="10.00">list_solvers</text>
</g>
<!-- 4&#45;&gt;16 -->
<g id="edge24" class="edge">
<title>4&#45;&gt;16</title>
<path fill="none" stroke="grey" stroke-width="2" d="M126.65,-508.94C130,-501.76 133.82,-493.57 137.43,-485.84"/>
<polygon fill="grey" stroke="grey" stroke-width="2" points="140.48,-487.57 141.54,-477.02 134.14,-484.61 140.48,-487.57"/>
</g>
<!-- 5 -->
<g id="node6" class="node">
<title>5</title>
<path fill="none" stroke="#afd856" stroke-width="2" d="M383.12,-401.75C383.12,-401.75 268.88,-401.75 268.88,-401.75 262.88,-401.75 256.88,-395.75 256.88,-389.75 256.88,-389.75 256.88,-377.75 256.88,-377.75 256.88,-371.75 262.88,-365.75 268.88,-365.75 268.88,-365.75 383.12,-365.75 383.12,-365.75 389.12,-365.75 395.12,-371.75 395.12,-377.75 395.12,-377.75 395.12,-389.75 395.12,-389.75 395.12,-395.75 389.12,-401.75 383.12,-401.75"/>
<text text-anchor="middle" x="326" y="-379.88" font-family="sans" font-size="10.00">rev_and_suite_permutations</text>
</g>
<!-- 5&#45;&gt;2 -->
<g id="edge8" class="edge">
<title>5&#45;&gt;2</title>
<path fill="none" stroke="grey" stroke-width="2" d="M345.68,-365.09C354.39,-357.27 364.82,-347.91 374.43,-339.28"/>
<polygon fill="grey" stroke="grey" stroke-width="2" points="376.69,-341.96 381.8,-332.67 372.02,-336.75 376.69,-341.96"/>
</g>
<!-- 6 -->
<g id="node7" class="node">
<title>6</title>
<path fill="none" stroke="#56d8a9" stroke-width="2" stroke-dasharray="5,2" d="M331.62,-551.5C331.62,-551.5 238.38,-551.5 238.38,-551.5 232.38,-551.5 226.38,-545.5 226.38,-539.5 226.38,-539.5 226.38,-521.75 226.38,-521.75 226.38,-515.75 232.38,-509.75 238.38,-509.75 238.38,-509.75 331.62,-509.75 331.62,-509.75 337.62,-509.75 343.62,-515.75 343.62,-521.75 343.62,-521.75 343.62,-539.5 343.62,-539.5 343.62,-545.5 337.62,-551.5 331.62,-551.5"/>
<text text-anchor="middle" x="285" y="-538" font-family="sans" font-size="10.00">render_conda_template</text>
<text text-anchor="middle" x="285" y="-526.75" font-family="sans" font-size="10.00">rev: 8c0aec6d3</text>
<text text-anchor="middle" x="285" y="-515.5" font-family="sans" font-size="10.00">suite: petsc</text>
</g>
<!-- 17 -->
<g id="node18" class="node">
<title>17</title>
<path fill="none" stroke="#d6d856" stroke-width="2" stroke-dasharray="5,2" d="M290,-473.75C290,-473.75 214,-473.75 214,-473.75 208,-473.75 202,-467.75 202,-461.75 202,-461.75 202,-449.75 202,-449.75 202,-443.75 208,-437.75 214,-437.75 214,-437.75 290,-437.75 290,-437.75 296,-437.75 302,-443.75 302,-449.75 302,-449.75 302,-461.75 302,-461.75 302,-467.75 296,-473.75 290,-473.75"/>
<text text-anchor="middle" x="252" y="-451.88" font-family="sans" font-size="10.00">list_preconditioners</text>
</g>
<!-- 6&#45;&gt;17 -->
<g id="edge25" class="edge">
<title>6&#45;&gt;17</title>
<path fill="none" stroke="grey" stroke-width="2" d="M275.63,-508.94C272.42,-501.84 268.76,-493.76 265.3,-486.11"/>
<polygon fill="grey" stroke="grey" stroke-width="2" points="268.5,-484.7 261.19,-477.04 262.12,-487.59 268.5,-484.7"/>
</g>
<!-- 18 -->
<g id="node19" class="node">
<title>18</title>
<path fill="none" stroke="#d88556" stroke-width="2" stroke-dasharray="5,2" d="M373.75,-473.75C373.75,-473.75 332.25,-473.75 332.25,-473.75 326.25,-473.75 320.25,-467.75 320.25,-461.75 320.25,-461.75 320.25,-449.75 320.25,-449.75 320.25,-443.75 326.25,-437.75 332.25,-437.75 332.25,-437.75 373.75,-437.75 373.75,-437.75 379.75,-437.75 385.75,-443.75 385.75,-449.75 385.75,-449.75 385.75,-461.75 385.75,-461.75 385.75,-467.75 379.75,-473.75 373.75,-473.75"/>
<text text-anchor="middle" x="353" y="-451.88" font-family="sans" font-size="10.00">list_solvers</text>
</g>
<!-- 6&#45;&gt;18 -->
<g id="edge26" class="edge">
<title>6&#45;&gt;18</title>
<path fill="none" stroke="grey" stroke-width="2" d="M304.3,-508.94C311.64,-501.07 320.11,-492 327.91,-483.64"/>
<polygon fill="grey" stroke="grey" stroke-width="2" points="330.31,-486.19 334.58,-476.49 325.2,-481.42 330.31,-486.19"/>
</g>
<!-- 7 -->
<g id="node8" class="node">
<title>7</title>
<path fill="none" stroke="#afd856" stroke-width="2" d="M539.12,-401.75C539.12,-401.75 424.88,-401.75 424.88,-401.75 418.88,-401.75 412.88,-395.75 412.88,-389.75 412.88,-389.75 412.88,-377.75 412.88,-377.75 412.88,-371.75 418.88,-365.75 424.88,-365.75 424.88,-365.75 539.12,-365.75 539.12,-365.75 545.12,-365.75 551.12,-371.75 551.12,-377.75 551.12,-377.75 551.12,-389.75 551.12,-389.75 551.12,-395.75 545.12,-401.75 539.12,-401.75"/>
<text text-anchor="middle" x="482" y="-379.88" font-family="sans" font-size="10.00">rev_and_suite_permutations</text>
</g>
<!-- 7&#45;&gt;2 -->
<g id="edge9" class="edge">
<title>7&#45;&gt;2</title>
<path fill="none" stroke="grey" stroke-width="2" d="M462.32,-365.09C453.61,-357.27 443.18,-347.91 433.57,-339.28"/>
<polygon fill="grey" stroke="grey" stroke-width="2" points="435.98,-336.75 426.2,-332.67 431.31,-341.96 435.98,-336.75"/>
</g>
<!-- 8 -->
<g id="node9" class="node">
<title>8</title>
<path fill="none" stroke="#56d8a9" stroke-width="2" stroke-dasharray="5,2" d="M533.62,-551.5C533.62,-551.5 440.38,-551.5 440.38,-551.5 434.38,-551.5 428.38,-545.5 428.38,-539.5 428.38,-539.5 428.38,-521.75 428.38,-521.75 428.38,-515.75 434.38,-509.75 440.38,-509.75 440.38,-509.75 533.62,-509.75 533.62,-509.75 539.62,-509.75 545.62,-515.75 545.62,-521.75 545.62,-521.75 545.62,-539.5 545.62,-539.5 545.62,-545.5 539.62,-551.5 533.62,-551.5"/>
<text text-anchor="middle" x="487" y="-538" font-family="sans" font-size="10.00">render_conda_template</text>
<text text-anchor="middle" x="487" y="-526.75" font-family="sans" font-size="10.00">rev: 2e82a58e7</text>
<text text-anchor="middle" x="487" y="-515.5" font-family="sans" font-size="10.00">suite: petsc</text>
</g>
<!-- 19 -->
<g id="node20" class="node">
<title>19</title>
<path fill="none" stroke="#d6d856" stroke-width="2" stroke-dasharray="5,2" d="M492,-473.75C492,-473.75 416,-473.75 416,-473.75 410,-473.75 404,-467.75 404,-461.75 404,-461.75 404,-449.75 404,-449.75 404,-443.75 410,-437.75 416,-437.75 416,-437.75 492,-437.75 492,-437.75 498,-437.75 504,-443.75 504,-449.75 504,-449.75 504,-461.75 504,-461.75 504,-467.75 498,-473.75 492,-473.75"/>
<text text-anchor="middle" x="454" y="-451.88" font-family="sans" font-size="10.00">list_preconditioners</text>
</g>
<!-- 8&#45;&gt;19 -->
<g id="edge27" class="edge">
<title>8&#45;&gt;19</title>
<path fill="none" stroke="grey" stroke-width="2" d="M477.63,-508.94C474.42,-501.84 470.76,-493.76 467.3,-486.11"/>
<polygon fill="grey" stroke="grey" stroke-width="2" points="470.5,-484.7 463.19,-477.04 464.12,-487.59 470.5,-484.7"/>
</g>
<!-- 20 -->
<g id="node21" class="node">
<title>20</title>
<path fill="none" stroke="#d88556" stroke-width="2" stroke-dasharray="5,2" d="M575.75,-473.75C575.75,-473.75 534.25,-473.75 534.25,-473.75 528.25,-473.75 522.25,-467.75 522.25,-461.75 522.25,-461.75 522.25,-449.75 522.25,-449.75 522.25,-443.75 528.25,-437.75 534.25,-437.75 534.25,-437.75 575.75,-437.75 575.75,-437.75 581.75,-437.75 587.75,-443.75 587.75,-449.75 587.75,-449.75 587.75,-461.75 587.75,-461.75 587.75,-467.75 581.75,-473.75 575.75,-473.75"/>
<text text-anchor="middle" x="555" y="-451.88" font-family="sans" font-size="10.00">list_solvers</text>
</g>
<!-- 8&#45;&gt;20 -->
<g id="edge28" class="edge">
<title>8&#45;&gt;20</title>
<path fill="none" stroke="grey" stroke-width="2" d="M506.3,-508.94C513.64,-501.07 522.11,-492 529.91,-483.64"/>
<polygon fill="grey" stroke="grey" stroke-width="2" points="532.31,-486.19 536.58,-476.49 527.2,-481.42 532.31,-486.19"/>
</g>
<!-- 9 -->
<g id="node10" class="node">
<title>9</title>
<path fill="none" stroke="#afd856" stroke-width="2" d="M713.12,-401.75C713.12,-401.75 598.88,-401.75 598.88,-401.75 592.88,-401.75 586.88,-395.75 586.88,-389.75 586.88,-389.75 586.88,-377.75 586.88,-377.75 586.88,-371.75 592.88,-365.75 598.88,-365.75 598.88,-365.75 713.12,-365.75 713.12,-365.75 719.12,-365.75 725.12,-371.75 725.12,-377.75 725.12,-377.75 725.12,-389.75 725.12,-389.75 725.12,-395.75 719.12,-401.75 713.12,-401.75"/>
<text text-anchor="middle" x="656" y="-379.88" font-family="sans" font-size="10.00">rev_and_suite_permutations</text>
</g>
<!-- 9&#45;&gt;2 -->
<g id="edge10" class="edge">
<title>9&#45;&gt;2</title>
<path fill="none" stroke="grey" stroke-width="2" d="M591.43,-364.81C556.6,-355.14 513.48,-343.16 477.38,-333.13"/>
<polygon fill="grey" stroke="grey" stroke-width="2" points="478.42,-329.79 467.85,-330.49 476.55,-336.53 478.42,-329.79"/>
</g>
<!-- 10 -->
<g id="node11" class="node">
<title>10</title>
<path fill="none" stroke="#56d8a9" stroke-width="2" stroke-dasharray="5,2" d="M752.62,-551.5C752.62,-551.5 659.38,-551.5 659.38,-551.5 653.38,-551.5 647.38,-545.5 647.38,-539.5 647.38,-539.5 647.38,-521.75 647.38,-521.75 647.38,-515.75 653.38,-509.75 659.38,-509.75 659.38,-509.75 752.62,-509.75 752.62,-509.75 758.62,-509.75 764.62,-515.75 764.62,-521.75 764.62,-521.75 764.62,-539.5 764.62,-539.5 764.62,-545.5 758.62,-551.5 752.62,-551.5"/>
<text text-anchor="middle" x="706" y="-538" font-family="sans" font-size="10.00">render_conda_template</text>
<text text-anchor="middle" x="706" y="-526.75" font-family="sans" font-size="10.00">rev: 2876d0a7b</text>
<text text-anchor="middle" x="706" y="-515.5" font-family="sans" font-size="10.00">suite: petsc</text>
</g>
<!-- 21 -->
<g id="node22" class="node">
<title>21</title>
<path fill="none" stroke="#d6d856" stroke-width="2" stroke-dasharray="5,2" d="M694,-473.75C694,-473.75 618,-473.75 618,-473.75 612,-473.75 606,-467.75 606,-461.75 606,-461.75 606,-449.75 606,-449.75 606,-443.75 612,-437.75 618,-437.75 618,-437.75 694,-437.75 694,-437.75 700,-437.75 706,-443.75 706,-449.75 706,-449.75 706,-461.75 706,-461.75 706,-467.75 700,-473.75 694,-473.75"/>
<text text-anchor="middle" x="656" y="-451.88" font-family="sans" font-size="10.00">list_preconditioners</text>
</g>
<!-- 10&#45;&gt;21 -->
<g id="edge29" class="edge">
<title>10&#45;&gt;21</title>
<path fill="none" stroke="grey" stroke-width="2" d="M691.81,-508.94C686.7,-501.5 680.86,-492.98 675.39,-485.01"/>
<polygon fill="grey" stroke="grey" stroke-width="2" points="678.28,-483.04 669.74,-476.78 672.51,-487 678.28,-483.04"/>
</g>
<!-- 22 -->
<g id="node23" class="node">
<title>22</title>
<path fill="none" stroke="#d88556" stroke-width="2" stroke-dasharray="5,2" d="M777.75,-473.75C777.75,-473.75 736.25,-473.75 736.25,-473.75 730.25,-473.75 724.25,-467.75 724.25,-461.75 724.25,-461.75 724.25,-449.75 724.25,-449.75 724.25,-443.75 730.25,-437.75 736.25,-437.75 736.25,-437.75 777.75,-437.75 777.75,-437.75 783.75,-437.75 789.75,-443.75 789.75,-449.75 789.75,-449.75 789.75,-461.75 789.75,-461.75 789.75,-467.75 783.75,-473.75 777.75,-473.75"/>
<text text-anchor="middle" x="757" y="-451.88" font-family="sans" font-size="10.00">list_solvers</text>
</g>
<!-- 10&#45;&gt;22 -->
<g id="edge30" class="edge">
<title>10&#45;&gt;22</title>
<path fill="none" stroke="grey" stroke-width="2" d="M720.48,-508.94C725.74,-501.42 731.78,-492.78 737.41,-484.74"/>
<polygon fill="grey" stroke="grey" stroke-width="2" points="740.13,-486.96 743,-476.76 734.39,-482.95 740.13,-486.96"/>
</g>
<!-- 11&#45;&gt;0 -->
<g id="edge2" class="edge">
<title>11&#45;&gt;0</title>
<path fill="none" stroke="grey" stroke-width="2" d="M282.98,-71.19C308.86,-60.03 340.39,-46.43 364.79,-35.91"/>
<polygon fill="grey" stroke="grey" stroke-width="2" points="365.9,-39.24 373.7,-32.07 363.13,-32.81 365.9,-39.24"/>
</g>
<!-- 12&#45;&gt;0 -->
<g id="edge3" class="edge">
<title>12&#45;&gt;0</title>
<path fill="none" stroke="grey" stroke-width="2" d="M404,-71.19C404,-64.43 404,-56.79 404,-49.47"/>
<polygon fill="grey" stroke="grey" stroke-width="2" points="407.5,-49.56 404,-39.56 400.5,-49.56 407.5,-49.56"/>
</g>
<!-- 13&#45;&gt;0 -->
<g id="edge4" class="edge">
<title>13&#45;&gt;0</title>
<path fill="none" stroke="grey" stroke-width="2" d="M525.02,-71.19C499.14,-60.03 467.61,-46.43 443.21,-35.91"/>
<polygon fill="grey" stroke="grey" stroke-width="2" points="444.87,-32.81 434.3,-32.07 442.1,-39.24 444.87,-32.81"/>
</g>
<!-- 14&#45;&gt;0 -->
<g id="edge5" class="edge">
<title>14&#45;&gt;0</title>
<path fill="none" stroke="grey" stroke-width="2" d="M665.56,-73.7C663.01,-73.12 660.49,-72.55 658,-72 582.72,-55.24 494.53,-37.2 444.37,-27.08"/>
<polygon fill="grey" stroke="grey" stroke-width="2" points="445.33,-23.7 434.83,-25.16 443.95,-30.56 445.33,-23.7"/>
</g>
<!-- 15&#45;&gt;3 -->
<g id="edge11" class="edge">
<title>15&#45;&gt;3</title>
<path fill="none" stroke="grey" stroke-width="2" d="M75.75,-436.9C87.62,-428.68 101.92,-418.77 114.84,-409.81"/>
<polygon fill="grey" stroke="grey" stroke-width="2" points="116.59,-412.86 122.81,-404.29 112.6,-407.11 116.59,-412.86"/>
</g>
<!-- 16&#45;&gt;3 -->
<g id="edge12" class="edge">
<title>16&#45;&gt;3</title>
<path fill="none" stroke="grey" stroke-width="2" d="M151,-437.09C151,-430.5 151,-422.83 151,-415.42"/>
<polygon fill="grey" stroke="grey" stroke-width="2" points="154.5,-415.68 151,-405.68 147.5,-415.68 154.5,-415.68"/>
</g>
<!-- 17&#45;&gt;5 -->
<g id="edge13" class="edge">
<title>17&#45;&gt;5</title>
<path fill="none" stroke="grey" stroke-width="2" d="M270.67,-437.09C278.85,-429.35 288.62,-420.11 297.66,-411.56"/>
<polygon fill="grey" stroke="grey" stroke-width="2" points="300.02,-414.15 304.88,-404.73 295.21,-409.06 300.02,-414.15"/>
</g>
<!-- 18&#45;&gt;5 -->
<g id="edge14" class="edge">
<title>18&#45;&gt;5</title>
<path fill="none" stroke="grey" stroke-width="2" d="M346.19,-437.09C343.55,-430.26 340.46,-422.25 337.51,-414.58"/>
<polygon fill="grey" stroke="grey" stroke-width="2" points="340.86,-413.55 333.99,-405.48 334.33,-416.07 340.86,-413.55"/>
</g>
<!-- 19&#45;&gt;7 -->
<g id="edge15" class="edge">
<title>19&#45;&gt;7</title>
<path fill="none" stroke="grey" stroke-width="2" d="M461.07,-437.09C463.8,-430.26 467,-422.25 470.07,-414.58"/>
<polygon fill="grey" stroke="grey" stroke-width="2" points="473.25,-416.05 473.72,-405.46 466.75,-413.45 473.25,-416.05"/>
</g>
<!-- 20&#45;&gt;7 -->
<g id="edge16" class="edge">
<title>20&#45;&gt;7</title>
<path fill="none" stroke="grey" stroke-width="2" d="M536.58,-437.09C528.51,-429.35 518.87,-420.11 509.96,-411.56"/>
<polygon fill="grey" stroke="grey" stroke-width="2" points="512.49,-409.14 502.85,-404.75 507.65,-414.19 512.49,-409.14"/>
</g>
<!-- 21&#45;&gt;9 -->
<g id="edge17" class="edge">
<title>21&#45;&gt;9</title>
<path fill="none" stroke="grey" stroke-width="2" d="M656,-437.09C656,-430.5 656,-422.83 656,-415.42"/>
<polygon fill="grey" stroke="grey" stroke-width="2" points="659.5,-415.68 656,-405.68 652.5,-415.68 659.5,-415.68"/>
</g>
<!-- 22&#45;&gt;9 -->
<g id="edge18" class="edge">
<title>22&#45;&gt;9</title>
<path fill="none" stroke="grey" stroke-width="2" d="M731.25,-436.9C719.38,-428.68 705.08,-418.77 692.16,-409.81"/>
<polygon fill="grey" stroke="grey" stroke-width="2" points="694.4,-407.11 684.19,-404.29 690.41,-412.86 694.4,-407.11"/>
</g>
<!-- 23&#45;&gt;1 -->
<g id="edge6" class="edge">
<title>23&#45;&gt;1</title>
<path fill="none" stroke="grey" stroke-width="2" d="M404,-221.09C404,-214.5 404,-206.83 404,-199.42"/>
<polygon fill="grey" stroke="grey" stroke-width="2" points="407.5,-199.68 404,-189.68 400.5,-199.68 407.5,-199.68"/>
</g>
</g>
</svg>
