<?xml version="1.0" encoding="UTF-8" standalone="no"?>
<!DOCTYPE svg PUBLIC "-//W3C//DTD SVG 1.1//EN"
 "http://www.w3.org/Graphics/SVG/1.1/DTD/svg11.dtd">
<!-- Generated by graphviz version 11.0.0 (0)
 -->
<!-- Title: snakemake_dag Pages: 1 -->
<svg width="618pt" height="1607pt"
 viewBox="0.00 0.00 618.00 1606.50" xmlns="http://www.w3.org/2000/svg" xmlns:xlink="http://www.w3.org/1999/xlink">
<g id="graph0" class="graph" transform="scale(1 1) rotate(0) translate(4 1602.5)">
<title>snakemake_dag</title>
<polygon fill="white" stroke="none" points="-4,4 -4,-1602.5 614,-1602.5 614,4 -4,4"/>
<!-- 0 -->
<g id="node1" class="node">
<title>0</title>
<text text-anchor="start" x="297.88" y="-309.65" font-family="sans" font-weight="bold" font-size="18.00">all</text>
<text text-anchor="start" x="131" y="-287.7" font-family="sans" font-size="10.00"> </text>
<text text-anchor="start" x="134" y="-287.7" font-family="sans" font-weight="bold" font-size="14.00">↪ input</text>
<text text-anchor="start" x="185" y="-287.7" font-family="sans" font-size="10.00"> </text>
<text text-anchor="start" x="131" y="-265.5" font-family="monospace" font-size="10.00">results/plots/fipy~2876d0a7b/binary_phase_field/prepare.png</text>
<text text-anchor="start" x="131" y="-245.75" font-family="monospace" font-size="10.00">results/plots/fipy~2876d0a7b/binary_phase_field/solve.png</text>
<text text-anchor="start" x="131" y="-226" font-family="monospace" font-size="10.00">results/plots/fipy~2876d0a7b/binary_phase_field/total.png</text>
<text text-anchor="start" x="131" y="-206.25" font-family="monospace" font-size="10.00">results/plots/fipy~2e82a58e7/binary_phase_field/prepare.png</text>
<text text-anchor="start" x="131" y="-186.5" font-family="monospace" font-size="10.00">results/plots/fipy~2e82a58e7/binary_phase_field/solve.png</text>
<text text-anchor="start" x="131" y="-166.75" font-family="monospace" font-size="10.00">results/plots/fipy~2e82a58e7/binary_phase_field/total.png</text>
<text text-anchor="start" x="131" y="-147" font-family="monospace" font-size="10.00">results/plots/fipy~8c0aec6d3/binary_phase_field/prepare.png</text>
<text text-anchor="start" x="131" y="-127.25" font-family="monospace" font-size="10.00">results/plots/fipy~8c0aec6d3/binary_phase_field/solve.png</text>
<text text-anchor="start" x="131" y="-107.5" font-family="monospace" font-size="10.00">results/plots/fipy~8c0aec6d3/binary_phase_field/total.png</text>
<text text-anchor="start" x="131" y="-87.75" font-family="monospace" font-size="10.00">results/plots/fipy~c246c5c9f/binary_phase_field/prepare.png</text>
<text text-anchor="start" x="131" y="-68" font-family="monospace" font-size="10.00">results/plots/fipy~c246c5c9f/binary_phase_field/solve.png</text>
<text text-anchor="start" x="131" y="-48.25" font-family="monospace" font-size="10.00">results/plots/fipy~c246c5c9f/binary_phase_field/total.png</text>
<text text-anchor="start" x="131" y="-28.5" font-family="monospace" font-size="10.00">results/total_times.json</text>
<text text-anchor="start" x="479" y="-8.75" font-family="sans" font-size="10.00"> &#160;</text>
<polygon fill="#57d9ad" stroke="#57d9ad" points="125,-304 125,-304 492,-304 492,-304 125,-304"/>
<polygon fill="#57d9ad" stroke="#57d9ad" points="125,-22.25 125,-22.25 492,-22.25 492,-22.25 125,-22.25"/>
<polygon fill="none" stroke="#57d9ad" stroke-width="2" points="125,-1 125,-331.75 491,-331.75 491,-1 125,-1"/>
</g>
<!-- 1 -->
<g id="node2" class="node">
<title>1</title>
<text text-anchor="start" x="260.75" y="-685.4" font-family="sans" font-weight="bold" font-size="18.00">total_times</text>
<text text-anchor="start" x="236" y="-663.45" font-family="sans" font-size="10.00"> </text>
<text text-anchor="start" x="239" y="-663.45" font-family="sans" font-weight="bold" font-size="14.00">↪ input</text>
<text text-anchor="start" x="290" y="-663.45" font-family="sans" font-size="10.00"> </text>
<text text-anchor="start" x="236" y="-641.25" font-family="monospace" font-size="10.00">results/all.json</text>
<text text-anchor="start" x="314" y="-618.7" font-family="sans" font-size="10.00"> </text>
<text text-anchor="start" x="317" y="-618.7" font-family="sans" font-weight="bold" font-size="14.00">output →</text>
<text text-anchor="start" x="377" y="-618.7" font-family="sans" font-size="10.00"> </text>
<text text-anchor="start" x="236" y="-596.5" font-family="monospace" font-size="10.00">results/total_times.json</text>
<polygon fill="#d95757" stroke="#d95757" points="230,-679.75 230,-679.75 387,-679.75 387,-679.75 230,-679.75"/>
<polygon fill="#d95757" stroke="#d95757" points="230,-635 230,-635 387,-635 387,-635 230,-635"/>
<polygon fill="none" stroke="#d95757" stroke-width="2" points="230,-587.25 230,-707.5 386,-707.5 386,-587.25 230,-587.25"/>
</g>
<!-- 1&#45;&gt;0 -->
<g id="edge1" class="edge">
<title>1&#45;&gt;0</title>
<path fill="none" stroke="grey" stroke-width="2" d="M255.84,-586.47C248.51,-575.1 242.09,-562.81 238,-550.25 216.63,-484.6 223.47,-410.37 239.4,-344.87"/>
<polygon fill="grey" stroke="grey" stroke-width="2" points="242.77,-345.8 241.84,-335.25 235.99,-344.08 242.77,-345.8"/>
</g>
<!-- 5 -->
<g id="node6" class="node">
<title>5</title>
<text text-anchor="start" x="319.25" y="-527.15" font-family="sans" font-weight="bold" font-size="18.00">plot_permutations</text>
<text text-anchor="start" x="254" y="-505.2" font-family="sans" font-size="10.00"> </text>
<text text-anchor="start" x="257" y="-505.2" font-family="sans" font-weight="bold" font-size="14.00">↪ input</text>
<text text-anchor="start" x="308" y="-505.2" font-family="sans" font-size="10.00"> </text>
<text text-anchor="start" x="254" y="-483" font-family="monospace" font-size="10.00">results/total_times.json</text>
<text text-anchor="start" x="476" y="-460.45" font-family="sans" font-size="10.00"> </text>
<text text-anchor="start" x="479" y="-460.45" font-family="sans" font-weight="bold" font-size="14.00">output →</text>
<text text-anchor="start" x="539" y="-460.45" font-family="sans" font-size="10.00"> </text>
<text text-anchor="start" x="254" y="-438.25" font-family="monospace" font-size="10.00">results/plots/fipy~{rev}/{benchmark}</text>
<text text-anchor="start" x="254" y="-418.5" font-family="monospace" font-size="10.00">results/plots/fipy~{rev}/{benchmark}/prepare.png</text>
<text text-anchor="start" x="254" y="-398.75" font-family="monospace" font-size="10.00">results/plots/fipy~{rev}/{benchmark}/solve.png</text>
<text text-anchor="start" x="254" y="-379" font-family="monospace" font-size="10.00">results/plots/fipy~{rev}/{benchmark}/total.png</text>
<polygon fill="#57d957" stroke="#57d957" points="248,-521.5 248,-521.5 549,-521.5 549,-521.5 248,-521.5"/>
<polygon fill="#57d957" stroke="#57d957" points="248,-476.75 248,-476.75 549,-476.75 549,-476.75 248,-476.75"/>
<polygon fill="none" stroke="#57d957" stroke-width="2" points="248,-369.75 248,-549.25 548,-549.25 548,-369.75 248,-369.75"/>
</g>
<!-- 1&#45;&gt;5 -->
<g id="edge7" class="edge">
<title>1&#45;&gt;5</title>
<path fill="none" stroke="grey" stroke-width="2" d="M337.1,-586.28C340.94,-578.34 344.97,-570.02 349.04,-561.61"/>
<polygon fill="grey" stroke="grey" stroke-width="2" points="352.08,-563.37 353.29,-552.84 345.78,-560.32 352.08,-563.37"/>
</g>
<!-- 2 -->
<g id="node3" class="node">
<title>2</title>
<text text-anchor="start" x="203.38" y="-1080.9" font-family="sans" font-weight="bold" font-size="18.00">aggregate_permutations</text>
<text text-anchor="start" x="176" y="-1058.95" font-family="sans" font-size="10.00"> </text>
<text text-anchor="start" x="179" y="-1058.95" font-family="sans" font-weight="bold" font-size="14.00">↪ input</text>
<text text-anchor="start" x="230" y="-1058.95" font-family="sans" font-size="10.00"> </text>
<text text-anchor="start" x="176" y="-1036.75" font-family="monospace" font-size="10.00">config/fipy~2876d0a7b/petsc_permutations.csv</text>
<text text-anchor="start" x="176" y="-1017" font-family="monospace" font-size="10.00">config/fipy~2e82a58e7/petsc_permutations.csv</text>
<text text-anchor="start" x="176" y="-997.25" font-family="monospace" font-size="10.00">config/fipy~8c0aec6d3/petsc_permutations.csv</text>
<text text-anchor="start" x="176" y="-977.5" font-family="monospace" font-size="10.00">config/fipy~c246c5c9f/petsc_permutations.csv</text>
<text text-anchor="start" x="374" y="-954.95" font-family="sans" font-size="10.00"> </text>
<text text-anchor="start" x="377" y="-954.95" font-family="sans" font-weight="bold" font-size="14.00">output →</text>
<text text-anchor="start" x="437" y="-954.95" font-family="sans" font-size="10.00"> </text>
<text text-anchor="start" x="176" y="-932.75" font-family="monospace" font-size="10.00">config/all_permutations.csv</text>
<polygon fill="#add957" stroke="#add957" points="170,-1075.25 170,-1075.25 447,-1075.25 447,-1075.25 170,-1075.25"/>
<polygon fill="#add957" stroke="#add957" points="170,-971.25 170,-971.25 447,-971.25 447,-971.25 170,-971.25"/>
<polygon fill="none" stroke="#add957" stroke-width="2" points="170,-923.5 170,-1103 446,-1103 446,-923.5 170,-923.5"/>
</g>
<!-- 8 -->
<g id="node9" class="node">
<title>8</title>
<text text-anchor="start" x="231.12" y="-863.4" font-family="sans" font-weight="bold" font-size="18.00">aggregate_results</text>
<text text-anchor="start" x="227" y="-841.45" font-family="sans" font-size="10.00"> </text>
<text text-anchor="start" x="230" y="-841.45" font-family="sans" font-weight="bold" font-size="14.00">↪ input</text>
<text text-anchor="start" x="281" y="-841.45" font-family="sans" font-size="10.00"> </text>
<text text-anchor="start" x="227" y="-819.25" font-family="monospace" font-size="10.00">&lt;input function&gt;</text>
<text text-anchor="start" x="227" y="-799.5" font-family="monospace" font-size="10.00">config/all_permutations.csv</text>
<text text-anchor="start" x="323" y="-776.95" font-family="sans" font-size="10.00"> </text>
<text text-anchor="start" x="326" y="-776.95" font-family="sans" font-weight="bold" font-size="14.00">output →</text>
<text text-anchor="start" x="386" y="-776.95" font-family="sans" font-size="10.00"> </text>
<text text-anchor="start" x="227" y="-754.75" font-family="monospace" font-size="10.00">results/all.json</text>
<polygon fill="#d9d957" stroke="#d9d957" points="221,-857.75 221,-857.75 396,-857.75 396,-857.75 221,-857.75"/>
<polygon fill="#d9d957" stroke="#d9d957" points="221,-793.25 221,-793.25 396,-793.25 396,-793.25 221,-793.25"/>
<polygon fill="none" stroke="#d9d957" stroke-width="2" points="221,-745.5 221,-885.5 395,-885.5 395,-745.5 221,-745.5"/>
</g>
<!-- 2&#45;&gt;8 -->
<g id="edge10" class="edge">
<title>2&#45;&gt;8</title>
<path fill="none" stroke="grey" stroke-width="2" d="M308,-922.68C308,-914.88 308,-907 308,-899.26"/>
<polygon fill="grey" stroke="grey" stroke-width="2" points="311.5,-899.41 308,-889.41 304.5,-899.41 311.5,-899.41"/>
</g>
<!-- 3 -->
<g id="node4" class="node">
<title>3</title>
<text text-anchor="start" x="186.12" y="-1258.9" font-family="sans" font-weight="bold" font-size="18.00">rev_and_suite_permutations</text>
<text text-anchor="start" x="164" y="-1236.95" font-family="sans" font-size="10.00"> </text>
<text text-anchor="start" x="167" y="-1236.95" font-family="sans" font-weight="bold" font-size="14.00">↪ input</text>
<text text-anchor="start" x="218" y="-1236.95" font-family="sans" font-size="10.00"> </text>
<text text-anchor="start" x="164" y="-1214.75" font-family="monospace" font-size="10.00">resources/fipy~{rev}/{suite}_preconditioners.txt</text>
<text text-anchor="start" x="164" y="-1195" font-family="monospace" font-size="10.00">resources/fipy~{rev}/{suite}_solvers.txt</text>
<text text-anchor="start" x="386" y="-1172.45" font-family="sans" font-size="10.00"> </text>
<text text-anchor="start" x="389" y="-1172.45" font-family="sans" font-weight="bold" font-size="14.00">output →</text>
<text text-anchor="start" x="449" y="-1172.45" font-family="sans" font-size="10.00"> </text>
<text text-anchor="start" x="164" y="-1150.25" font-family="monospace" font-size="10.00">config/fipy~{rev}/{suite}_permutations.csv</text>
<polygon fill="#57add9" stroke="#57add9" points="158,-1253.25 158,-1253.25 459,-1253.25 459,-1253.25 158,-1253.25"/>
<polygon fill="#57add9" stroke="#57add9" points="158,-1188.75 158,-1188.75 459,-1188.75 459,-1188.75 158,-1188.75"/>
<polygon fill="none" stroke="#57add9" stroke-width="2" points="158,-1141 158,-1281 458,-1281 458,-1141 158,-1141"/>
</g>
<!-- 3&#45;&gt;2 -->
<g id="edge4" class="edge">
<title>3&#45;&gt;2</title>
<path fill="none" stroke="grey" stroke-width="2" d="M308,-1140.16C308,-1132.54 308,-1124.68 308,-1116.77"/>
<polygon fill="grey" stroke="grey" stroke-width="2" points="311.5,-1116.93 308,-1106.93 304.5,-1116.93 311.5,-1116.93"/>
</g>
<!-- 4 -->
<g id="node5" class="node">
<title>4</title>
<text text-anchor="start" x="207.12" y="-1575.4" font-family="sans" font-weight="bold" font-size="18.00">render_conda_template</text>
<text text-anchor="start" x="170" y="-1553.45" font-family="sans" font-size="10.00"> </text>
<text text-anchor="start" x="173" y="-1553.45" font-family="sans" font-weight="bold" font-size="14.00">↪ input</text>
<text text-anchor="start" x="224" y="-1553.45" font-family="sans" font-size="10.00"> </text>
<text text-anchor="start" x="170" y="-1531.25" font-family="monospace" font-size="10.00">workflow/envs/benchmark_{suite}.yml</text>
<text text-anchor="start" x="380" y="-1508.7" font-family="sans" font-size="10.00"> </text>
<text text-anchor="start" x="383" y="-1508.7" font-family="sans" font-weight="bold" font-size="14.00">output →</text>
<text text-anchor="start" x="443" y="-1508.7" font-family="sans" font-size="10.00"> </text>
<text text-anchor="start" x="170" y="-1486.5" font-family="monospace" font-size="10.00">workflow/envs/fipy~{rev}/benchmark_{suite}.yml</text>
<polygon fill="#57d9d9" stroke="#57d9d9" points="164,-1569.75 164,-1569.75 453,-1569.75 453,-1569.75 164,-1569.75"/>
<polygon fill="#57d9d9" stroke="#57d9d9" points="164,-1525 164,-1525 453,-1525 453,-1525 164,-1525"/>
<polygon fill="none" stroke="#57d9d9" stroke-width="2" points="164,-1477.25 164,-1597.5 452,-1597.5 452,-1477.25 164,-1477.25"/>
</g>
<!-- 6 -->
<g id="node7" class="node">
<title>6</title>
<text text-anchor="start" x="64.75" y="-1417.15" font-family="sans" font-weight="bold" font-size="18.00">list_preconditioners</text>
<text text-anchor="start" x="7" y="-1395.2" font-family="sans" font-size="10.00"> </text>
<text text-anchor="start" x="10" y="-1395.2" font-family="sans" font-weight="bold" font-size="14.00">↪ input</text>
<text text-anchor="start" x="61" y="-1395.2" font-family="sans" font-size="10.00"> </text>
<text text-anchor="start" x="7" y="-1373" font-family="monospace" font-size="10.00">workflow/envs/fipy~{rev}/benchmark_{suite}.yml</text>
<text text-anchor="start" x="229" y="-1350.45" font-family="sans" font-size="10.00"> </text>
<text text-anchor="start" x="232" y="-1350.45" font-family="sans" font-weight="bold" font-size="14.00">output →</text>
<text text-anchor="start" x="292" y="-1350.45" font-family="sans" font-size="10.00"> </text>
<text text-anchor="start" x="7" y="-1328.25" font-family="monospace" font-size="10.00">resources/fipy~{rev}/{suite}_preconditioners.txt</text>
<polygon fill="#d98257" stroke="#d98257" points="1,-1411.5 1,-1411.5 302,-1411.5 302,-1411.5 1,-1411.5"/>
<polygon fill="#d98257" stroke="#d98257" points="1,-1366.75 1,-1366.75 302,-1366.75 302,-1366.75 1,-1366.75"/>
<polygon fill="none" stroke="#d98257" stroke-width="2" points="1,-1319 1,-1439.25 301,-1439.25 301,-1319 1,-1319"/>
</g>
<!-- 4&#45;&gt;6 -->
<g id="edge8" class="edge">
<title>4&#45;&gt;6</title>
<path fill="none" stroke="grey" stroke-width="2" d="M247.75,-1476.41C238.8,-1467.5 229.51,-1458.26 220.39,-1449.19"/>
<polygon fill="grey" stroke="grey" stroke-width="2" points="223.05,-1446.89 213.5,-1442.32 218.11,-1451.86 223.05,-1446.89"/>
</g>
<!-- 7 -->
<g id="node8" class="node">
<title>7</title>
<text text-anchor="start" x="415.88" y="-1417.15" font-family="sans" font-weight="bold" font-size="18.00">list_solvers</text>
<text text-anchor="start" x="327" y="-1395.2" font-family="sans" font-size="10.00"> </text>
<text text-anchor="start" x="330" y="-1395.2" font-family="sans" font-weight="bold" font-size="14.00">↪ input</text>
<text text-anchor="start" x="381" y="-1395.2" font-family="sans" font-size="10.00"> </text>
<text text-anchor="start" x="327" y="-1373" font-family="monospace" font-size="10.00">workflow/envs/fipy~{rev}/benchmark_{suite}.yml</text>
<text text-anchor="start" x="537" y="-1350.45" font-family="sans" font-size="10.00"> </text>
<text text-anchor="start" x="540" y="-1350.45" font-family="sans" font-weight="bold" font-size="14.00">output →</text>
<text text-anchor="start" x="600" y="-1350.45" font-family="sans" font-size="10.00"> </text>
<text text-anchor="start" x="327" y="-1328.25" font-family="monospace" font-size="10.00">resources/fipy~{rev}/{suite}_solvers.txt</text>
<polygon fill="#57d982" stroke="#57d982" points="321,-1411.5 321,-1411.5 610,-1411.5 610,-1411.5 321,-1411.5"/>
<polygon fill="#57d982" stroke="#57d982" points="321,-1366.75 321,-1366.75 610,-1366.75 610,-1366.75 321,-1366.75"/>
<polygon fill="none" stroke="#57d982" stroke-width="2" points="321,-1319 321,-1439.25 609,-1439.25 609,-1319 321,-1319"/>
</g>
<!-- 4&#45;&gt;7 -->
<g id="edge9" class="edge">
<title>4&#45;&gt;7</title>
<path fill="none" stroke="grey" stroke-width="2" d="M368.25,-1476.41C377.2,-1467.5 386.49,-1458.26 395.61,-1449.19"/>
<polygon fill="grey" stroke="grey" stroke-width="2" points="397.89,-1451.86 402.5,-1442.32 392.95,-1446.89 397.89,-1451.86"/>
</g>
<!-- 5&#45;&gt;0 -->
<g id="edge2" class="edge">
<title>5&#45;&gt;0</title>
<path fill="none" stroke="grey" stroke-width="2" d="M370.26,-368.78C367.88,-361.07 365.42,-353.11 362.92,-345.01"/>
<polygon fill="grey" stroke="grey" stroke-width="2" points="366.28,-344.05 359.98,-335.52 359.59,-346.11 366.28,-344.05"/>
</g>
<!-- 6&#45;&gt;3 -->
<g id="edge5" class="edge">
<title>6&#45;&gt;3</title>
<path fill="none" stroke="grey" stroke-width="2" d="M207.68,-1318.15C215.96,-1309.39 224.59,-1300.26 233.16,-1291.19"/>
<polygon fill="grey" stroke="grey" stroke-width="2" points="235.65,-1293.65 239.98,-1283.98 230.57,-1288.84 235.65,-1293.65"/>
</g>
<!-- 7&#45;&gt;3 -->
<g id="edge6" class="edge">
<title>7&#45;&gt;3</title>
<path fill="none" stroke="grey" stroke-width="2" d="M408.32,-1318.15C400.04,-1309.39 391.41,-1300.26 382.84,-1291.19"/>
<polygon fill="grey" stroke="grey" stroke-width="2" points="385.43,-1288.84 376.02,-1283.98 380.35,-1293.65 385.43,-1288.84"/>
</g>
<!-- 8&#45;&gt;1 -->
<g id="edge3" class="edge">
<title>8&#45;&gt;1</title>
<path fill="none" stroke="grey" stroke-width="2" d="M308,-744.53C308,-736.8 308,-728.92 308,-721.16"/>
<polygon fill="grey" stroke="grey" stroke-width="2" points="311.5,-721.3 308,-711.3 304.5,-721.3 311.5,-721.3"/>
</g>
</g>
</svg>
