<?xml version="1.0" encoding="UTF-8" standalone="no"?>
<!DOCTYPE svg PUBLIC "-//W3C//DTD SVG 1.1//EN"
 "http://www.w3.org/Graphics/SVG/1.1/DTD/svg11.dtd">
<!-- Generated by graphviz version 11.0.0 (0)
 -->
<!-- Title: snakemake_dag Pages: 1 -->
<svg width="973pt" height="2055pt"
 viewBox="0.00 0.00 973.00 2055.00" xmlns="http://www.w3.org/2000/svg" xmlns:xlink="http://www.w3.org/1999/xlink">
<g id="graph0" class="graph" transform="scale(1 1) rotate(0) translate(4 2051)">
<title>snakemake_dag</title>
<polygon fill="white" stroke="none" points="-4,4 -4,-2051 969,-2051 969,4 -4,4"/>
<!-- 0 -->
<g id="node1" class="node">
<title>0</title>
<text text-anchor="start" x="115.38" y="-1176.78" font-family="sans" font-weight="bold" font-size="18.00">bootstrap</text>
<text text-anchor="start" x="7" y="-1154.83" font-family="sans" font-size="10.00"> </text>
<text text-anchor="start" x="10" y="-1154.83" font-family="sans" font-weight="bold" font-size="14.00">↪ input</text>
<text text-anchor="start" x="61" y="-1154.83" font-family="sans" font-size="10.00"> </text>
<text text-anchor="start" x="7" y="-1132.62" font-family="monospace" font-size="10.00">results/fipy~c246c5c9f/suite~petsc/environment.yml</text>
<text text-anchor="start" x="301" y="-1112.88" font-family="sans" font-size="10.00"> &#160;</text>
<polygon fill="#add957" stroke="#add957" points="1,-1171.12 1,-1171.12 314,-1171.12 314,-1171.12 1,-1171.12"/>
<polygon fill="#add957" stroke="#add957" points="1,-1126.38 1,-1126.38 314,-1126.38 314,-1126.38 1,-1126.38"/>
<polygon fill="none" stroke="#add957" stroke-width="2" points="1,-1105.12 1,-1198.88 313,-1198.88 313,-1105.12 1,-1105.12"/>
</g>
<!-- 1 -->
<g id="node2" class="node">
<title>1</title>
<text text-anchor="start" x="171.12" y="-1368.03" font-family="sans" font-weight="bold" font-size="18.00">render_conda_template</text>
<text text-anchor="start" x="128" y="-1346.08" font-family="sans" font-size="10.00"> </text>
<text text-anchor="start" x="131" y="-1346.08" font-family="sans" font-weight="bold" font-size="14.00">↪ input</text>
<text text-anchor="start" x="182" y="-1346.08" font-family="sans" font-size="10.00"> </text>
<text text-anchor="start" x="128" y="-1323.88" font-family="monospace" font-size="10.00">workflow/envs/benchmark_{suite}.yml</text>
<text text-anchor="start" x="350" y="-1301.33" font-family="sans" font-size="10.00"> </text>
<text text-anchor="start" x="353" y="-1301.33" font-family="sans" font-weight="bold" font-size="14.00">output →</text>
<text text-anchor="start" x="413" y="-1301.33" font-family="sans" font-size="10.00"> </text>
<text text-anchor="start" x="128" y="-1279.12" font-family="monospace" font-size="10.00">results/fipy~{rev}/suite~{suite}/environment.yml</text>
<polygon fill="#57d9ad" stroke="#57d9ad" points="122,-1362.38 122,-1362.38 423,-1362.38 423,-1362.38 122,-1362.38"/>
<polygon fill="#57d9ad" stroke="#57d9ad" points="122,-1317.62 122,-1317.62 423,-1317.62 423,-1317.62 122,-1317.62"/>
<polygon fill="none" stroke="#57d9ad" stroke-width="2" points="122,-1269.88 122,-1390.12 422,-1390.12 422,-1269.88 122,-1269.88"/>
</g>
<!-- 1&#45;&gt;0 -->
<g id="edge1" class="edge">
<title>1&#45;&gt;0</title>
<path fill="none" stroke="grey" stroke-width="2" d="M232.75,-1268.92C220.4,-1250.03 206.8,-1229.21 194.57,-1210.5"/>
<polygon fill="grey" stroke="grey" stroke-width="2" points="197.61,-1208.75 189.21,-1202.29 191.75,-1212.58 197.61,-1208.75"/>
</g>
<!-- 13 -->
<g id="node14" class="node">
<title>13</title>
<text text-anchor="start" x="460.12" y="-1199.9" font-family="sans" font-weight="bold" font-size="18.00">solve</text>
<text text-anchor="start" x="339" y="-1177.95" font-family="sans" font-size="10.00"> </text>
<text text-anchor="start" x="342" y="-1177.95" font-family="sans" font-weight="bold" font-size="14.00">↪ input</text>
<text text-anchor="start" x="393" y="-1177.95" font-family="sans" font-size="10.00"> </text>
<text text-anchor="start" x="339" y="-1155.75" font-family="monospace" font-size="10.00">config/all_permutations.csv</text>
<text text-anchor="start" x="339" y="-1136" font-family="monospace" font-size="10.00">results/fipy~{rev}/suite~{suite}/environment.yml</text>
<text text-anchor="start" x="561" y="-1113.45" font-family="sans" font-size="10.00"> </text>
<text text-anchor="start" x="564" y="-1113.45" font-family="sans" font-weight="bold" font-size="14.00">output →</text>
<text text-anchor="start" x="624" y="-1113.45" font-family="sans" font-size="10.00"> </text>
<text text-anchor="start" x="339" y="-1091.25" font-family="monospace" font-size="10.00">results/fipy~{rev}/suite~{suite}/{id}/solver.log</text>
<polygon fill="#57d9d0" stroke="#57d9d0" points="333,-1194.25 333,-1194.25 634,-1194.25 634,-1194.25 333,-1194.25"/>
<polygon fill="#57d9d0" stroke="#57d9d0" points="333,-1129.75 333,-1129.75 634,-1129.75 634,-1129.75 333,-1129.75"/>
<polygon fill="none" stroke="#57d9d0" stroke-width="2" points="333,-1082 333,-1222 633,-1222 633,-1082 333,-1082"/>
</g>
<!-- 1&#45;&gt;13 -->
<g id="edge15" class="edge">
<title>1&#45;&gt;13</title>
<path fill="none" stroke="grey" stroke-width="2" d="M344.02,-1268.92C358.62,-1256.75 374.16,-1243.78 389.37,-1231.1"/>
<polygon fill="grey" stroke="grey" stroke-width="2" points="391.55,-1233.84 396.98,-1224.75 387.06,-1228.47 391.55,-1233.84"/>
</g>
<!-- 2 -->
<g id="node3" class="node">
<title>2</title>
<text text-anchor="start" x="598.88" y="-131.9" font-family="sans" font-weight="bold" font-size="18.00">all</text>
<text text-anchor="start" x="432" y="-109.95" font-family="sans" font-size="10.00"> </text>
<text text-anchor="start" x="435" y="-109.95" font-family="sans" font-weight="bold" font-size="14.00">↪ input</text>
<text text-anchor="start" x="486" y="-109.95" font-family="sans" font-size="10.00"> </text>
<text text-anchor="start" x="432" y="-87.75" font-family="monospace" font-size="10.00">results/plots/fipy~c246c5c9f/binary_phase_field/prepare.png</text>
<text text-anchor="start" x="432" y="-68" font-family="monospace" font-size="10.00">results/plots/fipy~c246c5c9f/binary_phase_field/solve.png</text>
<text text-anchor="start" x="432" y="-48.25" font-family="monospace" font-size="10.00">results/plots/fipy~c246c5c9f/binary_phase_field/total.png</text>
<text text-anchor="start" x="432" y="-28.5" font-family="monospace" font-size="10.00">results/total_times.json</text>
<text text-anchor="start" x="780" y="-8.75" font-family="sans" font-size="10.00"> &#160;</text>
<polygon fill="#d99c57" stroke="#d99c57" points="426,-126.25 426,-126.25 793,-126.25 793,-126.25 426,-126.25"/>
<polygon fill="#d99c57" stroke="#d99c57" points="426,-22.25 426,-22.25 793,-22.25 793,-22.25 426,-22.25"/>
<polygon fill="none" stroke="#d99c57" stroke-width="2" points="426,-1 426,-154 792,-154 792,-1 426,-1"/>
</g>
<!-- 3 -->
<g id="node4" class="node">
<title>3</title>
<text text-anchor="start" x="561.75" y="-507.65" font-family="sans" font-weight="bold" font-size="18.00">total_times</text>
<text text-anchor="start" x="537" y="-485.7" font-family="sans" font-size="10.00"> </text>
<text text-anchor="start" x="540" y="-485.7" font-family="sans" font-weight="bold" font-size="14.00">↪ input</text>
<text text-anchor="start" x="591" y="-485.7" font-family="sans" font-size="10.00"> </text>
<text text-anchor="start" x="537" y="-463.5" font-family="monospace" font-size="10.00">results/all.json</text>
<text text-anchor="start" x="615" y="-440.95" font-family="sans" font-size="10.00"> </text>
<text text-anchor="start" x="618" y="-440.95" font-family="sans" font-weight="bold" font-size="14.00">output →</text>
<text text-anchor="start" x="678" y="-440.95" font-family="sans" font-size="10.00"> </text>
<text text-anchor="start" x="537" y="-418.75" font-family="monospace" font-size="10.00">results/total_times.json</text>
<polygon fill="#5779d9" stroke="#5779d9" points="531,-502 531,-502 688,-502 688,-502 531,-502"/>
<polygon fill="#5779d9" stroke="#5779d9" points="531,-457.25 531,-457.25 688,-457.25 688,-457.25 531,-457.25"/>
<polygon fill="none" stroke="#5779d9" stroke-width="2" points="531,-409.5 531,-529.75 687,-529.75 687,-409.5 531,-409.5"/>
</g>
<!-- 3&#45;&gt;2 -->
<g id="edge2" class="edge">
<title>3&#45;&gt;2</title>
<path fill="none" stroke="grey" stroke-width="2" d="M556.84,-408.72C549.51,-397.35 543.09,-385.06 539,-372.5 514.03,-295.8 516.84,-268.56 539,-191 541.36,-182.75 544.51,-174.52 548.18,-166.47"/>
<polygon fill="grey" stroke="grey" stroke-width="2" points="551.3,-168.08 552.56,-157.56 545.01,-164.99 551.3,-168.08"/>
</g>
<!-- 14 -->
<g id="node15" class="node">
<title>14</title>
<text text-anchor="start" x="620.25" y="-349.4" font-family="sans" font-weight="bold" font-size="18.00">plot_permutations</text>
<text text-anchor="start" x="555" y="-327.45" font-family="sans" font-size="10.00"> </text>
<text text-anchor="start" x="558" y="-327.45" font-family="sans" font-weight="bold" font-size="14.00">↪ input</text>
<text text-anchor="start" x="609" y="-327.45" font-family="sans" font-size="10.00"> </text>
<text text-anchor="start" x="555" y="-305.25" font-family="monospace" font-size="10.00">results/total_times.json</text>
<text text-anchor="start" x="777" y="-282.7" font-family="sans" font-size="10.00"> </text>
<text text-anchor="start" x="780" y="-282.7" font-family="sans" font-weight="bold" font-size="14.00">output →</text>
<text text-anchor="start" x="840" y="-282.7" font-family="sans" font-size="10.00"> </text>
<text text-anchor="start" x="555" y="-260.5" font-family="monospace" font-size="10.00">results/plots/fipy~{rev}/{benchmark}</text>
<text text-anchor="start" x="555" y="-240.75" font-family="monospace" font-size="10.00">results/plots/fipy~{rev}/{benchmark}/prepare.png</text>
<text text-anchor="start" x="555" y="-221" font-family="monospace" font-size="10.00">results/plots/fipy~{rev}/{benchmark}/solve.png</text>
<text text-anchor="start" x="555" y="-201.25" font-family="monospace" font-size="10.00">results/plots/fipy~{rev}/{benchmark}/total.png</text>
<polygon fill="#57d98b" stroke="#57d98b" points="549,-343.75 549,-343.75 850,-343.75 850,-343.75 549,-343.75"/>
<polygon fill="#57d98b" stroke="#57d98b" points="549,-299 549,-299 850,-299 850,-299 549,-299"/>
<polygon fill="none" stroke="#57d98b" stroke-width="2" points="549,-192 549,-371.5 849,-371.5 849,-192 549,-192"/>
</g>
<!-- 3&#45;&gt;14 -->
<g id="edge17" class="edge">
<title>3&#45;&gt;14</title>
<path fill="none" stroke="grey" stroke-width="2" d="M638.1,-408.53C641.94,-400.59 645.97,-392.27 650.04,-383.86"/>
<polygon fill="grey" stroke="grey" stroke-width="2" points="653.08,-385.62 654.29,-375.09 646.78,-382.57 653.08,-385.62"/>
</g>
<!-- 4 -->
<g id="node5" class="node">
<title>4</title>
<text text-anchor="start" x="517.12" y="-665.9" font-family="sans" font-weight="bold" font-size="18.00">aggregate_all_results</text>
<text text-anchor="start" x="468" y="-643.95" font-family="sans" font-size="10.00"> </text>
<text text-anchor="start" x="471" y="-643.95" font-family="sans" font-weight="bold" font-size="14.00">↪ input</text>
<text text-anchor="start" x="522" y="-643.95" font-family="sans" font-size="10.00"> </text>
<text text-anchor="start" x="468" y="-621.75" font-family="monospace" font-size="10.00">results/fipy~c246c5c9f/suite~petsc/results.json</text>
<text text-anchor="start" x="684" y="-599.2" font-family="sans" font-size="10.00"> </text>
<text text-anchor="start" x="687" y="-599.2" font-family="sans" font-weight="bold" font-size="14.00">output →</text>
<text text-anchor="start" x="747" y="-599.2" font-family="sans" font-size="10.00"> </text>
<text text-anchor="start" x="468" y="-577" font-family="monospace" font-size="10.00">results/all.json</text>
<polygon fill="#d95757" stroke="#d95757" points="462,-660.25 462,-660.25 757,-660.25 757,-660.25 462,-660.25"/>
<polygon fill="#d95757" stroke="#d95757" points="462,-615.5 462,-615.5 757,-615.5 757,-615.5 462,-615.5"/>
<polygon fill="none" stroke="#d95757" stroke-width="2" points="462,-567.75 462,-688 756,-688 756,-567.75 462,-567.75"/>
</g>
<!-- 4&#45;&gt;3 -->
<g id="edge4" class="edge">
<title>4&#45;&gt;3</title>
<path fill="none" stroke="grey" stroke-width="2" d="M609,-566.91C609,-559.3 609,-551.45 609,-543.67"/>
<polygon fill="grey" stroke="grey" stroke-width="2" points="612.5,-543.71 609,-533.71 605.5,-543.71 612.5,-543.71"/>
</g>
<!-- 5 -->
<g id="node6" class="node">
<title>5</title>
<text text-anchor="start" x="532.12" y="-843.9" font-family="sans" font-weight="bold" font-size="18.00">aggregate_results</text>
<text text-anchor="start" x="474" y="-821.95" font-family="sans" font-size="10.00"> </text>
<text text-anchor="start" x="477" y="-821.95" font-family="sans" font-weight="bold" font-size="14.00">↪ input</text>
<text text-anchor="start" x="528" y="-821.95" font-family="sans" font-size="10.00"> </text>
<text text-anchor="start" x="474" y="-799.75" font-family="monospace" font-size="10.00">&lt;input function&gt;</text>
<text text-anchor="start" x="474" y="-780" font-family="monospace" font-size="10.00">config/all_permutations.csv</text>
<text text-anchor="start" x="678" y="-757.45" font-family="sans" font-size="10.00"> </text>
<text text-anchor="start" x="681" y="-757.45" font-family="sans" font-weight="bold" font-size="14.00">output →</text>
<text text-anchor="start" x="741" y="-757.45" font-family="sans" font-size="10.00"> </text>
<text text-anchor="start" x="474" y="-735.25" font-family="monospace" font-size="10.00">results/fipy~{rev}/suite~{suite}/results.json</text>
<polygon fill="#d97957" stroke="#d97957" points="468,-838.25 468,-838.25 751,-838.25 751,-838.25 468,-838.25"/>
<polygon fill="#d97957" stroke="#d97957" points="468,-773.75 468,-773.75 751,-773.75 751,-773.75 468,-773.75"/>
<polygon fill="none" stroke="#d97957" stroke-width="2" points="468,-726 468,-866 750,-866 750,-726 468,-726"/>
</g>
<!-- 5&#45;&gt;4 -->
<g id="edge5" class="edge">
<title>5&#45;&gt;4</title>
<path fill="none" stroke="grey" stroke-width="2" d="M609,-725.03C609,-717.3 609,-709.42 609,-701.66"/>
<polygon fill="grey" stroke="grey" stroke-width="2" points="612.5,-701.8 609,-691.8 605.5,-701.8 612.5,-701.8"/>
</g>
<!-- 6 -->
<g id="node7" class="node">
<title>6</title>
<text text-anchor="start" x="590" y="-1377.9" font-family="sans" font-weight="bold" font-size="18.00">all_permutations</text>
<text text-anchor="start" x="563" y="-1355.95" font-family="sans" font-size="10.00"> </text>
<text text-anchor="start" x="566" y="-1355.95" font-family="sans" font-weight="bold" font-size="14.00">↪ input</text>
<text text-anchor="start" x="617" y="-1355.95" font-family="sans" font-size="10.00"> </text>
<text text-anchor="start" x="563" y="-1333.75" font-family="monospace" font-size="10.00">config/benchmark_permutations.csv</text>
<text text-anchor="start" x="563" y="-1314" font-family="monospace" font-size="10.00">config/fipy_permutations.csv</text>
<text text-anchor="start" x="695" y="-1291.45" font-family="sans" font-size="10.00"> </text>
<text text-anchor="start" x="698" y="-1291.45" font-family="sans" font-weight="bold" font-size="14.00">output →</text>
<text text-anchor="start" x="758" y="-1291.45" font-family="sans" font-size="10.00"> </text>
<text text-anchor="start" x="563" y="-1269.25" font-family="monospace" font-size="10.00">config/all_permutations.csv</text>
<polygon fill="#d9bf57" stroke="#d9bf57" points="557,-1372.25 557,-1372.25 768,-1372.25 768,-1372.25 557,-1372.25"/>
<polygon fill="#d9bf57" stroke="#d9bf57" points="557,-1307.75 557,-1307.75 768,-1307.75 768,-1307.75 557,-1307.75"/>
<polygon fill="none" stroke="#d9bf57" stroke-width="2" points="557,-1260 557,-1400 767,-1400 767,-1260 557,-1260"/>
</g>
<!-- 6&#45;&gt;5 -->
<g id="edge7" class="edge">
<title>6&#45;&gt;5</title>
<path fill="none" stroke="grey" stroke-width="2" d="M679.2,-1259.31C697.23,-1173.43 718.21,-1024 681,-903 678.4,-894.55 674.87,-886.16 670.76,-878.03"/>
<polygon fill="grey" stroke="grey" stroke-width="2" points="673.91,-876.48 666.06,-869.37 667.76,-879.83 673.91,-876.48"/>
</g>
<!-- 12 -->
<g id="node13" class="node">
<title>12</title>
<text text-anchor="start" x="461" y="-1021.9" font-family="sans" font-weight="bold" font-size="18.00">extract_times</text>
<text text-anchor="start" x="371" y="-999.95" font-family="sans" font-size="10.00"> </text>
<text text-anchor="start" x="374" y="-999.95" font-family="sans" font-weight="bold" font-size="14.00">↪ input</text>
<text text-anchor="start" x="425" y="-999.95" font-family="sans" font-size="10.00"> </text>
<text text-anchor="start" x="371" y="-977.75" font-family="monospace" font-size="10.00">config/all_permutations.csv</text>
<text text-anchor="start" x="371" y="-958" font-family="monospace" font-size="10.00">results/fipy~{rev}/suite~{suite}/{id}/solver.log</text>
<text text-anchor="start" x="599" y="-935.45" font-family="sans" font-size="10.00"> </text>
<text text-anchor="start" x="602" y="-935.45" font-family="sans" font-weight="bold" font-size="14.00">output →</text>
<text text-anchor="start" x="662" y="-935.45" font-family="sans" font-size="10.00"> </text>
<text text-anchor="start" x="371" y="-913.25" font-family="monospace" font-size="10.00">results/fipy~{rev}/suite~{suite}/{id}/solver.json</text>
<polygon fill="#8bd957" stroke="#8bd957" points="365,-1016.25 365,-1016.25 672,-1016.25 672,-1016.25 365,-1016.25"/>
<polygon fill="#8bd957" stroke="#8bd957" points="365,-951.75 365,-951.75 672,-951.75 672,-951.75 365,-951.75"/>
<polygon fill="none" stroke="#8bd957" stroke-width="2" points="365,-904 365,-1044 671,-1044 671,-904 365,-904"/>
</g>
<!-- 6&#45;&gt;12 -->
<g id="edge14" class="edge">
<title>6&#45;&gt;12</title>
<path fill="none" stroke="grey" stroke-width="2" d="M670.56,-1259.12C673.72,-1207.18 671.12,-1136.1 643,-1081 638.26,-1071.72 632.33,-1062.93 625.63,-1054.67"/>
<polygon fill="grey" stroke="grey" stroke-width="2" points="628.29,-1052.41 619.09,-1047.16 623.01,-1057 628.29,-1052.41"/>
</g>
<!-- 6&#45;&gt;13 -->
<g id="edge16" class="edge">
<title>6&#45;&gt;13</title>
<path fill="none" stroke="grey" stroke-width="2" d="M591,-1259.19C581.85,-1250.19 572.43,-1240.93 563.14,-1231.8"/>
<polygon fill="grey" stroke="grey" stroke-width="2" points="565.66,-1229.37 556.08,-1224.85 560.75,-1234.36 565.66,-1229.37"/>
</g>
<!-- 7 -->
<g id="node8" class="node">
<title>7</title>
<text text-anchor="start" x="415.5" y="-1522.9" font-family="sans" font-weight="bold" font-size="18.00">benchmark_permutations</text>
<text text-anchor="start" x="415.5" y="-1503.75" font-family="sans" font-size="10.00"> &#160;</text>
<text text-anchor="start" x="568.5" y="-1482.7" font-family="sans" font-size="10.00"> </text>
<text text-anchor="start" x="571.5" y="-1482.7" font-family="sans" font-weight="bold" font-size="14.00">output →</text>
<text text-anchor="start" x="631.5" y="-1482.7" font-family="sans" font-size="10.00"> </text>
<text text-anchor="start" x="415.5" y="-1460.5" font-family="monospace" font-size="10.00">config/benchmark_permutations.csv</text>
<polygon fill="#d0d957" stroke="#d0d957" points="409.5,-1517.25 409.5,-1517.25 641.5,-1517.25 641.5,-1517.25 409.5,-1517.25"/>
<polygon fill="#d0d957" stroke="#d0d957" points="409.5,-1499 409.5,-1499 641.5,-1499 641.5,-1499 409.5,-1499"/>
<polygon fill="none" stroke="#d0d957" stroke-width="2" points="409.5,-1451.25 409.5,-1545 640.5,-1545 640.5,-1451.25 409.5,-1451.25"/>
</g>
<!-- 7&#45;&gt;6 -->
<g id="edge8" class="edge">
<title>7&#45;&gt;6</title>
<path fill="none" stroke="grey" stroke-width="2" d="M563.53,-1450.41C573.72,-1438.05 585.01,-1424.36 596.2,-1410.78"/>
<polygon fill="grey" stroke="grey" stroke-width="2" points="598.73,-1413.22 602.4,-1403.28 593.33,-1408.76 598.73,-1413.22"/>
</g>
<!-- 8 -->
<g id="node9" class="node">
<title>8</title>
<text text-anchor="start" x="721" y="-1536.15" font-family="sans" font-weight="bold" font-size="18.00">fipy_permutations</text>
<text text-anchor="start" x="667" y="-1514.2" font-family="sans" font-size="10.00"> </text>
<text text-anchor="start" x="670" y="-1514.2" font-family="sans" font-weight="bold" font-size="14.00">↪ input</text>
<text text-anchor="start" x="721" y="-1514.2" font-family="sans" font-size="10.00"> </text>
<text text-anchor="start" x="667" y="-1492" font-family="monospace" font-size="10.00">config/fipy~c246c5c9f/suite_permutations.csv</text>
<text text-anchor="start" x="865" y="-1469.45" font-family="sans" font-size="10.00"> </text>
<text text-anchor="start" x="868" y="-1469.45" font-family="sans" font-weight="bold" font-size="14.00">output →</text>
<text text-anchor="start" x="928" y="-1469.45" font-family="sans" font-size="10.00"> </text>
<text text-anchor="start" x="667" y="-1447.25" font-family="monospace" font-size="10.00">config/fipy_permutations.csv</text>
<polygon fill="#68d957" stroke="#68d957" points="661,-1530.5 661,-1530.5 938,-1530.5 938,-1530.5 661,-1530.5"/>
<polygon fill="#68d957" stroke="#68d957" points="661,-1485.75 661,-1485.75 938,-1485.75 938,-1485.75 661,-1485.75"/>
<polygon fill="none" stroke="#68d957" stroke-width="2" points="661,-1438 661,-1558.25 937,-1558.25 937,-1438 661,-1438"/>
</g>
<!-- 8&#45;&gt;6 -->
<g id="edge9" class="edge">
<title>8&#45;&gt;6</title>
<path fill="none" stroke="grey" stroke-width="2" d="M749.54,-1437.15C742.47,-1428.57 735.1,-1419.64 727.78,-1410.76"/>
<polygon fill="grey" stroke="grey" stroke-width="2" points="730.53,-1408.6 721.47,-1403.11 725.13,-1413.05 730.53,-1408.6"/>
</g>
<!-- 9 -->
<g id="node10" class="node">
<title>9</title>
<text text-anchor="start" x="716.12" y="-1694.4" font-family="sans" font-weight="bold" font-size="18.00">suite_permutations</text>
<text text-anchor="start" x="661" y="-1672.45" font-family="sans" font-size="10.00"> </text>
<text text-anchor="start" x="664" y="-1672.45" font-family="sans" font-weight="bold" font-size="14.00">↪ input</text>
<text text-anchor="start" x="715" y="-1672.45" font-family="sans" font-size="10.00"> </text>
<text text-anchor="start" x="661" y="-1650.25" font-family="monospace" font-size="10.00">config/fipy~{rev}/suite~petsc/permutations.csv</text>
<text text-anchor="start" x="871" y="-1627.7" font-family="sans" font-size="10.00"> </text>
<text text-anchor="start" x="874" y="-1627.7" font-family="sans" font-weight="bold" font-size="14.00">output →</text>
<text text-anchor="start" x="934" y="-1627.7" font-family="sans" font-size="10.00"> </text>
<text text-anchor="start" x="661" y="-1605.5" font-family="monospace" font-size="10.00">config/fipy~{rev}/suite_permutations.csv</text>
<polygon fill="#579cd9" stroke="#579cd9" points="655,-1688.75 655,-1688.75 944,-1688.75 944,-1688.75 655,-1688.75"/>
<polygon fill="#579cd9" stroke="#579cd9" points="655,-1644 655,-1644 944,-1644 944,-1644 655,-1644"/>
<polygon fill="none" stroke="#579cd9" stroke-width="2" points="655,-1596.25 655,-1716.5 943,-1716.5 943,-1596.25 655,-1596.25"/>
</g>
<!-- 9&#45;&gt;8 -->
<g id="edge10" class="edge">
<title>9&#45;&gt;8</title>
<path fill="none" stroke="grey" stroke-width="2" d="M799,-1595.41C799,-1587.8 799,-1579.95 799,-1572.17"/>
<polygon fill="grey" stroke="grey" stroke-width="2" points="802.5,-1572.21 799,-1562.21 795.5,-1572.21 802.5,-1572.21"/>
</g>
<!-- 10 -->
<g id="node11" class="node">
<title>10</title>
<text text-anchor="start" x="642.62" y="-1872.4" font-family="sans" font-weight="bold" font-size="18.00">solver_preconditioner_permutations</text>
<text text-anchor="start" x="640" y="-1850.45" font-family="sans" font-size="10.00"> </text>
<text text-anchor="start" x="643" y="-1850.45" font-family="sans" font-weight="bold" font-size="14.00">↪ input</text>
<text text-anchor="start" x="694" y="-1850.45" font-family="sans" font-size="10.00"> </text>
<text text-anchor="start" x="640" y="-1828.25" font-family="monospace" font-size="10.00">results/fipy~{rev}/suite~{suite}/preconditioners.json</text>
<text text-anchor="start" x="640" y="-1808.5" font-family="monospace" font-size="10.00">results/fipy~{rev}/suite~{suite}/solvers.json</text>
<text text-anchor="start" x="892" y="-1785.95" font-family="sans" font-size="10.00"> </text>
<text text-anchor="start" x="895" y="-1785.95" font-family="sans" font-weight="bold" font-size="14.00">output →</text>
<text text-anchor="start" x="955" y="-1785.95" font-family="sans" font-size="10.00"> </text>
<text text-anchor="start" x="640" y="-1763.75" font-family="monospace" font-size="10.00">config/fipy~{rev}/suite~{suite}/permutations.csv</text>
<polygon fill="#57bfd9" stroke="#57bfd9" points="634,-1866.75 634,-1866.75 965,-1866.75 965,-1866.75 634,-1866.75"/>
<polygon fill="#57bfd9" stroke="#57bfd9" points="634,-1802.25 634,-1802.25 965,-1802.25 965,-1802.25 634,-1802.25"/>
<polygon fill="none" stroke="#57bfd9" stroke-width="2" points="634,-1754.5 634,-1894.5 964,-1894.5 964,-1754.5 634,-1754.5"/>
</g>
<!-- 10&#45;&gt;9 -->
<g id="edge11" class="edge">
<title>10&#45;&gt;9</title>
<path fill="none" stroke="grey" stroke-width="2" d="M799,-1753.53C799,-1745.8 799,-1737.92 799,-1730.16"/>
<polygon fill="grey" stroke="grey" stroke-width="2" points="802.5,-1730.3 799,-1720.3 795.5,-1730.3 802.5,-1730.3"/>
</g>
<!-- 11 -->
<g id="node12" class="node">
<title>11</title>
<text text-anchor="start" x="676.38" y="-2023.9" font-family="sans" font-weight="bold" font-size="18.00">get_solvers_preconditioners</text>
<text text-anchor="start" x="640" y="-2004.75" font-family="sans" font-size="10.00"> &#160;</text>
<text text-anchor="start" x="892" y="-1983.7" font-family="sans" font-size="10.00"> </text>
<text text-anchor="start" x="895" y="-1983.7" font-family="sans" font-weight="bold" font-size="14.00">output →</text>
<text text-anchor="start" x="955" y="-1983.7" font-family="sans" font-size="10.00"> </text>
<text text-anchor="start" x="640" y="-1961.5" font-family="monospace" font-size="10.00">results/fipy~{rev}/suite~{suite}/preconditioners.json</text>
<text text-anchor="start" x="640" y="-1941.75" font-family="monospace" font-size="10.00">results/fipy~{rev}/suite~{suite}/solvers.json</text>
<polygon fill="#57d968" stroke="#57d968" points="634,-2018.25 634,-2018.25 965,-2018.25 965,-2018.25 634,-2018.25"/>
<polygon fill="#57d968" stroke="#57d968" points="634,-2000 634,-2000 965,-2000 965,-2000 634,-2000"/>
<polygon fill="none" stroke="#57d968" stroke-width="2" points="634,-1932.5 634,-2046 964,-2046 964,-1932.5 634,-1932.5"/>
</g>
<!-- 11&#45;&gt;10 -->
<g id="edge12" class="edge">
<title>11&#45;&gt;10</title>
<path fill="none" stroke="grey" stroke-width="2" d="M799,-1931.78C799,-1924.16 799,-1916.22 799,-1908.26"/>
<polygon fill="grey" stroke="grey" stroke-width="2" points="802.5,-1908.37 799,-1898.37 795.5,-1908.37 802.5,-1908.37"/>
</g>
<!-- 12&#45;&gt;5 -->
<g id="edge6" class="edge">
<title>12&#45;&gt;5</title>
<path fill="none" stroke="grey" stroke-width="2" d="M554.1,-903.19C558.36,-894.94 562.74,-886.47 567.08,-878.08"/>
<polygon fill="grey" stroke="grey" stroke-width="2" points="570.07,-879.91 571.56,-869.42 563.86,-876.69 570.07,-879.91"/>
</g>
<!-- 13&#45;&gt;12 -->
<g id="edge13" class="edge">
<title>13&#45;&gt;12</title>
<path fill="none" stroke="grey" stroke-width="2" d="M496.88,-1081.19C498.45,-1073.31 500.05,-1065.24 501.65,-1057.23"/>
<polygon fill="grey" stroke="grey" stroke-width="2" points="505.03,-1058.19 503.54,-1047.7 498.16,-1056.82 505.03,-1058.19"/>
</g>
<!-- 14&#45;&gt;2 -->
<g id="edge3" class="edge">
<title>14&#45;&gt;2</title>
<path fill="none" stroke="grey" stroke-width="2" d="M659.13,-191.16C655.5,-182.99 651.82,-174.73 648.19,-166.58"/>
<polygon fill="grey" stroke="grey" stroke-width="2" points="651.42,-165.22 644.16,-157.51 645.03,-168.07 651.42,-165.22"/>
</g>
</g>
</svg>
