<?xml version="1.0" encoding="UTF-8" standalone="no"?>
<!DOCTYPE svg PUBLIC "-//W3C//DTD SVG 1.1//EN"
 "http://www.w3.org/Graphics/SVG/1.1/DTD/svg11.dtd">
<!-- Generated by graphviz version 11.0.0 (0)
 -->
<!-- Title: snakemake_dag Pages: 1 -->
<svg width="642pt" height="1587pt"
 viewBox="0.00 0.00 642.00 1586.75" xmlns="http://www.w3.org/2000/svg" xmlns:xlink="http://www.w3.org/1999/xlink">
<g id="graph0" class="graph" transform="scale(1 1) rotate(0) translate(4 1582.75)">
<title>snakemake_dag</title>
<polygon fill="white" stroke="none" points="-4,4 -4,-1582.75 638,-1582.75 638,4 -4,4"/>
<!-- 0 -->
<g id="node1" class="node">
<title>0</title>
<text text-anchor="start" x="315.88" y="-309.65" font-family="sans" font-weight="bold" font-size="18.00">all</text>
<text text-anchor="start" x="149" y="-287.7" font-family="sans" font-size="10.00"> </text>
<text text-anchor="start" x="152" y="-287.7" font-family="sans" font-weight="bold" font-size="14.00">↪ input</text>
<text text-anchor="start" x="203" y="-287.7" font-family="sans" font-size="10.00"> </text>
<text text-anchor="start" x="149" y="-265.5" font-family="monospace" font-size="10.00">results/plots/fipy~2876d0a7b/binary_phase_field/prepare.png</text>
<text text-anchor="start" x="149" y="-245.75" font-family="monospace" font-size="10.00">results/plots/fipy~2876d0a7b/binary_phase_field/solve.png</text>
<text text-anchor="start" x="149" y="-226" font-family="monospace" font-size="10.00">results/plots/fipy~2876d0a7b/binary_phase_field/total.png</text>
<text text-anchor="start" x="149" y="-206.25" font-family="monospace" font-size="10.00">results/plots/fipy~2e82a58e7/binary_phase_field/prepare.png</text>
<text text-anchor="start" x="149" y="-186.5" font-family="monospace" font-size="10.00">results/plots/fipy~2e82a58e7/binary_phase_field/solve.png</text>
<text text-anchor="start" x="149" y="-166.75" font-family="monospace" font-size="10.00">results/plots/fipy~2e82a58e7/binary_phase_field/total.png</text>
<text text-anchor="start" x="149" y="-147" font-family="monospace" font-size="10.00">results/plots/fipy~8c0aec6d3/binary_phase_field/prepare.png</text>
<text text-anchor="start" x="149" y="-127.25" font-family="monospace" font-size="10.00">results/plots/fipy~8c0aec6d3/binary_phase_field/solve.png</text>
<text text-anchor="start" x="149" y="-107.5" font-family="monospace" font-size="10.00">results/plots/fipy~8c0aec6d3/binary_phase_field/total.png</text>
<text text-anchor="start" x="149" y="-87.75" font-family="monospace" font-size="10.00">results/plots/fipy~c246c5c9f/binary_phase_field/prepare.png</text>
<text text-anchor="start" x="149" y="-68" font-family="monospace" font-size="10.00">results/plots/fipy~c246c5c9f/binary_phase_field/solve.png</text>
<text text-anchor="start" x="149" y="-48.25" font-family="monospace" font-size="10.00">results/plots/fipy~c246c5c9f/binary_phase_field/total.png</text>
<text text-anchor="start" x="149" y="-28.5" font-family="monospace" font-size="10.00">results/total_times.json</text>
<text text-anchor="start" x="497" y="-8.75" font-family="sans" font-size="10.00"> &#160;</text>
<polygon fill="#d95757" stroke="#d95757" points="143,-304 143,-304 510,-304 510,-304 143,-304"/>
<polygon fill="#d95757" stroke="#d95757" points="143,-22.25 143,-22.25 510,-22.25 510,-22.25 143,-22.25"/>
<polygon fill="none" stroke="#d95757" stroke-width="2" points="143,-1 143,-331.75 509,-331.75 509,-1 143,-1"/>
</g>
<!-- 1 -->
<g id="node2" class="node">
<title>1</title>
<text text-anchor="start" x="278.75" y="-685.4" font-family="sans" font-weight="bold" font-size="18.00">total_times</text>
<text text-anchor="start" x="254" y="-663.45" font-family="sans" font-size="10.00"> </text>
<text text-anchor="start" x="257" y="-663.45" font-family="sans" font-weight="bold" font-size="14.00">↪ input</text>
<text text-anchor="start" x="308" y="-663.45" font-family="sans" font-size="10.00"> </text>
<text text-anchor="start" x="254" y="-641.25" font-family="monospace" font-size="10.00">results/all.json</text>
<text text-anchor="start" x="332" y="-618.7" font-family="sans" font-size="10.00"> </text>
<text text-anchor="start" x="335" y="-618.7" font-family="sans" font-weight="bold" font-size="14.00">output →</text>
<text text-anchor="start" x="395" y="-618.7" font-family="sans" font-size="10.00"> </text>
<text text-anchor="start" x="254" y="-596.5" font-family="monospace" font-size="10.00">results/total_times.json</text>
<polygon fill="#57a7d9" stroke="#57a7d9" points="248,-679.75 248,-679.75 405,-679.75 405,-679.75 248,-679.75"/>
<polygon fill="#57a7d9" stroke="#57a7d9" points="248,-635 248,-635 405,-635 405,-635 248,-635"/>
<polygon fill="none" stroke="#57a7d9" stroke-width="2" points="248,-587.25 248,-707.5 404,-707.5 404,-587.25 248,-587.25"/>
</g>
<!-- 1&#45;&gt;0 -->
<g id="edge1" class="edge">
<title>1&#45;&gt;0</title>
<path fill="none" stroke="grey" stroke-width="2" d="M273.84,-586.47C266.51,-575.1 260.09,-562.81 256,-550.25 234.63,-484.6 241.47,-410.37 257.4,-344.87"/>
<polygon fill="grey" stroke="grey" stroke-width="2" points="260.77,-345.8 259.84,-335.25 253.99,-344.08 260.77,-345.8"/>
</g>
<!-- 7 -->
<g id="node8" class="node">
<title>7</title>
<text text-anchor="start" x="337.25" y="-527.15" font-family="sans" font-weight="bold" font-size="18.00">plot_permutations</text>
<text text-anchor="start" x="272" y="-505.2" font-family="sans" font-size="10.00"> </text>
<text text-anchor="start" x="275" y="-505.2" font-family="sans" font-weight="bold" font-size="14.00">↪ input</text>
<text text-anchor="start" x="326" y="-505.2" font-family="sans" font-size="10.00"> </text>
<text text-anchor="start" x="272" y="-483" font-family="monospace" font-size="10.00">results/total_times.json</text>
<text text-anchor="start" x="494" y="-460.45" font-family="sans" font-size="10.00"> </text>
<text text-anchor="start" x="497" y="-460.45" font-family="sans" font-weight="bold" font-size="14.00">output →</text>
<text text-anchor="start" x="557" y="-460.45" font-family="sans" font-size="10.00"> </text>
<text text-anchor="start" x="272" y="-438.25" font-family="monospace" font-size="10.00">results/plots/fipy~{rev}/{benchmark}</text>
<text text-anchor="start" x="272" y="-418.5" font-family="monospace" font-size="10.00">results/plots/fipy~{rev}/{benchmark}/prepare.png</text>
<text text-anchor="start" x="272" y="-398.75" font-family="monospace" font-size="10.00">results/plots/fipy~{rev}/{benchmark}/solve.png</text>
<text text-anchor="start" x="272" y="-379" font-family="monospace" font-size="10.00">results/plots/fipy~{rev}/{benchmark}/total.png</text>
<polygon fill="#577fd9" stroke="#577fd9" points="266,-521.5 266,-521.5 567,-521.5 567,-521.5 266,-521.5"/>
<polygon fill="#577fd9" stroke="#577fd9" points="266,-476.75 266,-476.75 567,-476.75 567,-476.75 266,-476.75"/>
<polygon fill="none" stroke="#577fd9" stroke-width="2" points="266,-369.75 266,-549.25 566,-549.25 566,-369.75 266,-369.75"/>
</g>
<!-- 1&#45;&gt;7 -->
<g id="edge9" class="edge">
<title>1&#45;&gt;7</title>
<path fill="none" stroke="grey" stroke-width="2" d="M355.1,-586.28C358.94,-578.34 362.97,-570.02 367.04,-561.61"/>
<polygon fill="grey" stroke="grey" stroke-width="2" points="370.08,-563.37 371.29,-552.84 363.78,-560.32 370.08,-563.37"/>
</g>
<!-- 2 -->
<g id="node3" class="node">
<title>2</title>
<text text-anchor="start" x="234.12" y="-902.9" font-family="sans" font-weight="bold" font-size="18.00">aggregate_all_results</text>
<text text-anchor="start" x="185" y="-880.95" font-family="sans" font-size="10.00"> </text>
<text text-anchor="start" x="188" y="-880.95" font-family="sans" font-weight="bold" font-size="14.00">↪ input</text>
<text text-anchor="start" x="239" y="-880.95" font-family="sans" font-size="10.00"> </text>
<text text-anchor="start" x="185" y="-858.75" font-family="monospace" font-size="10.00">results/fipy~2876d0a7b/suite~petsc/results.json</text>
<text text-anchor="start" x="185" y="-839" font-family="monospace" font-size="10.00">results/fipy~2e82a58e7/suite~petsc/results.json</text>
<text text-anchor="start" x="185" y="-819.25" font-family="monospace" font-size="10.00">results/fipy~8c0aec6d3/suite~petsc/results.json</text>
<text text-anchor="start" x="185" y="-799.5" font-family="monospace" font-size="10.00">results/fipy~c246c5c9f/suite~petsc/results.json</text>
<text text-anchor="start" x="401" y="-776.95" font-family="sans" font-size="10.00"> </text>
<text text-anchor="start" x="404" y="-776.95" font-family="sans" font-weight="bold" font-size="14.00">output →</text>
<text text-anchor="start" x="464" y="-776.95" font-family="sans" font-size="10.00"> </text>
<text text-anchor="start" x="185" y="-754.75" font-family="monospace" font-size="10.00">results/all.json</text>
<polygon fill="#d97f57" stroke="#d97f57" points="179,-897.25 179,-897.25 474,-897.25 474,-897.25 179,-897.25"/>
<polygon fill="#d97f57" stroke="#d97f57" points="179,-793.25 179,-793.25 474,-793.25 474,-793.25 179,-793.25"/>
<polygon fill="none" stroke="#d97f57" stroke-width="2" points="179,-745.5 179,-925 473,-925 473,-745.5 179,-745.5"/>
</g>
<!-- 2&#45;&gt;1 -->
<g id="edge3" class="edge">
<title>2&#45;&gt;1</title>
<path fill="none" stroke="grey" stroke-width="2" d="M326,-744.58C326,-736.82 326,-729.04 326,-721.44"/>
<polygon fill="grey" stroke="grey" stroke-width="2" points="329.5,-721.47 326,-711.47 322.5,-721.47 329.5,-721.47"/>
</g>
<!-- 3 -->
<g id="node4" class="node">
<title>3</title>
<text text-anchor="start" x="204.12" y="-1239.15" font-family="sans" font-weight="bold" font-size="18.00">rev_and_suite_permutations</text>
<text text-anchor="start" x="170" y="-1217.2" font-family="sans" font-size="10.00"> </text>
<text text-anchor="start" x="173" y="-1217.2" font-family="sans" font-weight="bold" font-size="14.00">↪ input</text>
<text text-anchor="start" x="224" y="-1217.2" font-family="sans" font-size="10.00"> </text>
<text text-anchor="start" x="170" y="-1195" font-family="monospace" font-size="10.00">results/fipy~{rev}/suite~{suite}/preconditioners.txt</text>
<text text-anchor="start" x="170" y="-1175.25" font-family="monospace" font-size="10.00">results/fipy~{rev}/suite~{suite}/solvers.txt</text>
<text text-anchor="start" x="416" y="-1152.7" font-family="sans" font-size="10.00"> </text>
<text text-anchor="start" x="419" y="-1152.7" font-family="sans" font-weight="bold" font-size="14.00">output →</text>
<text text-anchor="start" x="479" y="-1152.7" font-family="sans" font-size="10.00"> </text>
<text text-anchor="start" x="170" y="-1130.5" font-family="monospace" font-size="10.00">results/fipy~{rev}/suite~{suite}/permutations.csv</text>
<polygon fill="#bbd957" stroke="#bbd957" points="164,-1233.5 164,-1233.5 489,-1233.5 489,-1233.5 164,-1233.5"/>
<polygon fill="#bbd957" stroke="#bbd957" points="164,-1169 164,-1169 489,-1169 489,-1169 164,-1169"/>
<polygon fill="none" stroke="#bbd957" stroke-width="2" points="164,-1121.25 164,-1261.25 488,-1261.25 488,-1121.25 164,-1121.25"/>
</g>
<!-- 8 -->
<g id="node9" class="node">
<title>8</title>
<text text-anchor="start" x="249.12" y="-1061.15" font-family="sans" font-weight="bold" font-size="18.00">aggregate_results</text>
<text text-anchor="start" x="191" y="-1039.2" font-family="sans" font-size="10.00"> </text>
<text text-anchor="start" x="194" y="-1039.2" font-family="sans" font-weight="bold" font-size="14.00">↪ input</text>
<text text-anchor="start" x="245" y="-1039.2" font-family="sans" font-size="10.00"> </text>
<text text-anchor="start" x="191" y="-1017" font-family="monospace" font-size="10.00">&lt;input function&gt;</text>
<text text-anchor="start" x="395" y="-994.45" font-family="sans" font-size="10.00"> </text>
<text text-anchor="start" x="398" y="-994.45" font-family="sans" font-weight="bold" font-size="14.00">output →</text>
<text text-anchor="start" x="458" y="-994.45" font-family="sans" font-size="10.00"> </text>
<text text-anchor="start" x="191" y="-972.25" font-family="monospace" font-size="10.00">results/fipy~{rev}/suite~{suite}/results.json</text>
<polygon fill="#57d96b" stroke="#57d96b" points="185,-1055.5 185,-1055.5 468,-1055.5 468,-1055.5 185,-1055.5"/>
<polygon fill="#57d96b" stroke="#57d96b" points="185,-1010.75 185,-1010.75 468,-1010.75 468,-1010.75 185,-1010.75"/>
<polygon fill="none" stroke="#57d96b" stroke-width="2" points="185,-963 185,-1083.25 467,-1083.25 467,-963 185,-963"/>
</g>
<!-- 3&#45;&gt;8 -->
<g id="edge10" class="edge">
<title>3&#45;&gt;8</title>
<path fill="none" stroke="grey" stroke-width="2" d="M326,-1120.28C326,-1112.55 326,-1104.67 326,-1096.91"/>
<polygon fill="grey" stroke="grey" stroke-width="2" points="329.5,-1097.05 326,-1087.05 322.5,-1097.05 329.5,-1097.05"/>
</g>
<!-- 4 -->
<g id="node5" class="node">
<title>4</title>
<text text-anchor="start" x="225.12" y="-1555.65" font-family="sans" font-weight="bold" font-size="18.00">render_conda_template</text>
<text text-anchor="start" x="188" y="-1533.7" font-family="sans" font-size="10.00"> </text>
<text text-anchor="start" x="191" y="-1533.7" font-family="sans" font-weight="bold" font-size="14.00">↪ input</text>
<text text-anchor="start" x="242" y="-1533.7" font-family="sans" font-size="10.00"> </text>
<text text-anchor="start" x="188" y="-1511.5" font-family="monospace" font-size="10.00">workflow/envs/benchmark_{suite}.yml</text>
<text text-anchor="start" x="398" y="-1488.95" font-family="sans" font-size="10.00"> </text>
<text text-anchor="start" x="401" y="-1488.95" font-family="sans" font-weight="bold" font-size="14.00">output →</text>
<text text-anchor="start" x="461" y="-1488.95" font-family="sans" font-size="10.00"> </text>
<text text-anchor="start" x="188" y="-1466.75" font-family="monospace" font-size="10.00">results/fipy~{rev}/suite~{suite}/benchmark.yml</text>
<polygon fill="#d9cf57" stroke="#d9cf57" points="182,-1550 182,-1550 471,-1550 471,-1550 182,-1550"/>
<polygon fill="#d9cf57" stroke="#d9cf57" points="182,-1505.25 182,-1505.25 471,-1505.25 471,-1505.25 182,-1505.25"/>
<polygon fill="none" stroke="#d9cf57" stroke-width="2" points="182,-1457.5 182,-1577.75 470,-1577.75 470,-1457.5 182,-1457.5"/>
</g>
<!-- 5 -->
<g id="node6" class="node">
<title>5</title>
<text text-anchor="start" x="76.75" y="-1397.4" font-family="sans" font-weight="bold" font-size="18.00">list_preconditioners</text>
<text text-anchor="start" x="7" y="-1375.45" font-family="sans" font-size="10.00"> </text>
<text text-anchor="start" x="10" y="-1375.45" font-family="sans" font-weight="bold" font-size="14.00">↪ input</text>
<text text-anchor="start" x="61" y="-1375.45" font-family="sans" font-size="10.00"> </text>
<text text-anchor="start" x="7" y="-1353.25" font-family="monospace" font-size="10.00">results/fipy~{rev}/suite~{suite}/benchmark.yml</text>
<text text-anchor="start" x="253" y="-1330.7" font-family="sans" font-size="10.00"> </text>
<text text-anchor="start" x="256" y="-1330.7" font-family="sans" font-weight="bold" font-size="14.00">output →</text>
<text text-anchor="start" x="316" y="-1330.7" font-family="sans" font-size="10.00"> </text>
<text text-anchor="start" x="7" y="-1308.5" font-family="monospace" font-size="10.00">results/fipy~{rev}/suite~{suite}/preconditioners.txt</text>
<polygon fill="#57cfd9" stroke="#57cfd9" points="1,-1391.75 1,-1391.75 326,-1391.75 326,-1391.75 1,-1391.75"/>
<polygon fill="#57cfd9" stroke="#57cfd9" points="1,-1347 1,-1347 326,-1347 326,-1347 1,-1347"/>
<polygon fill="none" stroke="#57cfd9" stroke-width="2" points="1,-1299.25 1,-1419.5 325,-1419.5 325,-1299.25 1,-1299.25"/>
</g>
<!-- 4&#45;&gt;5 -->
<g id="edge7" class="edge">
<title>4&#45;&gt;5</title>
<path fill="none" stroke="grey" stroke-width="2" d="M263.45,-1456.66C254.15,-1447.75 244.51,-1438.51 235.05,-1429.44"/>
<polygon fill="grey" stroke="grey" stroke-width="2" points="237.48,-1426.92 227.84,-1422.53 232.64,-1431.98 237.48,-1426.92"/>
</g>
<!-- 6 -->
<g id="node7" class="node">
<title>6</title>
<text text-anchor="start" x="439.88" y="-1397.4" font-family="sans" font-weight="bold" font-size="18.00">list_solvers</text>
<text text-anchor="start" x="351" y="-1375.45" font-family="sans" font-size="10.00"> </text>
<text text-anchor="start" x="354" y="-1375.45" font-family="sans" font-weight="bold" font-size="14.00">↪ input</text>
<text text-anchor="start" x="405" y="-1375.45" font-family="sans" font-size="10.00"> </text>
<text text-anchor="start" x="351" y="-1353.25" font-family="monospace" font-size="10.00">results/fipy~{rev}/suite~{suite}/benchmark.yml</text>
<text text-anchor="start" x="561" y="-1330.7" font-family="sans" font-size="10.00"> </text>
<text text-anchor="start" x="564" y="-1330.7" font-family="sans" font-weight="bold" font-size="14.00">output →</text>
<text text-anchor="start" x="624" y="-1330.7" font-family="sans" font-size="10.00"> </text>
<text text-anchor="start" x="351" y="-1308.5" font-family="monospace" font-size="10.00">results/fipy~{rev}/suite~{suite}/solvers.txt</text>
<polygon fill="#6bd957" stroke="#6bd957" points="345,-1391.75 345,-1391.75 634,-1391.75 634,-1391.75 345,-1391.75"/>
<polygon fill="#6bd957" stroke="#6bd957" points="345,-1347 345,-1347 634,-1347 634,-1347 345,-1347"/>
<polygon fill="none" stroke="#6bd957" stroke-width="2" points="345,-1299.25 345,-1419.5 633,-1419.5 633,-1299.25 345,-1299.25"/>
</g>
<!-- 4&#45;&gt;6 -->
<g id="edge8" class="edge">
<title>4&#45;&gt;6</title>
<path fill="none" stroke="grey" stroke-width="2" d="M388.55,-1456.66C397.85,-1447.75 407.49,-1438.51 416.95,-1429.44"/>
<polygon fill="grey" stroke="grey" stroke-width="2" points="419.36,-1431.98 424.16,-1422.53 414.52,-1426.92 419.36,-1431.98"/>
</g>
<!-- 5&#45;&gt;3 -->
<g id="edge5" class="edge">
<title>5&#45;&gt;3</title>
<path fill="none" stroke="grey" stroke-width="2" d="M221.85,-1298.4C230.53,-1289.55 239.59,-1280.32 248.58,-1271.15"/>
<polygon fill="grey" stroke="grey" stroke-width="2" points="250.91,-1273.77 255.42,-1264.19 245.92,-1268.87 250.91,-1273.77"/>
</g>
<!-- 6&#45;&gt;3 -->
<g id="edge6" class="edge">
<title>6&#45;&gt;3</title>
<path fill="none" stroke="grey" stroke-width="2" d="M430.15,-1298.4C421.47,-1289.55 412.41,-1280.32 403.42,-1271.15"/>
<polygon fill="grey" stroke="grey" stroke-width="2" points="406.08,-1268.87 396.58,-1264.19 401.09,-1273.77 406.08,-1268.87"/>
</g>
<!-- 7&#45;&gt;0 -->
<g id="edge2" class="edge">
<title>7&#45;&gt;0</title>
<path fill="none" stroke="grey" stroke-width="2" d="M388.26,-368.78C385.88,-361.07 383.42,-353.11 380.92,-345.01"/>
<polygon fill="grey" stroke="grey" stroke-width="2" points="384.28,-344.05 377.98,-335.52 377.59,-346.11 384.28,-344.05"/>
</g>
<!-- 8&#45;&gt;2 -->
<g id="edge4" class="edge">
<title>8&#45;&gt;2</title>
<path fill="none" stroke="grey" stroke-width="2" d="M326,-962.03C326,-954.54 326,-946.71 326,-938.79"/>
<polygon fill="grey" stroke="grey" stroke-width="2" points="329.5,-938.9 326,-928.9 322.5,-938.9 329.5,-938.9"/>
</g>
</g>
</svg>
