<?xml version="1.0" encoding="UTF-8" standalone="no"?>
<!DOCTYPE svg PUBLIC "-//W3C//DTD SVG 1.1//EN"
 "http://www.w3.org/Graphics/SVG/1.1/DTD/svg11.dtd">
<!-- Generated by graphviz version 11.0.0 (0)
 -->
<!-- Title: snakemake_dag Pages: 1 -->
<svg width="720pt" height="2398pt"
 viewBox="0.00 0.00 720.00 2398.00" xmlns="http://www.w3.org/2000/svg" xmlns:xlink="http://www.w3.org/1999/xlink">
<g id="graph0" class="graph" transform="scale(1 1) rotate(0) translate(4 2394)">
<title>snakemake_dag</title>
<polygon fill="white" stroke="none" points="-4,4 -4,-2394 716,-2394 716,4 -4,4"/>
<!-- 0 -->
<g id="node1" class="node">
<title>0</title>
<text text-anchor="start" x="274.88" y="-131.9" font-family="sans" font-weight="bold" font-size="18.00">all</text>
<text text-anchor="start" x="108" y="-109.95" font-family="sans" font-size="10.00"> </text>
<text text-anchor="start" x="111" y="-109.95" font-family="sans" font-weight="bold" font-size="14.00">↪ input</text>
<text text-anchor="start" x="162" y="-109.95" font-family="sans" font-size="10.00"> </text>
<text text-anchor="start" x="108" y="-87.75" font-family="monospace" font-size="10.00">results/plots/fipy~c246c5c9f/binary_phase_field/prepare.png</text>
<text text-anchor="start" x="108" y="-68" font-family="monospace" font-size="10.00">results/plots/fipy~c246c5c9f/binary_phase_field/solve.png</text>
<text text-anchor="start" x="108" y="-48.25" font-family="monospace" font-size="10.00">results/plots/fipy~c246c5c9f/binary_phase_field/total.png</text>
<text text-anchor="start" x="108" y="-28.5" font-family="monospace" font-size="10.00">results/total_times.json</text>
<text text-anchor="start" x="456" y="-8.75" font-family="sans" font-size="10.00"> &#160;</text>
<polygon fill="#d95757" stroke="#d95757" points="102,-126.25 102,-126.25 469,-126.25 469,-126.25 102,-126.25"/>
<polygon fill="#d95757" stroke="#d95757" points="102,-22.25 102,-22.25 469,-22.25 469,-22.25 102,-22.25"/>
<polygon fill="none" stroke="#d95757" stroke-width="2" points="102,-1 102,-154 468,-154 468,-1 102,-1"/>
</g>
<!-- 1 -->
<g id="node2" class="node">
<title>1</title>
<text text-anchor="start" x="237.75" y="-507.65" font-family="sans" font-weight="bold" font-size="18.00">total_times</text>
<text text-anchor="start" x="213" y="-485.7" font-family="sans" font-size="10.00"> </text>
<text text-anchor="start" x="216" y="-485.7" font-family="sans" font-weight="bold" font-size="14.00">↪ input</text>
<text text-anchor="start" x="267" y="-485.7" font-family="sans" font-size="10.00"> </text>
<text text-anchor="start" x="213" y="-463.5" font-family="monospace" font-size="10.00">results/all.json</text>
<text text-anchor="start" x="291" y="-440.95" font-family="sans" font-size="10.00"> </text>
<text text-anchor="start" x="294" y="-440.95" font-family="sans" font-weight="bold" font-size="14.00">output →</text>
<text text-anchor="start" x="354" y="-440.95" font-family="sans" font-size="10.00"> </text>
<text text-anchor="start" x="213" y="-418.75" font-family="monospace" font-size="10.00">results/total_times.json</text>
<polygon fill="#8bd957" stroke="#8bd957" points="207,-502 207,-502 364,-502 364,-502 207,-502"/>
<polygon fill="#8bd957" stroke="#8bd957" points="207,-457.25 207,-457.25 364,-457.25 364,-457.25 207,-457.25"/>
<polygon fill="none" stroke="#8bd957" stroke-width="2" points="207,-409.5 207,-529.75 363,-529.75 363,-409.5 207,-409.5"/>
</g>
<!-- 1&#45;&gt;0 -->
<g id="edge1" class="edge">
<title>1&#45;&gt;0</title>
<path fill="none" stroke="grey" stroke-width="2" d="M232.84,-408.72C225.51,-397.35 219.09,-385.06 215,-372.5 190.03,-295.8 192.84,-268.56 215,-191 217.36,-182.75 220.51,-174.52 224.18,-166.47"/>
<polygon fill="grey" stroke="grey" stroke-width="2" points="227.3,-168.08 228.56,-157.56 221.01,-164.99 227.3,-168.08"/>
</g>
<!-- 12 -->
<g id="node13" class="node">
<title>12</title>
<text text-anchor="start" x="296.25" y="-349.4" font-family="sans" font-weight="bold" font-size="18.00">plot_permutations</text>
<text text-anchor="start" x="231" y="-327.45" font-family="sans" font-size="10.00"> </text>
<text text-anchor="start" x="234" y="-327.45" font-family="sans" font-weight="bold" font-size="14.00">↪ input</text>
<text text-anchor="start" x="285" y="-327.45" font-family="sans" font-size="10.00"> </text>
<text text-anchor="start" x="231" y="-305.25" font-family="monospace" font-size="10.00">results/total_times.json</text>
<text text-anchor="start" x="453" y="-282.7" font-family="sans" font-size="10.00"> </text>
<text text-anchor="start" x="456" y="-282.7" font-family="sans" font-weight="bold" font-size="14.00">output →</text>
<text text-anchor="start" x="516" y="-282.7" font-family="sans" font-size="10.00"> </text>
<text text-anchor="start" x="231" y="-260.5" font-family="monospace" font-size="10.00">results/plots/fipy~{rev}/{benchmark}</text>
<text text-anchor="start" x="231" y="-240.75" font-family="monospace" font-size="10.00">results/plots/fipy~{rev}/{benchmark}/prepare.png</text>
<text text-anchor="start" x="231" y="-221" font-family="monospace" font-size="10.00">results/plots/fipy~{rev}/{benchmark}/solve.png</text>
<text text-anchor="start" x="231" y="-201.25" font-family="monospace" font-size="10.00">results/plots/fipy~{rev}/{benchmark}/total.png</text>
<polygon fill="#57bfd9" stroke="#57bfd9" points="225,-343.75 225,-343.75 526,-343.75 526,-343.75 225,-343.75"/>
<polygon fill="#57bfd9" stroke="#57bfd9" points="225,-299 225,-299 526,-299 526,-299 225,-299"/>
<polygon fill="none" stroke="#57bfd9" stroke-width="2" points="225,-192 225,-371.5 525,-371.5 525,-192 225,-192"/>
</g>
<!-- 1&#45;&gt;12 -->
<g id="edge15" class="edge">
<title>1&#45;&gt;12</title>
<path fill="none" stroke="grey" stroke-width="2" d="M314.1,-408.53C317.94,-400.59 321.97,-392.27 326.04,-383.86"/>
<polygon fill="grey" stroke="grey" stroke-width="2" points="329.08,-385.62 330.29,-375.09 322.78,-382.57 329.08,-385.62"/>
</g>
<!-- 2 -->
<g id="node3" class="node">
<title>2</title>
<text text-anchor="start" x="193.12" y="-665.9" font-family="sans" font-weight="bold" font-size="18.00">aggregate_all_results</text>
<text text-anchor="start" x="144" y="-643.95" font-family="sans" font-size="10.00"> </text>
<text text-anchor="start" x="147" y="-643.95" font-family="sans" font-weight="bold" font-size="14.00">↪ input</text>
<text text-anchor="start" x="198" y="-643.95" font-family="sans" font-size="10.00"> </text>
<text text-anchor="start" x="144" y="-621.75" font-family="monospace" font-size="10.00">results/fipy~c246c5c9f/suite~petsc/results.json</text>
<text text-anchor="start" x="360" y="-599.2" font-family="sans" font-size="10.00"> </text>
<text text-anchor="start" x="363" y="-599.2" font-family="sans" font-weight="bold" font-size="14.00">output →</text>
<text text-anchor="start" x="423" y="-599.2" font-family="sans" font-size="10.00"> </text>
<text text-anchor="start" x="144" y="-577" font-family="monospace" font-size="10.00">results/all.json</text>
<polygon fill="#d0d957" stroke="#d0d957" points="138,-660.25 138,-660.25 433,-660.25 433,-660.25 138,-660.25"/>
<polygon fill="#d0d957" stroke="#d0d957" points="138,-615.5 138,-615.5 433,-615.5 433,-615.5 138,-615.5"/>
<polygon fill="none" stroke="#d0d957" stroke-width="2" points="138,-567.75 138,-688 432,-688 432,-567.75 138,-567.75"/>
</g>
<!-- 2&#45;&gt;1 -->
<g id="edge3" class="edge">
<title>2&#45;&gt;1</title>
<path fill="none" stroke="grey" stroke-width="2" d="M285,-566.91C285,-559.3 285,-551.45 285,-543.67"/>
<polygon fill="grey" stroke="grey" stroke-width="2" points="288.5,-543.71 285,-533.71 281.5,-543.71 288.5,-543.71"/>
</g>
<!-- 3 -->
<g id="node4" class="node">
<title>3</title>
<text text-anchor="start" x="208.12" y="-843.9" font-family="sans" font-weight="bold" font-size="18.00">aggregate_results</text>
<text text-anchor="start" x="150" y="-821.95" font-family="sans" font-size="10.00"> </text>
<text text-anchor="start" x="153" y="-821.95" font-family="sans" font-weight="bold" font-size="14.00">↪ input</text>
<text text-anchor="start" x="204" y="-821.95" font-family="sans" font-size="10.00"> </text>
<text text-anchor="start" x="150" y="-799.75" font-family="monospace" font-size="10.00">&lt;input function&gt;</text>
<text text-anchor="start" x="150" y="-780" font-family="monospace" font-size="10.00">config/all_permutations.csv</text>
<text text-anchor="start" x="354" y="-757.45" font-family="sans" font-size="10.00"> </text>
<text text-anchor="start" x="357" y="-757.45" font-family="sans" font-weight="bold" font-size="14.00">output →</text>
<text text-anchor="start" x="417" y="-757.45" font-family="sans" font-size="10.00"> </text>
<text text-anchor="start" x="150" y="-735.25" font-family="monospace" font-size="10.00">results/fipy~{rev}/suite~{suite}/results.json</text>
<polygon fill="#57d9ad" stroke="#57d9ad" points="144,-838.25 144,-838.25 427,-838.25 427,-838.25 144,-838.25"/>
<polygon fill="#57d9ad" stroke="#57d9ad" points="144,-773.75 144,-773.75 427,-773.75 427,-773.75 144,-773.75"/>
<polygon fill="none" stroke="#57d9ad" stroke-width="2" points="144,-726 144,-866 426,-866 426,-726 144,-726"/>
</g>
<!-- 3&#45;&gt;2 -->
<g id="edge4" class="edge">
<title>3&#45;&gt;2</title>
<path fill="none" stroke="grey" stroke-width="2" d="M285,-725.03C285,-717.3 285,-709.42 285,-701.66"/>
<polygon fill="grey" stroke="grey" stroke-width="2" points="288.5,-701.8 285,-691.8 281.5,-701.8 288.5,-701.8"/>
</g>
<!-- 4 -->
<g id="node5" class="node">
<title>4</title>
<text text-anchor="start" x="213" y="-1536.15" font-family="sans" font-weight="bold" font-size="18.00">all_permutations</text>
<text text-anchor="start" x="186" y="-1514.2" font-family="sans" font-size="10.00"> </text>
<text text-anchor="start" x="189" y="-1514.2" font-family="sans" font-weight="bold" font-size="14.00">↪ input</text>
<text text-anchor="start" x="240" y="-1514.2" font-family="sans" font-size="10.00"> </text>
<text text-anchor="start" x="186" y="-1492" font-family="monospace" font-size="10.00">config/benchmark_permutations.csv</text>
<text text-anchor="start" x="186" y="-1472.25" font-family="monospace" font-size="10.00">config/fipy_permutations.csv</text>
<text text-anchor="start" x="318" y="-1449.7" font-family="sans" font-size="10.00"> </text>
<text text-anchor="start" x="321" y="-1449.7" font-family="sans" font-weight="bold" font-size="14.00">output →</text>
<text text-anchor="start" x="381" y="-1449.7" font-family="sans" font-size="10.00"> </text>
<text text-anchor="start" x="186" y="-1427.5" font-family="monospace" font-size="10.00">config/all_permutations.csv</text>
<polygon fill="#5779d9" stroke="#5779d9" points="180,-1530.5 180,-1530.5 391,-1530.5 391,-1530.5 180,-1530.5"/>
<polygon fill="#5779d9" stroke="#5779d9" points="180,-1466 180,-1466 391,-1466 391,-1466 180,-1466"/>
<polygon fill="none" stroke="#5779d9" stroke-width="2" points="180,-1418.25 180,-1558.25 390,-1558.25 390,-1418.25 180,-1418.25"/>
</g>
<!-- 4&#45;&gt;3 -->
<g id="edge5" class="edge">
<title>4&#45;&gt;3</title>
<path fill="none" stroke="grey" stroke-width="2" d="M229.39,-1417.54C222.66,-1405.98 216.83,-1393.69 213,-1381.25 150.52,-1178.08 150.52,-1106.17 213,-903 215.6,-894.55 219.13,-886.16 223.24,-878.03"/>
<polygon fill="grey" stroke="grey" stroke-width="2" points="226.24,-879.83 227.94,-869.37 220.09,-876.48 226.24,-879.83"/>
</g>
<!-- 11 -->
<g id="node12" class="node">
<title>11</title>
<text text-anchor="start" x="321.25" y="-1358.15" font-family="sans" font-weight="bold" font-size="18.00">make_config</text>
<text text-anchor="start" x="229" y="-1336.2" font-family="sans" font-size="10.00"> </text>
<text text-anchor="start" x="232" y="-1336.2" font-family="sans" font-weight="bold" font-size="14.00">↪ input</text>
<text text-anchor="start" x="283" y="-1336.2" font-family="sans" font-size="10.00"> </text>
<text text-anchor="start" x="229" y="-1314" font-family="monospace" font-size="10.00">config/all_permutations.csv</text>
<text text-anchor="start" x="457" y="-1291.45" font-family="sans" font-size="10.00"> </text>
<text text-anchor="start" x="460" y="-1291.45" font-family="sans" font-weight="bold" font-size="14.00">output →</text>
<text text-anchor="start" x="520" y="-1291.45" font-family="sans" font-size="10.00"> </text>
<text text-anchor="start" x="229" y="-1269.25" font-family="monospace" font-size="10.00">results/fipy~{rev}/suite~{suite}/{id}/config.json</text>
<polygon fill="#57d9d0" stroke="#57d9d0" points="223,-1352.5 223,-1352.5 530,-1352.5 530,-1352.5 223,-1352.5"/>
<polygon fill="#57d9d0" stroke="#57d9d0" points="223,-1307.75 223,-1307.75 530,-1307.75 530,-1307.75 223,-1307.75"/>
<polygon fill="none" stroke="#57d9d0" stroke-width="2" points="223,-1260 223,-1380.25 529,-1380.25 529,-1260 223,-1260"/>
</g>
<!-- 4&#45;&gt;11 -->
<g id="edge14" class="edge">
<title>4&#45;&gt;11</title>
<path fill="none" stroke="grey" stroke-width="2" d="M323.33,-1417.28C327.87,-1408.99 332.51,-1400.52 337.06,-1392.21"/>
<polygon fill="grey" stroke="grey" stroke-width="2" points="340,-1394.13 341.74,-1383.67 333.86,-1390.76 340,-1394.13"/>
</g>
<!-- 5 -->
<g id="node6" class="node">
<title>5</title>
<text text-anchor="start" x="303.5" y="-1681.15" font-family="sans" font-weight="bold" font-size="18.00">benchmark_permutations</text>
<text text-anchor="start" x="303.5" y="-1662" font-family="sans" font-size="10.00"> &#160;</text>
<text text-anchor="start" x="456.5" y="-1640.95" font-family="sans" font-size="10.00"> </text>
<text text-anchor="start" x="459.5" y="-1640.95" font-family="sans" font-weight="bold" font-size="14.00">output →</text>
<text text-anchor="start" x="519.5" y="-1640.95" font-family="sans" font-size="10.00"> </text>
<text text-anchor="start" x="303.5" y="-1618.75" font-family="monospace" font-size="10.00">config/benchmark_permutations.csv</text>
<polygon fill="#d97957" stroke="#d97957" points="297.5,-1675.5 297.5,-1675.5 529.5,-1675.5 529.5,-1675.5 297.5,-1675.5"/>
<polygon fill="#d97957" stroke="#d97957" points="297.5,-1657.25 297.5,-1657.25 529.5,-1657.25 529.5,-1657.25 297.5,-1657.25"/>
<polygon fill="none" stroke="#d97957" stroke-width="2" points="297.5,-1609.5 297.5,-1703.25 528.5,-1703.25 528.5,-1609.5 297.5,-1609.5"/>
</g>
<!-- 5&#45;&gt;4 -->
<g id="edge7" class="edge">
<title>5&#45;&gt;4</title>
<path fill="none" stroke="grey" stroke-width="2" d="M377,-1608.66C367.58,-1596.42 357.14,-1582.88 346.78,-1569.43"/>
<polygon fill="grey" stroke="grey" stroke-width="2" points="349.61,-1567.37 340.74,-1561.59 344.07,-1571.65 349.61,-1567.37"/>
</g>
<!-- 6 -->
<g id="node7" class="node">
<title>6</title>
<text text-anchor="start" x="61" y="-1694.4" font-family="sans" font-weight="bold" font-size="18.00">fipy_permutations</text>
<text text-anchor="start" x="7" y="-1672.45" font-family="sans" font-size="10.00"> </text>
<text text-anchor="start" x="10" y="-1672.45" font-family="sans" font-weight="bold" font-size="14.00">↪ input</text>
<text text-anchor="start" x="61" y="-1672.45" font-family="sans" font-size="10.00"> </text>
<text text-anchor="start" x="7" y="-1650.25" font-family="monospace" font-size="10.00">config/fipy~c246c5c9f/suite_permutations.csv</text>
<text text-anchor="start" x="205" y="-1627.7" font-family="sans" font-size="10.00"> </text>
<text text-anchor="start" x="208" y="-1627.7" font-family="sans" font-weight="bold" font-size="14.00">output →</text>
<text text-anchor="start" x="268" y="-1627.7" font-family="sans" font-size="10.00"> </text>
<text text-anchor="start" x="7" y="-1605.5" font-family="monospace" font-size="10.00">config/fipy_permutations.csv</text>
<polygon fill="#d9bf57" stroke="#d9bf57" points="1,-1688.75 1,-1688.75 278,-1688.75 278,-1688.75 1,-1688.75"/>
<polygon fill="#d9bf57" stroke="#d9bf57" points="1,-1644 1,-1644 278,-1644 278,-1644 1,-1644"/>
<polygon fill="none" stroke="#d9bf57" stroke-width="2" points="1,-1596.25 1,-1716.5 277,-1716.5 277,-1596.25 1,-1596.25"/>
</g>
<!-- 6&#45;&gt;4 -->
<g id="edge8" class="edge">
<title>6&#45;&gt;4</title>
<path fill="none" stroke="grey" stroke-width="2" d="M191.71,-1595.4C199.33,-1586.73 207.27,-1577.7 215.15,-1568.72"/>
<polygon fill="grey" stroke="grey" stroke-width="2" points="217.71,-1571.12 221.68,-1561.3 212.45,-1566.5 217.71,-1571.12"/>
</g>
<!-- 7 -->
<g id="node8" class="node">
<title>7</title>
<text text-anchor="start" x="113.12" y="-1852.65" font-family="sans" font-weight="bold" font-size="18.00">suite_permutations</text>
<text text-anchor="start" x="58" y="-1830.7" font-family="sans" font-size="10.00"> </text>
<text text-anchor="start" x="61" y="-1830.7" font-family="sans" font-weight="bold" font-size="14.00">↪ input</text>
<text text-anchor="start" x="112" y="-1830.7" font-family="sans" font-size="10.00"> </text>
<text text-anchor="start" x="58" y="-1808.5" font-family="monospace" font-size="10.00">config/fipy~{rev}/suite~petsc/permutations.csv</text>
<text text-anchor="start" x="268" y="-1785.95" font-family="sans" font-size="10.00"> </text>
<text text-anchor="start" x="271" y="-1785.95" font-family="sans" font-weight="bold" font-size="14.00">output →</text>
<text text-anchor="start" x="331" y="-1785.95" font-family="sans" font-size="10.00"> </text>
<text text-anchor="start" x="58" y="-1763.75" font-family="monospace" font-size="10.00">config/fipy~{rev}/suite_permutations.csv</text>
<polygon fill="#57d98b" stroke="#57d98b" points="52,-1847 52,-1847 341,-1847 341,-1847 52,-1847"/>
<polygon fill="#57d98b" stroke="#57d98b" points="52,-1802.25 52,-1802.25 341,-1802.25 341,-1802.25 52,-1802.25"/>
<polygon fill="none" stroke="#57d98b" stroke-width="2" points="52,-1754.5 52,-1874.75 340,-1874.75 340,-1754.5 52,-1754.5"/>
</g>
<!-- 7&#45;&gt;6 -->
<g id="edge9" class="edge">
<title>7&#45;&gt;6</title>
<path fill="none" stroke="grey" stroke-width="2" d="M174.13,-1753.66C171.25,-1745.77 168.28,-1737.63 165.33,-1729.56"/>
<polygon fill="grey" stroke="grey" stroke-width="2" points="168.66,-1728.47 161.95,-1720.28 162.09,-1730.87 168.66,-1728.47"/>
</g>
<!-- 8 -->
<g id="node9" class="node">
<title>8</title>
<text text-anchor="start" x="153.62" y="-2030.65" font-family="sans" font-weight="bold" font-size="18.00">solver_preconditioner_permutations</text>
<text text-anchor="start" x="153.62" y="-2008.7" font-family="sans" font-size="10.00"> </text>
<text text-anchor="start" x="156.62" y="-2008.7" font-family="sans" font-weight="bold" font-size="14.00">↪ input</text>
<text text-anchor="start" x="207.62" y="-2008.7" font-family="sans" font-size="10.00"> </text>
<text text-anchor="start" x="153.62" y="-1986.5" font-family="monospace" font-size="10.00">config/fipy~{rev}/suite~{suite}/preconditioners.json</text>
<text text-anchor="start" x="153.62" y="-1966.75" font-family="monospace" font-size="10.00">config/fipy~{rev}/suite~{suite}/solvers.json</text>
<text text-anchor="start" x="400.38" y="-1944.2" font-family="sans" font-size="10.00"> </text>
<text text-anchor="start" x="403.38" y="-1944.2" font-family="sans" font-weight="bold" font-size="14.00">output →</text>
<text text-anchor="start" x="463.38" y="-1944.2" font-family="sans" font-size="10.00"> </text>
<text text-anchor="start" x="153.62" y="-1922" font-family="monospace" font-size="10.00">config/fipy~{rev}/suite~{suite}/permutations.csv</text>
<polygon fill="#68d957" stroke="#68d957" points="147.62,-2025 147.62,-2025 473.38,-2025 473.38,-2025 147.62,-2025"/>
<polygon fill="#68d957" stroke="#68d957" points="147.62,-1960.5 147.62,-1960.5 473.38,-1960.5 473.38,-1960.5 147.62,-1960.5"/>
<polygon fill="none" stroke="#68d957" stroke-width="2" points="147.62,-1912.75 147.62,-2052.75 472.38,-2052.75 472.38,-1912.75 147.62,-1912.75"/>
</g>
<!-- 8&#45;&gt;7 -->
<g id="edge10" class="edge">
<title>8&#45;&gt;7</title>
<path fill="none" stroke="grey" stroke-width="2" d="M261.98,-1911.78C256.17,-1903.3 250.22,-1894.63 244.39,-1886.15"/>
<polygon fill="grey" stroke="grey" stroke-width="2" points="247.36,-1884.28 238.81,-1878.02 241.59,-1888.24 247.36,-1884.28"/>
</g>
<!-- 9 -->
<g id="node10" class="node">
<title>9</title>
<text text-anchor="start" x="361.12" y="-2366.9" font-family="sans" font-weight="bold" font-size="18.00">render_conda_template</text>
<text text-anchor="start" x="318" y="-2344.95" font-family="sans" font-size="10.00"> </text>
<text text-anchor="start" x="321" y="-2344.95" font-family="sans" font-weight="bold" font-size="14.00">↪ input</text>
<text text-anchor="start" x="372" y="-2344.95" font-family="sans" font-size="10.00"> </text>
<text text-anchor="start" x="318" y="-2322.75" font-family="monospace" font-size="10.00">workflow/envs/benchmark_{suite}.yml</text>
<text text-anchor="start" x="540" y="-2300.2" font-family="sans" font-size="10.00"> </text>
<text text-anchor="start" x="543" y="-2300.2" font-family="sans" font-weight="bold" font-size="14.00">output →</text>
<text text-anchor="start" x="603" y="-2300.2" font-family="sans" font-size="10.00"> </text>
<text text-anchor="start" x="318" y="-2278" font-family="monospace" font-size="10.00">results/fipy~{rev}/suite~{suite}/environment.yml</text>
<polygon fill="#d99c57" stroke="#d99c57" points="312,-2361.25 312,-2361.25 613,-2361.25 613,-2361.25 312,-2361.25"/>
<polygon fill="#d99c57" stroke="#d99c57" points="312,-2316.5 312,-2316.5 613,-2316.5 613,-2316.5 312,-2316.5"/>
<polygon fill="none" stroke="#d99c57" stroke-width="2" points="312,-2268.75 312,-2389 612,-2389 612,-2268.75 312,-2268.75"/>
</g>
<!-- 13 -->
<g id="node14" class="node">
<title>13</title>
<text text-anchor="start" x="244.38" y="-2208.65" font-family="sans" font-weight="bold" font-size="18.00">get_solvers_preconditioners</text>
<text text-anchor="start" x="211" y="-2186.7" font-family="sans" font-size="10.00"> </text>
<text text-anchor="start" x="214" y="-2186.7" font-family="sans" font-weight="bold" font-size="14.00">↪ input</text>
<text text-anchor="start" x="265" y="-2186.7" font-family="sans" font-size="10.00"> </text>
<text text-anchor="start" x="211" y="-2164.5" font-family="monospace" font-size="10.00">results/fipy~{rev}/suite~{suite}/environment.yml</text>
<text text-anchor="start" x="457" y="-2141.95" font-family="sans" font-size="10.00"> </text>
<text text-anchor="start" x="460" y="-2141.95" font-family="sans" font-weight="bold" font-size="14.00">output →</text>
<text text-anchor="start" x="520" y="-2141.95" font-family="sans" font-size="10.00"> </text>
<text text-anchor="start" x="211" y="-2119.75" font-family="monospace" font-size="10.00">config/fipy~{rev}/suite~{suite}/preconditioners.json</text>
<text text-anchor="start" x="211" y="-2100" font-family="monospace" font-size="10.00">config/fipy~{rev}/suite~{suite}/solvers.json</text>
<polygon fill="#add957" stroke="#add957" points="205,-2203 205,-2203 530,-2203 530,-2203 205,-2203"/>
<polygon fill="#add957" stroke="#add957" points="205,-2158.25 205,-2158.25 530,-2158.25 530,-2158.25 205,-2158.25"/>
<polygon fill="none" stroke="#add957" stroke-width="2" points="205,-2090.75 205,-2230.75 529,-2230.75 529,-2090.75 205,-2090.75"/>
</g>
<!-- 9&#45;&gt;13 -->
<g id="edge16" class="edge">
<title>9&#45;&gt;13</title>
<path fill="none" stroke="grey" stroke-width="2" d="M427.7,-2267.9C423.01,-2259.69 418.13,-2251.16 413.27,-2242.66"/>
<polygon fill="grey" stroke="grey" stroke-width="2" points="416.41,-2241.1 408.4,-2234.15 410.33,-2244.57 416.41,-2241.1"/>
</g>
<!-- 14 -->
<g id="node15" class="node">
<title>14</title>
<text text-anchor="start" x="535.12" y="-1199.9" font-family="sans" font-weight="bold" font-size="18.00">solve</text>
<text text-anchor="start" x="411" y="-1177.95" font-family="sans" font-size="10.00"> </text>
<text text-anchor="start" x="414" y="-1177.95" font-family="sans" font-weight="bold" font-size="14.00">↪ input</text>
<text text-anchor="start" x="465" y="-1177.95" font-family="sans" font-size="10.00"> </text>
<text text-anchor="start" x="411" y="-1155.75" font-family="monospace" font-size="10.00">results/fipy~{rev}/suite~{suite}/environment.yml</text>
<text text-anchor="start" x="411" y="-1136" font-family="monospace" font-size="10.00">results/fipy~{rev}/suite~{suite}/{id}/config.json</text>
<text text-anchor="start" x="639" y="-1113.45" font-family="sans" font-size="10.00"> </text>
<text text-anchor="start" x="642" y="-1113.45" font-family="sans" font-weight="bold" font-size="14.00">output →</text>
<text text-anchor="start" x="702" y="-1113.45" font-family="sans" font-size="10.00"> </text>
<text text-anchor="start" x="411" y="-1091.25" font-family="monospace" font-size="10.00">results/fipy~{rev}/suite~{suite}/{id}/solver.log</text>
<polygon fill="#57d968" stroke="#57d968" points="405,-1194.25 405,-1194.25 712,-1194.25 712,-1194.25 405,-1194.25"/>
<polygon fill="#57d968" stroke="#57d968" points="405,-1129.75 405,-1129.75 712,-1129.75 712,-1129.75 405,-1129.75"/>
<polygon fill="none" stroke="#57d968" stroke-width="2" points="405,-1082 405,-1222 711,-1222 711,-1082 405,-1082"/>
</g>
<!-- 9&#45;&gt;14 -->
<g id="edge17" class="edge">
<title>9&#45;&gt;14</title>
<path fill="none" stroke="grey" stroke-width="2" d="M518.68,-2267.98C526.77,-2256.66 534.02,-2244.38 539,-2231.75 579.58,-2128.92 558,-2094.3 558,-1983.75 558,-1983.75 558,-1983.75 558,-1487.25 558,-1401.39 558,-1303.12 558,-1235.47"/>
<polygon fill="grey" stroke="grey" stroke-width="2" points="561.5,-1235.81 558,-1225.81 554.5,-1235.81 561.5,-1235.81"/>
</g>
<!-- 10 -->
<g id="node11" class="node">
<title>10</title>
<text text-anchor="start" x="319" y="-1021.9" font-family="sans" font-weight="bold" font-size="18.00">extract_times</text>
<text text-anchor="start" x="229" y="-999.95" font-family="sans" font-size="10.00"> </text>
<text text-anchor="start" x="232" y="-999.95" font-family="sans" font-weight="bold" font-size="14.00">↪ input</text>
<text text-anchor="start" x="283" y="-999.95" font-family="sans" font-size="10.00"> </text>
<text text-anchor="start" x="229" y="-977.75" font-family="monospace" font-size="10.00">results/fipy~{rev}/suite~{suite}/{id}/config.json</text>
<text text-anchor="start" x="229" y="-958" font-family="monospace" font-size="10.00">results/fipy~{rev}/suite~{suite}/{id}/solver.log</text>
<text text-anchor="start" x="457" y="-935.45" font-family="sans" font-size="10.00"> </text>
<text text-anchor="start" x="460" y="-935.45" font-family="sans" font-weight="bold" font-size="14.00">output →</text>
<text text-anchor="start" x="520" y="-935.45" font-family="sans" font-size="10.00"> </text>
<text text-anchor="start" x="229" y="-913.25" font-family="monospace" font-size="10.00">results/fipy~{rev}/suite~{suite}/{id}/solver.json</text>
<polygon fill="#579cd9" stroke="#579cd9" points="223,-1016.25 223,-1016.25 530,-1016.25 530,-1016.25 223,-1016.25"/>
<polygon fill="#579cd9" stroke="#579cd9" points="223,-951.75 223,-951.75 530,-951.75 530,-951.75 223,-951.75"/>
<polygon fill="none" stroke="#579cd9" stroke-width="2" points="223,-904 223,-1044 529,-1044 529,-904 223,-904"/>
</g>
<!-- 10&#45;&gt;3 -->
<g id="edge6" class="edge">
<title>10&#45;&gt;3</title>
<path fill="none" stroke="grey" stroke-width="2" d="M339.9,-903.19C335.64,-894.94 331.26,-886.47 326.92,-878.08"/>
<polygon fill="grey" stroke="grey" stroke-width="2" points="330.14,-876.69 322.44,-869.42 323.93,-879.91 330.14,-876.69"/>
</g>
<!-- 11&#45;&gt;10 -->
<g id="edge13" class="edge">
<title>11&#45;&gt;10</title>
<path fill="none" stroke="grey" stroke-width="2" d="M376,-1259.18C376,-1203.45 376,-1119.92 376,-1057.83"/>
<polygon fill="grey" stroke="grey" stroke-width="2" points="379.5,-1057.95 376,-1047.95 372.5,-1057.95 379.5,-1057.95"/>
</g>
<!-- 11&#45;&gt;14 -->
<g id="edge18" class="edge">
<title>11&#45;&gt;14</title>
<path fill="none" stroke="grey" stroke-width="2" d="M441.71,-1259.15C451.61,-1250.11 461.94,-1240.68 472.19,-1231.33"/>
<polygon fill="grey" stroke="grey" stroke-width="2" points="474.3,-1234.14 479.32,-1224.82 469.58,-1228.97 474.3,-1234.14"/>
</g>
<!-- 12&#45;&gt;0 -->
<g id="edge2" class="edge">
<title>12&#45;&gt;0</title>
<path fill="none" stroke="grey" stroke-width="2" d="M335.13,-191.16C331.5,-182.99 327.82,-174.73 324.19,-166.58"/>
<polygon fill="grey" stroke="grey" stroke-width="2" points="327.42,-165.22 320.16,-157.51 321.03,-168.07 327.42,-165.22"/>
</g>
<!-- 13&#45;&gt;8 -->
<g id="edge11" class="edge">
<title>13&#45;&gt;8</title>
<path fill="none" stroke="grey" stroke-width="2" d="M344.39,-2089.94C341.81,-2081.97 339.16,-2073.8 336.54,-2065.69"/>
<polygon fill="grey" stroke="grey" stroke-width="2" points="339.93,-2064.79 333.52,-2056.36 333.27,-2066.95 339.93,-2064.79"/>
</g>
<!-- 14&#45;&gt;10 -->
<g id="edge12" class="edge">
<title>14&#45;&gt;10</title>
<path fill="none" stroke="grey" stroke-width="2" d="M485.81,-1081.19C476.41,-1072.1 466.73,-1062.73 457.19,-1053.51"/>
<polygon fill="grey" stroke="grey" stroke-width="2" points="459.9,-1051.27 450.28,-1046.83 455.04,-1056.3 459.9,-1051.27"/>
</g>
</g>
</svg>
