<?xml version="1.0" encoding="UTF-8" standalone="no"?>
<!DOCTYPE svg PUBLIC "-//W3C//DTD SVG 1.1//EN"
 "http://www.w3.org/Graphics/SVG/1.1/DTD/svg11.dtd">
<!-- Generated by graphviz version 11.0.0 (0)
 -->
<!-- Title: snakemake_dag Pages: 1 -->
<svg width="609pt" height="1857pt"
 viewBox="0.00 0.00 609.14 1856.75" xmlns="http://www.w3.org/2000/svg" xmlns:xlink="http://www.w3.org/1999/xlink">
<g id="graph0" class="graph" transform="scale(1 1) rotate(0) translate(4 1852.75)">
<title>snakemake_dag</title>
<polygon fill="white" stroke="none" points="-4,4 -4,-1852.75 605.14,-1852.75 605.14,4 -4,4"/>
<!-- 0 -->
<g id="node1" class="node">
<title>0</title>
<text text-anchor="start" x="168.01" y="-309.65" font-family="sans" font-weight="bold" font-size="18.00">all</text>
<text text-anchor="start" x="58.14" y="-287.7" font-family="sans" font-size="10.00"> </text>
<text text-anchor="start" x="61.14" y="-287.7" font-family="sans" font-weight="bold" font-size="14.00">↪ input</text>
<text text-anchor="start" x="112.14" y="-287.7" font-family="sans" font-size="10.00"> </text>
<text text-anchor="start" x="58.14" y="-265.5" font-family="monospace" font-size="10.00">results/plots/fipy~2876d0a7b/prepare.png</text>
<text text-anchor="start" x="58.14" y="-245.75" font-family="monospace" font-size="10.00">results/plots/fipy~2876d0a7b/solve.png</text>
<text text-anchor="start" x="58.14" y="-226" font-family="monospace" font-size="10.00">results/plots/fipy~2876d0a7b/total.png</text>
<text text-anchor="start" x="58.14" y="-206.25" font-family="monospace" font-size="10.00">results/plots/fipy~2e82a58e7/prepare.png</text>
<text text-anchor="start" x="58.14" y="-186.5" font-family="monospace" font-size="10.00">results/plots/fipy~2e82a58e7/solve.png</text>
<text text-anchor="start" x="58.14" y="-166.75" font-family="monospace" font-size="10.00">results/plots/fipy~2e82a58e7/total.png</text>
<text text-anchor="start" x="58.14" y="-147" font-family="monospace" font-size="10.00">results/plots/fipy~8c0aec6d3/prepare.png</text>
<text text-anchor="start" x="58.14" y="-127.25" font-family="monospace" font-size="10.00">results/plots/fipy~8c0aec6d3/solve.png</text>
<text text-anchor="start" x="58.14" y="-107.5" font-family="monospace" font-size="10.00">results/plots/fipy~8c0aec6d3/total.png</text>
<text text-anchor="start" x="58.14" y="-87.75" font-family="monospace" font-size="10.00">results/plots/fipy~c246c5c9f/prepare.png</text>
<text text-anchor="start" x="58.14" y="-68" font-family="monospace" font-size="10.00">results/plots/fipy~c246c5c9f/solve.png</text>
<text text-anchor="start" x="58.14" y="-48.25" font-family="monospace" font-size="10.00">results/plots/fipy~c246c5c9f/total.png</text>
<text text-anchor="start" x="58.14" y="-28.5" font-family="monospace" font-size="10.00">results/total_times.json</text>
<text text-anchor="start" x="292.14" y="-8.75" font-family="sans" font-size="10.00"> &#160;</text>
<polygon fill="#57d968" stroke="#57d968" points="52.14,-304 52.14,-304 305.14,-304 305.14,-304 52.14,-304"/>
<polygon fill="#57d968" stroke="#57d968" points="52.14,-22.25 52.14,-22.25 305.14,-22.25 305.14,-22.25 52.14,-22.25"/>
<polygon fill="none" stroke="#57d968" stroke-width="2" points="52.14,-1 52.14,-331.75 304.14,-331.75 304.14,-1 52.14,-1"/>
</g>
<!-- 1 -->
<g id="node2" class="node">
<title>1</title>
<text text-anchor="start" x="130.89" y="-705.15" font-family="sans" font-weight="bold" font-size="18.00">total_times</text>
<text text-anchor="start" x="61.14" y="-683.2" font-family="sans" font-size="10.00"> </text>
<text text-anchor="start" x="64.14" y="-683.2" font-family="sans" font-weight="bold" font-size="14.00">↪ input</text>
<text text-anchor="start" x="115.14" y="-683.2" font-family="sans" font-size="10.00"> </text>
<text text-anchor="start" x="61.14" y="-661" font-family="monospace" font-size="10.00">results/all.json</text>
<text text-anchor="start" x="61.14" y="-641.25" font-family="monospace" font-size="10.00">workflow/scripts/extract_total_times.py</text>
<text text-anchor="start" x="229.14" y="-618.7" font-family="sans" font-size="10.00"> </text>
<text text-anchor="start" x="232.14" y="-618.7" font-family="sans" font-weight="bold" font-size="14.00">output →</text>
<text text-anchor="start" x="292.14" y="-618.7" font-family="sans" font-size="10.00"> </text>
<text text-anchor="start" x="61.14" y="-596.5" font-family="monospace" font-size="10.00">results/total_times.json</text>
<polygon fill="#d97957" stroke="#d97957" points="55.14,-699.5 55.14,-699.5 302.14,-699.5 302.14,-699.5 55.14,-699.5"/>
<polygon fill="#d97957" stroke="#d97957" points="55.14,-635 55.14,-635 302.14,-635 302.14,-635 55.14,-635"/>
<polygon fill="none" stroke="#d97957" stroke-width="2" points="55.14,-587.25 55.14,-727.25 301.14,-727.25 301.14,-587.25 55.14,-587.25"/>
</g>
<!-- 1&#45;&gt;0 -->
<g id="edge2" class="edge">
<title>1&#45;&gt;0</title>
<path fill="none" stroke="grey" stroke-width="2" d="M138.38,-586.35C133.32,-574.62 128.94,-562.33 126.14,-550.25 110.75,-483.95 115.73,-410.06 127.34,-345.02"/>
<polygon fill="grey" stroke="grey" stroke-width="2" points="130.72,-346 129.11,-335.53 123.84,-344.72 130.72,-346"/>
</g>
<!-- 8 -->
<g id="node9" class="node">
<title>8</title>
<text text-anchor="start" x="171.39" y="-527.15" font-family="sans" font-weight="bold" font-size="18.00">plot_permutations</text>
<text text-anchor="start" x="142.14" y="-505.2" font-family="sans" font-size="10.00"> </text>
<text text-anchor="start" x="145.14" y="-505.2" font-family="sans" font-weight="bold" font-size="14.00">↪ input</text>
<text text-anchor="start" x="196.14" y="-505.2" font-family="sans" font-size="10.00"> </text>
<text text-anchor="start" x="142.14" y="-483" font-family="monospace" font-size="10.00">results/total_times.json</text>
<text text-anchor="start" x="292.14" y="-460.45" font-family="sans" font-size="10.00"> </text>
<text text-anchor="start" x="295.14" y="-460.45" font-family="sans" font-weight="bold" font-size="14.00">output →</text>
<text text-anchor="start" x="355.14" y="-460.45" font-family="sans" font-size="10.00"> </text>
<text text-anchor="start" x="142.14" y="-438.25" font-family="monospace" font-size="10.00">results/plots/fipy~{rev}</text>
<text text-anchor="start" x="142.14" y="-418.5" font-family="monospace" font-size="10.00">results/plots/fipy~{rev}/prepare.png</text>
<text text-anchor="start" x="142.14" y="-398.75" font-family="monospace" font-size="10.00">results/plots/fipy~{rev}/solve.png</text>
<text text-anchor="start" x="142.14" y="-379" font-family="monospace" font-size="10.00">results/plots/fipy~{rev}/total.png</text>
<polygon fill="#d99c57" stroke="#d99c57" points="136.14,-521.5 136.14,-521.5 365.14,-521.5 365.14,-521.5 136.14,-521.5"/>
<polygon fill="#d99c57" stroke="#d99c57" points="136.14,-476.75 136.14,-476.75 365.14,-476.75 365.14,-476.75 136.14,-476.75"/>
<polygon fill="none" stroke="#d99c57" stroke-width="2" points="136.14,-369.75 136.14,-549.25 364.14,-549.25 364.14,-369.75 136.14,-369.75"/>
</g>
<!-- 1&#45;&gt;8 -->
<g id="edge13" class="edge">
<title>1&#45;&gt;8</title>
<path fill="none" stroke="grey" stroke-width="2" d="M203.82,-586.41C206.73,-578.52 209.73,-570.36 212.74,-562.16"/>
<polygon fill="grey" stroke="grey" stroke-width="2" points="215.95,-563.59 216.11,-553 209.38,-561.18 215.95,-563.59"/>
</g>
<!-- 2 -->
<g id="node3" class="node">
<title>2</title>
<text text-anchor="start" x="73.51" y="-1100.65" font-family="sans" font-weight="bold" font-size="18.00">aggregate_permutations</text>
<text text-anchor="start" x="46.14" y="-1078.7" font-family="sans" font-size="10.00"> </text>
<text text-anchor="start" x="49.14" y="-1078.7" font-family="sans" font-weight="bold" font-size="14.00">↪ input</text>
<text text-anchor="start" x="100.14" y="-1078.7" font-family="sans" font-size="10.00"> </text>
<text text-anchor="start" x="46.14" y="-1056.5" font-family="monospace" font-size="10.00">config/fipy~2876d0a7b/petsc_permutations.csv</text>
<text text-anchor="start" x="46.14" y="-1036.75" font-family="monospace" font-size="10.00">config/fipy~2e82a58e7/petsc_permutations.csv</text>
<text text-anchor="start" x="46.14" y="-1017" font-family="monospace" font-size="10.00">config/fipy~8c0aec6d3/petsc_permutations.csv</text>
<text text-anchor="start" x="46.14" y="-997.25" font-family="monospace" font-size="10.00">config/fipy~c246c5c9f/petsc_permutations.csv</text>
<text text-anchor="start" x="244.14" y="-974.7" font-family="sans" font-size="10.00"> </text>
<text text-anchor="start" x="247.14" y="-974.7" font-family="sans" font-weight="bold" font-size="14.00">output →</text>
<text text-anchor="start" x="307.14" y="-974.7" font-family="sans" font-size="10.00"> </text>
<text text-anchor="start" x="46.14" y="-952.5" font-family="monospace" font-size="10.00">config/all_permutations.csv</text>
<polygon fill="#57d98b" stroke="#57d98b" points="40.14,-1095 40.14,-1095 317.14,-1095 317.14,-1095 40.14,-1095"/>
<polygon fill="#57d98b" stroke="#57d98b" points="40.14,-991 40.14,-991 317.14,-991 317.14,-991 40.14,-991"/>
<polygon fill="none" stroke="#57d98b" stroke-width="2" points="40.14,-943.25 40.14,-1122.75 316.14,-1122.75 316.14,-943.25 40.14,-943.25"/>
</g>
<!-- 9 -->
<g id="node10" class="node">
<title>9</title>
<text text-anchor="start" x="101.26" y="-883.15" font-family="sans" font-weight="bold" font-size="18.00">aggregate_results</text>
<text text-anchor="start" x="97.14" y="-861.2" font-family="sans" font-size="10.00"> </text>
<text text-anchor="start" x="100.14" y="-861.2" font-family="sans" font-weight="bold" font-size="14.00">↪ input</text>
<text text-anchor="start" x="151.14" y="-861.2" font-family="sans" font-size="10.00"> </text>
<text text-anchor="start" x="97.14" y="-839" font-family="monospace" font-size="10.00">&lt;input function&gt;</text>
<text text-anchor="start" x="97.14" y="-819.25" font-family="monospace" font-size="10.00">config/all_permutations.csv</text>
<text text-anchor="start" x="193.14" y="-796.7" font-family="sans" font-size="10.00"> </text>
<text text-anchor="start" x="196.14" y="-796.7" font-family="sans" font-weight="bold" font-size="14.00">output →</text>
<text text-anchor="start" x="256.14" y="-796.7" font-family="sans" font-size="10.00"> </text>
<text text-anchor="start" x="97.14" y="-774.5" font-family="monospace" font-size="10.00">results/all.json</text>
<polygon fill="#579cd9" stroke="#579cd9" points="91.14,-877.5 91.14,-877.5 266.14,-877.5 266.14,-877.5 91.14,-877.5"/>
<polygon fill="#579cd9" stroke="#579cd9" points="91.14,-813 91.14,-813 266.14,-813 266.14,-813 91.14,-813"/>
<polygon fill="none" stroke="#579cd9" stroke-width="2" points="91.14,-765.25 91.14,-905.25 265.14,-905.25 265.14,-765.25 91.14,-765.25"/>
</g>
<!-- 2&#45;&gt;9 -->
<g id="edge14" class="edge">
<title>2&#45;&gt;9</title>
<path fill="none" stroke="grey" stroke-width="2" d="M178.14,-942.43C178.14,-934.63 178.14,-926.75 178.14,-919.01"/>
<polygon fill="grey" stroke="grey" stroke-width="2" points="181.64,-919.16 178.14,-909.16 174.64,-919.16 181.64,-919.16"/>
</g>
<!-- 3 -->
<g id="node4" class="node">
<title>3</title>
<text text-anchor="start" x="56.26" y="-1298.4" font-family="sans" font-weight="bold" font-size="18.00">rev_and_suite_permutations</text>
<text text-anchor="start" x="34.14" y="-1276.45" font-family="sans" font-size="10.00"> </text>
<text text-anchor="start" x="37.14" y="-1276.45" font-family="sans" font-weight="bold" font-size="14.00">↪ input</text>
<text text-anchor="start" x="88.14" y="-1276.45" font-family="sans" font-size="10.00"> </text>
<text text-anchor="start" x="34.14" y="-1254.25" font-family="monospace" font-size="10.00">resources/fipy~{rev}/repo</text>
<text text-anchor="start" x="34.14" y="-1234.5" font-family="monospace" font-size="10.00">resources/fipy~{rev}/{suite}_preconditioners.txt</text>
<text text-anchor="start" x="34.14" y="-1214.75" font-family="monospace" font-size="10.00">resources/fipy~{rev}/{suite}_solvers.txt</text>
<text text-anchor="start" x="256.14" y="-1192.2" font-family="sans" font-size="10.00"> </text>
<text text-anchor="start" x="259.14" y="-1192.2" font-family="sans" font-weight="bold" font-size="14.00">output →</text>
<text text-anchor="start" x="319.14" y="-1192.2" font-family="sans" font-size="10.00"> </text>
<text text-anchor="start" x="34.14" y="-1170" font-family="monospace" font-size="10.00">config/fipy~{rev}/{suite}_permutations.csv</text>
<polygon fill="#57bfd9" stroke="#57bfd9" points="28.14,-1292.75 28.14,-1292.75 329.14,-1292.75 329.14,-1292.75 28.14,-1292.75"/>
<polygon fill="#57bfd9" stroke="#57bfd9" points="28.14,-1208.5 28.14,-1208.5 329.14,-1208.5 329.14,-1208.5 28.14,-1208.5"/>
<polygon fill="none" stroke="#57bfd9" stroke-width="2" points="28.14,-1160.75 28.14,-1320.5 328.14,-1320.5 328.14,-1160.75 28.14,-1160.75"/>
</g>
<!-- 3&#45;&gt;2 -->
<g id="edge4" class="edge">
<title>3&#45;&gt;2</title>
<path fill="none" stroke="grey" stroke-width="2" d="M178.14,-1159.83C178.14,-1152.14 178.14,-1144.28 178.14,-1136.41"/>
<polygon fill="grey" stroke="grey" stroke-width="2" points="181.64,-1136.68 178.14,-1126.68 174.64,-1136.68 181.64,-1136.68"/>
</g>
<!-- 4 -->
<g id="node5" class="node">
<title>4</title>
<text text-anchor="start" x="91.89" y="-1496.15" font-family="sans" font-weight="bold" font-size="18.00">list_preconditioners</text>
<text text-anchor="start" x="34.14" y="-1474.2" font-family="sans" font-size="10.00"> </text>
<text text-anchor="start" x="37.14" y="-1474.2" font-family="sans" font-weight="bold" font-size="14.00">↪ input</text>
<text text-anchor="start" x="88.14" y="-1474.2" font-family="sans" font-size="10.00"> </text>
<text text-anchor="start" x="34.14" y="-1452" font-family="monospace" font-size="10.00">../envs/fipy~{rev}/benchmark_{suite}.yml</text>
<text text-anchor="start" x="34.14" y="-1432.25" font-family="monospace" font-size="10.00">resources/fipy~{rev}/repo</text>
<text text-anchor="start" x="34.14" y="-1412.5" font-family="monospace" font-size="10.00">workflow/scripts/preconditioners.py</text>
<text text-anchor="start" x="256.14" y="-1389.95" font-family="sans" font-size="10.00"> </text>
<text text-anchor="start" x="259.14" y="-1389.95" font-family="sans" font-weight="bold" font-size="14.00">output →</text>
<text text-anchor="start" x="319.14" y="-1389.95" font-family="sans" font-size="10.00"> </text>
<text text-anchor="start" x="34.14" y="-1367.75" font-family="monospace" font-size="10.00">resources/fipy~{rev}/{suite}_preconditioners.txt</text>
<polygon fill="#8bd957" stroke="#8bd957" points="28.14,-1490.5 28.14,-1490.5 329.14,-1490.5 329.14,-1490.5 28.14,-1490.5"/>
<polygon fill="#8bd957" stroke="#8bd957" points="28.14,-1406.25 28.14,-1406.25 329.14,-1406.25 329.14,-1406.25 28.14,-1406.25"/>
<polygon fill="none" stroke="#8bd957" stroke-width="2" points="28.14,-1358.5 28.14,-1518.25 328.14,-1518.25 328.14,-1358.5 28.14,-1358.5"/>
</g>
<!-- 4&#45;&gt;3 -->
<g id="edge5" class="edge">
<title>4&#45;&gt;3</title>
<path fill="none" stroke="grey" stroke-width="2" d="M178.14,-1357.76C178.14,-1350.09 178.14,-1342.28 178.14,-1334.5"/>
<polygon fill="grey" stroke="grey" stroke-width="2" points="181.64,-1334.52 178.14,-1324.52 174.64,-1334.52 181.64,-1334.52"/>
</g>
<!-- 5 -->
<g id="node6" class="node">
<title>5</title>
<text text-anchor="start" x="211.89" y="-1693.9" font-family="sans" font-weight="bold" font-size="18.00">make_conda_env</text>
<text text-anchor="start" x="133.14" y="-1671.95" font-family="sans" font-size="10.00"> </text>
<text text-anchor="start" x="136.14" y="-1671.95" font-family="sans" font-weight="bold" font-size="14.00">↪ input</text>
<text text-anchor="start" x="187.14" y="-1671.95" font-family="sans" font-size="10.00"> </text>
<text text-anchor="start" x="133.14" y="-1649.75" font-family="monospace" font-size="10.00">resources/fipy~{rev}/repo</text>
<text text-anchor="start" x="133.14" y="-1630" font-family="monospace" font-size="10.00">workflow/envs/benchmark_{suite}.yml</text>
<text text-anchor="start" x="373.14" y="-1607.45" font-family="sans" font-size="10.00"> </text>
<text text-anchor="start" x="376.14" y="-1607.45" font-family="sans" font-weight="bold" font-size="14.00">output →</text>
<text text-anchor="start" x="436.14" y="-1607.45" font-family="sans" font-size="10.00"> </text>
<text text-anchor="start" x="133.14" y="-1585.25" font-family="monospace" font-size="10.00">../envs/fipy~{rev}/benchmark_{suite}.post&#45;deploy.sh</text>
<text text-anchor="start" x="133.14" y="-1565.5" font-family="monospace" font-size="10.00">../envs/fipy~{rev}/benchmark_{suite}.yml</text>
<polygon fill="#add957" stroke="#add957" points="127.14,-1688.25 127.14,-1688.25 446.14,-1688.25 446.14,-1688.25 127.14,-1688.25"/>
<polygon fill="#add957" stroke="#add957" points="127.14,-1623.75 127.14,-1623.75 446.14,-1623.75 446.14,-1623.75 127.14,-1623.75"/>
<polygon fill="none" stroke="#add957" stroke-width="2" points="127.14,-1556.25 127.14,-1716 445.14,-1716 445.14,-1556.25 127.14,-1556.25"/>
</g>
<!-- 5&#45;&gt;4 -->
<g id="edge8" class="edge">
<title>5&#45;&gt;4</title>
<path fill="none" stroke="grey" stroke-width="2" d="M242.21,-1555.51C237.67,-1547.28 233.04,-1538.88 228.44,-1530.55"/>
<polygon fill="grey" stroke="grey" stroke-width="2" points="231.56,-1528.96 223.66,-1521.89 225.43,-1532.34 231.56,-1528.96"/>
</g>
<!-- 7 -->
<g id="node8" class="node">
<title>7</title>
<text text-anchor="start" x="425.01" y="-1496.15" font-family="sans" font-weight="bold" font-size="18.00">list_solvers</text>
<text text-anchor="start" x="354.14" y="-1474.2" font-family="sans" font-size="10.00"> </text>
<text text-anchor="start" x="357.14" y="-1474.2" font-family="sans" font-weight="bold" font-size="14.00">↪ input</text>
<text text-anchor="start" x="408.14" y="-1474.2" font-family="sans" font-size="10.00"> </text>
<text text-anchor="start" x="354.14" y="-1452" font-family="monospace" font-size="10.00">../envs/fipy~{rev}/benchmark_{suite}.yml</text>
<text text-anchor="start" x="354.14" y="-1432.25" font-family="monospace" font-size="10.00">resources/fipy~{rev}/repo</text>
<text text-anchor="start" x="354.14" y="-1412.5" font-family="monospace" font-size="10.00">workflow/scripts/solvers.py</text>
<text text-anchor="start" x="528.14" y="-1389.95" font-family="sans" font-size="10.00"> </text>
<text text-anchor="start" x="531.14" y="-1389.95" font-family="sans" font-weight="bold" font-size="14.00">output →</text>
<text text-anchor="start" x="591.14" y="-1389.95" font-family="sans" font-size="10.00"> </text>
<text text-anchor="start" x="354.14" y="-1367.75" font-family="monospace" font-size="10.00">resources/fipy~{rev}/{suite}_solvers.txt</text>
<polygon fill="#5779d9" stroke="#5779d9" points="348.14,-1490.5 348.14,-1490.5 601.14,-1490.5 601.14,-1490.5 348.14,-1490.5"/>
<polygon fill="#5779d9" stroke="#5779d9" points="348.14,-1406.25 348.14,-1406.25 601.14,-1406.25 601.14,-1406.25 348.14,-1406.25"/>
<polygon fill="none" stroke="#5779d9" stroke-width="2" points="348.14,-1358.5 348.14,-1518.25 600.14,-1518.25 600.14,-1358.5 348.14,-1358.5"/>
</g>
<!-- 5&#45;&gt;7 -->
<g id="edge11" class="edge">
<title>5&#45;&gt;7</title>
<path fill="none" stroke="grey" stroke-width="2" d="M362.6,-1555.51C371.13,-1546.63 379.85,-1537.54 388.48,-1528.56"/>
<polygon fill="grey" stroke="grey" stroke-width="2" points="390.93,-1531.06 395.33,-1521.42 385.88,-1526.21 390.93,-1531.06"/>
</g>
<!-- 6 -->
<g id="node7" class="node">
<title>6</title>
<text text-anchor="start" x="144.14" y="-1825.65" font-family="sans" font-weight="bold" font-size="18.00">clone_repo</text>
<text text-anchor="start" x="117.14" y="-1806.5" font-family="sans" font-size="10.00"> &#160;</text>
<text text-anchor="start" x="201.14" y="-1785.45" font-family="sans" font-size="10.00"> </text>
<text text-anchor="start" x="204.14" y="-1785.45" font-family="sans" font-weight="bold" font-size="14.00">output →</text>
<text text-anchor="start" x="264.14" y="-1785.45" font-family="sans" font-size="10.00"> </text>
<text text-anchor="start" x="117.14" y="-1763.25" font-family="monospace" font-size="10.00">resources/fipy~{rev}/repo</text>
<polygon fill="#68d957" stroke="#68d957" points="111.14,-1820 111.14,-1820 274.14,-1820 274.14,-1820 111.14,-1820"/>
<polygon fill="#68d957" stroke="#68d957" points="111.14,-1801.75 111.14,-1801.75 274.14,-1801.75 274.14,-1801.75 111.14,-1801.75"/>
<polygon fill="none" stroke="#68d957" stroke-width="2" points="111.14,-1754 111.14,-1847.75 273.14,-1847.75 273.14,-1754 111.14,-1754"/>
</g>
<!-- 6&#45;&gt;3 -->
<g id="edge6" class="edge">
<title>6&#45;&gt;3</title>
<path fill="none" stroke="grey" stroke-width="2" d="M128.86,-1753.02C116.92,-1742.14 105.31,-1729.93 96.14,-1717 41.46,-1639.95 35.78,-1612.07 18.14,-1519.25 4.71,-1448.63 -14.55,-1421.53 18.14,-1357.5 23.01,-1347.95 29.08,-1339 35.98,-1330.66"/>
<polygon fill="grey" stroke="grey" stroke-width="2" points="38.41,-1333.2 42.44,-1323.4 33.18,-1328.55 38.41,-1333.2"/>
</g>
<!-- 6&#45;&gt;4 -->
<g id="edge9" class="edge">
<title>6&#45;&gt;4</title>
<path fill="none" stroke="grey" stroke-width="2" d="M139.38,-1753.18C130.29,-1742.3 122.16,-1730.04 117.14,-1717 91.29,-1649.92 99.89,-1625.04 117.14,-1555.25 119.13,-1547.19 121.79,-1539.07 124.9,-1531.07"/>
<polygon fill="grey" stroke="grey" stroke-width="2" points="128.13,-1532.42 128.75,-1521.85 121.67,-1529.72 128.13,-1532.42"/>
</g>
<!-- 6&#45;&gt;5 -->
<g id="edge10" class="edge">
<title>6&#45;&gt;5</title>
<path fill="none" stroke="grey" stroke-width="2" d="M219.07,-1753.24C223.69,-1745.25 228.62,-1736.7 233.64,-1728.02"/>
<polygon fill="grey" stroke="grey" stroke-width="2" points="236.54,-1729.99 238.51,-1719.58 230.48,-1726.49 236.54,-1729.99"/>
</g>
<!-- 6&#45;&gt;7 -->
<g id="edge12" class="edge">
<title>6&#45;&gt;7</title>
<path fill="none" stroke="grey" stroke-width="2" d="M274,-1797.34C334.07,-1790.75 412.34,-1771.35 455.14,-1717 495.64,-1665.54 498.58,-1590.74 492.38,-1531.74"/>
<polygon fill="grey" stroke="grey" stroke-width="2" points="495.88,-1531.55 491.23,-1522.03 488.93,-1532.37 495.88,-1531.55"/>
</g>
<!-- 7&#45;&gt;3 -->
<g id="edge7" class="edge">
<title>7&#45;&gt;3</title>
<path fill="none" stroke="grey" stroke-width="2" d="M353.74,-1357.76C339.19,-1348.13 324.26,-1338.26 309.56,-1328.54"/>
<polygon fill="grey" stroke="grey" stroke-width="2" points="311.7,-1325.76 301.43,-1323.16 307.84,-1331.6 311.7,-1325.76"/>
</g>
<!-- 8&#45;&gt;0 -->
<g id="edge1" class="edge">
<title>8&#45;&gt;0</title>
<path fill="none" stroke="grey" stroke-width="2" d="M227.95,-368.78C226.04,-361.07 224.07,-353.11 222.07,-345.01"/>
<polygon fill="grey" stroke="grey" stroke-width="2" points="225.53,-344.44 219.73,-335.57 218.74,-346.12 225.53,-344.44"/>
</g>
<!-- 9&#45;&gt;1 -->
<g id="edge3" class="edge">
<title>9&#45;&gt;1</title>
<path fill="none" stroke="grey" stroke-width="2" d="M178.14,-764.44C178.14,-756.66 178.14,-748.68 178.14,-740.76"/>
<polygon fill="grey" stroke="grey" stroke-width="2" points="181.64,-741.01 178.14,-731.01 174.64,-741.01 181.64,-741.01"/>
</g>
</g>
</svg>
