<?xml version="1.0" encoding="UTF-8" standalone="no"?>
<!DOCTYPE svg PUBLIC "-//W3C//DTD SVG 1.1//EN"
 "http://www.w3.org/Graphics/SVG/1.1/DTD/svg11.dtd">
<!-- Generated by graphviz version 11.0.0 (0)
 -->
<!-- Title: snakemake_dag Pages: 1 -->
<svg width="714pt" height="2694pt"
 viewBox="0.00 0.00 714.00 2694.25" xmlns="http://www.w3.org/2000/svg" xmlns:xlink="http://www.w3.org/1999/xlink">
<g id="graph0" class="graph" transform="scale(1 1) rotate(0) translate(4 2690.25)">
<title>snakemake_dag</title>
<polygon fill="white" stroke="none" points="-4,4 -4,-2690.25 710,-2690.25 710,4 -4,4"/>
<!-- 0 -->
<g id="node1" class="node">
<title>0</title>
<text text-anchor="start" x="173.88" y="-309.65" font-family="sans" font-weight="bold" font-size="18.00">all</text>
<text text-anchor="start" x="7" y="-287.7" font-family="sans" font-size="10.00"> </text>
<text text-anchor="start" x="10" y="-287.7" font-family="sans" font-weight="bold" font-size="14.00">↪ input</text>
<text text-anchor="start" x="61" y="-287.7" font-family="sans" font-size="10.00"> </text>
<text text-anchor="start" x="7" y="-265.5" font-family="monospace" font-size="10.00">results/plots/fipy~2876d0a7b/binary_phase_field/prepare.png</text>
<text text-anchor="start" x="7" y="-245.75" font-family="monospace" font-size="10.00">results/plots/fipy~2876d0a7b/binary_phase_field/solve.png</text>
<text text-anchor="start" x="7" y="-226" font-family="monospace" font-size="10.00">results/plots/fipy~2876d0a7b/binary_phase_field/total.png</text>
<text text-anchor="start" x="7" y="-206.25" font-family="monospace" font-size="10.00">results/plots/fipy~2e82a58e7/binary_phase_field/prepare.png</text>
<text text-anchor="start" x="7" y="-186.5" font-family="monospace" font-size="10.00">results/plots/fipy~2e82a58e7/binary_phase_field/solve.png</text>
<text text-anchor="start" x="7" y="-166.75" font-family="monospace" font-size="10.00">results/plots/fipy~2e82a58e7/binary_phase_field/total.png</text>
<text text-anchor="start" x="7" y="-147" font-family="monospace" font-size="10.00">results/plots/fipy~8c0aec6d3/binary_phase_field/prepare.png</text>
<text text-anchor="start" x="7" y="-127.25" font-family="monospace" font-size="10.00">results/plots/fipy~8c0aec6d3/binary_phase_field/solve.png</text>
<text text-anchor="start" x="7" y="-107.5" font-family="monospace" font-size="10.00">results/plots/fipy~8c0aec6d3/binary_phase_field/total.png</text>
<text text-anchor="start" x="7" y="-87.75" font-family="monospace" font-size="10.00">results/plots/fipy~c246c5c9f/binary_phase_field/prepare.png</text>
<text text-anchor="start" x="7" y="-68" font-family="monospace" font-size="10.00">results/plots/fipy~c246c5c9f/binary_phase_field/solve.png</text>
<text text-anchor="start" x="7" y="-48.25" font-family="monospace" font-size="10.00">results/plots/fipy~c246c5c9f/binary_phase_field/total.png</text>
<text text-anchor="start" x="7" y="-28.5" font-family="monospace" font-size="10.00">results/total_times.json</text>
<text text-anchor="start" x="355" y="-8.75" font-family="sans" font-size="10.00"> &#160;</text>
<polygon fill="#57d957" stroke="#57d957" points="1,-304 1,-304 368,-304 368,-304 1,-304"/>
<polygon fill="#57d957" stroke="#57d957" points="1,-22.25 1,-22.25 368,-22.25 368,-22.25 1,-22.25"/>
<polygon fill="none" stroke="#57d957" stroke-width="2" points="1,-1 1,-331.75 367,-331.75 367,-1 1,-1"/>
</g>
<!-- 1 -->
<g id="node2" class="node">
<title>1</title>
<text text-anchor="start" x="136.75" y="-685.4" font-family="sans" font-weight="bold" font-size="18.00">total_times</text>
<text text-anchor="start" x="112" y="-663.45" font-family="sans" font-size="10.00"> </text>
<text text-anchor="start" x="115" y="-663.45" font-family="sans" font-weight="bold" font-size="14.00">↪ input</text>
<text text-anchor="start" x="166" y="-663.45" font-family="sans" font-size="10.00"> </text>
<text text-anchor="start" x="112" y="-641.25" font-family="monospace" font-size="10.00">results/all.json</text>
<text text-anchor="start" x="190" y="-618.7" font-family="sans" font-size="10.00"> </text>
<text text-anchor="start" x="193" y="-618.7" font-family="sans" font-weight="bold" font-size="14.00">output →</text>
<text text-anchor="start" x="253" y="-618.7" font-family="sans" font-size="10.00"> </text>
<text text-anchor="start" x="112" y="-596.5" font-family="monospace" font-size="10.00">results/total_times.json</text>
<polygon fill="#57d9d9" stroke="#57d9d9" points="106,-679.75 106,-679.75 263,-679.75 263,-679.75 106,-679.75"/>
<polygon fill="#57d9d9" stroke="#57d9d9" points="106,-635 106,-635 263,-635 263,-635 106,-635"/>
<polygon fill="none" stroke="#57d9d9" stroke-width="2" points="106,-587.25 106,-707.5 262,-707.5 262,-587.25 106,-587.25"/>
</g>
<!-- 1&#45;&gt;0 -->
<g id="edge2" class="edge">
<title>1&#45;&gt;0</title>
<path fill="none" stroke="grey" stroke-width="2" d="M131.84,-586.47C124.51,-575.1 118.09,-562.81 114,-550.25 92.63,-484.6 99.47,-410.37 115.4,-344.87"/>
<polygon fill="grey" stroke="grey" stroke-width="2" points="118.77,-345.8 117.84,-335.25 111.99,-344.08 118.77,-345.8"/>
</g>
<!-- 12 -->
<g id="node13" class="node">
<title>12</title>
<text text-anchor="start" x="195.25" y="-527.15" font-family="sans" font-weight="bold" font-size="18.00">plot_permutations</text>
<text text-anchor="start" x="130" y="-505.2" font-family="sans" font-size="10.00"> </text>
<text text-anchor="start" x="133" y="-505.2" font-family="sans" font-weight="bold" font-size="14.00">↪ input</text>
<text text-anchor="start" x="184" y="-505.2" font-family="sans" font-size="10.00"> </text>
<text text-anchor="start" x="130" y="-483" font-family="monospace" font-size="10.00">results/total_times.json</text>
<text text-anchor="start" x="352" y="-460.45" font-family="sans" font-size="10.00"> </text>
<text text-anchor="start" x="355" y="-460.45" font-family="sans" font-weight="bold" font-size="14.00">output →</text>
<text text-anchor="start" x="415" y="-460.45" font-family="sans" font-size="10.00"> </text>
<text text-anchor="start" x="130" y="-438.25" font-family="monospace" font-size="10.00">results/plots/fipy~{rev}/{benchmark}</text>
<text text-anchor="start" x="130" y="-418.5" font-family="monospace" font-size="10.00">results/plots/fipy~{rev}/{benchmark}/prepare.png</text>
<text text-anchor="start" x="130" y="-398.75" font-family="monospace" font-size="10.00">results/plots/fipy~{rev}/{benchmark}/solve.png</text>
<text text-anchor="start" x="130" y="-379" font-family="monospace" font-size="10.00">results/plots/fipy~{rev}/{benchmark}/total.png</text>
<polygon fill="#57d998" stroke="#57d998" points="124,-521.5 124,-521.5 425,-521.5 425,-521.5 124,-521.5"/>
<polygon fill="#57d998" stroke="#57d998" points="124,-476.75 124,-476.75 425,-476.75 425,-476.75 124,-476.75"/>
<polygon fill="none" stroke="#57d998" stroke-width="2" points="124,-369.75 124,-549.25 424,-549.25 424,-369.75 124,-369.75"/>
</g>
<!-- 1&#45;&gt;12 -->
<g id="edge15" class="edge">
<title>1&#45;&gt;12</title>
<path fill="none" stroke="grey" stroke-width="2" d="M213.1,-586.28C216.94,-578.34 220.97,-570.02 225.04,-561.61"/>
<polygon fill="grey" stroke="grey" stroke-width="2" points="228.08,-563.37 229.29,-552.84 221.78,-560.32 228.08,-563.37"/>
</g>
<!-- 2 -->
<g id="node3" class="node">
<title>2</title>
<text text-anchor="start" x="92.12" y="-902.9" font-family="sans" font-weight="bold" font-size="18.00">aggregate_all_results</text>
<text text-anchor="start" x="43" y="-880.95" font-family="sans" font-size="10.00"> </text>
<text text-anchor="start" x="46" y="-880.95" font-family="sans" font-weight="bold" font-size="14.00">↪ input</text>
<text text-anchor="start" x="97" y="-880.95" font-family="sans" font-size="10.00"> </text>
<text text-anchor="start" x="43" y="-858.75" font-family="monospace" font-size="10.00">results/fipy~2876d0a7b/suite~petsc/results.json</text>
<text text-anchor="start" x="43" y="-839" font-family="monospace" font-size="10.00">results/fipy~2e82a58e7/suite~petsc/results.json</text>
<text text-anchor="start" x="43" y="-819.25" font-family="monospace" font-size="10.00">results/fipy~8c0aec6d3/suite~petsc/results.json</text>
<text text-anchor="start" x="43" y="-799.5" font-family="monospace" font-size="10.00">results/fipy~c246c5c9f/suite~petsc/results.json</text>
<text text-anchor="start" x="259" y="-776.95" font-family="sans" font-size="10.00"> </text>
<text text-anchor="start" x="262" y="-776.95" font-family="sans" font-weight="bold" font-size="14.00">output →</text>
<text text-anchor="start" x="322" y="-776.95" font-family="sans" font-size="10.00"> </text>
<text text-anchor="start" x="43" y="-754.75" font-family="monospace" font-size="10.00">results/all.json</text>
<polygon fill="#57d977" stroke="#57d977" points="37,-897.25 37,-897.25 332,-897.25 332,-897.25 37,-897.25"/>
<polygon fill="#57d977" stroke="#57d977" points="37,-793.25 37,-793.25 332,-793.25 332,-793.25 37,-793.25"/>
<polygon fill="none" stroke="#57d977" stroke-width="2" points="37,-745.5 37,-925 331,-925 331,-745.5 37,-745.5"/>
</g>
<!-- 2&#45;&gt;1 -->
<g id="edge3" class="edge">
<title>2&#45;&gt;1</title>
<path fill="none" stroke="grey" stroke-width="2" d="M184,-744.58C184,-736.82 184,-729.04 184,-721.44"/>
<polygon fill="grey" stroke="grey" stroke-width="2" points="187.5,-721.47 184,-711.47 180.5,-721.47 187.5,-721.47"/>
</g>
<!-- 3 -->
<g id="node4" class="node">
<title>3</title>
<text text-anchor="start" x="107.12" y="-1080.9" font-family="sans" font-weight="bold" font-size="18.00">aggregate_results</text>
<text text-anchor="start" x="49" y="-1058.95" font-family="sans" font-size="10.00"> </text>
<text text-anchor="start" x="52" y="-1058.95" font-family="sans" font-weight="bold" font-size="14.00">↪ input</text>
<text text-anchor="start" x="103" y="-1058.95" font-family="sans" font-size="10.00"> </text>
<text text-anchor="start" x="49" y="-1036.75" font-family="monospace" font-size="10.00">&lt;input function&gt;</text>
<text text-anchor="start" x="49" y="-1017" font-family="monospace" font-size="10.00">config/all_permutations.csv</text>
<text text-anchor="start" x="253" y="-994.45" font-family="sans" font-size="10.00"> </text>
<text text-anchor="start" x="256" y="-994.45" font-family="sans" font-weight="bold" font-size="14.00">output →</text>
<text text-anchor="start" x="316" y="-994.45" font-family="sans" font-size="10.00"> </text>
<text text-anchor="start" x="49" y="-972.25" font-family="monospace" font-size="10.00">results/fipy~{rev}/suite~{suite}/results.json</text>
<polygon fill="#98d957" stroke="#98d957" points="43,-1075.25 43,-1075.25 326,-1075.25 326,-1075.25 43,-1075.25"/>
<polygon fill="#98d957" stroke="#98d957" points="43,-1010.75 43,-1010.75 326,-1010.75 326,-1010.75 43,-1010.75"/>
<polygon fill="none" stroke="#98d957" stroke-width="2" points="43,-963 43,-1103 325,-1103 325,-963 43,-963"/>
</g>
<!-- 3&#45;&gt;2 -->
<g id="edge4" class="edge">
<title>3&#45;&gt;2</title>
<path fill="none" stroke="grey" stroke-width="2" d="M184,-962.16C184,-954.54 184,-946.68 184,-938.77"/>
<polygon fill="grey" stroke="grey" stroke-width="2" points="187.5,-938.93 184,-928.93 180.5,-938.93 187.5,-938.93"/>
</g>
<!-- 4 -->
<g id="node5" class="node">
<title>4</title>
<text text-anchor="start" x="203" y="-1773.15" font-family="sans" font-weight="bold" font-size="18.00">all_permutations</text>
<text text-anchor="start" x="176" y="-1751.2" font-family="sans" font-size="10.00"> </text>
<text text-anchor="start" x="179" y="-1751.2" font-family="sans" font-weight="bold" font-size="14.00">↪ input</text>
<text text-anchor="start" x="230" y="-1751.2" font-family="sans" font-size="10.00"> </text>
<text text-anchor="start" x="176" y="-1729" font-family="monospace" font-size="10.00">config/benchmark_permutations.csv</text>
<text text-anchor="start" x="176" y="-1709.25" font-family="monospace" font-size="10.00">config/fipy_permutations.csv</text>
<text text-anchor="start" x="308" y="-1686.7" font-family="sans" font-size="10.00"> </text>
<text text-anchor="start" x="311" y="-1686.7" font-family="sans" font-weight="bold" font-size="14.00">output →</text>
<text text-anchor="start" x="371" y="-1686.7" font-family="sans" font-size="10.00"> </text>
<text text-anchor="start" x="176" y="-1664.5" font-family="monospace" font-size="10.00">config/all_permutations.csv</text>
<polygon fill="#77d957" stroke="#77d957" points="170,-1767.5 170,-1767.5 381,-1767.5 381,-1767.5 170,-1767.5"/>
<polygon fill="#77d957" stroke="#77d957" points="170,-1703 170,-1703 381,-1703 381,-1703 170,-1703"/>
<polygon fill="none" stroke="#77d957" stroke-width="2" points="170,-1655.25 170,-1795.25 380,-1795.25 380,-1655.25 170,-1655.25"/>
</g>
<!-- 4&#45;&gt;3 -->
<g id="edge6" class="edge">
<title>4&#45;&gt;3</title>
<path fill="none" stroke="grey" stroke-width="2" d="M169.33,-1677.35C146.41,-1661.96 125.12,-1642.43 112,-1618.25 10.64,-1431.42 49.52,-1343.17 112,-1140 114.6,-1131.55 118.13,-1123.16 122.24,-1115.03"/>
<polygon fill="grey" stroke="grey" stroke-width="2" points="125.24,-1116.83 126.94,-1106.37 119.09,-1113.48 125.24,-1116.83"/>
</g>
<!-- 11 -->
<g id="node12" class="node">
<title>11</title>
<text text-anchor="start" x="220.25" y="-1595.15" font-family="sans" font-weight="bold" font-size="18.00">make_config</text>
<text text-anchor="start" x="128" y="-1573.2" font-family="sans" font-size="10.00"> </text>
<text text-anchor="start" x="131" y="-1573.2" font-family="sans" font-weight="bold" font-size="14.00">↪ input</text>
<text text-anchor="start" x="182" y="-1573.2" font-family="sans" font-size="10.00"> </text>
<text text-anchor="start" x="128" y="-1551" font-family="monospace" font-size="10.00">config/all_permutations.csv</text>
<text text-anchor="start" x="356" y="-1528.45" font-family="sans" font-size="10.00"> </text>
<text text-anchor="start" x="359" y="-1528.45" font-family="sans" font-weight="bold" font-size="14.00">output →</text>
<text text-anchor="start" x="419" y="-1528.45" font-family="sans" font-size="10.00"> </text>
<text text-anchor="start" x="128" y="-1506.25" font-family="monospace" font-size="10.00">results/fipy~{rev}/suite~{suite}/{id}/config.json</text>
<polygon fill="#d99857" stroke="#d99857" points="122,-1589.5 122,-1589.5 429,-1589.5 429,-1589.5 122,-1589.5"/>
<polygon fill="#d99857" stroke="#d99857" points="122,-1544.75 122,-1544.75 429,-1544.75 429,-1544.75 122,-1544.75"/>
<polygon fill="none" stroke="#d99857" stroke-width="2" points="122,-1497 122,-1617.25 428,-1617.25 428,-1497 122,-1497"/>
</g>
<!-- 4&#45;&gt;11 -->
<g id="edge14" class="edge">
<title>4&#45;&gt;11</title>
<path fill="none" stroke="grey" stroke-width="2" d="M275,-1654.28C275,-1646.55 275,-1638.67 275,-1630.91"/>
<polygon fill="grey" stroke="grey" stroke-width="2" points="278.5,-1631.05 275,-1621.05 271.5,-1631.05 278.5,-1631.05"/>
</g>
<!-- 13 -->
<g id="node14" class="node">
<title>13</title>
<text text-anchor="start" x="493.38" y="-1581.9" font-family="sans" font-weight="bold" font-size="18.00">bootstrap</text>
<text text-anchor="start" x="454" y="-1559.95" font-family="sans" font-size="10.00"> </text>
<text text-anchor="start" x="457" y="-1559.95" font-family="sans" font-weight="bold" font-size="14.00">↪ input</text>
<text text-anchor="start" x="508" y="-1559.95" font-family="sans" font-size="10.00"> </text>
<text text-anchor="start" x="454" y="-1537.75" font-family="monospace" font-size="10.00">config/all_permutations.csv</text>
<text text-anchor="start" x="610" y="-1518" font-family="sans" font-size="10.00"> &#160;</text>
<polygon fill="#d97757" stroke="#d97757" points="448,-1576.25 448,-1576.25 623,-1576.25 623,-1576.25 448,-1576.25"/>
<polygon fill="#d97757" stroke="#d97757" points="448,-1531.5 448,-1531.5 623,-1531.5 623,-1531.5 448,-1531.5"/>
<polygon fill="none" stroke="#d97757" stroke-width="2" points="448,-1510.25 448,-1604 622,-1604 622,-1510.25 448,-1510.25"/>
</g>
<!-- 4&#45;&gt;13 -->
<g id="edge16" class="edge">
<title>4&#45;&gt;13</title>
<path fill="none" stroke="grey" stroke-width="2" d="M380.75,-1656.68C404.19,-1641.7 428.72,-1626.03 451.14,-1611.7"/>
<polygon fill="grey" stroke="grey" stroke-width="2" points="452.88,-1614.75 459.42,-1606.42 449.11,-1608.85 452.88,-1614.75"/>
</g>
<!-- 5 -->
<g id="node6" class="node">
<title>5</title>
<text text-anchor="start" x="396.5" y="-1947.78" font-family="sans" font-weight="bold" font-size="18.00">benchmark_permutations</text>
<text text-anchor="start" x="396.5" y="-1928.62" font-family="sans" font-size="10.00"> &#160;</text>
<text text-anchor="start" x="549.5" y="-1907.58" font-family="sans" font-size="10.00"> </text>
<text text-anchor="start" x="552.5" y="-1907.58" font-family="sans" font-weight="bold" font-size="14.00">output →</text>
<text text-anchor="start" x="612.5" y="-1907.58" font-family="sans" font-size="10.00"> </text>
<text text-anchor="start" x="396.5" y="-1885.38" font-family="monospace" font-size="10.00">config/benchmark_permutations.csv</text>
<polygon fill="#d9d957" stroke="#d9d957" points="390.5,-1942.12 390.5,-1942.12 622.5,-1942.12 622.5,-1942.12 390.5,-1942.12"/>
<polygon fill="#d9d957" stroke="#d9d957" points="390.5,-1923.88 390.5,-1923.88 622.5,-1923.88 622.5,-1923.88 390.5,-1923.88"/>
<polygon fill="none" stroke="#d9d957" stroke-width="2" points="390.5,-1876.12 390.5,-1969.88 621.5,-1969.88 621.5,-1876.12 390.5,-1876.12"/>
</g>
<!-- 5&#45;&gt;4 -->
<g id="edge8" class="edge">
<title>5&#45;&gt;4</title>
<path fill="none" stroke="grey" stroke-width="2" d="M450.96,-1875.36C425.79,-1854.03 395.27,-1828.17 366.77,-1804.01"/>
<polygon fill="grey" stroke="grey" stroke-width="2" points="369.39,-1801.65 359.5,-1797.86 364.87,-1806.99 369.39,-1801.65"/>
</g>
<!-- 6 -->
<g id="node7" class="node">
<title>6</title>
<text text-anchor="start" x="154" y="-1990.65" font-family="sans" font-weight="bold" font-size="18.00">fipy_permutations</text>
<text text-anchor="start" x="100" y="-1968.7" font-family="sans" font-size="10.00"> </text>
<text text-anchor="start" x="103" y="-1968.7" font-family="sans" font-weight="bold" font-size="14.00">↪ input</text>
<text text-anchor="start" x="154" y="-1968.7" font-family="sans" font-size="10.00"> </text>
<text text-anchor="start" x="100" y="-1946.5" font-family="monospace" font-size="10.00">config/fipy~2876d0a7b/suite_permutations.csv</text>
<text text-anchor="start" x="100" y="-1926.75" font-family="monospace" font-size="10.00">config/fipy~2e82a58e7/suite_permutations.csv</text>
<text text-anchor="start" x="100" y="-1907" font-family="monospace" font-size="10.00">config/fipy~8c0aec6d3/suite_permutations.csv</text>
<text text-anchor="start" x="100" y="-1887.25" font-family="monospace" font-size="10.00">config/fipy~c246c5c9f/suite_permutations.csv</text>
<text text-anchor="start" x="298" y="-1864.7" font-family="sans" font-size="10.00"> </text>
<text text-anchor="start" x="301" y="-1864.7" font-family="sans" font-weight="bold" font-size="14.00">output →</text>
<text text-anchor="start" x="361" y="-1864.7" font-family="sans" font-size="10.00"> </text>
<text text-anchor="start" x="100" y="-1842.5" font-family="monospace" font-size="10.00">config/fipy_permutations.csv</text>
<polygon fill="#5798d9" stroke="#5798d9" points="94,-1985 94,-1985 371,-1985 371,-1985 94,-1985"/>
<polygon fill="#5798d9" stroke="#5798d9" points="94,-1881 94,-1881 371,-1881 371,-1881 94,-1881"/>
<polygon fill="none" stroke="#5798d9" stroke-width="2" points="94,-1833.25 94,-2012.75 370,-2012.75 370,-1833.25 94,-1833.25"/>
</g>
<!-- 6&#45;&gt;4 -->
<g id="edge7" class="edge">
<title>6&#45;&gt;4</title>
<path fill="none" stroke="grey" stroke-width="2" d="M251.68,-1832.43C253.41,-1824.53 255.16,-1816.56 256.88,-1808.73"/>
<polygon fill="grey" stroke="grey" stroke-width="2" points="260.27,-1809.61 259,-1799.09 253.44,-1808.1 260.27,-1809.61"/>
</g>
<!-- 7 -->
<g id="node8" class="node">
<title>7</title>
<text text-anchor="start" x="206.12" y="-2148.9" font-family="sans" font-weight="bold" font-size="18.00">suite_permutations</text>
<text text-anchor="start" x="151" y="-2126.95" font-family="sans" font-size="10.00"> </text>
<text text-anchor="start" x="154" y="-2126.95" font-family="sans" font-weight="bold" font-size="14.00">↪ input</text>
<text text-anchor="start" x="205" y="-2126.95" font-family="sans" font-size="10.00"> </text>
<text text-anchor="start" x="151" y="-2104.75" font-family="monospace" font-size="10.00">config/fipy~{rev}/suite~petsc/permutations.csv</text>
<text text-anchor="start" x="361" y="-2082.2" font-family="sans" font-size="10.00"> </text>
<text text-anchor="start" x="364" y="-2082.2" font-family="sans" font-weight="bold" font-size="14.00">output →</text>
<text text-anchor="start" x="424" y="-2082.2" font-family="sans" font-size="10.00"> </text>
<text text-anchor="start" x="151" y="-2060" font-family="monospace" font-size="10.00">config/fipy~{rev}/suite_permutations.csv</text>
<polygon fill="#d9b857" stroke="#d9b857" points="145,-2143.25 145,-2143.25 434,-2143.25 434,-2143.25 145,-2143.25"/>
<polygon fill="#d9b857" stroke="#d9b857" points="145,-2098.5 145,-2098.5 434,-2098.5 434,-2098.5 145,-2098.5"/>
<polygon fill="none" stroke="#d9b857" stroke-width="2" points="145,-2050.75 145,-2171 433,-2171 433,-2050.75 145,-2050.75"/>
</g>
<!-- 7&#45;&gt;6 -->
<g id="edge9" class="edge">
<title>7&#45;&gt;6</title>
<path fill="none" stroke="grey" stroke-width="2" d="M270.57,-2049.78C268.22,-2042.11 265.76,-2034.09 263.27,-2025.97"/>
<polygon fill="grey" stroke="grey" stroke-width="2" points="266.65,-2025.05 260.37,-2016.51 259.96,-2027.1 266.65,-2025.05"/>
</g>
<!-- 8 -->
<g id="node9" class="node">
<title>8</title>
<text text-anchor="start" x="246.62" y="-2326.9" font-family="sans" font-weight="bold" font-size="18.00">solver_preconditioner_permutations</text>
<text text-anchor="start" x="246.62" y="-2304.95" font-family="sans" font-size="10.00"> </text>
<text text-anchor="start" x="249.62" y="-2304.95" font-family="sans" font-weight="bold" font-size="14.00">↪ input</text>
<text text-anchor="start" x="300.62" y="-2304.95" font-family="sans" font-size="10.00"> </text>
<text text-anchor="start" x="246.62" y="-2282.75" font-family="monospace" font-size="10.00">config/fipy~{rev}/suite~{suite}/preconditioners.json</text>
<text text-anchor="start" x="246.62" y="-2263" font-family="monospace" font-size="10.00">config/fipy~{rev}/suite~{suite}/solvers.json</text>
<text text-anchor="start" x="493.38" y="-2240.45" font-family="sans" font-size="10.00"> </text>
<text text-anchor="start" x="496.38" y="-2240.45" font-family="sans" font-weight="bold" font-size="14.00">output →</text>
<text text-anchor="start" x="556.38" y="-2240.45" font-family="sans" font-size="10.00"> </text>
<text text-anchor="start" x="246.62" y="-2218.25" font-family="monospace" font-size="10.00">config/fipy~{rev}/suite~{suite}/permutations.csv</text>
<polygon fill="#d95757" stroke="#d95757" points="240.62,-2321.25 240.62,-2321.25 566.38,-2321.25 566.38,-2321.25 240.62,-2321.25"/>
<polygon fill="#d95757" stroke="#d95757" points="240.62,-2256.75 240.62,-2256.75 566.38,-2256.75 566.38,-2256.75 240.62,-2256.75"/>
<polygon fill="none" stroke="#d95757" stroke-width="2" points="240.62,-2209 240.62,-2349 565.38,-2349 565.38,-2209 240.62,-2209"/>
</g>
<!-- 8&#45;&gt;7 -->
<g id="edge10" class="edge">
<title>8&#45;&gt;7</title>
<path fill="none" stroke="grey" stroke-width="2" d="M354.98,-2208.03C349.17,-2199.55 343.22,-2190.88 337.39,-2182.4"/>
<polygon fill="grey" stroke="grey" stroke-width="2" points="340.36,-2180.53 331.81,-2174.27 334.59,-2184.49 340.36,-2180.53"/>
</g>
<!-- 9 -->
<g id="node10" class="node">
<title>9</title>
<text text-anchor="start" x="454.12" y="-2663.15" font-family="sans" font-weight="bold" font-size="18.00">render_conda_template</text>
<text text-anchor="start" x="411" y="-2641.2" font-family="sans" font-size="10.00"> </text>
<text text-anchor="start" x="414" y="-2641.2" font-family="sans" font-weight="bold" font-size="14.00">↪ input</text>
<text text-anchor="start" x="465" y="-2641.2" font-family="sans" font-size="10.00"> </text>
<text text-anchor="start" x="411" y="-2619" font-family="monospace" font-size="10.00">workflow/envs/benchmark_{suite}.yml</text>
<text text-anchor="start" x="633" y="-2596.45" font-family="sans" font-size="10.00"> </text>
<text text-anchor="start" x="636" y="-2596.45" font-family="sans" font-weight="bold" font-size="14.00">output →</text>
<text text-anchor="start" x="696" y="-2596.45" font-family="sans" font-size="10.00"> </text>
<text text-anchor="start" x="411" y="-2574.25" font-family="monospace" font-size="10.00">results/fipy~{rev}/suite~{suite}/environment.yml</text>
<polygon fill="#57b8d9" stroke="#57b8d9" points="405,-2657.5 405,-2657.5 706,-2657.5 706,-2657.5 405,-2657.5"/>
<polygon fill="#57b8d9" stroke="#57b8d9" points="405,-2612.75 405,-2612.75 706,-2612.75 706,-2612.75 405,-2612.75"/>
<polygon fill="none" stroke="#57b8d9" stroke-width="2" points="405,-2565 405,-2685.25 705,-2685.25 705,-2565 405,-2565"/>
</g>
<!-- 14 -->
<g id="node15" class="node">
<title>14</title>
<text text-anchor="start" x="337.38" y="-2504.9" font-family="sans" font-weight="bold" font-size="18.00">get_solvers_preconditioners</text>
<text text-anchor="start" x="304" y="-2482.95" font-family="sans" font-size="10.00"> </text>
<text text-anchor="start" x="307" y="-2482.95" font-family="sans" font-weight="bold" font-size="14.00">↪ input</text>
<text text-anchor="start" x="358" y="-2482.95" font-family="sans" font-size="10.00"> </text>
<text text-anchor="start" x="304" y="-2460.75" font-family="monospace" font-size="10.00">results/fipy~{rev}/suite~{suite}/environment.yml</text>
<text text-anchor="start" x="550" y="-2438.2" font-family="sans" font-size="10.00"> </text>
<text text-anchor="start" x="553" y="-2438.2" font-family="sans" font-weight="bold" font-size="14.00">output →</text>
<text text-anchor="start" x="613" y="-2438.2" font-family="sans" font-size="10.00"> </text>
<text text-anchor="start" x="304" y="-2416" font-family="monospace" font-size="10.00">config/fipy~{rev}/suite~{suite}/preconditioners.json</text>
<text text-anchor="start" x="304" y="-2396.25" font-family="monospace" font-size="10.00">config/fipy~{rev}/suite~{suite}/solvers.json</text>
<polygon fill="#5777d9" stroke="#5777d9" points="298,-2499.25 298,-2499.25 623,-2499.25 623,-2499.25 298,-2499.25"/>
<polygon fill="#5777d9" stroke="#5777d9" points="298,-2454.5 298,-2454.5 623,-2454.5 623,-2454.5 298,-2454.5"/>
<polygon fill="none" stroke="#5777d9" stroke-width="2" points="298,-2387 298,-2527 622,-2527 622,-2387 298,-2387"/>
</g>
<!-- 9&#45;&gt;14 -->
<g id="edge17" class="edge">
<title>9&#45;&gt;14</title>
<path fill="none" stroke="grey" stroke-width="2" d="M520.7,-2564.15C516.01,-2555.94 511.13,-2547.41 506.27,-2538.91"/>
<polygon fill="grey" stroke="grey" stroke-width="2" points="509.41,-2537.35 501.4,-2530.4 503.33,-2540.82 509.41,-2537.35"/>
</g>
<!-- 15 -->
<g id="node16" class="node">
<title>15</title>
<text text-anchor="start" x="434.12" y="-1436.9" font-family="sans" font-weight="bold" font-size="18.00">solve</text>
<text text-anchor="start" x="310" y="-1414.95" font-family="sans" font-size="10.00"> </text>
<text text-anchor="start" x="313" y="-1414.95" font-family="sans" font-weight="bold" font-size="14.00">↪ input</text>
<text text-anchor="start" x="364" y="-1414.95" font-family="sans" font-size="10.00"> </text>
<text text-anchor="start" x="310" y="-1392.75" font-family="monospace" font-size="10.00">results/fipy~{rev}/suite~{suite}/environment.yml</text>
<text text-anchor="start" x="310" y="-1373" font-family="monospace" font-size="10.00">results/fipy~{rev}/suite~{suite}/{id}/config.json</text>
<text text-anchor="start" x="538" y="-1350.45" font-family="sans" font-size="10.00"> </text>
<text text-anchor="start" x="541" y="-1350.45" font-family="sans" font-weight="bold" font-size="14.00">output →</text>
<text text-anchor="start" x="601" y="-1350.45" font-family="sans" font-size="10.00"> </text>
<text text-anchor="start" x="310" y="-1328.25" font-family="monospace" font-size="10.00">results/fipy~{rev}/suite~{suite}/{id}/solver.log</text>
<polygon fill="#b8d957" stroke="#b8d957" points="304,-1431.25 304,-1431.25 611,-1431.25 611,-1431.25 304,-1431.25"/>
<polygon fill="#b8d957" stroke="#b8d957" points="304,-1366.75 304,-1366.75 611,-1366.75 611,-1366.75 304,-1366.75"/>
<polygon fill="none" stroke="#b8d957" stroke-width="2" points="304,-1319 304,-1459 610,-1459 610,-1319 304,-1319"/>
</g>
<!-- 9&#45;&gt;15 -->
<g id="edge19" class="edge">
<title>9&#45;&gt;15</title>
<path fill="none" stroke="grey" stroke-width="2" d="M611.68,-2564.23C619.77,-2552.91 627.02,-2540.63 632,-2528 672.58,-2425.17 651,-2390.55 651,-2280 651,-2280 651,-2280 651,-1724.25 651,-1622.45 685.61,-1582.54 632,-1496 625.89,-1486.13 618.48,-1477.06 610.22,-1468.73"/>
<polygon fill="grey" stroke="grey" stroke-width="2" points="612.81,-1466.37 603.13,-1462.06 608.02,-1471.47 612.81,-1466.37"/>
</g>
<!-- 10 -->
<g id="node11" class="node">
<title>10</title>
<text text-anchor="start" x="218" y="-1258.9" font-family="sans" font-weight="bold" font-size="18.00">extract_times</text>
<text text-anchor="start" x="128" y="-1236.95" font-family="sans" font-size="10.00"> </text>
<text text-anchor="start" x="131" y="-1236.95" font-family="sans" font-weight="bold" font-size="14.00">↪ input</text>
<text text-anchor="start" x="182" y="-1236.95" font-family="sans" font-size="10.00"> </text>
<text text-anchor="start" x="128" y="-1214.75" font-family="monospace" font-size="10.00">results/fipy~{rev}/suite~{suite}/{id}/config.json</text>
<text text-anchor="start" x="128" y="-1195" font-family="monospace" font-size="10.00">results/fipy~{rev}/suite~{suite}/{id}/solver.log</text>
<text text-anchor="start" x="356" y="-1172.45" font-family="sans" font-size="10.00"> </text>
<text text-anchor="start" x="359" y="-1172.45" font-family="sans" font-weight="bold" font-size="14.00">output →</text>
<text text-anchor="start" x="419" y="-1172.45" font-family="sans" font-size="10.00"> </text>
<text text-anchor="start" x="128" y="-1150.25" font-family="monospace" font-size="10.00">results/fipy~{rev}/suite~{suite}/{id}/solver.json</text>
<polygon fill="#57d9b8" stroke="#57d9b8" points="122,-1253.25 122,-1253.25 429,-1253.25 429,-1253.25 122,-1253.25"/>
<polygon fill="#57d9b8" stroke="#57d9b8" points="122,-1188.75 122,-1188.75 429,-1188.75 429,-1188.75 122,-1188.75"/>
<polygon fill="none" stroke="#57d9b8" stroke-width="2" points="122,-1141 122,-1281 428,-1281 428,-1141 122,-1141"/>
</g>
<!-- 10&#45;&gt;3 -->
<g id="edge5" class="edge">
<title>10&#45;&gt;3</title>
<path fill="none" stroke="grey" stroke-width="2" d="M238.9,-1140.19C234.64,-1131.94 230.26,-1123.47 225.92,-1115.08"/>
<polygon fill="grey" stroke="grey" stroke-width="2" points="229.14,-1113.69 221.44,-1106.42 222.93,-1116.91 229.14,-1113.69"/>
</g>
<!-- 11&#45;&gt;10 -->
<g id="edge12" class="edge">
<title>11&#45;&gt;10</title>
<path fill="none" stroke="grey" stroke-width="2" d="M275,-1496.18C275,-1440.45 275,-1356.92 275,-1294.83"/>
<polygon fill="grey" stroke="grey" stroke-width="2" points="278.5,-1294.95 275,-1284.95 271.5,-1294.95 278.5,-1294.95"/>
</g>
<!-- 11&#45;&gt;15 -->
<g id="edge18" class="edge">
<title>11&#45;&gt;15</title>
<path fill="none" stroke="grey" stroke-width="2" d="M340.71,-1496.15C350.61,-1487.11 360.94,-1477.68 371.19,-1468.33"/>
<polygon fill="grey" stroke="grey" stroke-width="2" points="373.3,-1471.14 378.32,-1461.82 368.58,-1465.97 373.3,-1471.14"/>
</g>
<!-- 12&#45;&gt;0 -->
<g id="edge1" class="edge">
<title>12&#45;&gt;0</title>
<path fill="none" stroke="grey" stroke-width="2" d="M246.26,-368.78C243.88,-361.07 241.42,-353.11 238.92,-345.01"/>
<polygon fill="grey" stroke="grey" stroke-width="2" points="242.28,-344.05 235.98,-335.52 235.59,-346.11 242.28,-344.05"/>
</g>
<!-- 14&#45;&gt;8 -->
<g id="edge11" class="edge">
<title>14&#45;&gt;8</title>
<path fill="none" stroke="grey" stroke-width="2" d="M437.39,-2386.19C434.81,-2378.22 432.16,-2370.05 429.54,-2361.94"/>
<polygon fill="grey" stroke="grey" stroke-width="2" points="432.93,-2361.04 426.52,-2352.61 426.27,-2363.2 432.93,-2361.04"/>
</g>
<!-- 15&#45;&gt;10 -->
<g id="edge13" class="edge">
<title>15&#45;&gt;10</title>
<path fill="none" stroke="grey" stroke-width="2" d="M384.81,-1318.19C375.41,-1309.1 365.73,-1299.73 356.19,-1290.51"/>
<polygon fill="grey" stroke="grey" stroke-width="2" points="358.9,-1288.27 349.28,-1283.83 354.04,-1293.3 358.9,-1288.27"/>
</g>
</g>
</svg>
