<?xml version="1.0" encoding="UTF-8" standalone="no"?>
<!DOCTYPE svg PUBLIC "-//W3C//DTD SVG 1.1//EN"
 "http://www.w3.org/Graphics/SVG/1.1/DTD/svg11.dtd">
<!-- Generated by graphviz version 11.0.0 (0)
 -->
<!-- Title: snakemake_dag Pages: 1 -->
<svg width="977pt" height="2325pt"
 viewBox="0.00 0.00 977.35 2324.75" xmlns="http://www.w3.org/2000/svg" xmlns:xlink="http://www.w3.org/1999/xlink">
<g id="graph0" class="graph" transform="scale(1 1) rotate(0) translate(4 2320.75)">
<title>snakemake_dag</title>
<polygon fill="white" stroke="none" points="-4,4 -4,-2320.75 973.35,-2320.75 973.35,4 -4,4"/>
<!-- 0 -->
<g id="node1" class="node">
<title>0</title>
<text text-anchor="start" x="449.88" y="-309.65" font-family="sans" font-weight="bold" font-size="18.00">all</text>
<text text-anchor="start" x="283" y="-287.7" font-family="sans" font-size="10.00"> </text>
<text text-anchor="start" x="286" y="-287.7" font-family="sans" font-weight="bold" font-size="14.00">↪ input</text>
<text text-anchor="start" x="337" y="-287.7" font-family="sans" font-size="10.00"> </text>
<text text-anchor="start" x="283" y="-265.5" font-family="monospace" font-size="10.00">results/plots/fipy~2876d0a7b/binary_phase_field/prepare.png</text>
<text text-anchor="start" x="283" y="-245.75" font-family="monospace" font-size="10.00">results/plots/fipy~2876d0a7b/binary_phase_field/solve.png</text>
<text text-anchor="start" x="283" y="-226" font-family="monospace" font-size="10.00">results/plots/fipy~2876d0a7b/binary_phase_field/total.png</text>
<text text-anchor="start" x="283" y="-206.25" font-family="monospace" font-size="10.00">results/plots/fipy~2e82a58e7/binary_phase_field/prepare.png</text>
<text text-anchor="start" x="283" y="-186.5" font-family="monospace" font-size="10.00">results/plots/fipy~2e82a58e7/binary_phase_field/solve.png</text>
<text text-anchor="start" x="283" y="-166.75" font-family="monospace" font-size="10.00">results/plots/fipy~2e82a58e7/binary_phase_field/total.png</text>
<text text-anchor="start" x="283" y="-147" font-family="monospace" font-size="10.00">results/plots/fipy~8c0aec6d3/binary_phase_field/prepare.png</text>
<text text-anchor="start" x="283" y="-127.25" font-family="monospace" font-size="10.00">results/plots/fipy~8c0aec6d3/binary_phase_field/solve.png</text>
<text text-anchor="start" x="283" y="-107.5" font-family="monospace" font-size="10.00">results/plots/fipy~8c0aec6d3/binary_phase_field/total.png</text>
<text text-anchor="start" x="283" y="-87.75" font-family="monospace" font-size="10.00">results/plots/fipy~c246c5c9f/binary_phase_field/prepare.png</text>
<text text-anchor="start" x="283" y="-68" font-family="monospace" font-size="10.00">results/plots/fipy~c246c5c9f/binary_phase_field/solve.png</text>
<text text-anchor="start" x="283" y="-48.25" font-family="monospace" font-size="10.00">results/plots/fipy~c246c5c9f/binary_phase_field/total.png</text>
<text text-anchor="start" x="283" y="-28.5" font-family="monospace" font-size="10.00">results/total_times.json</text>
<text text-anchor="start" x="631" y="-8.75" font-family="sans" font-size="10.00"> &#160;</text>
<polygon fill="#d95757" stroke="#d95757" points="277,-304 277,-304 644,-304 644,-304 277,-304"/>
<polygon fill="#d95757" stroke="#d95757" points="277,-22.25 277,-22.25 644,-22.25 644,-22.25 277,-22.25"/>
<polygon fill="none" stroke="#d95757" stroke-width="2" points="277,-1 277,-331.75 643,-331.75 643,-1 277,-1"/>
</g>
<!-- 1 -->
<g id="node2" class="node">
<title>1</title>
<text text-anchor="start" x="412.75" y="-685.4" font-family="sans" font-weight="bold" font-size="18.00">total_times</text>
<text text-anchor="start" x="388" y="-663.45" font-family="sans" font-size="10.00"> </text>
<text text-anchor="start" x="391" y="-663.45" font-family="sans" font-weight="bold" font-size="14.00">↪ input</text>
<text text-anchor="start" x="442" y="-663.45" font-family="sans" font-size="10.00"> </text>
<text text-anchor="start" x="388" y="-641.25" font-family="monospace" font-size="10.00">results/all.json</text>
<text text-anchor="start" x="466" y="-618.7" font-family="sans" font-size="10.00"> </text>
<text text-anchor="start" x="469" y="-618.7" font-family="sans" font-weight="bold" font-size="14.00">output →</text>
<text text-anchor="start" x="529" y="-618.7" font-family="sans" font-size="10.00"> </text>
<text text-anchor="start" x="388" y="-596.5" font-family="monospace" font-size="10.00">results/total_times.json</text>
<polygon fill="#7cd957" stroke="#7cd957" points="382,-679.75 382,-679.75 539,-679.75 539,-679.75 382,-679.75"/>
<polygon fill="#7cd957" stroke="#7cd957" points="382,-635 382,-635 539,-635 539,-635 382,-635"/>
<polygon fill="none" stroke="#7cd957" stroke-width="2" points="382,-587.25 382,-707.5 538,-707.5 538,-587.25 382,-587.25"/>
</g>
<!-- 1&#45;&gt;0 -->
<g id="edge2" class="edge">
<title>1&#45;&gt;0</title>
<path fill="none" stroke="grey" stroke-width="2" d="M407.84,-586.47C400.51,-575.1 394.09,-562.81 390,-550.25 368.63,-484.6 375.47,-410.37 391.4,-344.87"/>
<polygon fill="grey" stroke="grey" stroke-width="2" points="394.77,-345.8 393.84,-335.25 387.99,-344.08 394.77,-345.8"/>
</g>
<!-- 7 -->
<g id="node8" class="node">
<title>7</title>
<text text-anchor="start" x="471.25" y="-527.15" font-family="sans" font-weight="bold" font-size="18.00">plot_permutations</text>
<text text-anchor="start" x="406" y="-505.2" font-family="sans" font-size="10.00"> </text>
<text text-anchor="start" x="409" y="-505.2" font-family="sans" font-weight="bold" font-size="14.00">↪ input</text>
<text text-anchor="start" x="460" y="-505.2" font-family="sans" font-size="10.00"> </text>
<text text-anchor="start" x="406" y="-483" font-family="monospace" font-size="10.00">results/total_times.json</text>
<text text-anchor="start" x="628" y="-460.45" font-family="sans" font-size="10.00"> </text>
<text text-anchor="start" x="631" y="-460.45" font-family="sans" font-weight="bold" font-size="14.00">output →</text>
<text text-anchor="start" x="691" y="-460.45" font-family="sans" font-size="10.00"> </text>
<text text-anchor="start" x="406" y="-438.25" font-family="monospace" font-size="10.00">results/plots/fipy~{rev}/{benchmark}</text>
<text text-anchor="start" x="406" y="-418.5" font-family="monospace" font-size="10.00">results/plots/fipy~{rev}/{benchmark}/prepare.png</text>
<text text-anchor="start" x="406" y="-398.75" font-family="monospace" font-size="10.00">results/plots/fipy~{rev}/{benchmark}/solve.png</text>
<text text-anchor="start" x="406" y="-379" font-family="monospace" font-size="10.00">results/plots/fipy~{rev}/{benchmark}/total.png</text>
<polygon fill="#577cd9" stroke="#577cd9" points="400,-521.5 400,-521.5 701,-521.5 701,-521.5 400,-521.5"/>
<polygon fill="#577cd9" stroke="#577cd9" points="400,-476.75 400,-476.75 701,-476.75 701,-476.75 400,-476.75"/>
<polygon fill="none" stroke="#577cd9" stroke-width="2" points="400,-369.75 400,-549.25 700,-549.25 700,-369.75 400,-369.75"/>
</g>
<!-- 1&#45;&gt;7 -->
<g id="edge8" class="edge">
<title>1&#45;&gt;7</title>
<path fill="none" stroke="grey" stroke-width="2" d="M489.1,-586.28C492.94,-578.34 496.97,-570.02 501.04,-561.61"/>
<polygon fill="grey" stroke="grey" stroke-width="2" points="504.08,-563.37 505.29,-552.84 497.78,-560.32 504.08,-563.37"/>
</g>
<!-- 2 -->
<g id="node3" class="node">
<title>2</title>
<text text-anchor="start" x="360.38" y="-1575.4" font-family="sans" font-weight="bold" font-size="18.00">aggregate_permutations</text>
<text text-anchor="start" x="333" y="-1553.45" font-family="sans" font-size="10.00"> </text>
<text text-anchor="start" x="336" y="-1553.45" font-family="sans" font-weight="bold" font-size="14.00">↪ input</text>
<text text-anchor="start" x="387" y="-1553.45" font-family="sans" font-size="10.00"> </text>
<text text-anchor="start" x="333" y="-1531.25" font-family="monospace" font-size="10.00">config/fipy~2876d0a7b/petsc_permutations.csv</text>
<text text-anchor="start" x="333" y="-1511.5" font-family="monospace" font-size="10.00">config/fipy~2e82a58e7/petsc_permutations.csv</text>
<text text-anchor="start" x="333" y="-1491.75" font-family="monospace" font-size="10.00">config/fipy~8c0aec6d3/petsc_permutations.csv</text>
<text text-anchor="start" x="333" y="-1472" font-family="monospace" font-size="10.00">config/fipy~c246c5c9f/petsc_permutations.csv</text>
<text text-anchor="start" x="531" y="-1449.45" font-family="sans" font-size="10.00"> </text>
<text text-anchor="start" x="534" y="-1449.45" font-family="sans" font-weight="bold" font-size="14.00">output →</text>
<text text-anchor="start" x="594" y="-1449.45" font-family="sans" font-size="10.00"> </text>
<text text-anchor="start" x="333" y="-1427.25" font-family="monospace" font-size="10.00">config/all_permutations.csv</text>
<polygon fill="#c6d957" stroke="#c6d957" points="327,-1569.75 327,-1569.75 604,-1569.75 604,-1569.75 327,-1569.75"/>
<polygon fill="#c6d957" stroke="#c6d957" points="327,-1465.75 327,-1465.75 604,-1465.75 604,-1465.75 327,-1465.75"/>
<polygon fill="none" stroke="#c6d957" stroke-width="2" points="327,-1418 327,-1597.5 603,-1597.5 603,-1418 327,-1418"/>
</g>
<!-- 9 -->
<g id="node10" class="node">
<title>9</title>
<text text-anchor="start" x="383.12" y="-863.4" font-family="sans" font-weight="bold" font-size="18.00">aggregate_results</text>
<text text-anchor="start" x="379" y="-841.45" font-family="sans" font-size="10.00"> </text>
<text text-anchor="start" x="382" y="-841.45" font-family="sans" font-weight="bold" font-size="14.00">↪ input</text>
<text text-anchor="start" x="433" y="-841.45" font-family="sans" font-size="10.00"> </text>
<text text-anchor="start" x="379" y="-819.25" font-family="monospace" font-size="10.00">&lt;input function&gt;</text>
<text text-anchor="start" x="379" y="-799.5" font-family="monospace" font-size="10.00">config/all_permutations.csv</text>
<text text-anchor="start" x="475" y="-776.95" font-family="sans" font-size="10.00"> </text>
<text text-anchor="start" x="478" y="-776.95" font-family="sans" font-weight="bold" font-size="14.00">output →</text>
<text text-anchor="start" x="538" y="-776.95" font-family="sans" font-size="10.00"> </text>
<text text-anchor="start" x="379" y="-754.75" font-family="monospace" font-size="10.00">results/all.json</text>
<polygon fill="#57c6d9" stroke="#57c6d9" points="373,-857.75 373,-857.75 548,-857.75 548,-857.75 373,-857.75"/>
<polygon fill="#57c6d9" stroke="#57c6d9" points="373,-793.25 373,-793.25 548,-793.25 548,-793.25 373,-793.25"/>
<polygon fill="none" stroke="#57c6d9" stroke-width="2" points="373,-745.5 373,-885.5 547,-885.5 547,-745.5 373,-745.5"/>
</g>
<!-- 2&#45;&gt;9 -->
<g id="edge11" class="edge">
<title>2&#45;&gt;9</title>
<path fill="none" stroke="grey" stroke-width="2" d="M433.66,-1417.19C430.5,-1405.15 427.8,-1392.86 426,-1381 395.47,-1179.52 394.5,-1123.83 426,-922.5 427.22,-914.73 428.9,-906.75 430.88,-898.83"/>
<polygon fill="grey" stroke="grey" stroke-width="2" points="434.21,-899.95 433.42,-889.39 427.45,-898.14 434.21,-899.95"/>
</g>
<!-- 12 -->
<g id="node13" class="node">
<title>12</title>
<text text-anchor="start" x="468.25" y="-1357.9" font-family="sans" font-weight="bold" font-size="18.00">make_config</text>
<text text-anchor="start" x="442" y="-1335.95" font-family="sans" font-size="10.00"> </text>
<text text-anchor="start" x="445" y="-1335.95" font-family="sans" font-weight="bold" font-size="14.00">↪ input</text>
<text text-anchor="start" x="496" y="-1335.95" font-family="sans" font-size="10.00"> </text>
<text text-anchor="start" x="442" y="-1313.75" font-family="monospace" font-size="10.00">config/all_permutations.csv</text>
<text text-anchor="start" x="538" y="-1291.2" font-family="sans" font-size="10.00"> </text>
<text text-anchor="start" x="541" y="-1291.2" font-family="sans" font-weight="bold" font-size="14.00">output →</text>
<text text-anchor="start" x="601" y="-1291.2" font-family="sans" font-size="10.00"> </text>
<text text-anchor="start" x="442" y="-1269" font-family="monospace" font-size="10.00">results/{id}/config.json</text>
<polygon fill="#d9a157" stroke="#d9a157" points="436,-1352.25 436,-1352.25 611,-1352.25 611,-1352.25 436,-1352.25"/>
<polygon fill="#d9a157" stroke="#d9a157" points="436,-1307.5 436,-1307.5 611,-1307.5 611,-1307.5 436,-1307.5"/>
<polygon fill="none" stroke="#d9a157" stroke-width="2" points="436,-1259.75 436,-1380 610,-1380 610,-1259.75 436,-1259.75"/>
</g>
<!-- 2&#45;&gt;12 -->
<g id="edge15" class="edge">
<title>2&#45;&gt;12</title>
<path fill="none" stroke="grey" stroke-width="2" d="M492.98,-1417.08C495.46,-1409.13 497.95,-1401.16 500.38,-1393.38"/>
<polygon fill="grey" stroke="grey" stroke-width="2" points="503.72,-1394.42 503.35,-1383.83 497.04,-1392.34 503.72,-1394.42"/>
</g>
<!-- 3 -->
<g id="node4" class="node">
<title>3</title>
<text text-anchor="start" x="64.75" y="-1947.78" font-family="sans" font-weight="bold" font-size="18.00">list_preconditioners</text>
<text text-anchor="start" x="7" y="-1925.83" font-family="sans" font-size="10.00"> </text>
<text text-anchor="start" x="10" y="-1925.83" font-family="sans" font-weight="bold" font-size="14.00">↪ input</text>
<text text-anchor="start" x="61" y="-1925.83" font-family="sans" font-size="10.00"> </text>
<text text-anchor="start" x="7" y="-1903.62" font-family="monospace" font-size="10.00">workflow/envs/fipy~{rev}/benchmark_{suite}.yml</text>
<text text-anchor="start" x="229" y="-1881.08" font-family="sans" font-size="10.00"> </text>
<text text-anchor="start" x="232" y="-1881.08" font-family="sans" font-weight="bold" font-size="14.00">output →</text>
<text text-anchor="start" x="292" y="-1881.08" font-family="sans" font-size="10.00"> </text>
<text text-anchor="start" x="7" y="-1858.88" font-family="monospace" font-size="10.00">resources/fipy~{rev}/{suite}_preconditioners.txt</text>
<polygon fill="#d9c657" stroke="#d9c657" points="1,-1942.12 1,-1942.12 302,-1942.12 302,-1942.12 1,-1942.12"/>
<polygon fill="#d9c657" stroke="#d9c657" points="1,-1897.38 1,-1897.38 302,-1897.38 302,-1897.38 1,-1897.38"/>
<polygon fill="none" stroke="#d9c657" stroke-width="2" points="1,-1849.62 1,-1969.88 301,-1969.88 301,-1849.62 1,-1849.62"/>
</g>
<!-- 13 -->
<g id="node14" class="node">
<title>13</title>
<text text-anchor="start" x="343.12" y="-1773.15" font-family="sans" font-weight="bold" font-size="18.00">rev_and_suite_permutations</text>
<text text-anchor="start" x="339" y="-1751.2" font-family="sans" font-size="10.00"> </text>
<text text-anchor="start" x="342" y="-1751.2" font-family="sans" font-weight="bold" font-size="14.00">↪ input</text>
<text text-anchor="start" x="393" y="-1751.2" font-family="sans" font-size="10.00"> </text>
<text text-anchor="start" x="339" y="-1729" font-family="monospace" font-size="10.00">&lt;input function&gt;</text>
<text text-anchor="start" x="339" y="-1709.25" font-family="monospace" font-size="10.00">&lt;input function&gt;</text>
<text text-anchor="start" x="339" y="-1689.5" font-family="monospace" font-size="10.00">resources/fipy~{rev}/repo</text>
<text text-anchor="start" x="525" y="-1666.95" font-family="sans" font-size="10.00"> </text>
<text text-anchor="start" x="528" y="-1666.95" font-family="sans" font-weight="bold" font-size="14.00">output →</text>
<text text-anchor="start" x="588" y="-1666.95" font-family="sans" font-size="10.00"> </text>
<text text-anchor="start" x="339" y="-1644.75" font-family="monospace" font-size="10.00">config/fipy~{rev}/{suite}_permutations.csv</text>
<polygon fill="#57d97c" stroke="#57d97c" points="333,-1767.5 333,-1767.5 598,-1767.5 598,-1767.5 333,-1767.5"/>
<polygon fill="#57d97c" stroke="#57d97c" points="333,-1683.25 333,-1683.25 598,-1683.25 598,-1683.25 333,-1683.25"/>
<polygon fill="none" stroke="#57d97c" stroke-width="2" points="333,-1635.5 333,-1795.25 597,-1795.25 597,-1635.5 333,-1635.5"/>
</g>
<!-- 3&#45;&gt;13 -->
<g id="edge17" class="edge">
<title>3&#45;&gt;13</title>
<path fill="none" stroke="grey" stroke-width="2" d="M249.06,-1848.67C272.84,-1834.11 298.72,-1818.25 324.04,-1802.73"/>
<polygon fill="grey" stroke="grey" stroke-width="2" points="325.57,-1805.9 332.27,-1797.69 321.92,-1799.93 325.57,-1805.9"/>
</g>
<!-- 4 -->
<g id="node5" class="node">
<title>4</title>
<text text-anchor="start" x="534.75" y="-2161.9" font-family="sans" font-weight="bold" font-size="18.00">make_conda_env</text>
<text text-anchor="start" x="438" y="-2139.95" font-family="sans" font-size="10.00"> </text>
<text text-anchor="start" x="441" y="-2139.95" font-family="sans" font-weight="bold" font-size="14.00">↪ input</text>
<text text-anchor="start" x="492" y="-2139.95" font-family="sans" font-size="10.00"> </text>
<text text-anchor="start" x="438" y="-2117.75" font-family="monospace" font-size="10.00">resources/fipy~{rev}/repo</text>
<text text-anchor="start" x="438" y="-2098" font-family="monospace" font-size="10.00">workflow/envs/benchmark_{suite}.yml</text>
<text text-anchor="start" x="714" y="-2075.45" font-family="sans" font-size="10.00"> </text>
<text text-anchor="start" x="717" y="-2075.45" font-family="sans" font-weight="bold" font-size="14.00">output →</text>
<text text-anchor="start" x="777" y="-2075.45" font-family="sans" font-size="10.00"> </text>
<text text-anchor="start" x="438" y="-2053.25" font-family="monospace" font-size="10.00">workflow/envs/fipy~{rev}/benchmark_{suite}.post&#45;deploy.sh</text>
<text text-anchor="start" x="438" y="-2033.5" font-family="monospace" font-size="10.00">workflow/envs/fipy~{rev}/benchmark_{suite}.yml</text>
<polygon fill="#57d957" stroke="#57d957" points="432,-2156.25 432,-2156.25 787,-2156.25 787,-2156.25 432,-2156.25"/>
<polygon fill="#57d957" stroke="#57d957" points="432,-2091.75 432,-2091.75 787,-2091.75 787,-2091.75 432,-2091.75"/>
<polygon fill="none" stroke="#57d957" stroke-width="2" points="432,-2024.25 432,-2184 786,-2184 786,-2024.25 432,-2024.25"/>
</g>
<!-- 4&#45;&gt;3 -->
<g id="edge5" class="edge">
<title>4&#45;&gt;3</title>
<path fill="none" stroke="grey" stroke-width="2" d="M431.23,-2036.52C391.43,-2020.91 349.59,-2003.95 311,-1987.25 302.74,-1983.68 294.29,-1979.92 285.79,-1976.08"/>
<polygon fill="grey" stroke="grey" stroke-width="2" points="287.48,-1973 276.93,-1972.04 284.58,-1979.37 287.48,-1973"/>
</g>
<!-- 6 -->
<g id="node7" class="node">
<title>6</title>
<text text-anchor="start" x="415.88" y="-1947.78" font-family="sans" font-weight="bold" font-size="18.00">list_solvers</text>
<text text-anchor="start" x="327" y="-1925.83" font-family="sans" font-size="10.00"> </text>
<text text-anchor="start" x="330" y="-1925.83" font-family="sans" font-weight="bold" font-size="14.00">↪ input</text>
<text text-anchor="start" x="381" y="-1925.83" font-family="sans" font-size="10.00"> </text>
<text text-anchor="start" x="327" y="-1903.62" font-family="monospace" font-size="10.00">workflow/envs/fipy~{rev}/benchmark_{suite}.yml</text>
<text text-anchor="start" x="537" y="-1881.08" font-family="sans" font-size="10.00"> </text>
<text text-anchor="start" x="540" y="-1881.08" font-family="sans" font-weight="bold" font-size="14.00">output →</text>
<text text-anchor="start" x="600" y="-1881.08" font-family="sans" font-size="10.00"> </text>
<text text-anchor="start" x="327" y="-1858.88" font-family="monospace" font-size="10.00">resources/fipy~{rev}/{suite}_solvers.txt</text>
<polygon fill="#57d9c6" stroke="#57d9c6" points="321,-1942.12 321,-1942.12 610,-1942.12 610,-1942.12 321,-1942.12"/>
<polygon fill="#57d9c6" stroke="#57d9c6" points="321,-1897.38 321,-1897.38 610,-1897.38 610,-1897.38 321,-1897.38"/>
<polygon fill="none" stroke="#57d9c6" stroke-width="2" points="321,-1849.62 321,-1969.88 609,-1969.88 609,-1849.62 321,-1849.62"/>
</g>
<!-- 4&#45;&gt;6 -->
<g id="edge7" class="edge">
<title>4&#45;&gt;6</title>
<path fill="none" stroke="grey" stroke-width="2" d="M549.39,-2023.49C538.85,-2009.4 527.94,-1994.83 517.61,-1981.03"/>
<polygon fill="grey" stroke="grey" stroke-width="2" points="520.44,-1978.97 511.65,-1973.07 514.84,-1983.17 520.44,-1978.97"/>
</g>
<!-- 8 -->
<g id="node9" class="node">
<title>8</title>
<text text-anchor="start" x="737.38" y="-1964.15" font-family="sans" font-weight="bold" font-size="18.00">bootstrap</text>
<text text-anchor="start" x="635" y="-1942.2" font-family="sans" font-size="10.00"> </text>
<text text-anchor="start" x="638" y="-1942.2" font-family="sans" font-weight="bold" font-size="14.00">↪ input</text>
<text text-anchor="start" x="689" y="-1942.2" font-family="sans" font-size="10.00"> </text>
<text text-anchor="start" x="635" y="-1920" font-family="monospace" font-size="10.00">workflow/envs/fipy~2876d0a7b/benchmark_petsc.yml</text>
<text text-anchor="start" x="635" y="-1900.25" font-family="monospace" font-size="10.00">workflow/envs/fipy~2e82a58e7/benchmark_petsc.yml</text>
<text text-anchor="start" x="635" y="-1880.5" font-family="monospace" font-size="10.00">workflow/envs/fipy~8c0aec6d3/benchmark_petsc.yml</text>
<text text-anchor="start" x="635" y="-1860.75" font-family="monospace" font-size="10.00">workflow/envs/fipy~c246c5c9f/benchmark_petsc.yml</text>
<text text-anchor="start" x="917" y="-1841" font-family="sans" font-size="10.00"> &#160;</text>
<polygon fill="#a1d957" stroke="#a1d957" points="629,-1958.5 629,-1958.5 930,-1958.5 930,-1958.5 629,-1958.5"/>
<polygon fill="#a1d957" stroke="#a1d957" points="629,-1854.5 629,-1854.5 930,-1854.5 930,-1854.5 629,-1854.5"/>
<polygon fill="none" stroke="#a1d957" stroke-width="2" points="629,-1833.25 629,-1986.25 929,-1986.25 929,-1833.25 629,-1833.25"/>
</g>
<!-- 4&#45;&gt;8 -->
<g id="edge9" class="edge">
<title>4&#45;&gt;8</title>
<path fill="none" stroke="grey" stroke-width="2" d="M679.37,-2023.49C687.15,-2014.68 695.1,-2005.69 702.95,-1996.81"/>
<polygon fill="grey" stroke="grey" stroke-width="2" points="705.41,-1999.31 709.41,-1989.5 700.16,-1994.68 705.41,-1999.31"/>
</g>
<!-- 5 -->
<g id="node6" class="node">
<title>5</title>
<text text-anchor="start" x="664" y="-2293.65" font-family="sans" font-weight="bold" font-size="18.00">clone_repo</text>
<text text-anchor="start" x="637" y="-2274.5" font-family="sans" font-size="10.00"> &#160;</text>
<text text-anchor="start" x="721" y="-2253.45" font-family="sans" font-size="10.00"> </text>
<text text-anchor="start" x="724" y="-2253.45" font-family="sans" font-weight="bold" font-size="14.00">output →</text>
<text text-anchor="start" x="784" y="-2253.45" font-family="sans" font-size="10.00"> </text>
<text text-anchor="start" x="637" y="-2231.25" font-family="monospace" font-size="10.00">resources/fipy~{rev}/repo</text>
<polygon fill="#57a1d9" stroke="#57a1d9" points="631,-2288 631,-2288 794,-2288 794,-2288 631,-2288"/>
<polygon fill="#57a1d9" stroke="#57a1d9" points="631,-2269.75 631,-2269.75 794,-2269.75 794,-2269.75 631,-2269.75"/>
<polygon fill="none" stroke="#57a1d9" stroke-width="2" points="631,-2222 631,-2315.75 793,-2315.75 793,-2222 631,-2222"/>
</g>
<!-- 5&#45;&gt;4 -->
<g id="edge6" class="edge">
<title>5&#45;&gt;4</title>
<path fill="none" stroke="grey" stroke-width="2" d="M682.48,-2221.24C677.37,-2213.16 671.9,-2204.51 666.34,-2195.73"/>
<polygon fill="grey" stroke="grey" stroke-width="2" points="669.45,-2194.1 661.15,-2187.52 663.54,-2197.84 669.45,-2194.1"/>
</g>
<!-- 5&#45;&gt;13 -->
<g id="edge18" class="edge">
<title>5&#45;&gt;13</title>
<path fill="none" stroke="grey" stroke-width="2" d="M769.81,-2221.03C866,-2137.46 1038.92,-1959.54 939,-1832.25 898.61,-1780.79 734.43,-1749.25 610.53,-1732.32"/>
<polygon fill="grey" stroke="grey" stroke-width="2" points="611.29,-1728.89 600.91,-1731.03 610.36,-1735.83 611.29,-1728.89"/>
</g>
<!-- 6&#45;&gt;13 -->
<g id="edge16" class="edge">
<title>6&#45;&gt;13</title>
<path fill="none" stroke="grey" stroke-width="2" d="M465,-1848.67C465,-1836.06 465,-1822.47 465,-1808.98"/>
<polygon fill="grey" stroke="grey" stroke-width="2" points="468.5,-1809.14 465,-1799.14 461.5,-1809.14 468.5,-1809.14"/>
</g>
<!-- 7&#45;&gt;0 -->
<g id="edge1" class="edge">
<title>7&#45;&gt;0</title>
<path fill="none" stroke="grey" stroke-width="2" d="M522.26,-368.78C519.88,-361.07 517.42,-353.11 514.92,-345.01"/>
<polygon fill="grey" stroke="grey" stroke-width="2" points="518.28,-344.05 511.98,-335.52 511.59,-346.11 518.28,-344.05"/>
</g>
<!-- 9&#45;&gt;1 -->
<g id="edge3" class="edge">
<title>9&#45;&gt;1</title>
<path fill="none" stroke="grey" stroke-width="2" d="M460,-744.53C460,-736.8 460,-728.92 460,-721.16"/>
<polygon fill="grey" stroke="grey" stroke-width="2" points="463.5,-721.3 460,-711.3 456.5,-721.3 463.5,-721.3"/>
</g>
<!-- 10 -->
<g id="node11" class="node">
<title>10</title>
<text text-anchor="start" x="457" y="-1041.4" font-family="sans" font-weight="bold" font-size="18.00">extract_times</text>
<text text-anchor="start" x="442" y="-1019.45" font-family="sans" font-size="10.00"> </text>
<text text-anchor="start" x="445" y="-1019.45" font-family="sans" font-weight="bold" font-size="14.00">↪ input</text>
<text text-anchor="start" x="496" y="-1019.45" font-family="sans" font-size="10.00"> </text>
<text text-anchor="start" x="442" y="-997.25" font-family="monospace" font-size="10.00">results/{id}/config.json</text>
<text text-anchor="start" x="442" y="-977.5" font-family="monospace" font-size="10.00">results/{id}/solver.log</text>
<text text-anchor="start" x="520" y="-954.95" font-family="sans" font-size="10.00"> </text>
<text text-anchor="start" x="523" y="-954.95" font-family="sans" font-weight="bold" font-size="14.00">output →</text>
<text text-anchor="start" x="583" y="-954.95" font-family="sans" font-size="10.00"> </text>
<text text-anchor="start" x="442" y="-932.75" font-family="monospace" font-size="10.00">results/{id}/solver.json</text>
<polygon fill="#d97c57" stroke="#d97c57" points="436,-1035.75 436,-1035.75 593,-1035.75 593,-1035.75 436,-1035.75"/>
<polygon fill="#d97c57" stroke="#d97c57" points="436,-971.25 436,-971.25 593,-971.25 593,-971.25 436,-971.25"/>
<polygon fill="none" stroke="#d97c57" stroke-width="2" points="436,-923.5 436,-1063.5 592,-1063.5 592,-923.5 436,-923.5"/>
</g>
<!-- 10&#45;&gt;9 -->
<g id="edge10" class="edge">
<title>10&#45;&gt;9</title>
<path fill="none" stroke="grey" stroke-width="2" d="M492.58,-922.69C490.14,-914.72 487.63,-906.55 485.14,-898.44"/>
<polygon fill="grey" stroke="grey" stroke-width="2" points="488.56,-897.66 482.28,-889.12 481.87,-899.71 488.56,-897.66"/>
</g>
<!-- 11 -->
<g id="node12" class="node">
<title>11</title>
<text text-anchor="start" x="563.12" y="-1199.65" font-family="sans" font-weight="bold" font-size="18.00">solve</text>
<text text-anchor="start" x="514" y="-1177.7" font-family="sans" font-size="10.00"> </text>
<text text-anchor="start" x="517" y="-1177.7" font-family="sans" font-weight="bold" font-size="14.00">↪ input</text>
<text text-anchor="start" x="568" y="-1177.7" font-family="sans" font-size="10.00"> </text>
<text text-anchor="start" x="514" y="-1155.5" font-family="monospace" font-size="10.00">results/{id}/config.json</text>
<text text-anchor="start" x="592" y="-1132.95" font-family="sans" font-size="10.00"> </text>
<text text-anchor="start" x="595" y="-1132.95" font-family="sans" font-weight="bold" font-size="14.00">output →</text>
<text text-anchor="start" x="655" y="-1132.95" font-family="sans" font-size="10.00"> </text>
<text text-anchor="start" x="514" y="-1110.75" font-family="monospace" font-size="10.00">results/{id}/solver.log</text>
<polygon fill="#57d9a1" stroke="#57d9a1" points="508,-1194 508,-1194 665,-1194 665,-1194 508,-1194"/>
<polygon fill="#57d9a1" stroke="#57d9a1" points="508,-1149.25 508,-1149.25 665,-1149.25 665,-1149.25 508,-1149.25"/>
<polygon fill="none" stroke="#57d9a1" stroke-width="2" points="508,-1101.5 508,-1221.75 664,-1221.75 664,-1101.5 508,-1101.5"/>
</g>
<!-- 11&#45;&gt;10 -->
<g id="edge13" class="edge">
<title>11&#45;&gt;10</title>
<path fill="none" stroke="grey" stroke-width="2" d="M560.01,-1100.65C556.53,-1092.63 552.92,-1084.29 549.31,-1075.98"/>
<polygon fill="grey" stroke="grey" stroke-width="2" points="552.63,-1074.84 545.44,-1067.05 546.21,-1077.62 552.63,-1074.84"/>
</g>
<!-- 12&#45;&gt;10 -->
<g id="edge12" class="edge">
<title>12&#45;&gt;10</title>
<path fill="none" stroke="grey" stroke-width="2" d="M504.89,-1258.83C502.02,-1246.98 499.51,-1234.55 498,-1222.75 491.85,-1174.71 495.19,-1120.65 500.37,-1077.21"/>
<polygon fill="grey" stroke="grey" stroke-width="2" points="503.83,-1077.74 501.62,-1067.38 496.89,-1076.86 503.83,-1077.74"/>
</g>
<!-- 12&#45;&gt;11 -->
<g id="edge14" class="edge">
<title>12&#45;&gt;11</title>
<path fill="none" stroke="grey" stroke-width="2" d="M547.18,-1258.91C550.39,-1250.93 553.72,-1242.68 557.01,-1234.53"/>
<polygon fill="grey" stroke="grey" stroke-width="2" points="560.16,-1236.08 560.65,-1225.49 553.67,-1233.46 560.16,-1236.08"/>
</g>
<!-- 13&#45;&gt;2 -->
<g id="edge4" class="edge">
<title>13&#45;&gt;2</title>
<path fill="none" stroke="grey" stroke-width="2" d="M465,-1634.58C465,-1626.89 465,-1619.03 465,-1611.16"/>
<polygon fill="grey" stroke="grey" stroke-width="2" points="468.5,-1611.43 465,-1601.43 461.5,-1611.43 468.5,-1611.43"/>
</g>
</g>
</svg>
