<?xml version="1.0" encoding="UTF-8" standalone="no"?>
<!DOCTYPE svg PUBLIC "-//W3C//DTD SVG 1.1//EN"
 "http://www.w3.org/Graphics/SVG/1.1/DTD/svg11.dtd">
<!-- Generated by graphviz version 11.0.0 (0)
 -->
<!-- Title: snakemake_dag Pages: 1 -->
<svg width="1190pt" height="1699pt"
 viewBox="0.00 0.00 1189.50 1699.00" xmlns="http://www.w3.org/2000/svg" xmlns:xlink="http://www.w3.org/1999/xlink">
<g id="graph0" class="graph" transform="scale(1 1) rotate(0) translate(4 1695)">
<title>snakemake_dag</title>
<polygon fill="white" stroke="none" points="-4,4 -4,-1695 1185.5,-1695 1185.5,4 -4,4"/>
<!-- 0 -->
<g id="node1" class="node">
<title>0</title>
<text text-anchor="start" x="519.38" y="-131.9" font-family="sans" font-weight="bold" font-size="18.00">all</text>
<text text-anchor="start" x="352.5" y="-109.95" font-family="sans" font-size="10.00"> </text>
<text text-anchor="start" x="355.5" y="-109.95" font-family="sans" font-weight="bold" font-size="14.00">↪ input</text>
<text text-anchor="start" x="406.5" y="-109.95" font-family="sans" font-size="10.00"> </text>
<text text-anchor="start" x="352.5" y="-87.75" font-family="monospace" font-size="10.00">results/plots/fipy~c246c5c9f/binary_phase_field/prepare.png</text>
<text text-anchor="start" x="352.5" y="-68" font-family="monospace" font-size="10.00">results/plots/fipy~c246c5c9f/binary_phase_field/solve.png</text>
<text text-anchor="start" x="352.5" y="-48.25" font-family="monospace" font-size="10.00">results/plots/fipy~c246c5c9f/binary_phase_field/total.png</text>
<text text-anchor="start" x="352.5" y="-28.5" font-family="monospace" font-size="10.00">results/total_times.json</text>
<text text-anchor="start" x="700.5" y="-8.75" font-family="sans" font-size="10.00"> &#160;</text>
<polygon fill="#d99c57" stroke="#d99c57" points="346.5,-126.25 346.5,-126.25 713.5,-126.25 713.5,-126.25 346.5,-126.25"/>
<polygon fill="#d99c57" stroke="#d99c57" points="346.5,-22.25 346.5,-22.25 713.5,-22.25 713.5,-22.25 346.5,-22.25"/>
<polygon fill="none" stroke="#d99c57" stroke-width="2" points="346.5,-1 346.5,-154 712.5,-154 712.5,-1 346.5,-1"/>
</g>
<!-- 1 -->
<g id="node2" class="node">
<title>1</title>
<text text-anchor="start" x="482.25" y="-507.65" font-family="sans" font-weight="bold" font-size="18.00">total_times</text>
<text text-anchor="start" x="457.5" y="-485.7" font-family="sans" font-size="10.00"> </text>
<text text-anchor="start" x="460.5" y="-485.7" font-family="sans" font-weight="bold" font-size="14.00">↪ input</text>
<text text-anchor="start" x="511.5" y="-485.7" font-family="sans" font-size="10.00"> </text>
<text text-anchor="start" x="457.5" y="-463.5" font-family="monospace" font-size="10.00">results/all.json</text>
<text text-anchor="start" x="535.5" y="-440.95" font-family="sans" font-size="10.00"> </text>
<text text-anchor="start" x="538.5" y="-440.95" font-family="sans" font-weight="bold" font-size="14.00">output →</text>
<text text-anchor="start" x="598.5" y="-440.95" font-family="sans" font-size="10.00"> </text>
<text text-anchor="start" x="457.5" y="-418.75" font-family="monospace" font-size="10.00">results/total_times.json</text>
<polygon fill="#5779d9" stroke="#5779d9" points="451.5,-502 451.5,-502 608.5,-502 608.5,-502 451.5,-502"/>
<polygon fill="#5779d9" stroke="#5779d9" points="451.5,-457.25 451.5,-457.25 608.5,-457.25 608.5,-457.25 451.5,-457.25"/>
<polygon fill="none" stroke="#5779d9" stroke-width="2" points="451.5,-409.5 451.5,-529.75 607.5,-529.75 607.5,-409.5 451.5,-409.5"/>
</g>
<!-- 1&#45;&gt;0 -->
<g id="edge2" class="edge">
<title>1&#45;&gt;0</title>
<path fill="none" stroke="grey" stroke-width="2" d="M477.34,-408.72C470.01,-397.35 463.59,-385.06 459.5,-372.5 434.53,-295.8 437.34,-268.56 459.5,-191 461.86,-182.75 465.01,-174.52 468.68,-166.47"/>
<polygon fill="grey" stroke="grey" stroke-width="2" points="471.8,-168.08 473.06,-157.56 465.51,-164.99 471.8,-168.08"/>
</g>
<!-- 13 -->
<g id="node14" class="node">
<title>13</title>
<text text-anchor="start" x="540.75" y="-349.4" font-family="sans" font-weight="bold" font-size="18.00">plot_permutations</text>
<text text-anchor="start" x="475.5" y="-327.45" font-family="sans" font-size="10.00"> </text>
<text text-anchor="start" x="478.5" y="-327.45" font-family="sans" font-weight="bold" font-size="14.00">↪ input</text>
<text text-anchor="start" x="529.5" y="-327.45" font-family="sans" font-size="10.00"> </text>
<text text-anchor="start" x="475.5" y="-305.25" font-family="monospace" font-size="10.00">results/total_times.json</text>
<text text-anchor="start" x="697.5" y="-282.7" font-family="sans" font-size="10.00"> </text>
<text text-anchor="start" x="700.5" y="-282.7" font-family="sans" font-weight="bold" font-size="14.00">output →</text>
<text text-anchor="start" x="760.5" y="-282.7" font-family="sans" font-size="10.00"> </text>
<text text-anchor="start" x="475.5" y="-260.5" font-family="monospace" font-size="10.00">results/plots/fipy~{rev}/{benchmark}</text>
<text text-anchor="start" x="475.5" y="-240.75" font-family="monospace" font-size="10.00">results/plots/fipy~{rev}/{benchmark}/prepare.png</text>
<text text-anchor="start" x="475.5" y="-221" font-family="monospace" font-size="10.00">results/plots/fipy~{rev}/{benchmark}/solve.png</text>
<text text-anchor="start" x="475.5" y="-201.25" font-family="monospace" font-size="10.00">results/plots/fipy~{rev}/{benchmark}/total.png</text>
<polygon fill="#57d98b" stroke="#57d98b" points="469.5,-343.75 469.5,-343.75 770.5,-343.75 770.5,-343.75 469.5,-343.75"/>
<polygon fill="#57d98b" stroke="#57d98b" points="469.5,-299 469.5,-299 770.5,-299 770.5,-299 469.5,-299"/>
<polygon fill="none" stroke="#57d98b" stroke-width="2" points="469.5,-192 469.5,-371.5 769.5,-371.5 769.5,-192 469.5,-192"/>
</g>
<!-- 1&#45;&gt;13 -->
<g id="edge14" class="edge">
<title>1&#45;&gt;13</title>
<path fill="none" stroke="grey" stroke-width="2" d="M558.6,-408.53C562.44,-400.59 566.47,-392.27 570.54,-383.86"/>
<polygon fill="grey" stroke="grey" stroke-width="2" points="573.58,-385.62 574.79,-375.09 567.28,-382.57 573.58,-385.62"/>
</g>
<!-- 2 -->
<g id="node3" class="node">
<title>2</title>
<text text-anchor="start" x="437.62" y="-665.9" font-family="sans" font-weight="bold" font-size="18.00">aggregate_all_results</text>
<text text-anchor="start" x="388.5" y="-643.95" font-family="sans" font-size="10.00"> </text>
<text text-anchor="start" x="391.5" y="-643.95" font-family="sans" font-weight="bold" font-size="14.00">↪ input</text>
<text text-anchor="start" x="442.5" y="-643.95" font-family="sans" font-size="10.00"> </text>
<text text-anchor="start" x="388.5" y="-621.75" font-family="monospace" font-size="10.00">results/fipy~c246c5c9f/suite~petsc/results.json</text>
<text text-anchor="start" x="604.5" y="-599.2" font-family="sans" font-size="10.00"> </text>
<text text-anchor="start" x="607.5" y="-599.2" font-family="sans" font-weight="bold" font-size="14.00">output →</text>
<text text-anchor="start" x="667.5" y="-599.2" font-family="sans" font-size="10.00"> </text>
<text text-anchor="start" x="388.5" y="-577" font-family="monospace" font-size="10.00">results/all.json</text>
<polygon fill="#d95757" stroke="#d95757" points="382.5,-660.25 382.5,-660.25 677.5,-660.25 677.5,-660.25 382.5,-660.25"/>
<polygon fill="#d95757" stroke="#d95757" points="382.5,-615.5 382.5,-615.5 677.5,-615.5 677.5,-615.5 382.5,-615.5"/>
<polygon fill="none" stroke="#d95757" stroke-width="2" points="382.5,-567.75 382.5,-688 676.5,-688 676.5,-567.75 382.5,-567.75"/>
</g>
<!-- 2&#45;&gt;1 -->
<g id="edge3" class="edge">
<title>2&#45;&gt;1</title>
<path fill="none" stroke="grey" stroke-width="2" d="M529.5,-566.91C529.5,-559.3 529.5,-551.45 529.5,-543.67"/>
<polygon fill="grey" stroke="grey" stroke-width="2" points="533,-543.71 529.5,-533.71 526,-543.71 533,-543.71"/>
</g>
<!-- 3 -->
<g id="node4" class="node">
<title>3</title>
<text text-anchor="start" x="452.62" y="-843.9" font-family="sans" font-weight="bold" font-size="18.00">aggregate_results</text>
<text text-anchor="start" x="394.5" y="-821.95" font-family="sans" font-size="10.00"> </text>
<text text-anchor="start" x="397.5" y="-821.95" font-family="sans" font-weight="bold" font-size="14.00">↪ input</text>
<text text-anchor="start" x="448.5" y="-821.95" font-family="sans" font-size="10.00"> </text>
<text text-anchor="start" x="394.5" y="-799.75" font-family="monospace" font-size="10.00">&lt;input function&gt;</text>
<text text-anchor="start" x="394.5" y="-780" font-family="monospace" font-size="10.00">config/all_permutations.csv</text>
<text text-anchor="start" x="598.5" y="-757.45" font-family="sans" font-size="10.00"> </text>
<text text-anchor="start" x="601.5" y="-757.45" font-family="sans" font-weight="bold" font-size="14.00">output →</text>
<text text-anchor="start" x="661.5" y="-757.45" font-family="sans" font-size="10.00"> </text>
<text text-anchor="start" x="394.5" y="-735.25" font-family="monospace" font-size="10.00">results/fipy~{rev}/suite~{suite}/results.json</text>
<polygon fill="#d97957" stroke="#d97957" points="388.5,-838.25 388.5,-838.25 671.5,-838.25 671.5,-838.25 388.5,-838.25"/>
<polygon fill="#d97957" stroke="#d97957" points="388.5,-773.75 388.5,-773.75 671.5,-773.75 671.5,-773.75 388.5,-773.75"/>
<polygon fill="none" stroke="#d97957" stroke-width="2" points="388.5,-726 388.5,-866 670.5,-866 670.5,-726 388.5,-726"/>
</g>
<!-- 3&#45;&gt;2 -->
<g id="edge4" class="edge">
<title>3&#45;&gt;2</title>
<path fill="none" stroke="grey" stroke-width="2" d="M529.5,-725.03C529.5,-717.3 529.5,-709.42 529.5,-701.66"/>
<polygon fill="grey" stroke="grey" stroke-width="2" points="533,-701.8 529.5,-691.8 526,-701.8 533,-701.8"/>
</g>
<!-- 4 -->
<g id="node5" class="node">
<title>4</title>
<text text-anchor="start" x="318.5" y="-1021.9" font-family="sans" font-weight="bold" font-size="18.00">all_permutations</text>
<text text-anchor="start" x="291.5" y="-999.95" font-family="sans" font-size="10.00"> </text>
<text text-anchor="start" x="294.5" y="-999.95" font-family="sans" font-weight="bold" font-size="14.00">↪ input</text>
<text text-anchor="start" x="345.5" y="-999.95" font-family="sans" font-size="10.00"> </text>
<text text-anchor="start" x="291.5" y="-977.75" font-family="monospace" font-size="10.00">config/benchmark_permutations.csv</text>
<text text-anchor="start" x="291.5" y="-958" font-family="monospace" font-size="10.00">config/fipy_permutations.csv</text>
<text text-anchor="start" x="423.5" y="-935.45" font-family="sans" font-size="10.00"> </text>
<text text-anchor="start" x="426.5" y="-935.45" font-family="sans" font-weight="bold" font-size="14.00">output →</text>
<text text-anchor="start" x="486.5" y="-935.45" font-family="sans" font-size="10.00"> </text>
<text text-anchor="start" x="291.5" y="-913.25" font-family="monospace" font-size="10.00">config/all_permutations.csv</text>
<polygon fill="#d9bf57" stroke="#d9bf57" points="285.5,-1016.25 285.5,-1016.25 496.5,-1016.25 496.5,-1016.25 285.5,-1016.25"/>
<polygon fill="#d9bf57" stroke="#d9bf57" points="285.5,-951.75 285.5,-951.75 496.5,-951.75 496.5,-951.75 285.5,-951.75"/>
<polygon fill="none" stroke="#d9bf57" stroke-width="2" points="285.5,-904 285.5,-1044 495.5,-1044 495.5,-904 285.5,-904"/>
</g>
<!-- 4&#45;&gt;3 -->
<g id="edge6" class="edge">
<title>4&#45;&gt;3</title>
<path fill="none" stroke="grey" stroke-width="2" d="M445.64,-903.19C452.45,-894.56 459.45,-885.7 466.37,-876.94"/>
<polygon fill="grey" stroke="grey" stroke-width="2" points="469.1,-879.12 472.55,-869.1 463.61,-874.78 469.1,-879.12"/>
</g>
<!-- 5 -->
<g id="node6" class="node">
<title>5</title>
<text text-anchor="start" x="7" y="-1166.9" font-family="sans" font-weight="bold" font-size="18.00">benchmark_permutations</text>
<text text-anchor="start" x="7" y="-1147.75" font-family="sans" font-size="10.00"> &#160;</text>
<text text-anchor="start" x="160" y="-1126.7" font-family="sans" font-size="10.00"> </text>
<text text-anchor="start" x="163" y="-1126.7" font-family="sans" font-weight="bold" font-size="14.00">output →</text>
<text text-anchor="start" x="223" y="-1126.7" font-family="sans" font-size="10.00"> </text>
<text text-anchor="start" x="7" y="-1104.5" font-family="monospace" font-size="10.00">config/benchmark_permutations.csv</text>
<polygon fill="#d0d957" stroke="#d0d957" points="1,-1161.25 1,-1161.25 233,-1161.25 233,-1161.25 1,-1161.25"/>
<polygon fill="#d0d957" stroke="#d0d957" points="1,-1143 1,-1143 233,-1143 233,-1143 1,-1143"/>
<polygon fill="none" stroke="#d0d957" stroke-width="2" points="1,-1095.25 1,-1189 232,-1189 232,-1095.25 1,-1095.25"/>
</g>
<!-- 5&#45;&gt;4 -->
<g id="edge8" class="edge">
<title>5&#45;&gt;4</title>
<path fill="none" stroke="grey" stroke-width="2" d="M193.55,-1094.41C218.39,-1079.35 246.49,-1062.31 273.53,-1045.92"/>
<polygon fill="grey" stroke="grey" stroke-width="2" points="275.31,-1048.93 282.05,-1040.75 271.68,-1042.94 275.31,-1048.93"/>
</g>
<!-- 6 -->
<g id="node7" class="node">
<title>6</title>
<text text-anchor="start" x="312.5" y="-1180.15" font-family="sans" font-weight="bold" font-size="18.00">fipy_permutations</text>
<text text-anchor="start" x="258.5" y="-1158.2" font-family="sans" font-size="10.00"> </text>
<text text-anchor="start" x="261.5" y="-1158.2" font-family="sans" font-weight="bold" font-size="14.00">↪ input</text>
<text text-anchor="start" x="312.5" y="-1158.2" font-family="sans" font-size="10.00"> </text>
<text text-anchor="start" x="258.5" y="-1136" font-family="monospace" font-size="10.00">config/fipy~c246c5c9f/suite_permutations.csv</text>
<text text-anchor="start" x="456.5" y="-1113.45" font-family="sans" font-size="10.00"> </text>
<text text-anchor="start" x="459.5" y="-1113.45" font-family="sans" font-weight="bold" font-size="14.00">output →</text>
<text text-anchor="start" x="519.5" y="-1113.45" font-family="sans" font-size="10.00"> </text>
<text text-anchor="start" x="258.5" y="-1091.25" font-family="monospace" font-size="10.00">config/fipy_permutations.csv</text>
<polygon fill="#68d957" stroke="#68d957" points="252.5,-1174.5 252.5,-1174.5 529.5,-1174.5 529.5,-1174.5 252.5,-1174.5"/>
<polygon fill="#68d957" stroke="#68d957" points="252.5,-1129.75 252.5,-1129.75 529.5,-1129.75 529.5,-1129.75 252.5,-1129.75"/>
<polygon fill="none" stroke="#68d957" stroke-width="2" points="252.5,-1082 252.5,-1202.25 528.5,-1202.25 528.5,-1082 252.5,-1082"/>
</g>
<!-- 6&#45;&gt;4 -->
<g id="edge7" class="edge">
<title>6&#45;&gt;4</title>
<path fill="none" stroke="grey" stroke-width="2" d="M390.5,-1081.15C390.5,-1073.5 390.5,-1065.56 390.5,-1057.63"/>
<polygon fill="grey" stroke="grey" stroke-width="2" points="394,-1057.8 390.5,-1047.8 387,-1057.8 394,-1057.8"/>
</g>
<!-- 7 -->
<g id="node8" class="node">
<title>7</title>
<text text-anchor="start" x="307.62" y="-1338.4" font-family="sans" font-weight="bold" font-size="18.00">suite_permutations</text>
<text text-anchor="start" x="252.5" y="-1316.45" font-family="sans" font-size="10.00"> </text>
<text text-anchor="start" x="255.5" y="-1316.45" font-family="sans" font-weight="bold" font-size="14.00">↪ input</text>
<text text-anchor="start" x="306.5" y="-1316.45" font-family="sans" font-size="10.00"> </text>
<text text-anchor="start" x="252.5" y="-1294.25" font-family="monospace" font-size="10.00">config/fipy~{rev}/suite~petsc/permutations.csv</text>
<text text-anchor="start" x="462.5" y="-1271.7" font-family="sans" font-size="10.00"> </text>
<text text-anchor="start" x="465.5" y="-1271.7" font-family="sans" font-weight="bold" font-size="14.00">output →</text>
<text text-anchor="start" x="525.5" y="-1271.7" font-family="sans" font-size="10.00"> </text>
<text text-anchor="start" x="252.5" y="-1249.5" font-family="monospace" font-size="10.00">config/fipy~{rev}/suite_permutations.csv</text>
<polygon fill="#579cd9" stroke="#579cd9" points="246.5,-1332.75 246.5,-1332.75 535.5,-1332.75 535.5,-1332.75 246.5,-1332.75"/>
<polygon fill="#579cd9" stroke="#579cd9" points="246.5,-1288 246.5,-1288 535.5,-1288 535.5,-1288 246.5,-1288"/>
<polygon fill="none" stroke="#579cd9" stroke-width="2" points="246.5,-1240.25 246.5,-1360.5 534.5,-1360.5 534.5,-1240.25 246.5,-1240.25"/>
</g>
<!-- 7&#45;&gt;6 -->
<g id="edge9" class="edge">
<title>7&#45;&gt;6</title>
<path fill="none" stroke="grey" stroke-width="2" d="M390.5,-1239.41C390.5,-1231.8 390.5,-1223.95 390.5,-1216.17"/>
<polygon fill="grey" stroke="grey" stroke-width="2" points="394,-1216.21 390.5,-1206.21 387,-1216.21 394,-1216.21"/>
</g>
<!-- 8 -->
<g id="node9" class="node">
<title>8</title>
<text text-anchor="start" x="234.12" y="-1516.4" font-family="sans" font-weight="bold" font-size="18.00">solver_preconditioner_permutations</text>
<text text-anchor="start" x="231.5" y="-1494.45" font-family="sans" font-size="10.00"> </text>
<text text-anchor="start" x="234.5" y="-1494.45" font-family="sans" font-weight="bold" font-size="14.00">↪ input</text>
<text text-anchor="start" x="285.5" y="-1494.45" font-family="sans" font-size="10.00"> </text>
<text text-anchor="start" x="231.5" y="-1472.25" font-family="monospace" font-size="10.00">results/fipy~{rev}/suite~{suite}/preconditioners.json</text>
<text text-anchor="start" x="231.5" y="-1452.5" font-family="monospace" font-size="10.00">results/fipy~{rev}/suite~{suite}/solvers.json</text>
<text text-anchor="start" x="483.5" y="-1429.95" font-family="sans" font-size="10.00"> </text>
<text text-anchor="start" x="486.5" y="-1429.95" font-family="sans" font-weight="bold" font-size="14.00">output →</text>
<text text-anchor="start" x="546.5" y="-1429.95" font-family="sans" font-size="10.00"> </text>
<text text-anchor="start" x="231.5" y="-1407.75" font-family="monospace" font-size="10.00">config/fipy~{rev}/suite~{suite}/permutations.csv</text>
<polygon fill="#57bfd9" stroke="#57bfd9" points="225.5,-1510.75 225.5,-1510.75 556.5,-1510.75 556.5,-1510.75 225.5,-1510.75"/>
<polygon fill="#57bfd9" stroke="#57bfd9" points="225.5,-1446.25 225.5,-1446.25 556.5,-1446.25 556.5,-1446.25 225.5,-1446.25"/>
<polygon fill="none" stroke="#57bfd9" stroke-width="2" points="225.5,-1398.5 225.5,-1538.5 555.5,-1538.5 555.5,-1398.5 225.5,-1398.5"/>
</g>
<!-- 8&#45;&gt;7 -->
<g id="edge10" class="edge">
<title>8&#45;&gt;7</title>
<path fill="none" stroke="grey" stroke-width="2" d="M390.5,-1397.53C390.5,-1389.8 390.5,-1381.92 390.5,-1374.16"/>
<polygon fill="grey" stroke="grey" stroke-width="2" points="394,-1374.3 390.5,-1364.3 387,-1374.3 394,-1374.3"/>
</g>
<!-- 9 -->
<g id="node10" class="node">
<title>9</title>
<text text-anchor="start" x="267.88" y="-1667.9" font-family="sans" font-weight="bold" font-size="18.00">get_solvers_preconditioners</text>
<text text-anchor="start" x="231.5" y="-1648.75" font-family="sans" font-size="10.00"> &#160;</text>
<text text-anchor="start" x="483.5" y="-1627.7" font-family="sans" font-size="10.00"> </text>
<text text-anchor="start" x="486.5" y="-1627.7" font-family="sans" font-weight="bold" font-size="14.00">output →</text>
<text text-anchor="start" x="546.5" y="-1627.7" font-family="sans" font-size="10.00"> </text>
<text text-anchor="start" x="231.5" y="-1605.5" font-family="monospace" font-size="10.00">results/fipy~{rev}/suite~{suite}/preconditioners.json</text>
<text text-anchor="start" x="231.5" y="-1585.75" font-family="monospace" font-size="10.00">results/fipy~{rev}/suite~{suite}/solvers.json</text>
<polygon fill="#57d968" stroke="#57d968" points="225.5,-1662.25 225.5,-1662.25 556.5,-1662.25 556.5,-1662.25 225.5,-1662.25"/>
<polygon fill="#57d968" stroke="#57d968" points="225.5,-1644 225.5,-1644 556.5,-1644 556.5,-1644 225.5,-1644"/>
<polygon fill="none" stroke="#57d968" stroke-width="2" points="225.5,-1576.5 225.5,-1690 555.5,-1690 555.5,-1576.5 225.5,-1576.5"/>
</g>
<!-- 9&#45;&gt;8 -->
<g id="edge11" class="edge">
<title>9&#45;&gt;8</title>
<path fill="none" stroke="grey" stroke-width="2" d="M390.5,-1575.78C390.5,-1568.16 390.5,-1560.22 390.5,-1552.26"/>
<polygon fill="grey" stroke="grey" stroke-width="2" points="394,-1552.37 390.5,-1542.37 387,-1552.37 394,-1552.37"/>
</g>
<!-- 10 -->
<g id="node11" class="node">
<title>10</title>
<text text-anchor="start" x="626.5" y="-1012.02" font-family="sans" font-weight="bold" font-size="18.00">extract_times</text>
<text text-anchor="start" x="536.5" y="-990.08" font-family="sans" font-size="10.00"> </text>
<text text-anchor="start" x="539.5" y="-990.08" font-family="sans" font-weight="bold" font-size="14.00">↪ input</text>
<text text-anchor="start" x="590.5" y="-990.08" font-family="sans" font-size="10.00"> </text>
<text text-anchor="start" x="536.5" y="-967.88" font-family="monospace" font-size="10.00">results/fipy~{rev}/suite~{suite}/{id}/solver.log</text>
<text text-anchor="start" x="764.5" y="-945.33" font-family="sans" font-size="10.00"> </text>
<text text-anchor="start" x="767.5" y="-945.33" font-family="sans" font-weight="bold" font-size="14.00">output →</text>
<text text-anchor="start" x="827.5" y="-945.33" font-family="sans" font-size="10.00"> </text>
<text text-anchor="start" x="536.5" y="-923.12" font-family="monospace" font-size="10.00">results/fipy~{rev}/suite~{suite}/{id}/solver.json</text>
<polygon fill="#8bd957" stroke="#8bd957" points="530.5,-1006.38 530.5,-1006.38 837.5,-1006.38 837.5,-1006.38 530.5,-1006.38"/>
<polygon fill="#8bd957" stroke="#8bd957" points="530.5,-961.62 530.5,-961.62 837.5,-961.62 837.5,-961.62 530.5,-961.62"/>
<polygon fill="none" stroke="#8bd957" stroke-width="2" points="530.5,-913.88 530.5,-1034.12 836.5,-1034.12 836.5,-913.88 530.5,-913.88"/>
</g>
<!-- 10&#45;&gt;3 -->
<g id="edge5" class="edge">
<title>10&#45;&gt;3</title>
<path fill="none" stroke="grey" stroke-width="2" d="M630.93,-912.92C620.69,-901.22 609.8,-888.77 599.1,-876.55"/>
<polygon fill="grey" stroke="grey" stroke-width="2" points="601.8,-874.31 592.58,-869.09 596.53,-878.92 601.8,-874.31"/>
</g>
<!-- 11 -->
<g id="node12" class="node">
<title>11</title>
<text text-anchor="start" x="675.62" y="-1180.15" font-family="sans" font-weight="bold" font-size="18.00">solve</text>
<text text-anchor="start" x="554.5" y="-1158.2" font-family="sans" font-size="10.00"> </text>
<text text-anchor="start" x="557.5" y="-1158.2" font-family="sans" font-weight="bold" font-size="14.00">↪ input</text>
<text text-anchor="start" x="608.5" y="-1158.2" font-family="sans" font-size="10.00"> </text>
<text text-anchor="start" x="554.5" y="-1136" font-family="monospace" font-size="10.00">results/fipy~{rev}/suite~{suite}/environment.yml</text>
<text text-anchor="start" x="776.5" y="-1113.45" font-family="sans" font-size="10.00"> </text>
<text text-anchor="start" x="779.5" y="-1113.45" font-family="sans" font-weight="bold" font-size="14.00">output →</text>
<text text-anchor="start" x="839.5" y="-1113.45" font-family="sans" font-size="10.00"> </text>
<text text-anchor="start" x="554.5" y="-1091.25" font-family="monospace" font-size="10.00">results/fipy~{rev}/suite~{suite}/{id}/solver.log</text>
<polygon fill="#57d9d0" stroke="#57d9d0" points="548.5,-1174.5 548.5,-1174.5 849.5,-1174.5 849.5,-1174.5 548.5,-1174.5"/>
<polygon fill="#57d9d0" stroke="#57d9d0" points="548.5,-1129.75 548.5,-1129.75 849.5,-1129.75 849.5,-1129.75 548.5,-1129.75"/>
<polygon fill="none" stroke="#57d9d0" stroke-width="2" points="548.5,-1082 548.5,-1202.25 848.5,-1202.25 848.5,-1082 548.5,-1082"/>
</g>
<!-- 11&#45;&gt;10 -->
<g id="edge12" class="edge">
<title>11&#45;&gt;10</title>
<path fill="none" stroke="grey" stroke-width="2" d="M693.08,-1081.15C692.11,-1070.33 691.08,-1058.94 690.07,-1047.8"/>
<polygon fill="grey" stroke="grey" stroke-width="2" points="693.56,-1047.55 689.18,-1037.9 686.59,-1048.18 693.56,-1047.55"/>
</g>
<!-- 12 -->
<g id="node13" class="node">
<title>12</title>
<text text-anchor="start" x="763.62" y="-1338.4" font-family="sans" font-weight="bold" font-size="18.00">render_conda_template</text>
<text text-anchor="start" x="720.5" y="-1316.45" font-family="sans" font-size="10.00"> </text>
<text text-anchor="start" x="723.5" y="-1316.45" font-family="sans" font-weight="bold" font-size="14.00">↪ input</text>
<text text-anchor="start" x="774.5" y="-1316.45" font-family="sans" font-size="10.00"> </text>
<text text-anchor="start" x="720.5" y="-1294.25" font-family="monospace" font-size="10.00">workflow/envs/benchmark_{suite}.yml</text>
<text text-anchor="start" x="942.5" y="-1271.7" font-family="sans" font-size="10.00"> </text>
<text text-anchor="start" x="945.5" y="-1271.7" font-family="sans" font-weight="bold" font-size="14.00">output →</text>
<text text-anchor="start" x="1005.5" y="-1271.7" font-family="sans" font-size="10.00"> </text>
<text text-anchor="start" x="720.5" y="-1249.5" font-family="monospace" font-size="10.00">results/fipy~{rev}/suite~{suite}/environment.yml</text>
<polygon fill="#57d9ad" stroke="#57d9ad" points="714.5,-1332.75 714.5,-1332.75 1015.5,-1332.75 1015.5,-1332.75 714.5,-1332.75"/>
<polygon fill="#57d9ad" stroke="#57d9ad" points="714.5,-1288 714.5,-1288 1015.5,-1288 1015.5,-1288 714.5,-1288"/>
<polygon fill="none" stroke="#57d9ad" stroke-width="2" points="714.5,-1240.25 714.5,-1360.5 1014.5,-1360.5 1014.5,-1240.25 714.5,-1240.25"/>
</g>
<!-- 12&#45;&gt;11 -->
<g id="edge13" class="edge">
<title>12&#45;&gt;11</title>
<path fill="none" stroke="grey" stroke-width="2" d="M800.79,-1239.41C791.23,-1230.41 781.31,-1221.07 771.57,-1211.9"/>
<polygon fill="grey" stroke="grey" stroke-width="2" points="774.19,-1209.57 764.51,-1205.26 769.4,-1214.66 774.19,-1209.57"/>
</g>
<!-- 14 -->
<g id="node15" class="node">
<title>14</title>
<text text-anchor="start" x="982.88" y="-1166.9" font-family="sans" font-weight="bold" font-size="18.00">bootstrap</text>
<text text-anchor="start" x="874.5" y="-1144.95" font-family="sans" font-size="10.00"> </text>
<text text-anchor="start" x="877.5" y="-1144.95" font-family="sans" font-weight="bold" font-size="14.00">↪ input</text>
<text text-anchor="start" x="928.5" y="-1144.95" font-family="sans" font-size="10.00"> </text>
<text text-anchor="start" x="874.5" y="-1122.75" font-family="monospace" font-size="10.00">results/fipy~c246c5c9f/suite~petsc/environment.yml</text>
<text text-anchor="start" x="1168.5" y="-1103" font-family="sans" font-size="10.00"> &#160;</text>
<polygon fill="#add957" stroke="#add957" points="868.5,-1161.25 868.5,-1161.25 1181.5,-1161.25 1181.5,-1161.25 868.5,-1161.25"/>
<polygon fill="#add957" stroke="#add957" points="868.5,-1116.5 868.5,-1116.5 1181.5,-1116.5 1181.5,-1116.5 868.5,-1116.5"/>
<polygon fill="none" stroke="#add957" stroke-width="2" points="868.5,-1095.25 868.5,-1189 1180.5,-1189 1180.5,-1095.25 868.5,-1095.25"/>
</g>
<!-- 12&#45;&gt;14 -->
<g id="edge15" class="edge">
<title>12&#45;&gt;14</title>
<path fill="none" stroke="grey" stroke-width="2" d="M925.9,-1239.41C939.58,-1226.06 954.02,-1211.95 967.51,-1198.78"/>
<polygon fill="grey" stroke="grey" stroke-width="2" points="969.8,-1201.43 974.51,-1191.94 964.91,-1196.42 969.8,-1201.43"/>
</g>
<!-- 13&#45;&gt;0 -->
<g id="edge1" class="edge">
<title>13&#45;&gt;0</title>
<path fill="none" stroke="grey" stroke-width="2" d="M579.63,-191.16C576,-182.99 572.32,-174.73 568.69,-166.58"/>
<polygon fill="grey" stroke="grey" stroke-width="2" points="571.92,-165.22 564.66,-157.51 565.53,-168.07 571.92,-165.22"/>
</g>
</g>
</svg>
