<?xml version="1.0" encoding="UTF-8" standalone="no"?>
<!DOCTYPE svg PUBLIC "-//W3C//DTD SVG 1.1//EN"
 "http://www.w3.org/Graphics/SVG/1.1/DTD/svg11.dtd">
<!-- Generated by graphviz version 11.0.0 (0)
 -->
<!-- Title: snakemake_dag Pages: 1 -->
<svg width="237pt" height="908pt"
 viewBox="0.00 0.00 237.00 908.00" xmlns="http://www.w3.org/2000/svg" xmlns:xlink="http://www.w3.org/1999/xlink">
<g id="graph0" class="graph" transform="scale(1 1) rotate(0) translate(4 904)">
<title>snakemake_dag</title>
<polygon fill="white" stroke="none" points="-4,4 -4,-904 233,-904 233,4 -4,4"/>
<!-- 0 -->
<g id="node1" class="node">
<title>0</title>
<polygon fill="none" stroke="#d89556" stroke-width="2" points="161,-180 97,-180 97,-144 161,-144 161,-180"/>
<polyline fill="none" stroke="#d89556" stroke-width="2" points="109,-180 97,-168"/>
<polyline fill="none" stroke="#d89556" stroke-width="2" points="97,-156 109,-144"/>
<polyline fill="none" stroke="#d89556" stroke-width="2" points="149,-144 161,-156"/>
<polyline fill="none" stroke="#d89556" stroke-width="2" points="161,-168 149,-180"/>
<text text-anchor="middle" x="129" y="-158.12" font-family="sans" font-size="10.00">total_times</text>
</g>
<!-- 8 -->
<g id="node9" class="node">
<title>8</title>
<path fill="none" stroke="#b6d856" stroke-width="2" d="M144,-36C144,-36 114,-36 114,-36 108,-36 102,-30 102,-24 102,-24 102,-12 102,-12 102,-6 108,0 114,0 114,0 144,0 144,0 150,0 156,-6 156,-12 156,-12 156,-24 156,-24 156,-30 150,-36 144,-36"/>
<text text-anchor="middle" x="129" y="-14.12" font-family="sans" font-size="10.00">all</text>
</g>
<!-- 0&#45;&gt;8 -->
<g id="edge12" class="edge">
<title>0&#45;&gt;8</title>
<path fill="none" stroke="grey" stroke-width="2" stroke-dasharray="1,5" d="M121.33,-143.22C117.39,-133.11 113,-120.08 111,-108 108.39,-92.21 108.39,-87.79 111,-72 112.26,-64.36 114.49,-56.33 116.95,-48.91"/>
<polygon fill="grey" stroke="grey" stroke-width="2" points="120.19,-50.22 120.3,-39.62 113.61,-47.84 120.19,-50.22"/>
</g>
<!-- 13 -->
<g id="node14" class="node">
<title>13</title>
<path fill="none" stroke="red" stroke-width="2" d="M201.62,-108C201.62,-108 132.38,-108 132.38,-108 126.38,-108 120.38,-102 120.38,-96 120.38,-96 120.38,-84 120.38,-84 120.38,-78 126.38,-72 132.38,-72 132.38,-72 201.62,-72 201.62,-72 207.62,-72 213.62,-78 213.62,-84 213.62,-84 213.62,-96 213.62,-96 213.62,-102 207.62,-108 201.62,-108"/>
<text text-anchor="middle" x="167" y="-86.12" font-family="sans" font-size="10.00">plot_permutations</text>
</g>
<!-- 0&#45;&gt;13 -->
<g id="edge19" class="edge">
<title>0&#45;&gt;13</title>
<path fill="none" stroke="grey" stroke-width="2" d="M138.59,-143.34C142.39,-136.34 146.85,-128.12 151.11,-120.28"/>
<polygon fill="grey" stroke="grey" stroke-width="2" points="154.14,-122.02 155.84,-111.56 147.99,-118.68 154.14,-122.02"/>
</g>
<!-- 1 -->
<g id="node2" class="node">
<title>1</title>
<polygon fill="none" stroke="#d6d856" stroke-width="2" points="195.62,-540 60.38,-540 60.38,-504 195.62,-504 195.62,-540"/>
<polyline fill="none" stroke="#d6d856" stroke-width="2" points="72.38,-540 60.38,-528"/>
<polyline fill="none" stroke="#d6d856" stroke-width="2" points="60.38,-516 72.38,-504"/>
<polyline fill="none" stroke="#d6d856" stroke-width="2" points="183.62,-504 195.62,-516"/>
<polyline fill="none" stroke="#d6d856" stroke-width="2" points="195.62,-528 183.62,-540"/>
<text text-anchor="middle" x="128" y="-518.12" font-family="sans" font-size="10.00">aggregate_param_sweeps2</text>
</g>
<!-- 9 -->
<g id="node10" class="node">
<title>9</title>
<path fill="none" stroke="#569ad8" stroke-width="2" d="M163.62,-252C163.62,-252 94.38,-252 94.38,-252 88.38,-252 82.38,-246 82.38,-240 82.38,-240 82.38,-228 82.38,-228 82.38,-222 88.38,-216 94.38,-216 94.38,-216 163.62,-216 163.62,-216 169.62,-216 175.62,-222 175.62,-228 175.62,-228 175.62,-240 175.62,-240 175.62,-246 169.62,-252 163.62,-252"/>
<text text-anchor="middle" x="129" y="-230.12" font-family="sans" font-size="10.00">aggregate_results</text>
</g>
<!-- 1&#45;&gt;9 -->
<g id="edge20" class="edge">
<title>1&#45;&gt;9</title>
<path fill="none" stroke="grey" stroke-width="2" stroke-dasharray="1,5" d="M122.46,-503.05C119.6,-492.88 116.43,-479.85 115,-468 105.4,-388.58 104.7,-367.33 115,-288 115.97,-280.57 117.66,-272.69 119.55,-265.35"/>
<polygon fill="grey" stroke="grey" stroke-width="2" points="122.89,-266.41 122.21,-255.84 116.14,-264.52 122.89,-266.41"/>
</g>
<!-- 12 -->
<g id="node13" class="node">
<title>12</title>
<path fill="none" stroke="red" stroke-width="2" d="M183.75,-468C183.75,-468 136.25,-468 136.25,-468 130.25,-468 124.25,-462 124.25,-456 124.25,-456 124.25,-444 124.25,-444 124.25,-438 130.25,-432 136.25,-432 136.25,-432 183.75,-432 183.75,-432 189.75,-432 195.75,-438 195.75,-444 195.75,-444 195.75,-456 195.75,-456 195.75,-462 189.75,-468 183.75,-468"/>
<text text-anchor="middle" x="160" y="-446.12" font-family="sans" font-size="10.00">make_config</text>
</g>
<!-- 1&#45;&gt;12 -->
<g id="edge13" class="edge">
<title>1&#45;&gt;12</title>
<path fill="none" stroke="grey" stroke-width="2" d="M136.07,-503.34C139.23,-496.43 142.94,-488.31 146.49,-480.56"/>
<polygon fill="grey" stroke="grey" stroke-width="2" points="149.58,-482.2 150.56,-471.65 143.22,-479.29 149.58,-482.2"/>
</g>
<!-- 2 -->
<g id="node3" class="node">
<title>2</title>
<path fill="none" stroke="#567bd8" stroke-width="2" d="M181,-612C181,-612 75,-612 75,-612 69,-612 63,-606 63,-600 63,-600 63,-588 63,-588 63,-582 69,-576 75,-576 75,-576 181,-576 181,-576 187,-576 193,-582 193,-588 193,-588 193,-600 193,-600 193,-606 187,-612 181,-612"/>
<text text-anchor="middle" x="128" y="-590.12" font-family="sans" font-size="10.00">aggregate_param_sweeps</text>
</g>
<!-- 2&#45;&gt;1 -->
<g id="edge2" class="edge">
<title>2&#45;&gt;1</title>
<path fill="none" stroke="grey" stroke-width="2" d="M128,-575.34C128,-568.75 128,-561.08 128,-553.67"/>
<polygon fill="grey" stroke="grey" stroke-width="2" points="131.5,-553.93 128,-543.93 124.5,-553.93 131.5,-553.93"/>
</g>
<!-- 3 -->
<g id="node4" class="node">
<title>3</title>
<polygon fill="none" stroke="#56d87b" stroke-width="2" points="174.25,-900 81.75,-900 81.75,-864 174.25,-864 174.25,-900"/>
<polyline fill="none" stroke="#56d87b" stroke-width="2" points="93.75,-900 81.75,-888"/>
<polyline fill="none" stroke="#56d87b" stroke-width="2" points="81.75,-876 93.75,-864"/>
<polyline fill="none" stroke="#56d87b" stroke-width="2" points="162.25,-864 174.25,-876"/>
<polyline fill="none" stroke="#56d87b" stroke-width="2" points="174.25,-888 162.25,-900"/>
<text text-anchor="middle" x="128" y="-878.12" font-family="sans" font-size="10.00">make_conda_env</text>
</g>
<!-- 4 -->
<g id="node5" class="node">
<title>4</title>
<polygon fill="none" stroke="#d87556" stroke-width="2" points="159.62,-828 96.38,-828 96.38,-792 159.62,-792 159.62,-828"/>
<polyline fill="none" stroke="#d87556" stroke-width="2" points="108.38,-828 96.38,-816"/>
<polyline fill="none" stroke="#d87556" stroke-width="2" points="96.38,-804 108.38,-792"/>
<polyline fill="none" stroke="#d87556" stroke-width="2" points="147.62,-792 159.62,-804"/>
<polyline fill="none" stroke="#d87556" stroke-width="2" points="159.62,-816 147.62,-828"/>
<text text-anchor="middle" x="128" y="-806.12" font-family="sans" font-size="10.00">clone_repo</text>
</g>
<!-- 3&#45;&gt;4 -->
<g id="edge4" class="edge">
<title>3&#45;&gt;4</title>
<path fill="none" stroke="grey" stroke-width="2" d="M128,-863.34C128,-856.75 128,-849.08 128,-841.67"/>
<polygon fill="grey" stroke="grey" stroke-width="2" points="131.5,-841.93 128,-831.93 124.5,-841.93 131.5,-841.93"/>
</g>
<!-- 5 -->
<g id="node6" class="node">
<title>5</title>
<polygon fill="none" stroke="#59d856" stroke-width="2" points="100,-756 0,-756 0,-720 100,-720 100,-756"/>
<polyline fill="none" stroke="#59d856" stroke-width="2" points="12,-756 0,-744"/>
<polyline fill="none" stroke="#59d856" stroke-width="2" points="0,-732 12,-720"/>
<polyline fill="none" stroke="#59d856" stroke-width="2" points="88,-720 100,-732"/>
<polyline fill="none" stroke="#59d856" stroke-width="2" points="100,-744 88,-756"/>
<text text-anchor="middle" x="50" y="-734.12" font-family="sans" font-size="10.00">list_preconditioners</text>
</g>
<!-- 3&#45;&gt;5 -->
<g id="edge5" class="edge">
<title>3&#45;&gt;5</title>
<path fill="none" stroke="grey" stroke-width="2" d="M112.32,-863.21C104.09,-853.3 94.25,-840.47 87,-828 76.1,-809.23 66.74,-786.63 60.17,-768.9"/>
<polygon fill="grey" stroke="grey" stroke-width="2" points="63.49,-767.79 56.82,-759.55 56.9,-770.15 63.49,-767.79"/>
</g>
<!-- 6 -->
<g id="node7" class="node">
<title>6</title>
<polygon fill="none" stroke="#56d8b9" stroke-width="2" points="221.75,-756 156.25,-756 156.25,-720 221.75,-720 221.75,-756"/>
<polyline fill="none" stroke="#56d8b9" stroke-width="2" points="168.25,-756 156.25,-744"/>
<polyline fill="none" stroke="#56d8b9" stroke-width="2" points="156.25,-732 168.25,-720"/>
<polyline fill="none" stroke="#56d8b9" stroke-width="2" points="209.75,-720 221.75,-732"/>
<polyline fill="none" stroke="#56d8b9" stroke-width="2" points="221.75,-744 209.75,-756"/>
<text text-anchor="middle" x="189" y="-734.12" font-family="sans" font-size="10.00">list_solvers</text>
</g>
<!-- 3&#45;&gt;6 -->
<g id="edge7" class="edge">
<title>3&#45;&gt;6</title>
<path fill="none" stroke="grey" stroke-width="2" d="M144.97,-863.19C153.36,-853.48 162.96,-840.84 169,-828 177.66,-809.59 182.67,-787.25 185.5,-769.55"/>
<polygon fill="grey" stroke="grey" stroke-width="2" points="188.95,-770.19 186.88,-759.79 182.02,-769.2 188.95,-770.19"/>
</g>
<!-- 4&#45;&gt;5 -->
<g id="edge6" class="edge">
<title>4&#45;&gt;5</title>
<path fill="none" stroke="grey" stroke-width="2" d="M108.32,-791.34C99.61,-783.52 89.18,-774.16 79.57,-765.53"/>
<polygon fill="grey" stroke="grey" stroke-width="2" points="81.98,-763 72.2,-758.92 77.31,-768.21 81.98,-763"/>
</g>
<!-- 4&#45;&gt;6 -->
<g id="edge8" class="edge">
<title>4&#45;&gt;6</title>
<path fill="none" stroke="grey" stroke-width="2" d="M143.39,-791.34C149.92,-783.85 157.67,-774.95 164.92,-766.63"/>
<polygon fill="grey" stroke="grey" stroke-width="2" points="167.48,-769.02 171.41,-759.18 162.2,-764.42 167.48,-769.02"/>
</g>
<!-- 7 -->
<g id="node8" class="node">
<title>7</title>
<polygon fill="none" stroke="#d8b456" stroke-width="2" points="176.88,-684 79.12,-684 79.12,-648 176.88,-648 176.88,-684"/>
<polyline fill="none" stroke="#d8b456" stroke-width="2" points="91.12,-684 79.12,-672"/>
<polyline fill="none" stroke="#d8b456" stroke-width="2" points="79.12,-660 91.12,-648"/>
<polyline fill="none" stroke="#d8b456" stroke-width="2" points="164.88,-648 176.88,-660"/>
<polyline fill="none" stroke="#d8b456" stroke-width="2" points="176.88,-672 164.88,-684"/>
<text text-anchor="middle" x="128" y="-662.12" font-family="sans" font-size="10.00">add_param_sweep</text>
</g>
<!-- 4&#45;&gt;7 -->
<g id="edge11" class="edge">
<title>4&#45;&gt;7</title>
<path fill="none" stroke="grey" stroke-width="2" d="M128,-791.02C128,-767.54 128,-726.11 128,-697.64"/>
<polygon fill="grey" stroke="grey" stroke-width="2" points="131.5,-697.87 128,-687.87 124.5,-697.87 131.5,-697.87"/>
</g>
<!-- 5&#45;&gt;7 -->
<g id="edge9" class="edge">
<title>5&#45;&gt;7</title>
<path fill="none" stroke="grey" stroke-width="2" d="M69.68,-719.34C78.39,-711.52 88.82,-702.16 98.43,-693.53"/>
<polygon fill="grey" stroke="grey" stroke-width="2" points="100.69,-696.21 105.8,-686.92 96.02,-691 100.69,-696.21"/>
</g>
<!-- 6&#45;&gt;7 -->
<g id="edge10" class="edge">
<title>6&#45;&gt;7</title>
<path fill="none" stroke="grey" stroke-width="2" d="M173.61,-719.34C167.08,-711.85 159.33,-702.95 152.08,-694.63"/>
<polygon fill="grey" stroke="grey" stroke-width="2" points="154.8,-692.42 145.59,-687.18 149.52,-697.02 154.8,-692.42"/>
</g>
<!-- 7&#45;&gt;2 -->
<g id="edge3" class="edge">
<title>7&#45;&gt;2</title>
<path fill="none" stroke="grey" stroke-width="2" d="M128,-647.34C128,-640.75 128,-633.08 128,-625.67"/>
<polygon fill="grey" stroke="grey" stroke-width="2" points="131.5,-625.93 128,-615.93 124.5,-625.93 131.5,-625.93"/>
</g>
<!-- 9&#45;&gt;0 -->
<g id="edge1" class="edge">
<title>9&#45;&gt;0</title>
<path fill="none" stroke="grey" stroke-width="2" d="M129,-215.34C129,-208.75 129,-201.08 129,-193.67"/>
<polygon fill="grey" stroke="grey" stroke-width="2" points="132.5,-193.93 129,-183.93 125.5,-193.93 132.5,-193.93"/>
</g>
<!-- 10 -->
<g id="node11" class="node">
<title>10</title>
<path fill="none" stroke="red" stroke-width="2" d="M187.62,-324C187.62,-324 136.38,-324 136.38,-324 130.38,-324 124.38,-318 124.38,-312 124.38,-312 124.38,-300 124.38,-300 124.38,-294 130.38,-288 136.38,-288 136.38,-288 187.62,-288 187.62,-288 193.62,-288 199.62,-294 199.62,-300 199.62,-300 199.62,-312 199.62,-312 199.62,-318 193.62,-324 187.62,-324"/>
<text text-anchor="middle" x="162" y="-302.12" font-family="sans" font-size="10.00">extract_times</text>
</g>
<!-- 10&#45;&gt;9 -->
<g id="edge14" class="edge">
<title>10&#45;&gt;9</title>
<path fill="none" stroke="grey" stroke-width="2" d="M153.67,-287.34C150.41,-280.43 146.59,-272.31 142.93,-264.56"/>
<polygon fill="grey" stroke="grey" stroke-width="2" points="146.16,-263.19 138.73,-255.64 139.83,-266.18 146.16,-263.19"/>
</g>
<!-- 11 -->
<g id="node12" class="node">
<title>11</title>
<path fill="none" stroke="red" stroke-width="2" d="M217,-396C217,-396 187,-396 187,-396 181,-396 175,-390 175,-384 175,-384 175,-372 175,-372 175,-366 181,-360 187,-360 187,-360 217,-360 217,-360 223,-360 229,-366 229,-372 229,-372 229,-384 229,-384 229,-390 223,-396 217,-396"/>
<text text-anchor="middle" x="202" y="-374.12" font-family="sans" font-size="10.00">solve</text>
</g>
<!-- 11&#45;&gt;10 -->
<g id="edge15" class="edge">
<title>11&#45;&gt;10</title>
<path fill="none" stroke="grey" stroke-width="2" d="M191.91,-359.34C187.86,-352.26 183.1,-343.92 178.57,-336"/>
<polygon fill="grey" stroke="grey" stroke-width="2" points="181.73,-334.48 173.73,-327.53 175.65,-337.95 181.73,-334.48"/>
</g>
<!-- 12&#45;&gt;10 -->
<g id="edge17" class="edge">
<title>12&#45;&gt;10</title>
<path fill="none" stroke="grey" stroke-width="2" d="M160.25,-431.02C160.58,-407.54 161.17,-366.11 161.57,-337.64"/>
<polygon fill="grey" stroke="grey" stroke-width="2" points="165.06,-337.91 161.71,-327.87 158.07,-337.81 165.06,-337.91"/>
</g>
<!-- 12&#45;&gt;11 -->
<g id="edge16" class="edge">
<title>12&#45;&gt;11</title>
<path fill="none" stroke="grey" stroke-width="2" d="M170.6,-431.34C174.84,-424.26 179.85,-415.92 184.6,-408"/>
<polygon fill="grey" stroke="grey" stroke-width="2" points="187.56,-409.87 189.7,-399.5 181.56,-406.27 187.56,-409.87"/>
</g>
<!-- 13&#45;&gt;8 -->
<g id="edge18" class="edge">
<title>13&#45;&gt;8</title>
<path fill="none" stroke="grey" stroke-width="2" d="M157.41,-71.34C153.61,-64.34 149.15,-56.12 144.89,-48.28"/>
<polygon fill="grey" stroke="grey" stroke-width="2" points="148.01,-46.68 140.16,-39.56 141.86,-50.02 148.01,-46.68"/>
</g>
</g>
</svg>
