<?xml version="1.0" encoding="UTF-8" standalone="no"?>
<!DOCTYPE svg PUBLIC "-//W3C//DTD SVG 1.1//EN"
 "http://www.w3.org/Graphics/SVG/1.1/DTD/svg11.dtd">
<!-- Generated by graphviz version 11.0.0 (0)
 -->
<!-- Title: snakemake_dag Pages: 1 -->
<svg width="334pt" height="836pt"
 viewBox="0.00 0.00 334.25 836.00" xmlns="http://www.w3.org/2000/svg" xmlns:xlink="http://www.w3.org/1999/xlink">
<g id="graph0" class="graph" transform="scale(1 1) rotate(0) translate(4 832)">
<title>snakemake_dag</title>
<polygon fill="white" stroke="none" points="-4,4 -4,-832 330.25,-832 330.25,4 -4,4"/>
<!-- 0 -->
<g id="node1" class="node">
<title>0</title>
<path fill="none" stroke="#56c9d8" stroke-width="2" d="M44.5,-684C44.5,-684 12,-684 12,-684 6,-684 0,-678 0,-672 0,-672 0,-660 0,-660 0,-654 6,-648 12,-648 12,-648 44.5,-648 44.5,-648 50.5,-648 56.5,-654 56.5,-660 56.5,-660 56.5,-672 56.5,-672 56.5,-678 50.5,-684 44.5,-684"/>
<text text-anchor="middle" x="28.25" y="-662.12" font-family="sans" font-size="10.00">bootstrap</text>
</g>
<!-- 1 -->
<g id="node2" class="node">
<title>1</title>
<path fill="none" stroke="#9fd856" stroke-width="2" d="M202.5,-756C202.5,-756 134,-756 134,-756 128,-756 122,-750 122,-744 122,-744 122,-732 122,-732 122,-726 128,-720 134,-720 134,-720 202.5,-720 202.5,-720 208.5,-720 214.5,-726 214.5,-732 214.5,-732 214.5,-744 214.5,-744 214.5,-750 208.5,-756 202.5,-756"/>
<text text-anchor="middle" x="168.25" y="-734.12" font-family="sans" font-size="10.00">make_conda_env</text>
</g>
<!-- 1&#45;&gt;0 -->
<g id="edge1" class="edge">
<title>1&#45;&gt;0</title>
<path fill="none" stroke="grey" stroke-width="2" d="M132.56,-719.15C113.15,-709.45 89.06,-697.4 68.92,-687.34"/>
<polygon fill="grey" stroke="grey" stroke-width="2" points="70.5,-684.21 59.99,-682.87 67.37,-690.47 70.5,-684.21"/>
</g>
<!-- 6 -->
<g id="node7" class="node">
<title>6</title>
<path fill="none" stroke="#56a2d8" stroke-width="2" d="M162.25,-684C162.25,-684 86.25,-684 86.25,-684 80.25,-684 74.25,-678 74.25,-672 74.25,-672 74.25,-660 74.25,-660 74.25,-654 80.25,-648 86.25,-648 86.25,-648 162.25,-648 162.25,-648 168.25,-648 174.25,-654 174.25,-660 174.25,-660 174.25,-672 174.25,-672 174.25,-678 168.25,-684 162.25,-684"/>
<text text-anchor="middle" x="124.25" y="-662.12" font-family="sans" font-size="10.00">list_preconditioners</text>
</g>
<!-- 1&#45;&gt;6 -->
<g id="edge7" class="edge">
<title>1&#45;&gt;6</title>
<path fill="none" stroke="grey" stroke-width="2" d="M157.15,-719.34C152.65,-712.18 147.34,-703.73 142.31,-695.73"/>
<polygon fill="grey" stroke="grey" stroke-width="2" points="145.4,-694.07 137.11,-687.46 139.47,-697.79 145.4,-694.07"/>
</g>
<!-- 7 -->
<g id="node8" class="node">
<title>7</title>
<path fill="none" stroke="#d87d56" stroke-width="2" d="M246,-684C246,-684 204.5,-684 204.5,-684 198.5,-684 192.5,-678 192.5,-672 192.5,-672 192.5,-660 192.5,-660 192.5,-654 198.5,-648 204.5,-648 204.5,-648 246,-648 246,-648 252,-648 258,-654 258,-660 258,-660 258,-672 258,-672 258,-678 252,-684 246,-684"/>
<text text-anchor="middle" x="225.25" y="-662.12" font-family="sans" font-size="10.00">list_solvers</text>
</g>
<!-- 1&#45;&gt;7 -->
<g id="edge8" class="edge">
<title>1&#45;&gt;7</title>
<path fill="none" stroke="grey" stroke-width="2" d="M182.63,-719.34C188.66,-711.93 195.82,-703.14 202.53,-694.9"/>
<polygon fill="grey" stroke="grey" stroke-width="2" points="205.16,-697.21 208.76,-687.25 199.73,-692.79 205.16,-697.21"/>
</g>
<!-- 2 -->
<g id="node3" class="node">
<title>2</title>
<path fill="none" stroke="#78d856" stroke-width="2" d="M224.88,-828C224.88,-828 185.62,-828 185.62,-828 179.62,-828 173.62,-822 173.62,-816 173.62,-816 173.62,-804 173.62,-804 173.62,-798 179.62,-792 185.62,-792 185.62,-792 224.88,-792 224.88,-792 230.88,-792 236.88,-798 236.88,-804 236.88,-804 236.88,-816 236.88,-816 236.88,-822 230.88,-828 224.88,-828"/>
<text text-anchor="middle" x="205.25" y="-806.12" font-family="sans" font-size="10.00">clone_repo</text>
</g>
<!-- 2&#45;&gt;1 -->
<g id="edge2" class="edge">
<title>2&#45;&gt;1</title>
<path fill="none" stroke="grey" stroke-width="2" d="M195.91,-791.34C192.22,-784.34 187.87,-776.12 183.73,-768.28"/>
<polygon fill="grey" stroke="grey" stroke-width="2" points="186.89,-766.78 179.13,-759.58 180.71,-770.05 186.89,-766.78"/>
</g>
<!-- 13 -->
<g id="node14" class="node">
<title>13</title>
<path fill="none" stroke="#56d8a2" stroke-width="2" d="M282.38,-612C282.38,-612 168.12,-612 168.12,-612 162.12,-612 156.12,-606 156.12,-600 156.12,-600 156.12,-588 156.12,-588 156.12,-582 162.12,-576 168.12,-576 168.12,-576 282.38,-576 282.38,-576 288.38,-576 294.38,-582 294.38,-588 294.38,-588 294.38,-600 294.38,-600 294.38,-606 288.38,-612 282.38,-612"/>
<text text-anchor="middle" x="225.25" y="-590.12" font-family="sans" font-size="10.00">rev_and_suite_permutations</text>
</g>
<!-- 2&#45;&gt;13 -->
<g id="edge16" class="edge">
<title>2&#45;&gt;13</title>
<path fill="none" stroke="grey" stroke-width="2" d="M217.3,-791.37C232.45,-768.04 257.63,-725.04 267.25,-684 270.9,-668.42 272.51,-663.11 267.25,-648 264.07,-638.85 258.57,-630.1 252.59,-622.43"/>
<polygon fill="grey" stroke="grey" stroke-width="2" points="255.41,-620.35 246.26,-615.02 250.09,-624.9 255.41,-620.35"/>
</g>
<!-- 3 -->
<g id="node4" class="node">
<title>3</title>
<path fill="none" stroke="#56d8c9" stroke-width="2" d="M241.25,-36C241.25,-36 211.25,-36 211.25,-36 205.25,-36 199.25,-30 199.25,-24 199.25,-24 199.25,-12 199.25,-12 199.25,-6 205.25,0 211.25,0 211.25,0 241.25,0 241.25,0 247.25,0 253.25,-6 253.25,-12 253.25,-12 253.25,-24 253.25,-24 253.25,-30 247.25,-36 241.25,-36"/>
<text text-anchor="middle" x="226.25" y="-14.12" font-family="sans" font-size="10.00">all</text>
</g>
<!-- 4 -->
<g id="node5" class="node">
<title>4</title>
<path fill="none" stroke="#56d87b" stroke-width="2" d="M246.25,-180C246.25,-180 206.25,-180 206.25,-180 200.25,-180 194.25,-174 194.25,-168 194.25,-168 194.25,-156 194.25,-156 194.25,-150 200.25,-144 206.25,-144 206.25,-144 246.25,-144 246.25,-144 252.25,-144 258.25,-150 258.25,-156 258.25,-156 258.25,-168 258.25,-168 258.25,-174 252.25,-180 246.25,-180"/>
<text text-anchor="middle" x="226.25" y="-158.12" font-family="sans" font-size="10.00">total_times</text>
</g>
<!-- 4&#45;&gt;3 -->
<g id="edge3" class="edge">
<title>4&#45;&gt;3</title>
<path fill="none" stroke="grey" stroke-width="2" d="M218.58,-143.22C214.64,-133.11 210.25,-120.08 208.25,-108 205.64,-92.21 205.64,-87.79 208.25,-72 209.51,-64.36 211.74,-56.33 214.2,-48.91"/>
<polygon fill="grey" stroke="grey" stroke-width="2" points="217.44,-50.22 217.55,-39.62 210.86,-47.84 217.44,-50.22"/>
</g>
<!-- 8 -->
<g id="node9" class="node">
<title>8</title>
<path fill="none" stroke="#d8a456" stroke-width="2" d="M298.88,-108C298.88,-108 229.62,-108 229.62,-108 223.62,-108 217.62,-102 217.62,-96 217.62,-96 217.62,-84 217.62,-84 217.62,-78 223.62,-72 229.62,-72 229.62,-72 298.88,-72 298.88,-72 304.88,-72 310.88,-78 310.88,-84 310.88,-84 310.88,-96 310.88,-96 310.88,-102 304.88,-108 298.88,-108"/>
<text text-anchor="middle" x="264.25" y="-86.12" font-family="sans" font-size="10.00">plot_permutations</text>
</g>
<!-- 4&#45;&gt;8 -->
<g id="edge9" class="edge">
<title>4&#45;&gt;8</title>
<path fill="none" stroke="grey" stroke-width="2" d="M235.84,-143.34C239.64,-136.34 244.1,-128.12 248.36,-120.28"/>
<polygon fill="grey" stroke="grey" stroke-width="2" points="251.39,-122.02 253.09,-111.56 245.24,-118.68 251.39,-122.02"/>
</g>
<!-- 5 -->
<g id="node6" class="node">
<title>5</title>
<path fill="none" stroke="#d8c356" stroke-width="2" d="M273.38,-540C273.38,-540 177.12,-540 177.12,-540 171.12,-540 165.12,-534 165.12,-528 165.12,-528 165.12,-516 165.12,-516 165.12,-510 171.12,-504 177.12,-504 177.12,-504 273.38,-504 273.38,-504 279.38,-504 285.38,-510 285.38,-516 285.38,-516 285.38,-528 285.38,-528 285.38,-534 279.38,-540 273.38,-540"/>
<text text-anchor="middle" x="225.25" y="-518.12" font-family="sans" font-size="10.00">aggregate_permutations</text>
</g>
<!-- 9 -->
<g id="node10" class="node">
<title>9</title>
<path fill="none" stroke="#c6d856" stroke-width="2" d="M260.88,-252C260.88,-252 191.62,-252 191.62,-252 185.62,-252 179.62,-246 179.62,-240 179.62,-240 179.62,-228 179.62,-228 179.62,-222 185.62,-216 191.62,-216 191.62,-216 260.88,-216 260.88,-216 266.88,-216 272.88,-222 272.88,-228 272.88,-228 272.88,-240 272.88,-240 272.88,-246 266.88,-252 260.88,-252"/>
<text text-anchor="middle" x="226.25" y="-230.12" font-family="sans" font-size="10.00">aggregate_results</text>
</g>
<!-- 5&#45;&gt;9 -->
<g id="edge10" class="edge">
<title>5&#45;&gt;9</title>
<path fill="none" stroke="grey" stroke-width="2" d="M219.71,-503.05C216.85,-492.88 213.68,-479.85 212.25,-468 202.65,-388.58 201.95,-367.33 212.25,-288 213.22,-280.57 214.91,-272.69 216.8,-265.35"/>
<polygon fill="grey" stroke="grey" stroke-width="2" points="220.14,-266.41 219.46,-255.84 213.39,-264.52 220.14,-266.41"/>
</g>
<!-- 12 -->
<g id="node13" class="node">
<title>12</title>
<path fill="none" stroke="#59d856" stroke-width="2" d="M281,-468C281,-468 233.5,-468 233.5,-468 227.5,-468 221.5,-462 221.5,-456 221.5,-456 221.5,-444 221.5,-444 221.5,-438 227.5,-432 233.5,-432 233.5,-432 281,-432 281,-432 287,-432 293,-438 293,-444 293,-444 293,-456 293,-456 293,-462 287,-468 281,-468"/>
<text text-anchor="middle" x="257.25" y="-446.12" font-family="sans" font-size="10.00">make_config</text>
</g>
<!-- 5&#45;&gt;12 -->
<g id="edge15" class="edge">
<title>5&#45;&gt;12</title>
<path fill="none" stroke="grey" stroke-width="2" d="M233.32,-503.34C236.48,-496.43 240.19,-488.31 243.74,-480.56"/>
<polygon fill="grey" stroke="grey" stroke-width="2" points="246.83,-482.2 247.81,-471.65 240.47,-479.29 246.83,-482.2"/>
</g>
<!-- 6&#45;&gt;13 -->
<g id="edge17" class="edge">
<title>6&#45;&gt;13</title>
<path fill="none" stroke="grey" stroke-width="2" d="M150,-647.15C161.87,-638.93 176.17,-629.02 189.09,-620.06"/>
<polygon fill="grey" stroke="grey" stroke-width="2" points="190.84,-623.11 197.06,-614.54 186.85,-617.36 190.84,-623.11"/>
</g>
<!-- 7&#45;&gt;13 -->
<g id="edge18" class="edge">
<title>7&#45;&gt;13</title>
<path fill="none" stroke="grey" stroke-width="2" d="M225.25,-647.34C225.25,-640.75 225.25,-633.08 225.25,-625.67"/>
<polygon fill="grey" stroke="grey" stroke-width="2" points="228.75,-625.93 225.25,-615.93 221.75,-625.93 228.75,-625.93"/>
</g>
<!-- 8&#45;&gt;3 -->
<g id="edge4" class="edge">
<title>8&#45;&gt;3</title>
<path fill="none" stroke="grey" stroke-width="2" d="M254.66,-71.34C250.86,-64.34 246.4,-56.12 242.14,-48.28"/>
<polygon fill="grey" stroke="grey" stroke-width="2" points="245.26,-46.68 237.41,-39.56 239.11,-50.02 245.26,-46.68"/>
</g>
<!-- 9&#45;&gt;4 -->
<g id="edge5" class="edge">
<title>9&#45;&gt;4</title>
<path fill="none" stroke="grey" stroke-width="2" d="M226.25,-215.34C226.25,-208.75 226.25,-201.08 226.25,-193.67"/>
<polygon fill="grey" stroke="grey" stroke-width="2" points="229.75,-193.93 226.25,-183.93 222.75,-193.93 229.75,-193.93"/>
</g>
<!-- 10 -->
<g id="node11" class="node">
<title>10</title>
<path fill="none" stroke="#567bd8" stroke-width="2" d="M284.88,-324C284.88,-324 233.62,-324 233.62,-324 227.62,-324 221.62,-318 221.62,-312 221.62,-312 221.62,-300 221.62,-300 221.62,-294 227.62,-288 233.62,-288 233.62,-288 284.88,-288 284.88,-288 290.88,-288 296.88,-294 296.88,-300 296.88,-300 296.88,-312 296.88,-312 296.88,-318 290.88,-324 284.88,-324"/>
<text text-anchor="middle" x="259.25" y="-302.12" font-family="sans" font-size="10.00">extract_times</text>
</g>
<!-- 10&#45;&gt;9 -->
<g id="edge11" class="edge">
<title>10&#45;&gt;9</title>
<path fill="none" stroke="grey" stroke-width="2" d="M250.92,-287.34C247.66,-280.43 243.84,-272.31 240.18,-264.56"/>
<polygon fill="grey" stroke="grey" stroke-width="2" points="243.41,-263.19 235.98,-255.64 237.08,-266.18 243.41,-263.19"/>
</g>
<!-- 11 -->
<g id="node12" class="node">
<title>11</title>
<path fill="none" stroke="#d85656" stroke-width="2" d="M314.25,-396C314.25,-396 284.25,-396 284.25,-396 278.25,-396 272.25,-390 272.25,-384 272.25,-384 272.25,-372 272.25,-372 272.25,-366 278.25,-360 284.25,-360 284.25,-360 314.25,-360 314.25,-360 320.25,-360 326.25,-366 326.25,-372 326.25,-372 326.25,-384 326.25,-384 326.25,-390 320.25,-396 314.25,-396"/>
<text text-anchor="middle" x="299.25" y="-374.12" font-family="sans" font-size="10.00">solve</text>
</g>
<!-- 11&#45;&gt;10 -->
<g id="edge12" class="edge">
<title>11&#45;&gt;10</title>
<path fill="none" stroke="grey" stroke-width="2" d="M289.16,-359.34C285.11,-352.26 280.35,-343.92 275.82,-336"/>
<polygon fill="grey" stroke="grey" stroke-width="2" points="278.98,-334.48 270.98,-327.53 272.9,-337.95 278.98,-334.48"/>
</g>
<!-- 12&#45;&gt;10 -->
<g id="edge13" class="edge">
<title>12&#45;&gt;10</title>
<path fill="none" stroke="grey" stroke-width="2" d="M257.5,-431.02C257.83,-407.54 258.42,-366.11 258.82,-337.64"/>
<polygon fill="grey" stroke="grey" stroke-width="2" points="262.31,-337.91 258.96,-327.87 255.32,-337.81 262.31,-337.91"/>
</g>
<!-- 12&#45;&gt;11 -->
<g id="edge14" class="edge">
<title>12&#45;&gt;11</title>
<path fill="none" stroke="grey" stroke-width="2" d="M267.85,-431.34C272.09,-424.26 277.1,-415.92 281.85,-408"/>
<polygon fill="grey" stroke="grey" stroke-width="2" points="284.81,-409.87 286.95,-399.5 278.81,-406.27 284.81,-409.87"/>
</g>
<!-- 13&#45;&gt;5 -->
<g id="edge6" class="edge">
<title>13&#45;&gt;5</title>
<path fill="none" stroke="grey" stroke-width="2" d="M225.25,-575.34C225.25,-568.75 225.25,-561.08 225.25,-553.67"/>
<polygon fill="grey" stroke="grey" stroke-width="2" points="228.75,-553.93 225.25,-543.93 221.75,-553.93 228.75,-553.93"/>
</g>
</g>
</svg>
