<?xml version="1.0" encoding="UTF-8" standalone="no"?>
<!DOCTYPE svg PUBLIC "-//W3C//DTD SVG 1.1//EN"
 "http://www.w3.org/Graphics/SVG/1.1/DTD/svg11.dtd">
<!-- Generated by graphviz version 11.0.0 (0)
 -->
<!-- Title: snakemake_dag Pages: 1 -->
<svg width="193pt" height="548pt"
 viewBox="0.00 0.00 192.62 548.00" xmlns="http://www.w3.org/2000/svg" xmlns:xlink="http://www.w3.org/1999/xlink">
<g id="graph0" class="graph" transform="scale(1 1) rotate(0) translate(4 544)">
<title>snakemake_dag</title>
<polygon fill="white" stroke="none" points="-4,4 -4,-544 188.62,-544 188.62,4 -4,4"/>
<!-- 0 -->
<g id="node1" class="node">
<title>0</title>
<path fill="none" stroke="#d6d856" stroke-width="2" d="M115,-36C115,-36 85,-36 85,-36 79,-36 73,-30 73,-24 73,-24 73,-12 73,-12 73,-6 79,0 85,0 85,0 115,0 115,0 121,0 127,-6 127,-12 127,-12 127,-24 127,-24 127,-30 121,-36 115,-36"/>
<text text-anchor="middle" x="100" y="-14.12" font-family="sans" font-size="10.00">all</text>
</g>
<!-- 1 -->
<g id="node2" class="node">
<title>1</title>
<path fill="none" stroke="#56d8a9" stroke-width="2" d="M120,-180C120,-180 80,-180 80,-180 74,-180 68,-174 68,-168 68,-168 68,-156 68,-156 68,-150 74,-144 80,-144 80,-144 120,-144 120,-144 126,-144 132,-150 132,-156 132,-156 132,-168 132,-168 132,-174 126,-180 120,-180"/>
<text text-anchor="middle" x="100" y="-158.12" font-family="sans" font-size="10.00">total_times</text>
</g>
<!-- 1&#45;&gt;0 -->
<g id="edge2" class="edge">
<title>1&#45;&gt;0</title>
<path fill="none" stroke="grey" stroke-width="2" d="M92.33,-143.22C88.39,-133.11 84,-120.08 82,-108 79.39,-92.21 79.39,-87.79 82,-72 83.26,-64.36 85.49,-56.33 87.95,-48.91"/>
<polygon fill="grey" stroke="grey" stroke-width="2" points="91.19,-50.22 91.3,-39.62 84.61,-47.84 91.19,-50.22"/>
</g>
<!-- 5 -->
<g id="node6" class="node">
<title>5</title>
<path fill="none" stroke="#d85656" stroke-width="2" d="M172.62,-108C172.62,-108 103.38,-108 103.38,-108 97.38,-108 91.38,-102 91.38,-96 91.38,-96 91.38,-84 91.38,-84 91.38,-78 97.38,-72 103.38,-72 103.38,-72 172.62,-72 172.62,-72 178.62,-72 184.62,-78 184.62,-84 184.62,-84 184.62,-96 184.62,-96 184.62,-102 178.62,-108 172.62,-108"/>
<text text-anchor="middle" x="138" y="-86.12" font-family="sans" font-size="10.00">plot_permutations</text>
</g>
<!-- 1&#45;&gt;5 -->
<g id="edge7" class="edge">
<title>1&#45;&gt;5</title>
<path fill="none" stroke="grey" stroke-width="2" d="M109.59,-143.34C113.39,-136.34 117.85,-128.12 122.11,-120.28"/>
<polygon fill="grey" stroke="grey" stroke-width="2" points="125.14,-122.02 126.84,-111.56 118.99,-118.68 125.14,-122.02"/>
</g>
<!-- 2 -->
<g id="node3" class="node">
<title>2</title>
<path fill="none" stroke="#5682d8" stroke-width="2" d="M148.12,-324C148.12,-324 51.88,-324 51.88,-324 45.88,-324 39.88,-318 39.88,-312 39.88,-312 39.88,-300 39.88,-300 39.88,-294 45.88,-288 51.88,-288 51.88,-288 148.12,-288 148.12,-288 154.12,-288 160.12,-294 160.12,-300 160.12,-300 160.12,-312 160.12,-312 160.12,-318 154.12,-324 148.12,-324"/>
<text text-anchor="middle" x="100" y="-302.12" font-family="sans" font-size="10.00">aggregate_permutations</text>
</g>
<!-- 8 -->
<g id="node9" class="node">
<title>8</title>
<path fill="none" stroke="#56d882" stroke-width="2" d="M134.62,-252C134.62,-252 65.38,-252 65.38,-252 59.38,-252 53.38,-246 53.38,-240 53.38,-240 53.38,-228 53.38,-228 53.38,-222 59.38,-216 65.38,-216 65.38,-216 134.62,-216 134.62,-216 140.62,-216 146.62,-222 146.62,-228 146.62,-228 146.62,-240 146.62,-240 146.62,-246 140.62,-252 134.62,-252"/>
<text text-anchor="middle" x="100" y="-230.12" font-family="sans" font-size="10.00">aggregate_results</text>
</g>
<!-- 2&#45;&gt;8 -->
<g id="edge10" class="edge">
<title>2&#45;&gt;8</title>
<path fill="none" stroke="grey" stroke-width="2" d="M100,-287.34C100,-280.75 100,-273.08 100,-265.67"/>
<polygon fill="grey" stroke="grey" stroke-width="2" points="103.5,-265.93 100,-255.93 96.5,-265.93 103.5,-265.93"/>
</g>
<!-- 3 -->
<g id="node4" class="node">
<title>3</title>
<path fill="none" stroke="#59d856" stroke-width="2" d="M157.12,-396C157.12,-396 42.88,-396 42.88,-396 36.88,-396 30.88,-390 30.88,-384 30.88,-384 30.88,-372 30.88,-372 30.88,-366 36.88,-360 42.88,-360 42.88,-360 157.12,-360 157.12,-360 163.12,-360 169.12,-366 169.12,-372 169.12,-372 169.12,-384 169.12,-384 169.12,-390 163.12,-396 157.12,-396"/>
<text text-anchor="middle" x="100" y="-374.12" font-family="sans" font-size="10.00">rev_and_suite_permutations</text>
</g>
<!-- 3&#45;&gt;2 -->
<g id="edge4" class="edge">
<title>3&#45;&gt;2</title>
<path fill="none" stroke="grey" stroke-width="2" d="M100,-359.34C100,-352.75 100,-345.08 100,-337.67"/>
<polygon fill="grey" stroke="grey" stroke-width="2" points="103.5,-337.93 100,-327.93 96.5,-337.93 103.5,-337.93"/>
</g>
<!-- 4 -->
<g id="node5" class="node">
<title>4</title>
<path fill="none" stroke="#80d856" stroke-width="2" d="M146.62,-540C146.62,-540 53.38,-540 53.38,-540 47.38,-540 41.38,-534 41.38,-528 41.38,-528 41.38,-516 41.38,-516 41.38,-510 47.38,-504 53.38,-504 53.38,-504 146.62,-504 146.62,-504 152.62,-504 158.62,-510 158.62,-516 158.62,-516 158.62,-528 158.62,-528 158.62,-534 152.62,-540 146.62,-540"/>
<text text-anchor="middle" x="100" y="-518.12" font-family="sans" font-size="10.00">render_conda_template</text>
</g>
<!-- 6 -->
<g id="node7" class="node">
<title>6</title>
<path fill="none" stroke="#d88556" stroke-width="2" d="M88,-468C88,-468 12,-468 12,-468 6,-468 0,-462 0,-456 0,-456 0,-444 0,-444 0,-438 6,-432 12,-432 12,-432 88,-432 88,-432 94,-432 100,-438 100,-444 100,-444 100,-456 100,-456 100,-462 94,-468 88,-468"/>
<text text-anchor="middle" x="50" y="-446.12" font-family="sans" font-size="10.00">list_preconditioners</text>
</g>
<!-- 4&#45;&gt;6 -->
<g id="edge8" class="edge">
<title>4&#45;&gt;6</title>
<path fill="none" stroke="grey" stroke-width="2" d="M87.38,-503.34C82.21,-496.1 76.09,-487.53 70.32,-479.45"/>
<polygon fill="grey" stroke="grey" stroke-width="2" points="73.21,-477.47 64.55,-471.37 67.51,-481.54 73.21,-477.47"/>
</g>
<!-- 7 -->
<g id="node8" class="node">
<title>7</title>
<path fill="none" stroke="#d8ac56" stroke-width="2" d="M171.75,-468C171.75,-468 130.25,-468 130.25,-468 124.25,-468 118.25,-462 118.25,-456 118.25,-456 118.25,-444 118.25,-444 118.25,-438 124.25,-432 130.25,-432 130.25,-432 171.75,-432 171.75,-432 177.75,-432 183.75,-438 183.75,-444 183.75,-444 183.75,-456 183.75,-456 183.75,-462 177.75,-468 171.75,-468"/>
<text text-anchor="middle" x="151" y="-446.12" font-family="sans" font-size="10.00">list_solvers</text>
</g>
<!-- 4&#45;&gt;7 -->
<g id="edge9" class="edge">
<title>4&#45;&gt;7</title>
<path fill="none" stroke="grey" stroke-width="2" d="M112.87,-503.34C118.2,-496.01 124.53,-487.34 130.47,-479.18"/>
<polygon fill="grey" stroke="grey" stroke-width="2" points="133.11,-481.49 136.17,-471.35 127.46,-477.37 133.11,-481.49"/>
</g>
<!-- 5&#45;&gt;0 -->
<g id="edge1" class="edge">
<title>5&#45;&gt;0</title>
<path fill="none" stroke="grey" stroke-width="2" d="M128.41,-71.34C124.61,-64.34 120.15,-56.12 115.89,-48.28"/>
<polygon fill="grey" stroke="grey" stroke-width="2" points="119.01,-46.68 111.16,-39.56 112.86,-50.02 119.01,-46.68"/>
</g>
<!-- 6&#45;&gt;3 -->
<g id="edge5" class="edge">
<title>6&#45;&gt;3</title>
<path fill="none" stroke="grey" stroke-width="2" d="M62.62,-431.34C67.79,-424.1 73.91,-415.53 79.68,-407.45"/>
<polygon fill="grey" stroke="grey" stroke-width="2" points="82.49,-409.54 85.45,-399.37 76.79,-405.47 82.49,-409.54"/>
</g>
<!-- 7&#45;&gt;3 -->
<g id="edge6" class="edge">
<title>7&#45;&gt;3</title>
<path fill="none" stroke="grey" stroke-width="2" d="M138.13,-431.34C132.8,-424.01 126.47,-415.34 120.53,-407.18"/>
<polygon fill="grey" stroke="grey" stroke-width="2" points="123.54,-405.37 114.83,-399.35 117.89,-409.49 123.54,-405.37"/>
</g>
<!-- 8&#45;&gt;1 -->
<g id="edge3" class="edge">
<title>8&#45;&gt;1</title>
<path fill="none" stroke="grey" stroke-width="2" d="M100,-215.34C100,-208.75 100,-201.08 100,-193.67"/>
<polygon fill="grey" stroke="grey" stroke-width="2" points="103.5,-193.93 100,-183.93 96.5,-193.93 103.5,-193.93"/>
</g>
</g>
</svg>
