<?xml version="1.0" encoding="UTF-8" standalone="no"?>
<!DOCTYPE svg PUBLIC "-//W3C//DTD SVG 1.1//EN"
 "http://www.w3.org/Graphics/SVG/1.1/DTD/svg11.dtd">
<!-- Generated by graphviz version 11.0.0 (0)
 -->
<!-- Title: snakemake_dag Pages: 1 -->
<svg width="291pt" height="980pt"
 viewBox="0.00 0.00 290.62 980.00" xmlns="http://www.w3.org/2000/svg" xmlns:xlink="http://www.w3.org/1999/xlink">
<g id="graph0" class="graph" transform="scale(1 1) rotate(0) translate(4 976)">
<title>snakemake_dag</title>
<polygon fill="white" stroke="none" points="-4,4 -4,-976 286.62,-976 286.62,4 -4,4"/>
<!-- 0 -->
<g id="node1" class="node">
<title>0</title>
<path fill="none" stroke="#97d856" stroke-width="2" d="M96.88,-540C96.88,-540 64.38,-540 64.38,-540 58.38,-540 52.38,-534 52.38,-528 52.38,-528 52.38,-516 52.38,-516 52.38,-510 58.38,-504 64.38,-504 64.38,-504 96.88,-504 96.88,-504 102.88,-504 108.88,-510 108.88,-516 108.88,-516 108.88,-528 108.88,-528 108.88,-534 102.88,-540 96.88,-540"/>
<text text-anchor="middle" x="80.62" y="-518.12" font-family="sans" font-size="10.00">bootstrap</text>
</g>
<!-- 1 -->
<g id="node2" class="node">
<title>1</title>
<path fill="none" stroke="#d85656" stroke-width="2" d="M168.25,-612C168.25,-612 105,-612 105,-612 99,-612 93,-606 93,-600 93,-600 93,-588 93,-588 93,-582 99,-576 105,-576 105,-576 168.25,-576 168.25,-576 174.25,-576 180.25,-582 180.25,-588 180.25,-588 180.25,-600 180.25,-600 180.25,-606 174.25,-612 168.25,-612"/>
<text text-anchor="middle" x="136.62" y="-590.12" font-family="sans" font-size="10.00">all_permutations</text>
</g>
<!-- 1&#45;&gt;0 -->
<g id="edge1" class="edge">
<title>1&#45;&gt;0</title>
<path fill="none" stroke="grey" stroke-width="2" d="M122.49,-575.34C116.57,-567.93 109.54,-559.14 102.95,-550.9"/>
<polygon fill="grey" stroke="grey" stroke-width="2" points="105.82,-548.89 96.84,-543.27 100.35,-553.26 105.82,-548.89"/>
</g>
<!-- 10 -->
<g id="node11" class="node">
<title>10</title>
<path fill="none" stroke="#56d87b" stroke-width="2" d="M204.25,-324C204.25,-324 135,-324 135,-324 129,-324 123,-318 123,-312 123,-312 123,-300 123,-300 123,-294 129,-288 135,-288 135,-288 204.25,-288 204.25,-288 210.25,-288 216.25,-294 216.25,-300 216.25,-300 216.25,-312 216.25,-312 216.25,-318 210.25,-324 204.25,-324"/>
<text text-anchor="middle" x="169.62" y="-302.12" font-family="sans" font-size="10.00">aggregate_results</text>
</g>
<!-- 1&#45;&gt;10 -->
<g id="edge11" class="edge">
<title>1&#45;&gt;10</title>
<path fill="none" stroke="grey" stroke-width="2" d="M137.01,-575.03C138.09,-535.76 142.01,-439.4 155.62,-360 156.89,-352.61 158.7,-344.76 160.61,-337.42"/>
<polygon fill="grey" stroke="grey" stroke-width="2" points="163.95,-338.47 163.23,-327.9 157.2,-336.61 163.95,-338.47"/>
</g>
<!-- 12 -->
<g id="node13" class="node">
<title>12</title>
<path fill="none" stroke="#567bd8" stroke-width="2" d="M224.38,-540C224.38,-540 176.88,-540 176.88,-540 170.88,-540 164.88,-534 164.88,-528 164.88,-528 164.88,-516 164.88,-516 164.88,-510 170.88,-504 176.88,-504 176.88,-504 224.38,-504 224.38,-504 230.38,-504 236.38,-510 236.38,-516 236.38,-516 236.38,-528 236.38,-528 236.38,-534 230.38,-540 224.38,-540"/>
<text text-anchor="middle" x="200.62" y="-518.12" font-family="sans" font-size="10.00">make_config</text>
</g>
<!-- 1&#45;&gt;12 -->
<g id="edge15" class="edge">
<title>1&#45;&gt;12</title>
<path fill="none" stroke="grey" stroke-width="2" d="M152.77,-575.34C159.69,-567.77 167.94,-558.75 175.62,-550.35"/>
<polygon fill="grey" stroke="grey" stroke-width="2" points="178.05,-552.88 182.22,-543.14 172.88,-548.15 178.05,-552.88"/>
</g>
<!-- 2 -->
<g id="node3" class="node">
<title>2</title>
<path fill="none" stroke="#56d8b9" stroke-width="2" d="M224.38,-684C224.38,-684 122.88,-684 122.88,-684 116.88,-684 110.88,-678 110.88,-672 110.88,-672 110.88,-660 110.88,-660 110.88,-654 116.88,-648 122.88,-648 122.88,-648 224.38,-648 224.38,-648 230.38,-648 236.38,-654 236.38,-660 236.38,-660 236.38,-672 236.38,-672 236.38,-678 230.38,-684 224.38,-684"/>
<text text-anchor="middle" x="173.62" y="-662.12" font-family="sans" font-size="10.00">benchmark_permutations</text>
</g>
<!-- 2&#45;&gt;1 -->
<g id="edge2" class="edge">
<title>2&#45;&gt;1</title>
<path fill="none" stroke="grey" stroke-width="2" d="M164.29,-647.34C160.59,-640.34 156.24,-632.12 152.1,-624.28"/>
<polygon fill="grey" stroke="grey" stroke-width="2" points="155.27,-622.78 147.5,-615.58 149.08,-626.05 155.27,-622.78"/>
</g>
<!-- 3 -->
<g id="node4" class="node">
<title>3</title>
<path fill="none" stroke="#59d856" stroke-width="2" d="M81.25,-684C81.25,-684 12,-684 12,-684 6,-684 0,-678 0,-672 0,-672 0,-660 0,-660 0,-654 6,-648 12,-648 12,-648 81.25,-648 81.25,-648 87.25,-648 93.25,-654 93.25,-660 93.25,-660 93.25,-672 93.25,-672 93.25,-678 87.25,-684 81.25,-684"/>
<text text-anchor="middle" x="46.62" y="-662.12" font-family="sans" font-size="10.00">fipy_permutations</text>
</g>
<!-- 3&#45;&gt;1 -->
<g id="edge3" class="edge">
<title>3&#45;&gt;1</title>
<path fill="none" stroke="grey" stroke-width="2" d="M69.34,-647.34C79.7,-639.27 92.18,-629.57 103.56,-620.72"/>
<polygon fill="grey" stroke="grey" stroke-width="2" points="105.47,-623.66 111.22,-614.76 101.18,-618.14 105.47,-623.66"/>
</g>
<!-- 4 -->
<g id="node5" class="node">
<title>4</title>
<path fill="none" stroke="#d89556" stroke-width="2" d="M110.88,-756C110.88,-756 36.38,-756 36.38,-756 30.38,-756 24.37,-750 24.37,-744 24.37,-744 24.37,-732 24.37,-732 24.37,-726 30.37,-720 36.37,-720 36.37,-720 110.88,-720 110.88,-720 116.88,-720 122.88,-726 122.88,-732 122.88,-732 122.88,-744 122.88,-744 122.88,-750 116.88,-756 110.88,-756"/>
<text text-anchor="middle" x="73.62" y="-734.12" font-family="sans" font-size="10.00">suite_permutations</text>
</g>
<!-- 4&#45;&gt;3 -->
<g id="edge4" class="edge">
<title>4&#45;&gt;3</title>
<path fill="none" stroke="grey" stroke-width="2" d="M66.81,-719.34C64.18,-712.51 61.09,-704.5 58.13,-696.83"/>
<polygon fill="grey" stroke="grey" stroke-width="2" points="61.48,-695.8 54.62,-687.73 54.95,-698.32 61.48,-695.8"/>
</g>
<!-- 5 -->
<g id="node6" class="node">
<title>5</title>
<path fill="none" stroke="#56d8d8" stroke-width="2" d="M198.5,-828C198.5,-828 52.75,-828 52.75,-828 46.75,-828 40.75,-822 40.75,-816 40.75,-816 40.75,-804 40.75,-804 40.75,-798 46.75,-792 52.75,-792 52.75,-792 198.5,-792 198.5,-792 204.5,-792 210.5,-798 210.5,-804 210.5,-804 210.5,-816 210.5,-816 210.5,-822 204.5,-828 198.5,-828"/>
<text text-anchor="middle" x="125.62" y="-806.12" font-family="sans" font-size="10.00">solver_preconditioner_permutations</text>
</g>
<!-- 5&#45;&gt;4 -->
<g id="edge5" class="edge">
<title>5&#45;&gt;4</title>
<path fill="none" stroke="grey" stroke-width="2" d="M112.5,-791.34C107.06,-784.01 100.62,-775.34 94.56,-767.18"/>
<polygon fill="grey" stroke="grey" stroke-width="2" points="97.5,-765.27 88.73,-759.33 91.88,-769.45 97.5,-765.27"/>
</g>
<!-- 6 -->
<g id="node7" class="node">
<title>6</title>
<path fill="none" stroke="#56b9d8" stroke-width="2" d="M254.25,-972C254.25,-972 161,-972 161,-972 155,-972 149,-966 149,-960 149,-960 149,-948 149,-948 149,-942 155,-936 161,-936 161,-936 254.25,-936 254.25,-936 260.25,-936 266.25,-942 266.25,-948 266.25,-948 266.25,-960 266.25,-960 266.25,-966 260.25,-972 254.25,-972"/>
<text text-anchor="middle" x="207.62" y="-950.12" font-family="sans" font-size="10.00">render_conda_template</text>
</g>
<!-- 14 -->
<g id="node15" class="node">
<title>14</title>
<path fill="none" stroke="#569ad8" stroke-width="2" d="M216.38,-900C216.38,-900 102.88,-900 102.88,-900 96.88,-900 90.88,-894 90.88,-888 90.88,-888 90.88,-876 90.88,-876 90.88,-870 96.88,-864 102.88,-864 102.88,-864 216.38,-864 216.38,-864 222.38,-864 228.38,-870 228.38,-876 228.38,-876 228.38,-888 228.38,-888 228.38,-894 222.38,-900 216.38,-900"/>
<text text-anchor="middle" x="159.62" y="-878.12" font-family="sans" font-size="10.00">get_solvers_preconditioners</text>
</g>
<!-- 6&#45;&gt;14 -->
<g id="edge17" class="edge">
<title>6&#45;&gt;14</title>
<path fill="none" stroke="grey" stroke-width="2" d="M195.51,-935.34C190.55,-928.1 184.68,-919.53 179.13,-911.45"/>
<polygon fill="grey" stroke="grey" stroke-width="2" points="182.15,-909.67 173.61,-903.4 176.38,-913.62 182.15,-909.67"/>
</g>
<!-- 15 -->
<g id="node16" class="node">
<title>15</title>
<path fill="none" stroke="#56d89a" stroke-width="2" d="M270.62,-468C270.62,-468 240.62,-468 240.62,-468 234.62,-468 228.62,-462 228.62,-456 228.62,-456 228.62,-444 228.62,-444 228.62,-438 234.62,-432 240.62,-432 240.62,-432 270.62,-432 270.62,-432 276.62,-432 282.62,-438 282.62,-444 282.62,-444 282.62,-456 282.62,-456 282.62,-462 276.62,-468 270.62,-468"/>
<text text-anchor="middle" x="255.62" y="-446.12" font-family="sans" font-size="10.00">solve</text>
</g>
<!-- 6&#45;&gt;15 -->
<g id="edge18" class="edge">
<title>6&#45;&gt;15</title>
<path fill="none" stroke="grey" stroke-width="2" d="M219.99,-935.09C236.76,-909.03 264.62,-858.55 264.62,-811 264.62,-811 264.62,-811 264.62,-593 264.62,-554.58 261.3,-510.42 258.69,-481.69"/>
<polygon fill="grey" stroke="grey" stroke-width="2" points="262.2,-481.55 257.77,-471.92 255.23,-482.21 262.2,-481.55"/>
</g>
<!-- 7 -->
<g id="node8" class="node">
<title>7</title>
<path fill="none" stroke="#d6d856" stroke-width="2" d="M184.62,-36C184.62,-36 154.62,-36 154.62,-36 148.62,-36 142.62,-30 142.62,-24 142.62,-24 142.62,-12 142.62,-12 142.62,-6 148.62,0 154.62,0 154.62,0 184.62,0 184.62,0 190.62,0 196.62,-6 196.62,-12 196.62,-12 196.62,-24 196.62,-24 196.62,-30 190.62,-36 184.62,-36"/>
<text text-anchor="middle" x="169.62" y="-14.12" font-family="sans" font-size="10.00">all</text>
</g>
<!-- 8 -->
<g id="node9" class="node">
<title>8</title>
<path fill="none" stroke="#78d856" stroke-width="2" d="M189.62,-180C189.62,-180 149.62,-180 149.62,-180 143.62,-180 137.62,-174 137.62,-168 137.62,-168 137.62,-156 137.62,-156 137.62,-150 143.62,-144 149.62,-144 149.62,-144 189.62,-144 189.62,-144 195.62,-144 201.62,-150 201.62,-156 201.62,-156 201.62,-168 201.62,-168 201.62,-174 195.62,-180 189.62,-180"/>
<text text-anchor="middle" x="169.62" y="-158.12" font-family="sans" font-size="10.00">total_times</text>
</g>
<!-- 8&#45;&gt;7 -->
<g id="edge8" class="edge">
<title>8&#45;&gt;7</title>
<path fill="none" stroke="grey" stroke-width="2" d="M161.96,-143.22C158.01,-133.11 153.62,-120.08 151.62,-108 149.02,-92.21 149.02,-87.79 151.62,-72 152.89,-64.36 155.11,-56.33 157.57,-48.91"/>
<polygon fill="grey" stroke="grey" stroke-width="2" points="160.82,-50.22 160.93,-39.62 154.24,-47.84 160.82,-50.22"/>
</g>
<!-- 13 -->
<g id="node14" class="node">
<title>13</title>
<path fill="none" stroke="#d87556" stroke-width="2" d="M242.25,-108C242.25,-108 173,-108 173,-108 167,-108 161,-102 161,-96 161,-96 161,-84 161,-84 161,-78 167,-72 173,-72 173,-72 242.25,-72 242.25,-72 248.25,-72 254.25,-78 254.25,-84 254.25,-84 254.25,-96 254.25,-96 254.25,-102 248.25,-108 242.25,-108"/>
<text text-anchor="middle" x="207.62" y="-86.12" font-family="sans" font-size="10.00">plot_permutations</text>
</g>
<!-- 8&#45;&gt;13 -->
<g id="edge16" class="edge">
<title>8&#45;&gt;13</title>
<path fill="none" stroke="grey" stroke-width="2" d="M179.21,-143.34C183.01,-136.34 187.48,-128.12 191.73,-120.28"/>
<polygon fill="grey" stroke="grey" stroke-width="2" points="194.77,-122.02 196.46,-111.56 188.62,-118.68 194.77,-122.02"/>
</g>
<!-- 9 -->
<g id="node10" class="node">
<title>9</title>
<path fill="none" stroke="#b6d856" stroke-width="2" d="M211.75,-252C211.75,-252 127.5,-252 127.5,-252 121.5,-252 115.5,-246 115.5,-240 115.5,-240 115.5,-228 115.5,-228 115.5,-222 121.5,-216 127.5,-216 127.5,-216 211.75,-216 211.75,-216 217.75,-216 223.75,-222 223.75,-228 223.75,-228 223.75,-240 223.75,-240 223.75,-246 217.75,-252 211.75,-252"/>
<text text-anchor="middle" x="169.62" y="-230.12" font-family="sans" font-size="10.00">aggregate_all_results</text>
</g>
<!-- 9&#45;&gt;8 -->
<g id="edge9" class="edge">
<title>9&#45;&gt;8</title>
<path fill="none" stroke="grey" stroke-width="2" d="M169.62,-215.34C169.62,-208.75 169.62,-201.08 169.62,-193.67"/>
<polygon fill="grey" stroke="grey" stroke-width="2" points="173.13,-193.93 169.63,-183.93 166.13,-193.93 173.13,-193.93"/>
</g>
<!-- 10&#45;&gt;9 -->
<g id="edge10" class="edge">
<title>10&#45;&gt;9</title>
<path fill="none" stroke="grey" stroke-width="2" d="M169.62,-287.34C169.62,-280.75 169.62,-273.08 169.62,-265.67"/>
<polygon fill="grey" stroke="grey" stroke-width="2" points="173.13,-265.93 169.63,-255.93 166.13,-265.93 173.13,-265.93"/>
</g>
<!-- 11 -->
<g id="node12" class="node">
<title>11</title>
<path fill="none" stroke="#d8b456" stroke-width="2" d="M228.25,-396C228.25,-396 177,-396 177,-396 171,-396 165,-390 165,-384 165,-384 165,-372 165,-372 165,-366 171,-360 177,-360 177,-360 228.25,-360 228.25,-360 234.25,-360 240.25,-366 240.25,-372 240.25,-372 240.25,-384 240.25,-384 240.25,-390 234.25,-396 228.25,-396"/>
<text text-anchor="middle" x="202.62" y="-374.12" font-family="sans" font-size="10.00">extract_times</text>
</g>
<!-- 11&#45;&gt;10 -->
<g id="edge12" class="edge">
<title>11&#45;&gt;10</title>
<path fill="none" stroke="grey" stroke-width="2" d="M194.3,-359.34C191.04,-352.43 187.21,-344.31 183.56,-336.56"/>
<polygon fill="grey" stroke="grey" stroke-width="2" points="186.79,-335.19 179.36,-327.64 180.45,-338.18 186.79,-335.19"/>
</g>
<!-- 12&#45;&gt;11 -->
<g id="edge14" class="edge">
<title>12&#45;&gt;11</title>
<path fill="none" stroke="grey" stroke-width="2" d="M200.88,-503.02C201.21,-479.54 201.79,-438.11 202.19,-409.64"/>
<polygon fill="grey" stroke="grey" stroke-width="2" points="205.69,-409.91 202.33,-399.87 198.69,-409.81 205.69,-409.91"/>
</g>
<!-- 12&#45;&gt;15 -->
<g id="edge19" class="edge">
<title>12&#45;&gt;15</title>
<path fill="none" stroke="grey" stroke-width="2" d="M214.5,-503.34C220.32,-495.93 227.23,-487.14 233.7,-478.9"/>
<polygon fill="grey" stroke="grey" stroke-width="2" points="236.26,-481.31 239.69,-471.28 230.76,-476.98 236.26,-481.31"/>
</g>
<!-- 13&#45;&gt;7 -->
<g id="edge7" class="edge">
<title>13&#45;&gt;7</title>
<path fill="none" stroke="grey" stroke-width="2" d="M198.04,-71.34C194.24,-64.34 189.77,-56.12 185.52,-48.28"/>
<polygon fill="grey" stroke="grey" stroke-width="2" points="188.63,-46.68 180.79,-39.56 182.48,-50.02 188.63,-46.68"/>
</g>
<!-- 14&#45;&gt;5 -->
<g id="edge6" class="edge">
<title>14&#45;&gt;5</title>
<path fill="none" stroke="grey" stroke-width="2" d="M151.05,-863.34C147.69,-856.43 143.75,-848.31 139.98,-840.56"/>
<polygon fill="grey" stroke="grey" stroke-width="2" points="143.16,-839.09 135.64,-831.62 136.86,-842.15 143.16,-839.09"/>
</g>
<!-- 15&#45;&gt;11 -->
<g id="edge13" class="edge">
<title>15&#45;&gt;11</title>
<path fill="none" stroke="grey" stroke-width="2" d="M242.25,-431.34C236.71,-424.01 230.14,-415.34 223.96,-407.18"/>
<polygon fill="grey" stroke="grey" stroke-width="2" points="226.83,-405.18 218.01,-399.32 221.25,-409.4 226.83,-405.18"/>
</g>
</g>
</svg>
