<?xml version="1.0" encoding="UTF-8" standalone="no"?>
<!DOCTYPE svg PUBLIC "-//W3C//DTD SVG 1.1//EN"
 "http://www.w3.org/Graphics/SVG/1.1/DTD/svg11.dtd">
<!-- Generated by graphviz version 11.0.0 (0)
 -->
<!-- Title: snakemake_dag Pages: 1 -->
<svg width="284pt" height="836pt"
 viewBox="0.00 0.00 283.59 836.00" xmlns="http://www.w3.org/2000/svg" xmlns:xlink="http://www.w3.org/1999/xlink">
<g id="graph0" class="graph" transform="scale(1 1) rotate(0) translate(4 832)">
<title>snakemake_dag</title>
<polygon fill="white" stroke="none" points="-4,4 -4,-832 279.59,-832 279.59,4 -4,4"/>
<!-- 0 -->
<g id="node1" class="node">
<title>0</title>
<path fill="none" stroke="#d8a456" stroke-width="2" d="M167,-36C167,-36 137,-36 137,-36 131,-36 125,-30 125,-24 125,-24 125,-12 125,-12 125,-6 131,0 137,0 137,0 167,0 167,0 173,0 179,-6 179,-12 179,-12 179,-24 179,-24 179,-30 173,-36 167,-36"/>
<text text-anchor="middle" x="152" y="-14.12" font-family="sans" font-size="10.00">all</text>
</g>
<!-- 1 -->
<g id="node2" class="node">
<title>1</title>
<path fill="none" stroke="#d85656" stroke-width="2" d="M172,-180C172,-180 132,-180 132,-180 126,-180 120,-174 120,-168 120,-168 120,-156 120,-156 120,-150 126,-144 132,-144 132,-144 172,-144 172,-144 178,-144 184,-150 184,-156 184,-156 184,-168 184,-168 184,-174 178,-180 172,-180"/>
<text text-anchor="middle" x="152" y="-158.12" font-family="sans" font-size="10.00">total_times</text>
</g>
<!-- 1&#45;&gt;0 -->
<g id="edge1" class="edge">
<title>1&#45;&gt;0</title>
<path fill="none" stroke="grey" stroke-width="2" d="M144.33,-143.22C140.39,-133.11 136,-120.08 134,-108 131.39,-92.21 131.39,-87.79 134,-72 135.26,-64.36 137.49,-56.33 139.95,-48.91"/>
<polygon fill="grey" stroke="grey" stroke-width="2" points="143.19,-50.22 143.3,-39.62 136.61,-47.84 143.19,-50.22"/>
</g>
<!-- 7 -->
<g id="node8" class="node">
<title>7</title>
<path fill="none" stroke="#d8c356" stroke-width="2" d="M224.62,-108C224.62,-108 155.38,-108 155.38,-108 149.38,-108 143.38,-102 143.38,-96 143.38,-96 143.38,-84 143.38,-84 143.38,-78 149.38,-72 155.38,-72 155.38,-72 224.62,-72 224.62,-72 230.62,-72 236.62,-78 236.62,-84 236.62,-84 236.62,-96 236.62,-96 236.62,-102 230.62,-108 224.62,-108"/>
<text text-anchor="middle" x="190" y="-86.12" font-family="sans" font-size="10.00">plot_permutations</text>
</g>
<!-- 1&#45;&gt;7 -->
<g id="edge8" class="edge">
<title>1&#45;&gt;7</title>
<path fill="none" stroke="grey" stroke-width="2" d="M161.59,-143.34C165.39,-136.34 169.85,-128.12 174.11,-120.28"/>
<polygon fill="grey" stroke="grey" stroke-width="2" points="177.14,-122.02 178.84,-111.56 170.99,-118.68 177.14,-122.02"/>
</g>
<!-- 2 -->
<g id="node3" class="node">
<title>2</title>
<path fill="none" stroke="#56d8a2" stroke-width="2" d="M199.12,-540C199.12,-540 102.88,-540 102.88,-540 96.88,-540 90.88,-534 90.88,-528 90.88,-528 90.88,-516 90.88,-516 90.88,-510 96.88,-504 102.88,-504 102.88,-504 199.12,-504 199.12,-504 205.12,-504 211.12,-510 211.12,-516 211.12,-516 211.12,-528 211.12,-528 211.12,-534 205.12,-540 199.12,-540"/>
<text text-anchor="middle" x="151" y="-518.12" font-family="sans" font-size="10.00">aggregate_permutations</text>
</g>
<!-- 9 -->
<g id="node10" class="node">
<title>9</title>
<path fill="none" stroke="#56d8c9" stroke-width="2" d="M186.62,-252C186.62,-252 117.38,-252 117.38,-252 111.38,-252 105.38,-246 105.38,-240 105.38,-240 105.38,-228 105.38,-228 105.38,-222 111.38,-216 117.38,-216 117.38,-216 186.62,-216 186.62,-216 192.62,-216 198.62,-222 198.62,-228 198.62,-228 198.62,-240 198.62,-240 198.62,-246 192.62,-252 186.62,-252"/>
<text text-anchor="middle" x="152" y="-230.12" font-family="sans" font-size="10.00">aggregate_results</text>
</g>
<!-- 2&#45;&gt;9 -->
<g id="edge10" class="edge">
<title>2&#45;&gt;9</title>
<path fill="none" stroke="grey" stroke-width="2" d="M145.46,-503.05C142.6,-492.88 139.43,-479.85 138,-468 128.4,-388.58 127.7,-367.33 138,-288 138.97,-280.57 140.66,-272.69 142.55,-265.35"/>
<polygon fill="grey" stroke="grey" stroke-width="2" points="145.89,-266.41 145.21,-255.84 139.14,-264.52 145.89,-266.41"/>
</g>
<!-- 12 -->
<g id="node13" class="node">
<title>12</title>
<path fill="none" stroke="#56d87b" stroke-width="2" d="M206.75,-468C206.75,-468 159.25,-468 159.25,-468 153.25,-468 147.25,-462 147.25,-456 147.25,-456 147.25,-444 147.25,-444 147.25,-438 153.25,-432 159.25,-432 159.25,-432 206.75,-432 206.75,-432 212.75,-432 218.75,-438 218.75,-444 218.75,-444 218.75,-456 218.75,-456 218.75,-462 212.75,-468 206.75,-468"/>
<text text-anchor="middle" x="183" y="-446.12" font-family="sans" font-size="10.00">make_config</text>
</g>
<!-- 2&#45;&gt;12 -->
<g id="edge15" class="edge">
<title>2&#45;&gt;12</title>
<path fill="none" stroke="grey" stroke-width="2" d="M159.07,-503.34C162.23,-496.43 165.94,-488.31 169.49,-480.56"/>
<polygon fill="grey" stroke="grey" stroke-width="2" points="172.58,-482.2 173.56,-471.65 166.22,-479.29 172.58,-482.2"/>
</g>
<!-- 3 -->
<g id="node4" class="node">
<title>3</title>
<path fill="none" stroke="#d87d56" stroke-width="2" d="M88,-684C88,-684 12,-684 12,-684 6,-684 0,-678 0,-672 0,-672 0,-660 0,-660 0,-654 6,-648 12,-648 12,-648 88,-648 88,-648 94,-648 100,-654 100,-660 100,-660 100,-672 100,-672 100,-678 94,-684 88,-684"/>
<text text-anchor="middle" x="50" y="-662.12" font-family="sans" font-size="10.00">list_preconditioners</text>
</g>
<!-- 13 -->
<g id="node14" class="node">
<title>13</title>
<path fill="none" stroke="#78d856" stroke-width="2" d="M208.12,-612C208.12,-612 93.88,-612 93.88,-612 87.88,-612 81.88,-606 81.88,-600 81.88,-600 81.88,-588 81.88,-588 81.88,-582 87.88,-576 93.88,-576 93.88,-576 208.12,-576 208.12,-576 214.12,-576 220.12,-582 220.12,-588 220.12,-588 220.12,-600 220.12,-600 220.12,-606 214.12,-612 208.12,-612"/>
<text text-anchor="middle" x="151" y="-590.12" font-family="sans" font-size="10.00">rev_and_suite_permutations</text>
</g>
<!-- 3&#45;&gt;13 -->
<g id="edge16" class="edge">
<title>3&#45;&gt;13</title>
<path fill="none" stroke="grey" stroke-width="2" d="M75.75,-647.15C87.62,-638.93 101.92,-629.02 114.84,-620.06"/>
<polygon fill="grey" stroke="grey" stroke-width="2" points="116.59,-623.11 122.81,-614.54 112.6,-617.36 116.59,-623.11"/>
</g>
<!-- 4 -->
<g id="node5" class="node">
<title>4</title>
<path fill="none" stroke="#567bd8" stroke-width="2" d="M215.25,-756C215.25,-756 146.75,-756 146.75,-756 140.75,-756 134.75,-750 134.75,-744 134.75,-744 134.75,-732 134.75,-732 134.75,-726 140.75,-720 146.75,-720 146.75,-720 215.25,-720 215.25,-720 221.25,-720 227.25,-726 227.25,-732 227.25,-732 227.25,-744 227.25,-744 227.25,-750 221.25,-756 215.25,-756"/>
<text text-anchor="middle" x="181" y="-734.12" font-family="sans" font-size="10.00">make_conda_env</text>
</g>
<!-- 4&#45;&gt;3 -->
<g id="edge5" class="edge">
<title>4&#45;&gt;3</title>
<path fill="none" stroke="grey" stroke-width="2" d="M147.6,-719.15C131.44,-710.52 111.8,-700.02 94.39,-690.72"/>
<polygon fill="grey" stroke="grey" stroke-width="2" points="96.47,-687.87 86,-686.24 93.17,-694.04 96.47,-687.87"/>
</g>
<!-- 6 -->
<g id="node7" class="node">
<title>6</title>
<path fill="none" stroke="#c6d856" stroke-width="2" d="M171.75,-684C171.75,-684 130.25,-684 130.25,-684 124.25,-684 118.25,-678 118.25,-672 118.25,-672 118.25,-660 118.25,-660 118.25,-654 124.25,-648 130.25,-648 130.25,-648 171.75,-648 171.75,-648 177.75,-648 183.75,-654 183.75,-660 183.75,-660 183.75,-672 183.75,-672 183.75,-678 177.75,-684 171.75,-684"/>
<text text-anchor="middle" x="151" y="-662.12" font-family="sans" font-size="10.00">list_solvers</text>
</g>
<!-- 4&#45;&gt;6 -->
<g id="edge7" class="edge">
<title>4&#45;&gt;6</title>
<path fill="none" stroke="grey" stroke-width="2" d="M173.43,-719.34C170.5,-712.51 167.07,-704.5 163.79,-696.83"/>
<polygon fill="grey" stroke="grey" stroke-width="2" points="167.02,-695.5 159.86,-687.68 160.59,-698.25 167.02,-695.5"/>
</g>
<!-- 8 -->
<g id="node9" class="node">
<title>8</title>
<path fill="none" stroke="#56c9d8" stroke-width="2" d="M244,-684C244,-684 214,-684 214,-684 208,-684 202,-678 202,-672 202,-672 202,-660 202,-660 202,-654 208,-648 214,-648 214,-648 244,-648 244,-648 250,-648 256,-654 256,-660 256,-660 256,-672 256,-672 256,-678 250,-684 244,-684"/>
<text text-anchor="middle" x="229" y="-662.12" font-family="sans" font-size="10.00">all_envs</text>
</g>
<!-- 4&#45;&gt;8 -->
<g id="edge9" class="edge">
<title>4&#45;&gt;8</title>
<path fill="none" stroke="grey" stroke-width="2" d="M193.11,-719.34C198.08,-712.1 203.95,-703.53 209.49,-695.45"/>
<polygon fill="grey" stroke="grey" stroke-width="2" points="212.24,-697.62 215.01,-687.4 206.47,-693.67 212.24,-697.62"/>
</g>
<!-- 5 -->
<g id="node6" class="node">
<title>5</title>
<path fill="none" stroke="#9fd856" stroke-width="2" d="M237.62,-828C237.62,-828 198.38,-828 198.38,-828 192.38,-828 186.38,-822 186.38,-816 186.38,-816 186.38,-804 186.38,-804 186.38,-798 192.38,-792 198.38,-792 198.38,-792 237.62,-792 237.62,-792 243.62,-792 249.62,-798 249.62,-804 249.62,-804 249.62,-816 249.62,-816 249.62,-822 243.62,-828 237.62,-828"/>
<text text-anchor="middle" x="218" y="-806.12" font-family="sans" font-size="10.00">clone_repo</text>
</g>
<!-- 5&#45;&gt;4 -->
<g id="edge6" class="edge">
<title>5&#45;&gt;4</title>
<path fill="none" stroke="grey" stroke-width="2" d="M208.66,-791.34C204.97,-784.34 200.62,-776.12 196.48,-768.28"/>
<polygon fill="grey" stroke="grey" stroke-width="2" points="199.64,-766.78 191.88,-759.58 193.46,-770.05 199.64,-766.78"/>
</g>
<!-- 5&#45;&gt;13 -->
<g id="edge18" class="edge">
<title>5&#45;&gt;13</title>
<path fill="none" stroke="grey" stroke-width="2" d="M232.05,-791.22C254.87,-760.04 294.6,-694.4 265,-648 257.1,-635.62 245.48,-626.08 232.64,-618.75"/>
<polygon fill="grey" stroke="grey" stroke-width="2" points="234.29,-615.67 223.8,-614.24 231.11,-621.91 234.29,-615.67"/>
</g>
<!-- 6&#45;&gt;13 -->
<g id="edge17" class="edge">
<title>6&#45;&gt;13</title>
<path fill="none" stroke="grey" stroke-width="2" d="M151,-647.34C151,-640.75 151,-633.08 151,-625.67"/>
<polygon fill="grey" stroke="grey" stroke-width="2" points="154.5,-625.93 151,-615.93 147.5,-625.93 154.5,-625.93"/>
</g>
<!-- 7&#45;&gt;0 -->
<g id="edge2" class="edge">
<title>7&#45;&gt;0</title>
<path fill="none" stroke="grey" stroke-width="2" d="M180.41,-71.34C176.61,-64.34 172.15,-56.12 167.89,-48.28"/>
<polygon fill="grey" stroke="grey" stroke-width="2" points="171.01,-46.68 163.16,-39.56 164.86,-50.02 171.01,-46.68"/>
</g>
<!-- 9&#45;&gt;1 -->
<g id="edge3" class="edge">
<title>9&#45;&gt;1</title>
<path fill="none" stroke="grey" stroke-width="2" d="M152,-215.34C152,-208.75 152,-201.08 152,-193.67"/>
<polygon fill="grey" stroke="grey" stroke-width="2" points="155.5,-193.93 152,-183.93 148.5,-193.93 155.5,-193.93"/>
</g>
<!-- 10 -->
<g id="node11" class="node">
<title>10</title>
<path fill="none" stroke="#59d856" stroke-width="2" d="M210.62,-324C210.62,-324 159.38,-324 159.38,-324 153.38,-324 147.38,-318 147.38,-312 147.38,-312 147.38,-300 147.38,-300 147.38,-294 153.38,-288 159.38,-288 159.38,-288 210.62,-288 210.62,-288 216.62,-288 222.62,-294 222.62,-300 222.62,-300 222.62,-312 222.62,-312 222.62,-318 216.62,-324 210.62,-324"/>
<text text-anchor="middle" x="185" y="-302.12" font-family="sans" font-size="10.00">extract_times</text>
</g>
<!-- 10&#45;&gt;9 -->
<g id="edge11" class="edge">
<title>10&#45;&gt;9</title>
<path fill="none" stroke="grey" stroke-width="2" d="M176.67,-287.34C173.41,-280.43 169.59,-272.31 165.93,-264.56"/>
<polygon fill="grey" stroke="grey" stroke-width="2" points="169.16,-263.19 161.73,-255.64 162.83,-266.18 169.16,-263.19"/>
</g>
<!-- 11 -->
<g id="node12" class="node">
<title>11</title>
<path fill="none" stroke="#56a2d8" stroke-width="2" d="M240,-396C240,-396 210,-396 210,-396 204,-396 198,-390 198,-384 198,-384 198,-372 198,-372 198,-366 204,-360 210,-360 210,-360 240,-360 240,-360 246,-360 252,-366 252,-372 252,-372 252,-384 252,-384 252,-390 246,-396 240,-396"/>
<text text-anchor="middle" x="225" y="-374.12" font-family="sans" font-size="10.00">solve</text>
</g>
<!-- 11&#45;&gt;10 -->
<g id="edge13" class="edge">
<title>11&#45;&gt;10</title>
<path fill="none" stroke="grey" stroke-width="2" d="M214.91,-359.34C210.86,-352.26 206.1,-343.92 201.57,-336"/>
<polygon fill="grey" stroke="grey" stroke-width="2" points="204.73,-334.48 196.73,-327.53 198.65,-337.95 204.73,-334.48"/>
</g>
<!-- 12&#45;&gt;10 -->
<g id="edge12" class="edge">
<title>12&#45;&gt;10</title>
<path fill="none" stroke="grey" stroke-width="2" d="M183.25,-431.02C183.58,-407.54 184.17,-366.11 184.57,-337.64"/>
<polygon fill="grey" stroke="grey" stroke-width="2" points="188.06,-337.91 184.71,-327.87 181.07,-337.81 188.06,-337.91"/>
</g>
<!-- 12&#45;&gt;11 -->
<g id="edge14" class="edge">
<title>12&#45;&gt;11</title>
<path fill="none" stroke="grey" stroke-width="2" d="M193.6,-431.34C197.84,-424.26 202.85,-415.92 207.6,-408"/>
<polygon fill="grey" stroke="grey" stroke-width="2" points="210.56,-409.87 212.7,-399.5 204.56,-406.27 210.56,-409.87"/>
</g>
<!-- 13&#45;&gt;2 -->
<g id="edge4" class="edge">
<title>13&#45;&gt;2</title>
<path fill="none" stroke="grey" stroke-width="2" d="M151,-575.34C151,-568.75 151,-561.08 151,-553.67"/>
<polygon fill="grey" stroke="grey" stroke-width="2" points="154.5,-553.93 151,-543.93 147.5,-553.93 154.5,-553.93"/>
</g>
</g>
</svg>
